<svg xmlns="http://www.w3.org/2000/svg" width="544" height="256" viewBox="0 0 408 192">
  <defs/>
  <g fill="#ffdc08">
    <path d="M304.4 7.3c.4-2.1.7-4.3 1.3-6.3-.2 7 4.3 14.6.3 21.2l-1.3-2-1.7 1c-1.7-2.8-.6-6-.9-9.1-.3-3.4 0-6.8.4-10.2 1.6 1.3 1.2 3.6 1.9 5.4zM346.7 17.3c.6.6 2.4 1.4 1.2 2.4-2.1 2.5-2.6 6.2-5.6 7.8-1.6 1.8-3.4 3.4-4.2 5.8-2.4-.4-4.8-1-7.2-.6.7-1.4 1.3-2.9 1.7-4.4l2.6 1.8.2-3.3c3-1.2 5.2-4 6.8-6.7l4.5.7v-3.5zM265 24c1.3.8 2.6 1.3 4 1.5-.4 1-1 1.9-1.5 2.8h3.7c1 3 4.3 4.9 7 6.6l-.4 4.5c-2-.7-4-1.6-5.9-2.5a16.4 16.4 0 00-7.3-5.7c.4-2.4.9-4.7.4-7.1zM279.1 38.5c1.7-.6 2.3 2 .6 2.4-1.6.6-2.2-2-.6-2.4zM301.8 68.8a58 58 0 016.2-3.6c5.8-2 12 1 16 5 2.1 2.6 1.1 5.8 1 8.8.2 4-2.4 7.7-6 9.4-2.6 1-5.3 1.8-8 2.7-1.6-.8-3.7-1.3-4.5-3.2l-1.6 1.6a6.4 6.4 0 00-1.8-3.7l3 2.4c.8-3.5 4.7-4.6 7.8-4.5 1.6-1.6 4-2 5.4-3.5 1.3-3-.2-7-3-8.5-4-1.8-8.6-1.6-11.8 1.5-.3 1.6-.9 3.1-1.8 4.5l1 2-1 1-.9-2.5c-1.3 1-2 2.5-2.2 4.2-3-1-.9-5-1.3-7.3l1.7 1c-1.4-2.4 0-5.4 1.8-7.3zM299.9 100c-.3-3.2 2.7-5.3 5.6-5 .8 1 1.7 1.8 2.8 2.3v2.3c4.2 2.6 8.3 5.3 11.5 9l-.6-5.8c1.7 2.3-.2 7.2 4 7l-1.8 1 .8 4.6c-1.3-.6-3.1-1-2.8-2.8-3 .8-5-2.2-7.4-3.5-1.6-2.1-5.6-1.5-5.6-4.7-2.9-.5-3.7-3.8-6.5-4.5zM298.7 107c1-.9 2.2-1.7 3.4-2.3-.3 2.3-1.7 6.8-4.6 5.8A21 21 0 01293 122c-.9 1.1-1.8 3.6 0 4.3 6.4 1.8 13.2-1.7 19.4 1.2 3.3 1 7 1.8 9 5 3.6 6 .6 13.5 3.8 19.6 0 2-.3 4-1 5.8l-2.8 1.2c-1.5-2.6-3.8-5-3.6-8.2.2-4.4-2.4-8.6-.8-13 .5-3.4-3.1-5.2-6-5.1-6.4 0-12.7-.4-19-.4-2.3-.2-4.9-1.4-5.4-4-1.9-3.9 1.5-7.4 3-10.8 1.1-1.7 4.3-4 .8-5.5l2 .3c1.2-2 2.2-4.1 3.7-6l2.6.5z"/>
  </g>
  <g fill="#9dd85a">
    <path d="M295.2 45.2c5.2-7 15.6-8.9 23.3-5 6.3 3.3 10 9.6 14.5 14.8 5.2 5.5 10 11.5 14.8 17.3a1173 1173 0 0030 37.8c5.4 6.5 9.9 13.6 15.5 19.8l2.6-.8c.4 1.6.6 3.2 1.1 4.7 3.3 4.9 8 8.8 10.6 14.2l.4-.9v1.5l-.4-.4-1.5 2c-4.5 1-9.3.7-14 .8l1.8-1.6-.9-.7-.4-2c2.3-.3 4.5-.4 6.7-1.3l1.6 1 1.7-.3c-1.3-1.7-3.3-2.5-4.8-3.9-8.3-9.7-17-19-24.5-29.5a332.7 332.7 0 00-17.8-21.2C343.6 77 331.6 62.6 319.9 48c-3-3.4-7.7-4-11.8-3.8-3.6 0-6.4 2.8-8.3 5.6-5.7 10.1-10.5 21-17.6 30.3-10.2 21.7-21.3 43-33 64-2.9 5.6-6.4 10.8-8.4 16.8 1.3 2.6 4.5.7 6.7.7-.2 2.5-.2 5 .1 7.4-3.1.4-6.7 1-9.5-1.1a8.4 8.4 0 01-2.5-11.4c4-7.3 7.2-15.1 11.4-22.4 2.2-4 3.6-8.2 6.3-11.8 13.4-20.2 22.8-42.5 34.4-63.7 2.6-4.5 4.4-9.3 7.5-13.5zM212.9 47.9l25.2-2c1.5-.1 2.8.3 4.2.8l36 13.2c-3.9 7.4-8 14.6-11.7 22-4.6 11-8.6 22.3-13.3 33.2-4.5 6.5-10.1 12-14.7 18.5-3.3 7.2-6 14.6-9.1 21.9-6.4 1.9-12.6 4-19 5.8-8.1.9-16.2 1.3-24.3 2 0 .7.3 2 .4 2.6-4.5-.8-9-2.4-13.6-2-5 .6-10 1.4-15 1.7-6.1.4-12.3 2-18.3.8-5 1.6-10.5 1.1-15.7 1.7l-1.6-1.5-15 2.2-1 1.4c-10.1 1.4-20.2 3-30.3 4.3-7.1 0-14.2.8-21.3 1.3l-.6 2-8 5.5-8.7-2a130 130 0 01-5.2-7 91.1 91.1 0 00-3.6 8.4c-1.9 1.2-3.6 2.5-5.7 3.2-3.8.3-7.7 0-11.5.4 1-8.4 4.5-16.8 2-25.2l3.3-7.1c-5.5-3.3-7.6-9.6-11.2-14.6-2-2.3-1.5-5.5-1.3-8.3-1.5-1.4-3-2.8-4.3-4.3v-.4c2.2-3.2 5.9-4.2 9.4-5.2-1-2.4-2.8-4.7-2.4-7.3.5-3.6.1-7.3 0-10.9-.4-8 1.7-16 1.8-24 .5-4.2 1.2-8.4 1.3-12.6 9.6-.5 19.3 0 28.8-1.8 5.6-.8 11.3-1.7 16.7-3.2 1.5-.6 3 .2 4.3.9 10-1 20-1.3 30-2 5 .6 10 0 15-.4l.4-5.2c3.2.3 6.4 1 9.6 1 2-.7 3.9-1.8 6-2.4 1 .5 1.8 1.9 3 1.5 5.5-.3 11-.8 16.5-1.3l.9 2.1c8.5.2 17.1-1.8 25.7-.8 6-.1 12.2-.3 18-2 9.1-1 18.3-1.5 27.5-2.3l.4-2.6m1.2 7.4c1 15 2.4 30.2 3.5 45.3.2 3.2 1 6.4 1.4 9.6 8.8-.4 17.5-1.6 26.3-2 0-2.7-.3-5.4-.8-8-6.2.3-12.3 1.1-18.5 1.2-.3-5.4-.3-10.8-1.8-16 4.4-.3 8.9-.8 13.3-1-.5-3-.6-6-1.1-9-4.1.8-8.3 1.2-12.5 1.4-.5-4.6-1.5-9.1-1.5-13.8 6.3-.7 12.6-1 19-1.5a62 62 0 01-.7-7.6c-2.1-.7-4.5-.4-6.7-.2L214 55.3m-24.6 4.5c.4 5 .4 9.9 1.1 14.7 1.5 8.4 1.6 17 2.5 25.5l5.6-.3c.1-8.2-1.1-16.3-1.7-24.5h3.6c2.4 8 5.2 15.8 7.5 23.8 1.8 0 3.7-.2 5.5-.4-1.2-3.9-2.3-7.7-3.2-11.6-.9-4.3-3-8.3-3.3-12.6l4.4-.4c0-5.3-.8-10.5-1.2-15.8l-20.8 1.6m-11.4 1.7c0 11.7 2.1 23.5 2.1 35.2l-8.4.6c0-4.2.1-8.3-.6-12.4-1.4-7.3-1.3-14.8-2.1-22.2-2-.7-4 0-6 .3 1 9.4 1.6 18.7 2.3 28.1 0 4.4 0 8.8.6 13.1 7.2-1.1 14.4-1.4 21.6-2-.3-13.7-2.3-27.3-2.7-41l-6.8.3m-50.3.5c.3 8.4 1.8 16.7 2.8 25-3.9-8.2-8-16.3-12.4-24.2l-6 .5c-.2 14.3 2.3 28.4 4 42.4 2-.1 4 0 6-.5.3-7.8-.5-15.5-2-23.1l11.6 22.9 6.8-.5c.3-14.4-1.4-28.8-4.3-43l-6.5.5m9.8 1.5c.6 2.4.8 5 .7 7.4 3 0 6-.3 9.1-.4 1 11.2 1.8 22.5 2.7 33.7 2-.1 3.9-.2 5.8-.5 1.2-3.3-.1-7-.2-10.5-.5-8-1.6-15.9-2.1-23.8l7.2-.2c-.2-2.4-.5-4.7-.9-7-7.4.3-14.8 1-22.3 1.3m-49 5.2c1.2 13.8 2.5 27.5 4.6 41.1 6.7-.4 13.4-1 20-1.6v-8.5A58 58 0 0198 102c-.5-3.3-.9-6.5-1-9.8l9.5-1.3c0-2.2-.2-4.4-.5-6.5-3.1-.2-6.2-.3-9.2.1-.8-2.8-1.5-5.7-1-8.6 4.8-.6 9.5-1.4 14.3-1.8-.5-2.3-.8-4.7-1-7.1-6.9.6-13.7 1-20.4 1.7m-7.2-.3c-1 10.6-1.6 21.3-3 31.8a677.3 677.3 0 01-7.9-31c-2-.2-4-.2-6 .4 2.3 8.8 3.3 17.9 6.5 26.3l3.1 13.5c3.2.2 6.4-.2 9.5-.6.3-13.6 2.8-27.2 2.5-40.8l-4.7.4m-45.3 4c.2 2.4.6 4.8 1 7.1l3.9-.4c.1 3.6.3 7.2 1.3 10.7l3 18.5-4.2.6c.5 2.4.4 5.2 1.8 7.1 5.8 0 11.5-1.7 17.3-2.3a7 7 0 006.5-5.8c-1.8-11.6-3-23.3-6-34.7-1.3-1.7-3.2-2.8-4.8-4.1-6.5 1.6-13.1 2.5-19.8 3.4m-19 1.3c-1.8 15-3.5 30-3.6 45.2H20a59 59 0 011-7.3c2.9-.2 5.8-.5 8.8-.5.7 2 1 4.2 2 6.2 2 .8 4.4.4 6.6.6-1.7-15.4-7.6-29.8-12.4-44.4-3-.2-5.9-.1-8.8.2m186.4 36.6c0 4.6-1.3 9-1.5 13.6l-1.4 25.4 5.1-.4.6-7c2.8 0 5.9-1.1 8.6-.2.8 2.1 1.4 4.3 2 6.5l4.7-.1c-2.6-13-6.2-25.9-10.5-38.4-2.6.1-5 .3-7.6.6m-41 5.2c.6 5.8 2 11.5 2.1 17.3.4 6.4 1.8 12.6 2.8 19 6 .3 12-1.7 18-1.6-.9-7-1.3-14.2-2.5-21.3l-3.2.2c-.5-5.1-1.7-10.1-2-15.3-5 .1-10.2.8-15.2 1.7m24.2-.5c.1 11.7 1.6 23.3 2.4 35 2.2.2 4.4 0 6.6-.3-.3-5-.3-10-1-14.8-.8-6.6-.4-13.3-2.2-19.7-1.4-1.3-4 0-5.8-.2m-33.8 2.8c-1.2 3.3-1.8 6.8-2.5 10.3l-5.3-9.8-4 .6c-.6 6.7.7 13.4 1 20 .6 5 .1 10.2 2 14.9l4.3-.3c.6-6.2-.4-12.4-1-18.6 1.6 3.2 2.7 6.7 4.4 9.8l1-.4c.4-2.9.8-5.8 1.9-8.5-.5 5.7.5 11.3.7 17 1.8.2 3.6.2 5.4 0 0-11.7-.3-23.5-3.1-35-1.5-.7-3.2 0-4.8 0m-36.8 3.3c.5 3.2.6 6.5 1.3 9.7 2.1 7.8 2.5 16 4 24l.5.4c5.9-.6 11.7-1.8 17.5-2.4a687.6 687.6 0 01-5.4-34.2c-6 .8-11.9 1.8-17.9 2.5m-23.6.5c2.2 12.6 4 25.2 5.7 38 6.8-.5 13.5-2 20.3-2.8 0-2.2-.4-4.5-1.1-6.6-4.7.6-9.3 1.9-14 2.5 0-8.5-2.7-16.5-3.6-24.9-.5-2.4-1.8-4.5-1.7-7l-5.6.8m-64.2 1.4l-2.6 18c-3.7-4.6-6.5-10-10-14.7-2.7-.8-5.7 0-8.4.1l-.1 1.1c5.2 7.9 10.7 15.6 16 23.4-1.8 10.3-4.1 20.7-5.7 31.1 2.5-.8 5.8-.4 7.9-2 1.6-5.6 2.7-11.3 4-17 1.3.4 2.7.8 3.6 1.9 3.3 3.8 5.8 8.3 9 12.3 2.4 0 4.7-1 7-1.6-1.2-3.1-3.5-5.6-5.3-8.3-4.3-6-8-12.3-12.6-17.8 1.6-9.5 4.3-18.8 5.6-28.3a830 830 0 00-8.4 1.8m17.9 1.3c-.2 7 1.8 14 1.2 21 .9 7.6 1.3 15.3 2.8 22.8 7.2-.4 14.4-1.3 21.6-1.3-.5-6.2-1-12.4-1.3-18.6l-6.2 2.1c.1 3.5.4 7 .7 10.5-3 .3-6 .5-9.1.6-1-7.2-1.3-14.3-1.7-21.5-.3-3.2-1.9-6.6-1-9.7 2.8-.5 5.8-.6 8.7-.6 0 3.7.2 7.4.4 11l7 .8-1.4-18.6c-7.3.2-14.5 1.1-21.7 1.5m25.6-.6c.3 10.8 2.6 21.4 2.8 32.3.3 1-.4 3 1.2 3.4 6-.4 11.9-1 17.9-1.3a437.7 437.7 0 01-3.1-35c-6.3-.7-12.5.9-18.8.6z"/>
    <path d="M196.2 66c2.8-.4 5.7-.5 8.6-.8l.2 2.6-9.1.4.3-2.2zM48.1 78.3l5.2-.5c1.1 6.7 1.8 13.5 4 20 .8 2.7 1.1 5.7 1.8 8.5l-5.8.9c-.7-4.4-1.3-8.8-2.2-13.2-1.1-5.2-1.2-10.6-3-15.7zM22 104c1.7-6-.6-12.5 1.5-18.3 1.3 5.8 3 11.6 4 17.5l-5.6.8zM375 101c2.4 1.3 3.5 3.9 4.3 6.4-2.1-1.6-3.4-4-4.4-6.4zM382.3 112.3c.4.5.4.5 0 0zM384.6 115.9c3.5 1.6 4.5 5.8 6.5 8.8h1.6v1.2c-1-.3-2.3-.6-2.8-1.8-1.5-3-3.5-5.5-5.3-8.2zM169.1 120.5l4-.3c.6 3.3 1 6.7 1.2 10l-4.3.3c-.3-3.3-1.1-6.6-.9-10zM208.6 121c2 4.5 3 9.3 4.5 14-1.9 0-3.8.2-5.7.4.3-4.8 1.4-9.5 1.2-14.3zM122.2 125.5c2.3.1 5.2-1.4 7.1 0a200 200 0 013.7 23.2c-2.3.3-4.7.6-7 .7-1-8-2.4-16-3.8-23.9zM77.7 129c2.5-.2 5-.5 7.4-.3 1.1 8.2 2 16.4 2.3 24.7l-7.4.5c-.6-8.3-1-16.6-2.3-24.9zM171.1 136.3c2.3-.1 4.6-.4 6.8-1a40 40 0 011.3 9.6l-7.1 1c-.4-3.1-.9-6.3-1-9.6zM378.4 148.6c2.4-1.4 5.1-1.7 7.7-2l2 2.4c-3.2 0-6.5 0-9.7-.4zM253.7 161.4c7 .1 14.8-2.1 21.1 1.8-7.1 2-14.4 3.3-21.7 4.9-.1-2.3 0-4.5.6-6.7z"/>
  </g>
  <g fill="#f6f6f6">
    <path d="M214.1 55.3l19.9-1.6c2.2-.2 4.6-.5 6.8.2 0 2.6.2 5 .6 7.6-6.4.4-12.7.8-19 1.5 0 4.7 1 9.2 1.5 13.8 4.2-.2 8.4-.6 12.5-1.4.5 3 .6 6 1.1 9l-13.3 1c1.5 5.2 1.5 10.6 1.8 16 6.2 0 12.3-.9 18.5-1.3.5 2.7.7 5.4.8 8-8.8.5-17.5 1.7-26.3 2-.3-3.1-1.2-6.3-1.4-9.5-1-15.1-2.5-30.2-3.5-45.3zM189.5 59.8l20.8-1.6c.4 5.3 1.2 10.5 1.2 15.8l-4.4.4c.4 4.3 2.4 8.3 3.3 12.6 1 3.9 2 7.7 3.2 11.6-1.8.2-3.7.4-5.5.4-2.3-8-5.1-15.9-7.5-23.8H197c.6 8.2 1.8 16.3 1.7 24.5-1.9 0-3.8.2-5.6.3-.9-8.5-1-17-2.5-25.5-.7-4.8-.7-9.8-1-14.7m6.6 6.2l-.3 2.2 9-.4-.1-2.6c-2.9.3-5.8.4-8.7.8zM178.1 61.5c2.3 0 4.6-.2 6.8-.4.4 13.8 2.4 27.4 2.7 41.1-7.2.6-14.4.9-21.6 2-.6-4.4-.7-8.7-.6-13.1-.7-9.4-1.3-18.7-2.2-28 2-.3 4-1.1 5.9-.4.8 7.4.7 14.9 2 22.2.8 4 .6 8.2.7 12.4l8.4-.6c0-11.8-2-23.5-2-35.2zM127.8 62l6.5-.5c2.9 14.2 4.6 28.6 4.3 43l-6.8.5c-3.9-7.6-7.8-15.2-11.6-23 1.5 7.7 2.3 15.4 2 23.2-2 .5-4 .4-6 .5-1.7-14-4.2-28.1-4-42.4 2 0 4-.3 6-.5 4.5 7.9 8.5 16 12.4 24.2-1-8.3-2.5-16.6-2.8-25zM137.6 63.5c7.5-.3 14.9-1 22.3-1.3l1 7-7.3.2c.5 8 1.6 15.8 2 23.8.2 3.5 1.5 7.2.3 10.5-2 .3-3.9.4-5.8.5-1-11.3-1.7-22.5-2.7-33.7l-9 .4c0-2.5-.2-5-.8-7.5zM88.6 68.7l20.3-1.7 1 7.1c-4.7.4-9.4 1.2-14.2 1.8-.5 2.9.2 5.8 1 8.6 3-.4 6.1-.3 9.2-.1.3 2.1.5 4.3.5 6.5L97 92.2c0 3.3.4 6.5.9 9.8a58 58 0 0015.3-2.3v8.5c-6.6.5-13.3 1.2-20 1.6a668.3 668.3 0 01-4.6-41zM81.4 68.4l4.7-.4c.3 13.6-2.2 27.2-2.5 40.8-3.1.4-6.3.8-9.5.6l-3-13.5c-3.3-8.4-4.3-17.5-6.6-26.3 2-.5 4-.6 6-.4 2.3 10.4 5 20.7 7.8 31 1.5-10.5 2-21.2 3.1-31.8zM36.1 72.5c6.7-1 13.3-1.8 19.8-3.4 1.6 1.3 3.5 2.4 4.7 4.1 3 11.4 4.3 23 6.1 34.7a7 7 0 01-6.6 5.8c-5.7.6-11.4 2.3-17.2 2.3-1.4-1.9-1.3-4.7-1.8-7l4.2-.7-3-18.5c-1-3.5-1.2-7-1.3-10.7l-4 .4-.9-7m12 5.8c1.8 5 1.9 10.5 3 15.7.9 4.4 1.5 8.8 2.2 13.2l5.8-1c-.7-2.8-1-5.7-1.8-8.5-2.2-6.4-2.9-13.3-4-20l-5.2.6zM17.1 73.8c3-.3 5.9-.4 8.8-.2 4.8 14.6 10.7 29 12.4 44.4-2.2-.2-4.5.2-6.6-.6-1-2-1.3-4.2-2-6.2-3 0-6 .3-8.9.5a59 59 0 00-1 7.3h-6.3c.1-15.1 1.8-30.2 3.6-45.2M22 104l5.6-.8c-1-6-2.7-11.7-4-17.5-2.1 5.8.2 12.3-1.6 18.3zM203.5 110.4c2.5-.3 5-.5 7.6-.6 4.3 12.5 7.9 25.4 10.5 38.4l-4.6.1c-.7-2.2-1.3-4.4-2.1-6.5-2.7-1-5.8.2-8.6.3l-.6 6.9-5.1.4L202 124c.2-4.6 1.6-9 1.5-13.6m5.1 10.7c.2 4.8-1 9.5-1.2 14.3l5.7-.5c-1.5-4.6-2.5-9.4-4.5-13.8zM162.5 115.6c5-.9 10.1-1.6 15.2-1.7.3 5.2 1.5 10.2 2 15.3l3.2-.2c1.2 7 1.6 14.2 2.5 21.3-6 0-12 2-18 1.5-1-6.3-2.4-12.5-2.8-19 0-5.8-1.5-11.4-2-17.2m6.5 4.9c-.2 3.4.6 6.7.9 10l4.3-.3c-.3-3.3-.6-6.7-1.2-10l-4 .3m2 15.8c.1 3.3.6 6.5 1 9.7 2.4-.5 4.7-.8 7.1-1.1a40 40 0 00-1.3-9.6c-2.3.6-4.5.9-6.8 1zM186.7 115c1.9.2 4.4-1 5.8.3 1.8 6.4 1.4 13.1 2.2 19.7.7 4.9.7 9.8 1 14.8-2.2.3-4.4.5-6.6.3-.8-11.7-2.3-23.3-2.4-35zM153 118c1.5 0 3.2-.8 4.7 0 2.8 11.4 3.1 23.2 3.1 35l-5.4-.1c-.2-5.7-1.2-11.3-.7-17-1 2.7-1.4 5.6-2 8.5l-.9.4c-1.7-3.1-2.8-6.6-4.5-9.8.7 6.2 1.7 12.4 1 18.6l-4.3.3c-1.8-4.7-1.3-9.9-1.9-14.8-.3-6.7-1.6-13.4-1-20l4-.7 5.3 9.8c.7-3.5 1.3-7 2.5-10.3zM116.1 121.2c6-.7 12-1.7 17.9-2.5 1.6 11.5 3.3 22.9 5.4 34.2-5.8.6-11.6 1.8-17.5 2.4l-.5-.4c-1.5-8-1.9-16.2-4-24-.7-3.2-.8-6.5-1.3-9.8m6.1 4.4c1.4 8 2.8 16 3.8 24l7-.8a200 200 0 00-3.7-23.2c-2-1.4-4.8.1-7 0zM92.5 121.7l5.6-.8c-.1 2.5 1.2 4.6 1.7 7 .9 8.4 3.5 16.4 3.6 24.9 4.7-.6 9.3-2 14-2.5.7 2.1 1 4.4 1 6.6-6.7.7-13.4 2.3-20.2 2.7a895.3 895.3 0 00-5.8-37.9zM28.3 123a830 830 0 018.4-1.7c-1.3 9.5-4 18.8-5.6 28.3 4.6 5.6 8.4 11.9 12.6 17.8 1.8 2.7 4 5.2 5.3 8.3-2.3.6-4.6 1.6-7 1.6-3.2-4-5.7-8.5-9-12.3-1-1-2.3-1.5-3.6-2-1.3 5.8-2.4 11.5-4 17-2 1.7-5.4 1.3-7.9 2.1 1.6-10.4 3.9-20.8 5.8-31.1-5.4-7.8-11-15.5-16.1-23.4v-1c2.8-.2 5.8-1 8.4-.2 3.6 4.8 6.4 10 10 14.8l2.7-18.1zM46.2 124.4c7.2-.4 14.4-1.3 21.7-1.5.3 6.2 1 12.4 1.3 18.6a521 521 0 01-6.9-.8c-.2-3.6-.5-7.3-.4-11-3 0-5.9 0-8.8.6-.8 3 .8 6.5 1 9.7.5 7.2.7 14.3 1.8 21.5 3 0 6-.3 9.1-.6-.3-3.5-.6-7-.7-10.5l6.2-2c.3 6.1.8 12.3 1.3 18.4-7.2.1-14.4 1-21.6 1.3-1.5-7.4-2-15-2.8-22.7.6-7-1.4-14-1.2-21zM71.8 123.8c6.3.3 12.5-1.3 18.8-.7.4 11.8 1.7 23.4 3 35-6 .3-11.9 1-17.8 1.4-1.6-.3-.9-2.3-1.2-3.4-.2-10.9-2.5-21.5-2.8-32.3m5.9 5.2c1.2 8.3 1.7 16.6 2.3 25l7.4-.6c-.4-8.3-1.2-16.5-2.3-24.7-2.4-.2-5 0-7.4.3z"/>
  </g>
  <g fill="#de3655">
    <path d="M344.3 130.1l1.2-1.7c2 1.7 3.8 3.4 5.2 5.5a24.3 24.3 0 0119.4-5.6c7.3.8 13.3 5.3 18.5 10 2.5 2.1 3.1 5.4 4 8.3l.4 2c-.3 1.8-1.5 3-2.9 4l-2-3.6-2-2.5c-2-2.2-3.6-4.7-5.7-6.8-2-2-5-2.8-7.6-3.6-3.2-.8-6.4-2.6-9.9-2-3.3.2-6.3 2-9.1 3.6 3 2.6 6.4 4.8 8.8 8 2 1.4 4 3 6.5 3.2.4 2 1.5 4.3-.4 5.8-2 1.9-4.6-.2-6.7-.8-.5-1.3-.9-2.8-2.2-3.5-3.8-2.6-7.8-5-10.4-8.9-2.8 4.3-5.2 9.2-4.6 14.5.1 4.8 3.1 8.8 5.8 12.5 4.5 5.7 12.1 7.3 19 7.7l.3-2c-2.6.8-5-.2-7.2-1.5 2.7 1.3 6.5 0 8.5 2.3 3.8-.6 7.3-2.5 10.8-4.1l1.7 1.5a90 90 0 015.2-3.1c-.3 4-4.4 5-6.9 7.4-1.4 0-2.7-.2-4-.3l-1 1.7a22.7 22.7 0 01-16.8 1.8c-5-1.7-10.3-3.2-13.9-7.2-8-8-9.3-21-4.7-31.1 1-2.4 4.3-3.8 3.8-6.7 4 0 1.6-4.6-1.1-4.8z"/>
    <path d="M357.2 170.3c.6.4.6.4 0 0zM361 172.3c-1.5-.7-1.5-1.4-.3-2 1.4.6 1.4 1.3.2 2z"/>
  </g>
  <g fill="#0352c0">
    <path d="M258.4 143.4c4.5-3.4 9.7-6.2 15.6-5.6 6.6 1.7 14.2 1.7 19.4 6.8 7.7 6 9.4 16.3 8.8 25.5-.3 2.3-1.8 4.3-3 6.2-.8 1.2-1.9 2.8-3.7 2.4a51 51 0 001 3.6l-4.9.5 4.1-1.7-2.6-2.5c1.7-5 2.1-10.4 2.8-15.7-.5-4.6-3.3-8.3-5.4-12.3-3.5-5.4-10.5-7-16.5-6.6-9.7.3-18.7 7.8-20.3 17.4-.6 2.2-.7 4.4-.6 6.7a24 24 0 008.9 14.4l2-2-.7 2.5c3.6 1.6 7.4 2.4 11 3.9l.3 2c1.4.7 5.3 0 5.1 2-3.5 1.5-7.4-.4-11-.4.3-1.8-1.2-2.4-2.5-3l-.5 1.4c-3.8-1.6-7.8-2.9-10.7-5.8a40 40 0 01-7.4-14c-.3-2.5-.3-5-.1-7.4.8-7.3 5.5-13.5 10.9-18.3z"/>
    <path d="M259.4 177c1.3-.3 2.5 1.7 1.7 2.8-1.3.2-2.3-1.7-1.7-2.7zM276.3 186.1c1.2-.8 2-.6 2.4.7-1.2.8-2 .6-2.4-.7z"/>
  </g>
</svg>
