<svg xmlns="http://www.w3.org/2000/svg" width="80" height="80" fill="#5dc1b9" viewBox="0 0 48 48"><g data-name="Layer 2"><path fill="none" d="M0 0h48v48H0z" data-name="invisible box"/><g data-name="icons Q2"><path d="M45.3 22.1C43.2 19.5 35.4 11 24 11a23 23 0 0 0-8.5 1.6L9.7 6.9a2 2 0 0 0-2.8 2.8l31.4 31.4a2 2 0 1 0 2.8-2.8l-4.7-4.8a32.1 32.1 0 0 0 8.9-7.6 3 3 0 0 0 0-3.8Zm-11.9 8.5-4-4A5.8 5.8 0 0 0 30 24a6 6 0 0 0-6-6 5.8 5.8 0 0 0-2.6.6l-2.8-2.8A19.1 19.1 0 0 1 24 15c8.8 0 15.3 6.2 17.7 9a29.7 29.7 0 0 1-8.3 6.6ZM10.4 17.6a2 2 0 0 0-2.8 2.8l15 15a2 2 0 0 0 2.8-2.8ZM5.4 22.6a1.9 1.9 0 0 0-2.8 0 1.9 1.9 0 0 0 0 2.8l7 7a2 2 0 0 0 2.8-2.8Z"/></g></g></svg>