<?xml version="1.0" encoding="UTF-8" ?>
<!DOCTYPE svg PUBLIC "-//W3C//DTD SVG 1.1//EN" "http://www.w3.org/Graphics/SVG/1.1/DTD/svg11.dtd">
<svg width="1388pt" height="683pt" viewBox="0 0 1388 683" version="1.1" xmlns="http://www.w3.org/2000/svg">
<g id="#1e212bff">
<path fill="#1e212b" opacity="1.00" d=" M 935.16 11.14 C 945.27 -1.08 965.62 -3.29 977.62 7.37 C 985.85 14.50 988.30 25.77 989.65 36.08 C 990.43 49.77 989.79 63.50 990.08 77.21 C 989.92 165.80 990.06 254.40 990.01 343.00 C 990.09 367.01 989.78 391.02 990.36 415.02 C 990.13 427.66 991.82 440.90 986.55 452.82 C 981.80 460.78 973.87 466.95 964.64 468.59 C 952.09 471.69 938.57 464.53 932.67 453.33 C 929.59 447.75 928.05 441.39 927.95 435.04 C 927.80 341.70 928.30 248.35 927.35 155.01 C 927.04 116.67 926.50 78.34 926.60 40.01 C 926.73 29.91 928.40 19.08 935.16 11.14 Z" />
<path fill="#1e212b" opacity="1.00" d=" M 1278.36 79.45 C 1287.14 77.52 1296.92 78.41 1304.58 83.44 C 1311.70 87.81 1316.34 95.71 1317.17 103.99 C 1319.12 118.52 1310.34 132.72 1298.41 140.41 C 1289.66 146.01 1277.81 146.37 1268.80 141.17 C 1261.07 136.98 1255.18 129.42 1253.27 120.81 C 1249.80 103.41 1261.07 84.14 1278.36 79.45 Z" />
<path fill="#1e212b" opacity="1.00" d=" M 139.33 83.38 C 154.29 79.46 170.70 88.94 175.53 103.45 C 182.41 120.75 168.25 141.81 150.01 143.24 C 134.87 144.81 119.37 133.77 116.21 118.82 C 112.75 103.21 124.22 87.17 139.33 83.38 Z" />
<path fill="#1e212b" opacity="1.00" d=" M 134.07 184.06 C 140.32 182.19 147.10 182.03 153.41 183.68 C 161.54 185.81 168.27 192.48 170.48 200.59 C 172.89 209.17 172.38 218.19 172.96 227.00 C 173.62 236.60 173.89 246.21 174.13 255.82 C 174.72 274.21 175.81 292.59 175.72 310.99 C 176.30 329.97 175.70 348.97 176.61 367.94 C 176.60 394.96 177.06 422.00 175.89 449.01 C 175.67 468.94 175.18 488.89 173.29 508.74 C 170.83 526.92 166.01 544.81 158.49 561.55 C 150.30 579.40 139.86 596.99 123.71 608.75 C 115.65 613.95 106.95 618.36 97.59 620.62 C 85.92 623.19 73.72 623.41 62.01 620.95 C 45.31 616.87 30.02 607.21 19.14 593.90 C 8.86 581.90 1.67 566.87 0.66 550.96 C -0.00 543.94 0.96 536.63 4.47 530.42 C 9.35 521.08 19.30 514.26 30.00 514.28 C 37.60 513.96 45.13 517.17 50.47 522.53 C 55.51 527.52 58.75 533.97 61.48 540.43 C 63.66 545.95 65.02 552.29 69.81 556.25 C 75.09 560.42 83.37 561.15 88.77 556.78 C 94.28 552.68 96.66 545.93 98.64 539.63 C 103.65 522.79 110.33 506.28 112.41 488.72 C 115.33 442.87 115.54 396.90 116.91 350.98 C 116.67 332.41 115.65 313.86 115.41 295.28 C 114.22 273.18 114.37 251.04 113.85 228.93 C 112.63 220.18 113.03 211.16 115.68 202.70 C 118.56 194.13 125.35 186.78 134.07 184.06 Z" />
<path fill="#1e212b" opacity="1.00" d=" M 1264.90 194.90 C 1271.42 186.98 1282.04 183.61 1292.03 183.71 C 1301.83 183.60 1311.74 188.84 1316.49 197.54 C 1319.72 203.12 1320.24 209.72 1320.41 216.04 C 1320.67 230.76 1320.08 245.48 1320.05 260.20 C 1320.01 282.16 1319.57 304.15 1321.16 326.08 C 1323.13 363.41 1325.17 400.76 1328.22 438.02 C 1329.02 447.03 1325.38 455.66 1320.10 462.77 C 1315.22 466.66 1309.85 470.29 1303.63 471.54 C 1293.25 473.64 1281.91 470.07 1274.71 462.27 C 1268.56 455.98 1265.29 447.42 1264.36 438.77 C 1262.04 414.55 1259.29 390.36 1258.15 366.04 C 1256.97 344.05 1256.48 322.02 1256.55 300.00 C 1256.43 272.30 1256.91 244.59 1258.24 216.92 C 1258.72 209.26 1259.65 200.93 1264.90 194.90 Z" />
<path fill="#1e212b" opacity="1.00" d=" M 457.61 187.61 C 463.65 184.41 470.80 184.63 477.34 185.85 C 486.35 187.73 493.59 195.11 496.21 203.82 C 499.02 211.57 498.55 219.91 498.99 228.01 C 499.74 239.59 499.67 251.21 500.18 262.81 C 501.91 302.49 503.03 342.88 514.98 381.10 C 518.00 389.98 520.92 399.06 525.89 407.09 C 529.29 412.65 535.34 416.79 542.00 416.78 C 551.85 417.27 560.70 411.01 566.21 403.28 C 568.41 400.35 570.33 397.21 571.82 393.87 C 580.06 374.78 587.79 355.41 593.36 335.36 C 600.12 312.65 602.53 288.98 604.70 265.48 C 606.62 250.35 607.88 235.15 610.00 220.05 C 610.94 212.90 613.79 205.98 618.29 200.34 C 623.24 194.20 630.96 189.93 638.97 190.26 C 649.42 191.07 659.35 197.71 663.54 207.42 C 666.77 214.12 667.14 221.72 666.56 229.02 C 664.69 252.60 662.49 276.16 659.54 299.63 C 654.27 335.81 646.00 371.69 632.80 405.85 C 622.58 429.70 606.97 452.08 584.68 466.03 C 567.22 477.11 545.59 483.43 525.09 478.09 C 512.49 475.20 501.18 467.96 491.92 459.10 C 480.25 447.62 471.97 433.14 465.94 418.03 C 453.21 386.19 447.29 352.03 444.86 317.95 C 443.06 301.01 442.64 283.98 441.75 266.98 C 441.60 249.99 441.76 232.99 441.66 216.00 C 441.32 204.66 447.24 192.76 457.61 187.61 Z" />
</g>
<g id="#0c0c1066">
<path fill="#0c0c10" opacity="0.40" d=" M 1012.00 60.91 C 1022.07 58.69 1033.15 62.19 1040.02 69.90 C 1044.69 75.14 1046.62 82.10 1048.13 88.80 C 1050.21 98.06 1049.59 107.59 1049.66 117.00 C 1049.71 230.99 1049.57 344.98 1049.72 458.97 C 1049.79 473.33 1050.86 487.78 1049.20 502.07 C 1047.18 518.41 1030.54 530.77 1014.35 528.61 C 1005.30 527.09 996.87 521.62 992.49 513.45 C 986.94 503.96 987.10 492.63 987.34 482.00 C 987.07 472.27 988.07 462.47 986.55 452.82 C 991.82 440.90 990.13 427.66 990.36 415.02 C 989.78 391.02 990.09 367.01 990.01 343.00 C 990.06 254.40 989.92 165.80 990.08 77.21 C 994.75 69.11 1002.58 62.44 1012.00 60.91 Z" />
<path fill="#0c0c10" opacity="0.40" d=" M 1340.36 138.45 C 1346.47 137.53 1352.79 138.39 1358.61 140.41 C 1368.49 144.01 1375.91 153.53 1376.81 164.04 C 1378.13 173.84 1373.97 183.48 1367.99 191.02 C 1363.20 196.80 1356.91 201.72 1349.49 203.48 C 1341.70 205.13 1333.11 204.21 1326.43 199.65 C 1319.44 195.39 1314.36 188.22 1312.72 180.21 C 1309.17 162.04 1321.77 141.71 1340.36 138.45 Z" />
<path fill="#0c0c10" opacity="0.40" d=" M 200.39 142.51 C 208.10 141.18 216.42 142.63 222.85 147.21 C 231.68 152.96 237.15 163.46 236.87 173.98 C 235.86 187.06 226.04 199.30 213.10 202.22 C 195.87 206.23 176.60 192.71 175.24 174.91 C 173.98 159.75 185.63 145.37 200.39 142.51 Z" />
<path fill="#0c0c10" opacity="0.40" d=" M 192.10 244.05 C 203.12 240.05 217.23 241.57 225.17 250.87 C 231.76 258.63 231.81 269.38 232.08 279.01 C 233.38 301.32 233.99 323.66 234.89 345.99 C 235.12 354.93 234.87 363.89 235.37 372.82 C 235.95 382.87 235.51 392.93 235.68 402.99 C 236.18 432.99 236.24 463.00 235.92 493.00 C 235.89 503.67 235.02 514.32 235.02 524.99 C 234.72 546.15 234.24 567.54 229.17 588.20 C 224.77 607.44 216.94 625.81 206.55 642.55 C 197.77 656.78 185.21 669.09 169.71 675.71 C 158.93 680.83 146.83 682.40 135.01 682.23 C 115.28 681.50 96.55 672.11 82.79 658.20 C 73.13 647.65 64.97 635.10 62.01 620.95 C 73.72 623.41 85.92 623.19 97.59 620.62 C 106.95 618.36 115.65 613.95 123.71 608.75 C 126.37 612.47 129.06 616.78 133.67 618.25 C 138.74 619.82 144.89 619.65 149.06 616.01 C 154.29 611.57 156.51 604.79 158.50 598.46 C 163.99 579.92 171.59 561.66 172.40 542.11 C 172.82 530.99 173.74 519.87 173.29 508.74 C 175.18 488.89 175.67 468.94 175.89 449.01 C 177.06 422.00 176.60 394.96 176.61 367.94 C 175.70 348.97 176.30 329.97 175.72 310.99 C 175.81 292.59 174.72 274.21 174.13 255.82 C 174.42 257.57 174.77 259.31 175.12 261.05 C 179.13 254.05 184.23 246.96 192.10 244.05 Z" />
<path fill="#0c0c10" opacity="0.40" d=" M 1323.56 255.55 C 1334.28 241.48 1357.12 239.02 1370.62 250.43 C 1377.06 255.97 1379.68 264.68 1379.92 272.94 C 1380.36 287.62 1379.78 302.31 1379.66 317.00 C 1379.77 338.80 1379.21 360.63 1380.52 382.41 C 1381.83 409.65 1383.36 436.87 1385.18 464.08 C 1385.97 474.30 1386.19 484.58 1388.00 494.69 L 1388.00 504.51 C 1386.19 511.33 1383.48 518.29 1378.19 523.19 C 1371.01 529.74 1360.74 533.13 1351.13 531.03 C 1342.03 529.47 1334.17 523.39 1329.49 515.56 C 1325.14 508.49 1323.92 500.08 1323.20 491.96 C 1322.41 482.21 1321.32 472.48 1320.10 462.77 C 1325.38 455.66 1329.02 447.03 1328.22 438.02 C 1325.17 400.76 1323.13 363.41 1321.16 326.08 C 1319.57 304.15 1320.01 282.16 1320.05 260.20 C 1321.15 258.61 1322.31 257.05 1323.56 255.55 Z" />
<path fill="#0c0c10" opacity="0.40" d=" M 515.28 248.18 C 521.33 244.14 529.01 244.16 535.94 245.24 C 545.11 246.63 552.58 253.99 555.53 262.57 C 558.36 270.19 557.93 278.43 558.50 286.41 C 559.19 296.13 558.83 305.88 559.49 315.60 C 561.13 344.85 561.04 374.35 566.21 403.28 C 560.70 411.01 551.85 417.27 542.00 416.78 C 535.34 416.79 529.29 412.65 525.89 407.09 C 520.92 399.06 518.00 389.98 514.98 381.10 C 503.03 342.88 501.91 302.49 500.18 262.81 C 500.37 265.25 501.07 267.62 501.33 270.06 C 503.04 261.39 507.45 252.79 515.28 248.18 Z" />
<path fill="#0c0c10" opacity="0.40" d=" M 677.36 260.35 C 682.40 253.73 690.62 249.30 699.05 249.88 C 708.43 250.50 717.00 256.31 721.77 264.30 C 726.30 271.67 726.52 280.62 726.04 289.00 C 724.70 310.72 722.09 332.35 719.82 353.99 C 716.66 378.09 711.87 401.98 705.46 425.42 C 701.65 439.42 697.23 453.28 691.76 466.72 C 684.71 482.64 675.47 497.77 663.26 510.26 C 649.13 524.20 631.33 534.97 611.64 538.57 C 600.73 540.03 589.35 539.86 578.89 536.08 C 559.95 529.73 545.17 514.70 535.17 497.81 C 531.21 491.55 528.89 484.44 525.09 478.09 C 545.59 483.43 567.22 477.11 584.68 466.03 C 587.91 469.24 590.65 473.26 595.07 474.96 C 602.72 477.94 611.53 475.79 617.87 470.87 C 626.88 464.59 631.24 454.08 635.27 444.28 C 642.16 427.91 648.46 411.27 653.13 394.12 C 659.03 373.83 661.59 352.77 663.62 331.80 C 665.31 315.21 667.18 298.64 669.20 282.09 C 669.96 274.30 672.62 266.63 677.36 260.35 Z" />
</g>
</svg>
