<svg xmlns="http://www.w3.org/2000/svg" width="80" height="80" fill="#454546" viewBox="0 0 32 32"><g id="SVGRepo_iconCarrier"><defs><style>.cls-1{fill:#454546}</style></defs><g id="_9._Healthy_Website" data-name="9. Healthy Website"><path d="M29 0H3a3 3 0 0 0-3 3v22a3 3 0 0 0 3 3h2a1 1 0 0 0 0-2H3a1 1 0 0 1-1-1V8h28v17a1 1 0 0 1-1 1h-2a1 1 0 0 0 0 2h2a3 3 0 0 0 3-3V3a3 3 0 0 0-3-3ZM2 6V3a1 1 0 0 1 1-1h26a1 1 0 0 1 1 1v3Z" class="cls-1"/><path d="M27 12h-2a1 1 0 0 1 0-2h2a1 1 0 0 1 0 2ZM7 16H5a1 1 0 0 1 0-2h2a1 1 0 0 1 0 2ZM7 12H5a1 1 0 0 1 0-2h2a1 1 0 0 1 0 2ZM16 32a8 8 0 0 1-5.29-2H8a1 1 0 0 1-.89-1.45l1.19-2.39A7.93 7.93 0 0 1 8 24a8 8 0 1 1 8 8Zm-6.38-4h1.49a.94.94 0 0 1 .69.29A6 6 0 1 0 10 24a6.1 6.1 0 0 0 .32 1.93 1 1 0 0 1-.05.77Z" class="cls-1"/><path d="M18 23h-1v-1a1 1 0 0 0-2 0v1h-1a1 1 0 0 0 0 2h1v1a1 1 0 0 0 2 0v-1h1a1 1 0 0 0 0-2Z" style="fill:#88e9e1"/></g></g></svg>