<svg xmlns="http://www.w3.org/2000/svg" viewBox="0 0 496 496"><path d="M32 48h16v16H32zM64 48h16v16H64zM96 48h16v16H96zM480 464H272v16h224V112h-16z"/><path d="M240 16H0v80h240v56H32v240h208v72H16V112H0v368h240v16h16V0h-16v16zm0 328H105.248l74.464-88h32.976L240 283.312V344zm0-83.312L219.312 240H200.72c3.384-20.056 19.224-35.888 39.28-39.28v59.968zm0-76.136c-28.896 3.624-51.816 26.552-55.448 55.448h-12.264l-88 104H64v16h176v16H48V168h192v16.552zM240 80H16V32h224v48zM272 16v16h208v48H272v16h224V16zM272 152h16v16h-16zM304 152h72v16h-72zM392 152h40v16h-40zM448 152h16v16h-16zM272 184h32v16h-32zM320 184h40v16h-40zM376 184h40v16h-40zM432 184h32v16h-32zM272 216h160v16H272zM448 216h16v16h-16zM416 248h48v16h-48zM384 248h16v16h-16zM352 248h16v16h-16zM304 248h32v16h-32zM272 248h16v16h-16zM272 280h64v16h-64zM352 280h32v16h-32zM400 280h32v16h-32zM448 280h16v16h-16zM272 312h48v16h-48zM336 312h16v16h-16zM368 312h32v16h-32zM416 312h48v16h-48zM272 344h96v16h-96zM384 344h32v16h-32zM432 344h32v16h-32zM272 376h16v16h-16zM304 376h32v16h-32zM352 376h32v16h-32zM400 376h32v16h-32zM448 376h16v16h-16z"/></svg>