<svg height="2048" width="2048" xmlns="http://www.w3.org/2000/svg" shape-rendering="geometricPrecision" text-rendering="geometricPrecision" image-rendering="optimizeQuality" fill-rule="evenodd" clip-rule="evenodd"><defs><style>.prefix__fil0{fill:#202727}.prefix__fil1{fill:#f0f0f0}</style></defs><g id="prefix__Layer_x0020_1"><g id="prefix___251947192"><path class="prefix__fil0" d="M1792 1024c0 424.148-343.855 767.999-767.997 767.999-424.164 0-768.004-343.851-768.004-767.999 0-424.164 343.84-768.002 768.004-768.002C1448.145 255.998 1792 599.836 1792 1024z" id="prefix___251948176"/><path class="prefix__fil1" d="M1019.31 1744.77c-396.246-.149-719.305-323.256-717.408-719.449 2.02-423.276 356.396-721.879 725.608-715.913 390.782 6.302 711.253 325.273 710.941 719.259-.301 393.958-323.994 716.292-719.142 716.103z" id="prefix___251948488"/><path class="prefix__fil0" d="M1018.21 1710.95c-377.007-.112-683.118-308.203-682.835-687.263.279-376.277 308.847-680.751 689.46-680.314 375.994.432 679.051 308.721 678.78 690.518-.255 371.529-309.657 677.16-685.405 677.059z" id="prefix___251947960"/><path class="prefix__fil1" d="M1415.02 1111.05c35.942-109.317 22.055-209.998-42.122-304.92-18.419-27.215-34.723-55.932-43.532-88.088-16.426-60.028 11.032-119.564 64.414-138.654 11.72-4.177 24.313-5.928 36.975-8.894C1145.982 305.741 685.713 389.6 508.73 690.284c16.338 0 31.406.586 46.418-.114 49.706-2.342 99.385-5.01 149.064-7.794 16.762-.95 29.053 4.626 30.812 22.535 1.789 18.284-10.12 25.818-26.367 27.673-15.152 1.712-30.402 3.81-45.573 3.674-18.898-.151-19.625 7.357-14.33 22.892 42.909 125.942 85.2 252.086 127.636 378.196 29.356 87.276 58.641 174.566 90.35 269.001 45.547-136.311 88.967-266.277 132.441-396.255 2.747-8.202.376-15.522-2.477-23.274-28.405-77.52-56.708-155.089-84.542-232.813-4.007-11.194-9.622-16.804-22.037-17.36-17.6-.8-35.188-2.998-52.635-5.622-13.163-1.98-19.288-11.668-18.676-24.155.678-13.3 7.756-23.125 22.047-24.21 9.528-.739 19.228.454 28.824 1.11 52.838 3.549 105.7 7.77 158.692 5.872 44.11-1.6 88.172-4.367 132.222-7.128 17.546-1.098 34.057.626 36.33 21.607 2.481 22.688-14.504 27.698-32.706 29.354-11.993 1.06-24.012 2.597-36.025 2.634-18.345.033-24.316 4.274-17.295 24.811 57.292 167.627 113.28 335.701 169.779 503.596 14.53 43.213 29.422 86.301 45.619 133.712 3.354-7.682 4.878-10.405 5.766-13.328 27.527-91.313 53.168-183.248 82.953-273.847z" id="prefix___251948152"/><path class="prefix__fil1" d="M1192.65 1523.48c-53.32-146.068-106.677-292.11-162.071-443.863-28.942 83.864-55.863 161.821-82.759 239.803-32.136 93.212-64.405 186.408-96.102 279.769-2.43 7.146-12.277 17.503 5.203 22.037 118.742 30.808 236.51 28.884 353.62-8.569 12.206-3.924 11.892-8.92 7.745-19.153-9.307-23.037-17.116-46.673-25.636-70.024z" id="prefix___251947816"/><path class="prefix__fil1" d="M751.515 1580.44a30757732.47 30757732.47 0 00-292.912-802.447c-128.489 270.469-28.453 645.747 292.912 802.447z" id="prefix___251947552"/><path class="prefix__fil1" d="M1567.81 745.088c-1.55-2.485-3.1-4.954-4.66-7.439-1.394 1.4-4.11 2.969-3.962 4.161.912 7.57 2.476 15.086 3.811 22.607 3.779 72.308-7.783 142.257-31.619 210.444-39.928 114.262-79.643 228.598-119.352 342.935-27.228 78.332-54.29 156.737-82.374 237.866 26.574-8.831 46.55-26.035 66.951-41.825 230.97-178.764 308.277-497.686 171.204-768.748z" id="prefix___251947504"/></g></g><path fill="none" d="M0 0h2048v2048H0z"/></svg>