<?xml version="1.0" encoding="UTF-8" ?>
<!DOCTYPE svg PUBLIC "-//W3C//DTD SVG 1.1//EN" "http://www.w3.org/Graphics/SVG/1.1/DTD/svg11.dtd">
<svg width="1000pt" height="1000pt" viewBox="0 0 1000 1000" version="1.1" xmlns="http://www.w3.org/2000/svg">
<g id="#ffffffff">
<path fill="#ffffff" opacity="1.00" d=" M 0.00 0.00 L 1000.00 0.00 L 1000.00 1000.00 L 0.00 1000.00 L 0.00 0.00 M 534.98 48.01 C 535.00 52.93 536.22 57.76 536.59 62.66 C 537.18 66.16 536.59 70.12 539.16 72.93 C 542.68 73.81 542.77 68.13 541.45 66.35 C 540.23 60.31 540.07 54.11 538.85 48.08 C 537.56 47.97 536.27 47.95 534.98 48.01 M 514.22 61.13 C 511.22 63.36 514.47 66.86 516.18 68.82 C 519.05 71.51 520.09 77.91 525.01 77.02 C 525.28 70.60 518.82 66.16 515.86 61.02 C 515.45 61.05 514.63 61.11 514.22 61.13 M 559.00 78.00 L 559.00 78.97 C 550.05 79.24 541.38 83.09 534.04 88.05 C 519.79 97.17 511.66 113.11 506.55 128.76 C 501.44 142.09 501.05 156.68 503.33 170.64 C 473.33 185.76 445.21 204.75 417.16 223.25 C 415.80 226.51 419.64 228.08 421.64 225.60 C 448.30 207.32 475.71 190.09 504.19 174.82 C 504.57 176.44 504.91 178.06 505.35 179.67 C 501.74 181.40 498.82 184.24 495.64 186.61 C 471.49 205.09 448.27 224.75 424.13 243.22 C 423.77 244.36 423.99 245.36 424.78 246.23 C 435.97 263.89 451.46 278.25 467.28 291.71 C 502.20 320.46 543.74 341.75 588.12 351.13 C 590.16 357.97 599.00 355.37 604.33 357.59 C 584.19 374.71 569.84 397.61 558.75 421.35 C 558.57 421.79 558.22 422.67 558.04 423.11 C 553.42 432.64 550.54 443.33 550.95 453.99 C 548.50 455.41 550.99 461.55 549.94 464.16 C 548.06 465.19 548.67 469.03 549.35 470.91 C 548.38 477.88 549.21 484.98 549.05 492.01 C 549.77 494.43 546.70 500.91 549.99 501.00 C 550.51 518.01 551.85 535.00 553.11 551.99 C 562.31 655.56 577.72 758.54 594.89 861.04 C 596.45 861.27 599.56 861.73 601.12 861.96 C 603.76 869.32 601.68 877.87 604.11 884.97 C 601.93 885.79 595.62 882.50 595.99 886.00 C 593.99 885.58 592.93 887.48 591.92 888.84 C 594.35 891.06 599.41 891.39 600.13 894.96 C 596.50 893.39 593.36 891.00 589.78 889.36 C 587.70 890.35 579.91 891.96 585.09 894.14 C 584.79 894.42 584.18 894.97 583.88 895.25 C 582.84 894.26 581.50 893.62 580.06 894.05 C 572.52 897.23 565.83 902.09 558.28 905.25 C 538.87 904.62 519.42 905.16 500.00 905.02 L 500.00 905.99 C 480.15 905.66 460.39 907.61 440.65 909.54 C 435.02 910.32 428.83 910.73 424.04 914.13 C 424.25 915.29 425.47 915.89 426.25 916.68 C 449.31 922.49 473.39 922.42 497.00 922.99 L 497.00 923.98 C 504.08 924.05 511.17 924.10 518.25 923.73 C 525.70 924.19 533.26 924.25 540.71 923.62 C 543.78 924.22 546.86 924.00 550.01 923.98 L 550.01 924.95 C 581.00 925.06 612.00 924.99 643.00 924.97 L 642.99 924.00 C 645.04 924.35 643.56 921.07 644.03 919.91 C 662.29 921.79 680.63 923.16 699.00 923.00 L 699.00 923.98 C 706.07 924.05 713.16 924.10 720.25 923.73 C 726.80 924.43 733.41 923.86 740.00 923.99 L 740.02 924.95 C 771.35 925.06 802.69 925.00 834.02 924.97 L 833.95 924.00 C 834.14 919.02 833.97 914.00 833.94 909.05 C 833.46 909.02 832.50 908.96 832.02 908.93 L 831.13 908.91 C 821.43 903.37 811.37 897.86 801.12 893.26 C 800.63 893.04 799.65 892.62 799.16 892.41 C 796.88 891.10 794.83 888.93 792.27 888.36 C 788.72 890.88 785.28 894.18 780.91 895.05 C 782.73 891.01 788.88 890.68 790.82 887.23 C 788.68 886.47 786.66 884.63 784.27 885.26 C 782.85 885.08 781.43 884.98 780.01 884.97 C 780.14 877.76 777.11 871.03 776.84 863.88 C 778.93 863.52 783.45 865.23 783.99 862.99 C 785.65 862.98 787.31 863.01 788.99 862.94 C 783.63 833.51 779.45 803.86 774.46 774.36 C 756.52 666.98 738.60 559.55 714.50 453.35 C 707.34 424.89 701.27 395.97 689.89 368.83 C 692.93 367.66 695.92 369.72 699.11 368.99 C 699.17 366.92 696.91 366.51 695.76 365.23 C 689.47 359.49 682.37 354.60 676.82 348.08 C 685.28 349.04 693.77 350.09 702.24 351.10 C 701.97 353.41 701.60 355.71 701.02 357.97 C 704.90 358.13 708.80 358.04 712.70 357.70 C 715.69 357.12 715.80 353.72 716.45 351.31 C 718.48 340.97 720.33 330.58 721.12 320.05 C 722.50 316.28 726.34 319.25 729.06 319.88 C 736.06 319.99 743.78 321.08 749.96 316.94 C 761.77 310.70 768.63 296.93 765.80 283.67 C 765.76 282.91 765.68 281.39 765.64 280.63 C 771.43 257.40 777.47 233.98 778.87 210.00 C 777.96 206.56 779.12 201.46 775.13 200.07 C 769.60 206.55 770.84 216.63 766.06 223.13 C 765.86 218.09 766.04 213.04 766.00 208.00 L 766.96 207.98 C 767.14 202.32 766.99 196.66 766.99 191.00 L 766.03 191.00 C 766.60 188.27 765.44 185.00 762.08 185.98 C 755.75 196.61 756.30 209.45 752.96 221.04 C 750.83 221.61 750.59 219.42 750.14 217.94 C 748.95 207.30 748.89 196.55 747.07 185.99 C 746.95 184.87 746.60 182.97 745.13 183.09 C 741.97 187.19 742.44 192.84 741.41 197.65 C 740.05 205.76 739.54 213.99 737.85 222.04 C 736.59 221.65 736.56 219.98 736.13 218.94 C 734.27 207.63 734.37 195.80 729.80 185.11 C 729.14 185.10 727.82 185.08 727.16 185.07 C 723.70 195.35 724.52 206.39 722.98 217.00 C 721.55 227.03 721.44 237.32 717.84 246.92 C 711.38 247.94 707.19 240.98 701.08 239.88 C 698.87 239.39 694.64 236.30 694.02 240.05 C 696.40 250.98 706.02 258.66 710.46 268.63 C 709.21 269.72 708.92 271.27 708.83 272.84 C 704.37 282.19 702.78 294.39 708.31 303.79 C 707.66 305.46 706.97 307.15 706.92 308.97 C 705.79 320.99 703.02 332.89 703.05 344.99 C 700.73 344.31 703.24 348.84 700.93 347.94 C 691.33 346.81 681.72 345.69 672.08 344.96 C 645.43 322.25 618.68 299.67 592.05 276.94 C 591.40 275.49 590.80 275.40 590.25 276.68 C 570.95 284.09 551.32 290.89 531.07 295.20 C 532.77 291.61 536.78 290.20 539.32 287.36 C 552.16 277.63 563.63 266.30 575.77 255.77 C 579.25 252.61 581.97 248.46 586.28 246.34 C 589.77 245.31 593.37 244.72 596.85 243.57 C 599.99 245.22 602.40 248.23 605.89 249.21 C 610.39 250.96 615.36 249.64 620.06 249.87 L 619.70 248.87 C 624.33 246.72 628.65 243.04 630.05 238.02 C 632.40 237.16 630.46 232.31 631.06 229.89 C 639.10 234.94 648.49 237.73 657.98 238.00 C 659.44 241.09 666.84 237.82 669.99 239.00 L 670.01 238.03 C 680.62 237.85 692.74 231.69 696.03 221.03 C 704.06 222.80 711.84 226.25 720.03 227.03 C 716.55 198.73 712.14 170.43 705.52 142.65 C 703.22 132.73 701.16 122.36 694.91 114.06 C 688.31 104.71 679.82 95.01 668.01 93.03 C 649.60 92.21 632.13 99.51 615.83 107.23 C 614.61 106.05 613.42 104.79 611.94 103.97 C 610.33 100.97 607.29 98.97 604.64 96.96 L 604.84 96.25 C 595.22 86.94 582.47 80.03 569.01 78.97 C 566.50 78.73 561.50 78.24 559.00 78.00 M 492.21 79.12 C 490.82 79.89 490.90 81.44 491.09 82.80 C 497.58 84.85 503.88 87.43 510.33 89.59 C 516.23 93.56 514.98 88.69 514.87 86.20 C 510.26 84.36 505.40 83.22 500.78 81.40 C 497.85 80.86 495.28 78.40 492.21 79.12 M 227.05 291.01 C 226.93 313.98 227.01 336.97 227.01 359.95 L 226.97 360.90 C 208.74 377.79 194.24 398.85 184.87 421.92 C 157.09 487.26 173.78 569.50 226.98 617.10 L 227.01 618.06 C 226.99 638.37 226.96 658.70 227.03 679.02 L 228.01 678.94 C 241.67 679.14 255.34 678.96 269.00 678.97 L 269.96 678.99 C 270.12 671.66 270.00 664.32 269.99 657.00 L 269.02 657.00 C 269.03 655.07 269.01 653.14 268.72 651.25 C 268.84 649.86 268.96 648.49 269.09 647.13 C 272.74 648.76 276.44 650.32 280.11 651.94 C 283.15 659.49 284.32 667.83 287.88 675.09 C 287.93 676.56 288.00 679.02 290.03 678.96 C 305.68 679.05 321.34 679.02 336.99 678.97 L 337.96 678.99 C 338.14 674.64 338.01 670.28 338.02 665.96 C 343.35 666.12 348.67 666.00 354.01 665.97 L 354.97 666.02 C 355.30 671.72 361.10 677.38 366.77 677.58 C 367.63 678.56 368.71 679.03 370.00 679.01 C 396.66 678.99 423.32 679.02 449.99 678.99 L 450.02 678.02 C 457.19 677.81 462.58 670.82 463.02 664.02 L 463.98 663.98 C 464.03 650.03 464.00 636.09 464.00 622.15 C 497.19 593.43 518.87 551.96 523.59 508.35 C 527.23 475.73 520.90 442.48 507.35 412.70 C 496.53 391.34 482.07 371.62 463.99 355.84 C 464.04 339.23 464.00 322.62 463.99 306.01 L 463.02 305.98 C 462.24 299.14 456.29 292.14 449.02 291.98 L 448.98 291.02 C 421.99 290.97 394.99 290.99 368.00 291.01 L 368.00 291.98 C 358.07 292.68 352.65 304.06 353.97 313.04 C 348.65 312.88 343.30 312.96 337.98 313.03 C 338.10 305.68 338.01 298.32 337.97 290.98 L 337.01 291.05 C 323.00 290.92 308.98 290.99 294.98 291.03 L 295.05 291.99 C 294.86 299.32 294.99 306.66 295.02 313.99 L 295.98 314.01 C 296.07 315.67 296.25 318.99 296.33 320.66 C 292.86 321.14 289.75 323.14 286.18 323.04 C 283.46 313.75 280.05 304.69 277.65 295.29 C 276.95 294.31 277.62 291.75 275.92 292.02 L 276.01 291.05 C 260.00 290.93 244.00 290.98 228.00 291.03 L 227.05 291.01 Z" />
</g>
<g id="#ea1d58ff">
<path fill="#ea1d58" opacity="1.00" d=" M 534.98 48.01 C 536.27 47.95 537.56 47.97 538.85 48.08 C 540.07 54.11 540.23 60.31 541.45 66.35 C 542.77 68.13 542.68 73.81 539.16 72.93 C 536.59 70.12 537.18 66.16 536.59 62.66 C 536.22 57.76 535.00 52.93 534.98 48.01 Z" />
</g>
<g id="#e91853ff">
<path fill="#e91853" opacity="1.00" d=" M 514.22 61.13 C 514.63 61.11 515.45 61.05 515.86 61.02 C 518.82 66.16 525.28 70.60 525.01 77.02 C 520.09 77.91 519.05 71.51 516.18 68.82 C 514.47 66.86 511.22 63.36 514.22 61.13 Z" />
</g>
<g id="#f1b2c7ff">
<path fill="#f1b2c7" opacity="1.00" d=" M 559.00 78.00 C 561.50 78.24 566.50 78.73 569.01 78.97 C 565.63 78.99 562.34 79.03 559.00 78.97 L 559.00 78.00 Z" />
</g>
<g id="#e91e57ff">
<path fill="#e91e57" opacity="1.00" d=" M 492.21 79.12 C 495.28 78.40 497.85 80.86 500.78 81.40 C 505.40 83.22 510.26 84.36 514.87 86.20 C 514.98 88.69 516.23 93.56 510.33 89.59 C 503.88 87.43 497.58 84.85 491.09 82.80 C 490.90 81.44 490.82 79.89 492.21 79.12 Z" />
</g>
<g id="#ee0c4aff">
<path fill="#ee0c4a" opacity="1.00" d=" M 534.04 88.05 C 541.38 83.09 550.05 79.24 559.00 78.97 C 562.34 79.03 565.63 78.99 569.01 78.97 C 582.47 80.03 595.22 86.94 604.84 96.25 L 604.64 96.96 C 602.90 98.57 601.23 100.25 599.70 102.05 C 595.10 97.46 589.65 94.18 583.96 91.13 C 581.58 89.37 578.66 88.53 575.76 88.19 C 567.59 86.94 559.23 86.43 551.09 88.17 C 534.67 93.43 521.68 106.75 515.83 122.88 C 509.66 137.43 506.73 153.84 510.48 169.40 C 512.52 184.95 521.75 198.69 534.19 207.94 C 530.86 207.49 528.57 204.75 525.85 203.08 C 523.91 202.57 522.78 204.59 521.92 205.96 C 523.16 207.77 524.70 209.38 525.87 211.25 C 515.26 203.93 509.81 191.38 505.35 179.67 C 504.91 178.06 504.57 176.44 504.19 174.82 C 503.94 173.42 503.69 172.02 503.33 170.64 C 501.05 156.68 501.44 142.09 506.55 128.76 C 511.66 113.11 519.79 97.17 534.04 88.05 Z" />
</g>
<g id="#c32632ff">
<path fill="#c32632" opacity="1.00" d=" M 551.09 88.17 C 559.23 86.43 567.59 86.94 575.76 88.19 C 577.85 90.44 581.06 90.82 583.96 91.13 C 589.65 94.18 595.10 97.46 599.70 102.05 C 606.74 108.84 610.77 117.87 614.16 126.87 C 614.10 128.58 614.04 130.29 613.87 131.99 C 606.32 131.74 599.28 128.28 591.75 128.19 C 587.87 127.40 584.04 126.50 580.20 125.66 C 577.09 124.88 574.03 124.14 570.85 123.94 C 564.54 122.37 557.19 122.29 552.70 127.70 C 545.92 135.86 541.88 147.50 544.95 158.03 C 545.94 165.62 552.84 172.82 561.03 171.15 C 560.80 171.56 560.36 172.36 560.13 172.77 C 564.22 173.19 567.88 175.11 571.76 176.28 C 574.82 177.41 577.96 178.25 581.20 178.83 C 586.79 180.49 592.30 182.38 597.93 183.95 C 598.66 184.96 599.44 185.95 600.08 187.04 C 597.01 190.95 593.04 194.11 589.96 198.03 C 583.52 204.39 574.87 207.93 566.23 210.17 C 558.74 210.60 551.26 211.13 543.76 211.23 C 540.42 210.63 537.21 209.48 534.19 207.94 C 521.75 198.69 512.52 184.95 510.48 169.40 C 506.73 153.84 509.66 137.43 515.83 122.88 C 521.68 106.75 534.67 93.43 551.09 88.17 Z" />
</g>
<g id="#d8183cff">
<path fill="#d8183c" opacity="1.00" d=" M 575.76 88.19 C 578.66 88.53 581.58 89.37 583.96 91.13 C 581.06 90.82 577.85 90.44 575.76 88.19 Z" />
</g>
<g id="#040303ff">
<path fill="#040303" opacity="1.00" d=" M 615.83 107.23 C 632.13 99.51 649.60 92.21 668.01 93.03 C 679.82 95.01 688.31 104.71 694.91 114.06 C 701.16 122.36 703.22 132.73 705.52 142.65 C 712.14 170.43 716.55 198.73 720.03 227.03 C 711.84 226.25 704.06 222.80 696.03 221.03 C 695.04 220.76 694.05 220.50 693.07 220.26 C 689.27 219.25 685.46 218.24 681.78 216.87 C 677.53 202.50 674.45 187.82 671.16 173.22 C 679.34 168.67 685.61 161.08 687.74 151.87 C 688.02 145.92 699.04 146.55 695.97 139.07 C 694.96 136.74 690.54 132.13 688.52 135.65 C 677.79 126.52 664.81 120.89 652.31 114.69 C 650.38 113.94 648.40 112.87 646.26 113.11 C 643.12 118.98 641.09 125.53 637.04 130.88 C 629.81 123.13 623.20 114.84 615.83 107.23 Z" />
</g>
<g id="#f30848ff">
<path fill="#f30848" opacity="1.00" d=" M 599.70 102.05 C 601.23 100.25 602.90 98.57 604.64 96.96 C 607.29 98.97 610.33 100.97 611.94 103.97 C 613.88 108.29 615.87 112.61 618.03 116.84 C 619.28 123.37 620.73 129.92 622.85 136.24 C 623.44 142.46 622.29 148.59 621.78 154.76 C 619.82 161.53 617.88 168.36 616.06 175.15 C 614.64 177.69 613.36 180.29 611.98 182.85 C 610.12 184.50 608.78 186.66 607.90 188.97 C 604.35 192.45 600.92 196.12 598.10 200.22 C 595.08 202.88 591.83 205.25 588.82 207.92 C 588.51 208.14 587.89 208.60 587.58 208.83 C 583.75 210.96 579.93 213.09 575.97 214.95 C 570.81 216.64 565.58 218.19 560.27 219.35 C 554.75 219.12 549.26 218.80 543.76 219.24 C 537.07 218.43 530.53 216.42 525.87 211.25 C 524.70 209.38 523.16 207.77 521.92 205.96 C 522.78 204.59 523.91 202.57 525.85 203.08 C 528.57 204.75 530.86 207.49 534.19 207.94 C 537.21 209.48 540.42 210.63 543.76 211.23 C 551.09 211.83 559.35 213.77 566.23 210.17 C 574.87 207.93 583.52 204.39 589.96 198.03 C 593.58 196.57 596.00 193.38 598.81 190.82 C 600.23 189.22 602.65 187.71 601.97 185.19 C 600.90 184.06 599.33 184.15 597.93 183.95 C 592.30 182.38 586.79 180.49 581.20 178.83 C 578.16 177.54 575.01 176.69 571.76 176.28 C 567.88 175.11 564.22 173.19 560.13 172.77 C 560.36 172.36 560.80 171.56 561.03 171.15 C 572.06 169.66 579.73 158.71 581.26 148.24 C 581.65 145.11 582.63 141.77 581.35 138.71 C 579.95 134.32 578.03 130.00 574.61 126.84 C 576.40 126.15 578.30 125.90 580.20 125.66 C 584.04 126.50 587.87 127.40 591.75 128.19 C 598.69 131.15 606.41 132.08 613.76 133.80 C 616.92 132.28 615.51 129.18 614.16 126.87 C 610.77 117.87 606.74 108.84 599.70 102.05 Z" />
</g>
<g id="#c12833ff">
<path fill="#c12833" opacity="1.00" d=" M 611.94 103.97 C 613.42 104.79 614.61 106.05 615.83 107.23 C 623.20 114.84 629.81 123.13 637.04 130.88 C 636.25 131.51 636.09 132.22 636.59 133.03 C 639.56 138.89 641.36 145.27 642.27 151.77 C 642.13 155.25 642.03 158.75 642.26 162.24 C 641.02 175.11 633.66 186.75 624.08 195.12 C 623.41 195.61 622.76 196.12 622.13 196.64 C 614.13 200.73 605.32 202.83 596.92 205.93 L 596.13 206.20 C 593.75 206.97 591.33 207.72 588.82 207.92 C 591.83 205.25 595.08 202.88 598.10 200.22 C 602.71 197.87 605.99 193.73 607.90 188.97 C 610.34 187.78 611.60 185.46 611.98 182.85 C 613.36 180.29 614.64 177.69 616.06 175.15 C 619.85 169.10 622.46 161.97 621.78 154.76 C 622.29 148.59 623.44 142.46 622.85 136.24 C 623.19 130.13 621.34 124.18 619.53 118.42 C 619.15 118.02 618.40 117.23 618.03 116.84 C 615.87 112.61 613.88 108.29 611.94 103.97 Z" />
</g>
<g id="#f9c8c4ff">
<path fill="#f9c8c4" opacity="1.00" d=" M 646.26 113.11 C 648.40 112.87 650.38 113.94 652.31 114.69 C 664.81 120.89 677.79 126.52 688.52 135.65 C 690.54 132.13 694.96 136.74 695.97 139.07 C 699.04 146.55 688.02 145.92 687.74 151.87 C 685.61 161.08 679.34 168.67 671.16 173.22 C 674.45 187.82 677.53 202.50 681.78 216.87 C 675.87 221.03 669.70 224.82 662.28 225.40 C 659.42 225.31 656.58 225.26 653.76 225.23 C 645.96 223.70 638.88 219.21 633.76 213.18 C 633.54 205.98 636.65 198.43 635.00 191.53 C 640.10 189.46 644.07 185.76 647.82 181.85 C 655.18 187.16 665.71 181.56 669.23 174.22 C 663.76 176.30 657.87 176.01 652.20 175.03 C 653.47 171.23 653.60 167.19 654.24 163.27 C 655.74 163.04 658.74 162.57 660.24 162.34 C 665.75 161.49 664.78 153.28 659.22 153.71 C 656.88 153.46 654.58 153.12 652.32 152.71 C 648.89 144.95 643.09 138.73 637.89 132.18 C 637.56 132.39 636.91 132.81 636.59 133.03 C 636.09 132.22 636.25 131.51 637.04 130.88 C 641.09 125.53 643.12 118.98 646.26 113.11 M 666.20 136.13 C 665.26 136.83 664.84 137.78 664.96 138.97 C 667.34 138.60 669.72 138.59 672.12 138.95 C 670.94 136.68 668.80 135.23 666.20 136.13 M 689.04 136.94 C 689.04 138.71 689.03 142.26 689.02 144.04 C 694.68 145.59 693.93 136.50 689.04 136.94 M 652.15 142.14 C 650.48 143.22 651.08 145.38 651.01 147.05 C 654.23 147.98 655.29 142.35 652.15 142.14 M 665.16 142.15 C 663.53 143.16 663.53 145.84 665.16 146.85 C 667.69 147.01 667.69 141.99 665.16 142.15 M 659.02 143.94 C 657.73 146.21 656.68 148.57 655.88 151.04 C 656.17 153.08 659.45 151.59 660.99 152.00 C 662.53 152.88 662.63 148.10 661.23 149.10 C 660.91 147.39 660.81 144.66 659.02 143.94 Z" />
</g>
<g id="#d8183bff">
<path fill="#d8183b" opacity="1.00" d=" M 618.03 116.84 C 618.40 117.23 619.15 118.02 619.53 118.42 C 621.34 124.18 623.19 130.13 622.85 136.24 C 620.73 129.92 619.28 123.37 618.03 116.84 Z" />
</g>
<g id="#f8f1eaff">
<path fill="#f8f1ea" opacity="1.00" d=" M 552.70 127.70 C 557.19 122.29 564.54 122.37 570.85 123.94 C 572.09 124.91 573.35 125.88 574.61 126.84 C 578.03 130.00 579.95 134.32 581.35 138.71 C 581.22 141.87 581.14 145.07 581.26 148.24 C 579.73 158.71 572.06 169.66 561.03 171.15 C 552.84 172.82 545.94 165.62 544.95 158.03 C 541.88 147.50 545.92 135.86 552.70 127.70 Z" />
</g>
<g id="#da2049ff">
<path fill="#da2049" opacity="1.00" d=" M 570.85 123.94 C 574.03 124.14 577.09 124.88 580.20 125.66 C 578.30 125.90 576.40 126.15 574.61 126.84 C 573.35 125.88 572.09 124.91 570.85 123.94 Z" />
</g>
<g id="#de143eff">
<path fill="#de143e" opacity="1.00" d=" M 614.16 126.87 C 615.51 129.18 616.92 132.28 613.76 133.80 C 606.41 132.08 598.69 131.15 591.75 128.19 C 599.28 128.28 606.32 131.74 613.87 131.99 C 614.04 130.29 614.10 128.58 614.16 126.87 Z" />
</g>
<g id="#f8efe7ff">
<path fill="#f8efe7" opacity="1.00" d=" M 636.59 133.03 C 636.91 132.81 637.56 132.39 637.89 132.18 C 643.09 138.73 648.89 144.95 652.32 152.71 C 654.58 153.12 656.88 153.46 659.22 153.71 C 656.45 153.26 654.05 153.75 652.01 155.17 C 652.88 159.39 654.13 164.60 660.24 162.34 C 658.74 162.57 655.74 163.04 654.24 163.27 C 653.60 167.19 653.47 171.23 652.20 175.03 C 650.78 177.33 649.30 179.59 647.82 181.85 C 644.07 185.76 640.10 189.46 635.00 191.53 C 633.57 192.22 632.17 192.96 630.80 193.75 L 630.03 194.11 C 628.05 194.84 626.05 195.47 624.05 196.08 L 624.08 195.12 C 633.66 186.75 641.02 175.11 642.26 162.24 C 643.02 158.74 643.02 155.25 642.27 151.77 C 641.36 145.27 639.56 138.89 636.59 133.03 Z" />
</g>
<g id="#5e4656ff">
<path fill="#5e4656" opacity="1.00" d=" M 666.20 136.13 C 668.80 135.23 670.94 136.68 672.12 138.95 C 669.72 138.59 667.34 138.60 664.96 138.97 C 664.84 137.78 665.26 136.83 666.20 136.13 Z" />
</g>
<g id="#e09d99ff">
<path fill="#e09d99" opacity="1.00" d=" M 689.04 136.94 C 693.93 136.50 694.68 145.59 689.02 144.04 C 689.03 142.26 689.04 138.71 689.04 136.94 Z" />
</g>
<g id="#e56589ff">
<path fill="#e56589" opacity="1.00" d=" M 581.35 138.71 C 582.63 141.77 581.65 145.11 581.26 148.24 C 581.14 145.07 581.22 141.87 581.35 138.71 Z" />
</g>
<g id="#24162fff">
<path fill="#24162f" opacity="1.00" d=" M 652.15 142.14 C 655.29 142.35 654.23 147.98 651.01 147.05 C 651.08 145.38 650.48 143.22 652.15 142.14 Z" />
</g>
<g id="#1b0e2cff">
<path fill="#1b0e2c" opacity="1.00" d=" M 665.16 142.15 C 667.69 141.99 667.69 147.01 665.16 146.85 C 663.53 145.84 663.53 143.16 665.16 142.15 Z" />
</g>
<g id="#d77e78ff">
<path fill="#d77e78" opacity="1.00" d=" M 659.02 143.94 C 660.81 144.66 660.91 147.39 661.23 149.10 C 661.29 152.08 657.74 150.63 655.88 151.04 C 656.68 148.57 657.73 146.21 659.02 143.94 Z" />
</g>
<g id="#e89995ff">
<path fill="#e89995" opacity="1.00" d=" M 661.23 149.10 C 662.63 148.10 662.53 152.88 660.99 152.00 C 659.45 151.59 656.17 153.08 655.88 151.04 C 657.74 150.63 661.29 152.08 661.23 149.10 Z" />
</g>
<g id="#e3b7b0ff">
<path fill="#e3b7b0" opacity="1.00" d=" M 642.27 151.77 C 643.02 155.25 643.02 158.74 642.26 162.24 C 642.03 158.75 642.13 155.25 642.27 151.77 Z" />
</g>
<g id="#fdfcfaff">
<path fill="#fdfcfa" opacity="1.00" d=" M 652.01 155.17 C 654.05 153.75 656.45 153.26 659.22 153.71 C 664.78 153.28 665.75 161.49 660.24 162.34 C 654.13 164.60 652.88 159.39 652.01 155.17 Z" />
</g>
<g id="#d6193bff">
<path fill="#d6193b" opacity="1.00" d=" M 616.06 175.15 C 617.88 168.36 619.82 161.53 621.78 154.76 C 622.46 161.97 619.85 169.10 616.06 175.15 Z" />
</g>
<g id="#141314ff">
<path fill="#141314" opacity="1.00" d=" M 417.16 223.25 C 445.21 204.75 473.33 185.76 503.33 170.64 C 503.69 172.02 503.94 173.42 504.19 174.82 C 475.71 190.09 448.30 207.32 421.64 225.60 C 419.64 228.08 415.80 226.51 417.16 223.25 Z" />
</g>
<g id="#0f0a0aff">
<path fill="#0f0a0a" opacity="1.00" d=" M 652.20 175.03 C 657.87 176.01 663.76 176.30 669.23 174.22 C 665.71 181.56 655.18 187.16 647.82 181.85 C 649.30 179.59 650.78 177.33 652.20 175.03 Z" />
</g>
<g id="#dc153dff">
<path fill="#dc153d" opacity="1.00" d=" M 571.76 176.28 C 575.01 176.69 578.16 177.54 581.20 178.83 C 577.96 178.25 574.82 177.41 571.76 176.28 Z" />
</g>
<g id="#030202ff">
<path fill="#030202" opacity="1.00" d=" M 495.64 186.61 C 498.82 184.24 501.74 181.40 505.35 179.67 C 509.81 191.38 515.26 203.93 525.87 211.25 C 530.53 216.42 537.07 218.43 543.76 219.24 C 549.17 220.22 554.85 220.45 560.27 219.35 C 565.58 218.19 570.81 216.64 575.97 214.95 C 574.79 217.17 574.26 219.73 572.76 221.77 C 550.26 225.98 528.31 232.83 506.91 240.90 C 494.69 245.47 480.72 250.05 474.96 262.96 C 468.37 273.78 475.05 286.27 482.21 294.79 C 493.34 302.89 508.61 304.34 521.31 299.32 C 524.58 297.99 527.87 296.71 531.07 295.20 C 551.32 290.89 570.95 284.09 590.25 276.68 C 590.50 278.31 591.02 281.57 591.28 283.20 C 591.14 300.10 589.88 316.93 589.68 333.82 C 589.18 337.20 588.96 340.64 589.01 344.05 C 589.00 345.75 588.98 349.15 588.96 350.85 L 588.12 351.13 C 543.74 341.75 502.20 320.46 467.28 291.71 C 451.46 278.25 435.97 263.89 424.78 246.23 C 423.99 245.36 423.77 244.36 424.13 243.22 C 448.27 224.75 471.49 205.09 495.64 186.61 Z" />
</g>
<g id="#d7183cff">
<path fill="#d7183c" opacity="1.00" d=" M 607.90 188.97 C 608.78 186.66 610.12 184.50 611.98 182.85 C 611.60 185.46 610.34 187.78 607.90 188.97 Z" />
</g>
<g id="#fccbc7ff">
<path fill="#fccbc7" opacity="1.00" d=" M 745.13 183.09 C 746.60 182.97 746.95 184.87 747.07 185.99 C 748.89 196.55 748.95 207.30 750.14 217.94 C 750.59 219.42 750.83 221.61 752.96 221.04 C 756.30 209.45 755.75 196.61 762.08 185.98 C 765.44 185.00 766.60 188.27 766.03 191.00 C 765.96 196.66 765.95 202.33 766.00 208.00 C 766.04 213.04 765.86 218.09 766.06 223.13 C 770.84 216.63 769.60 206.55 775.13 200.07 C 779.12 201.46 777.96 206.56 778.87 210.00 C 777.47 233.98 771.43 257.40 765.64 280.63 C 756.08 293.80 733.97 295.11 723.21 282.80 C 718.53 278.47 715.99 272.01 710.46 268.63 C 706.02 258.66 696.40 250.98 694.02 240.05 C 694.64 236.30 698.87 239.39 701.08 239.88 C 707.19 240.98 711.38 247.94 717.84 246.92 C 721.44 237.32 721.55 227.03 722.98 217.00 C 724.52 206.39 723.70 195.35 727.16 185.07 C 727.82 185.08 729.14 185.10 729.80 185.11 C 734.37 195.80 734.27 207.63 736.13 218.94 C 736.56 219.98 736.59 221.65 737.85 222.04 C 739.54 213.99 740.05 205.76 741.41 197.65 C 742.44 192.84 741.97 187.19 745.13 183.09 Z" />
</g>
<g id="#d9173cff">
<path fill="#d9173c" opacity="1.00" d=" M 597.93 183.95 C 599.33 184.15 600.90 184.06 601.97 185.19 C 602.65 187.71 600.23 189.22 598.81 190.82 C 596.00 193.38 593.58 196.57 589.96 198.03 C 593.04 194.11 597.01 190.95 600.08 187.04 C 599.44 185.95 598.66 184.96 597.93 183.95 Z" />
</g>
<g id="#da173cff">
<path fill="#da173c" opacity="1.00" d=" M 598.10 200.22 C 600.92 196.12 604.35 192.45 607.90 188.97 C 605.99 193.73 602.71 197.87 598.10 200.22 Z" />
</g>
<g id="#f7d7d5ff">
<path fill="#f7d7d5" opacity="1.00" d=" M 766.03 191.00 L 766.99 191.00 C 766.99 196.66 767.14 202.32 766.96 207.98 L 766.00 208.00 C 765.95 202.33 765.96 196.66 766.03 191.00 Z" />
</g>
<g id="#150e0dff">
<path fill="#150e0d" opacity="1.00" d=" M 630.80 193.75 C 632.17 192.96 633.57 192.22 635.00 191.53 C 636.65 198.43 633.54 205.98 633.76 213.18 C 632.87 212.39 631.96 211.61 631.07 210.83 L 631.03 209.91 C 630.95 204.52 631.14 199.13 630.80 193.75 Z" />
</g>
<g id="#c02c36ff">
<path fill="#c02c36" opacity="1.00" d=" M 624.05 196.08 C 626.05 195.47 628.05 194.84 630.03 194.11 C 629.97 199.41 629.96 204.74 630.06 210.05 C 629.87 212.71 630.23 215.51 629.07 218.00 C 626.29 217.99 620.50 221.55 624.08 214.10 C 624.65 211.46 629.50 211.30 629.07 207.96 C 627.35 208.10 625.70 208.54 624.05 208.95 C 623.97 206.23 623.90 203.51 623.84 200.79 C 623.92 199.22 623.97 197.65 624.05 196.08 Z" />
</g>
<g id="#9d2636ff">
<path fill="#9d2636" opacity="1.00" d=" M 630.03 194.11 L 630.80 193.75 C 631.14 199.13 630.95 204.52 631.03 209.91 L 630.06 210.05 C 629.96 204.74 629.97 199.41 630.03 194.11 Z" />
</g>
<g id="#fbc9c5ff">
<path fill="#fbc9c5" opacity="1.00" d=" M 622.13 196.64 C 622.76 196.12 623.41 195.61 624.08 195.12 L 624.05 196.08 C 623.97 197.65 623.92 199.22 623.84 200.79 C 623.60 201.31 623.10 202.35 622.85 202.87 C 618.19 207.35 612.47 210.56 607.82 215.01 C 613.31 214.44 618.28 211.59 623.23 209.28 L 624.05 208.95 C 625.70 208.54 627.35 208.10 629.07 207.96 C 629.50 211.30 624.65 211.46 624.08 214.10 C 620.50 221.55 626.29 217.99 629.07 218.00 C 629.56 217.96 630.54 217.87 631.03 217.83 C 634.34 217.42 632.86 221.17 630.94 221.99 C 628.08 223.91 622.71 224.24 623.97 228.88 C 625.92 228.91 629.40 226.60 629.52 229.88 C 628.02 231.33 626.19 232.35 624.49 233.51 C 624.20 234.95 623.62 237.82 623.33 239.26 C 623.19 237.53 623.08 235.81 622.91 234.09 C 614.60 238.18 605.67 240.81 596.85 243.57 C 593.37 244.72 589.77 245.31 586.28 246.34 C 581.97 248.46 579.25 252.61 575.77 255.77 C 563.63 266.30 552.16 277.63 539.32 287.36 C 536.78 290.20 532.77 291.61 531.07 295.20 C 527.87 296.71 524.58 297.99 521.31 299.32 C 508.61 304.34 493.34 302.89 482.21 294.79 C 475.05 286.27 468.37 273.78 474.96 262.96 C 480.72 250.05 494.69 245.47 506.91 240.90 C 528.31 232.83 550.26 225.98 572.76 221.77 C 574.26 219.73 574.79 217.17 575.97 214.95 C 579.93 213.09 583.75 210.96 587.58 208.83 C 587.94 210.27 588.14 211.84 589.18 213.00 C 593.11 212.98 597.27 210.71 596.13 206.20 L 596.92 205.93 C 596.94 207.31 597.01 208.69 597.11 210.07 C 605.91 207.12 614.05 202.49 622.89 199.66 C 622.90 198.59 622.65 197.58 622.13 196.64 M 621.27 215.30 C 617.76 217.32 614.13 219.59 611.90 223.02 C 615.19 222.92 618.19 221.33 621.30 220.38 C 624.42 220.51 624.58 213.04 621.27 215.30 M 623.01 226.05 C 620.71 227.45 617.56 227.85 615.80 229.94 C 618.27 230.00 624.33 230.31 623.01 226.05 Z" />
</g>
<g id="#f6e6deff">
<path fill="#f6e6de" opacity="1.00" d=" M 596.92 205.93 C 605.32 202.83 614.13 200.73 622.13 196.64 C 622.65 197.58 622.90 198.59 622.89 199.66 C 614.05 202.49 605.91 207.12 597.11 210.07 C 597.01 208.69 596.94 207.31 596.92 205.93 Z" />
</g>
<g id="#daa5a6ff">
<path fill="#daa5a6" opacity="1.00" d=" M 622.85 202.87 C 623.10 202.35 623.60 201.31 623.84 200.79 C 623.90 203.51 623.97 206.23 624.05 208.95 L 623.23 209.28 C 623.07 207.15 622.94 205.01 622.85 202.87 Z" />
</g>
<g id="#fbeee7ff">
<path fill="#fbeee7" opacity="1.00" d=" M 607.82 215.01 C 612.47 210.56 618.19 207.35 622.85 202.87 C 622.94 205.01 623.07 207.15 623.23 209.28 C 618.28 211.59 613.31 214.44 607.82 215.01 Z" />
</g>
<g id="#1b0d0dff">
<path fill="#1b0d0d" opacity="1.00" d=" M 588.82 207.92 C 591.33 207.72 593.75 206.97 596.13 206.20 C 597.27 210.71 593.11 212.98 589.18 213.00 C 588.14 211.84 587.94 210.27 587.58 208.83 C 587.89 208.60 588.51 208.14 588.82 207.92 Z" />
</g>
<g id="#d8193cff">
<path fill="#d8193c" opacity="1.00" d=" M 543.76 211.23 C 551.26 211.13 558.74 210.60 566.23 210.17 C 559.35 213.77 551.09 211.83 543.76 211.23 Z" />
</g>
<g id="#c7495bff">
<path fill="#c7495b" opacity="1.00" d=" M 630.06 210.05 L 631.03 209.91 L 631.07 210.83 C 631.06 212.58 631.04 216.08 631.03 217.83 C 630.54 217.87 629.56 217.96 629.07 218.00 C 630.23 215.51 629.87 212.71 630.06 210.05 Z" />
</g>
<g id="#fbfbfbff">
<path fill="#fbfbfb" opacity="1.00" d=" M 631.07 210.83 C 631.96 211.61 632.87 212.39 633.76 213.18 C 638.88 219.21 645.96 223.70 653.76 225.23 C 656.51 225.89 659.51 226.32 662.28 225.40 C 669.70 224.82 675.87 221.03 681.78 216.87 C 685.46 218.24 689.27 219.25 693.07 220.26 C 691.86 227.81 683.90 232.24 677.10 234.15 C 661.58 238.60 644.73 234.93 631.01 226.95 C 630.95 225.30 630.94 223.64 630.94 221.99 C 632.86 221.17 634.34 217.42 631.03 217.83 C 631.04 216.08 631.06 212.58 631.07 210.83 Z" />
</g>
<g id="#faede5ff">
<path fill="#faede5" opacity="1.00" d=" M 621.27 215.30 C 624.58 213.04 624.42 220.51 621.30 220.38 C 618.19 221.33 615.19 222.92 611.90 223.02 C 614.13 219.59 617.76 217.32 621.27 215.30 Z" />
</g>
<g id="#790c24ff">
<path fill="#790c24" opacity="1.00" d=" M 543.76 219.24 C 549.26 218.80 554.75 219.12 560.27 219.35 C 554.85 220.45 549.17 220.22 543.76 219.24 Z" />
</g>
<g id="#39445fff">
<path fill="#39445f" opacity="1.00" d=" M 693.07 220.26 C 694.05 220.50 695.04 220.76 696.03 221.03 C 692.74 231.69 680.62 237.85 670.01 238.03 C 665.98 238.00 661.98 237.99 657.98 238.00 C 648.49 237.73 639.10 234.94 631.06 229.89 C 631.04 229.15 631.02 227.69 631.01 226.95 C 644.73 234.93 661.58 238.60 677.10 234.15 C 683.90 232.24 691.86 227.81 693.07 220.26 Z" />
</g>
<g id="#bf3f49ff">
<path fill="#bf3f49" opacity="1.00" d=" M 623.97 228.88 C 622.71 224.24 628.08 223.91 630.94 221.99 C 630.94 223.64 630.95 225.30 631.01 226.95 C 631.02 227.69 631.04 229.15 631.06 229.89 C 630.46 232.31 632.40 237.16 630.05 238.02 C 629.89 235.29 630.38 232.50 629.52 229.88 C 629.40 226.60 625.92 228.91 623.97 228.88 Z" />
</g>
<g id="#fbdfddff">
<path fill="#fbdfdd" opacity="1.00" d=" M 653.76 225.23 C 656.58 225.26 659.42 225.31 662.28 225.40 C 659.51 226.32 656.51 225.89 653.76 225.23 Z" />
</g>
<g id="#fde9e2ff">
<path fill="#fde9e2" opacity="1.00" d=" M 623.01 226.05 C 624.33 230.31 618.27 230.00 615.80 229.94 C 617.56 227.85 620.71 227.45 623.01 226.05 Z" />
</g>
<g id="#be333cff">
<path fill="#be333c" opacity="1.00" d=" M 629.52 229.88 C 630.38 232.50 629.89 235.29 630.05 238.02 C 628.65 243.04 624.33 246.72 619.70 248.87 C 619.01 248.88 617.63 248.89 616.94 248.90 C 619.38 245.93 622.86 243.36 623.33 239.26 C 623.62 237.82 624.20 234.95 624.49 233.51 C 626.19 232.35 628.02 231.33 629.52 229.88 Z" />
</g>
<g id="#f7f0e9ff">
<path fill="#f7f0e9" opacity="1.00" d=" M 596.85 243.57 C 605.67 240.81 614.60 238.18 622.91 234.09 C 623.08 235.81 623.19 237.53 623.33 239.26 C 622.86 243.36 619.38 245.93 616.94 248.90 C 617.63 248.89 619.01 248.88 619.70 248.87 L 620.06 249.87 C 615.36 249.64 610.39 250.96 605.89 249.21 C 602.40 248.23 599.99 245.22 596.85 243.57 Z" />
</g>
<g id="#9aa1acff">
<path fill="#9aa1ac" opacity="1.00" d=" M 657.98 238.00 C 661.98 237.99 665.98 238.00 670.01 238.03 L 669.99 239.00 C 666.84 237.82 659.44 241.09 657.98 238.00 Z" />
</g>
<g id="#fcc5c1ff">
<path fill="#fcc5c1" opacity="1.00" d=" M 710.46 268.63 C 715.99 272.01 718.53 278.47 723.21 282.80 C 733.97 295.11 756.08 293.80 765.64 280.63 C 765.68 281.39 765.76 282.91 765.80 283.67 C 761.96 286.71 758.32 290.28 753.35 291.40 C 744.71 292.20 734.42 293.74 727.01 288.00 C 720.95 283.70 717.04 277.25 712.30 271.70 C 711.14 270.00 709.85 272.20 708.83 272.84 C 708.92 271.27 709.21 269.72 710.46 268.63 Z" />
</g>
<g id="#fcbcb8ff">
<path fill="#fcbcb8" opacity="1.00" d=" M 708.83 272.84 C 709.85 272.20 711.14 270.00 712.30 271.70 C 717.04 277.25 720.95 283.70 727.01 288.00 C 734.42 293.74 744.71 292.20 753.35 291.40 C 758.32 290.28 761.96 286.71 765.80 283.67 C 768.63 296.93 761.77 310.70 749.96 316.94 C 743.78 321.08 736.06 319.99 729.06 319.88 C 726.34 319.25 722.50 316.28 721.12 320.05 C 721.02 319.35 720.81 317.95 720.71 317.25 C 716.05 313.32 710.69 309.62 708.31 303.79 C 702.78 294.39 704.37 282.19 708.83 272.84 Z" />
</g>
<g id="#c3c3c3ff">
<path fill="#c3c3c3" opacity="1.00" d=" M 590.25 276.68 C 590.80 275.40 591.40 275.49 592.05 276.94 C 591.86 278.51 591.47 281.63 591.28 283.20 C 591.02 281.57 590.50 278.31 590.25 276.68 Z" />
</g>
<g id="#e4e5e9ff">
<path fill="#e4e5e9" opacity="1.00" d=" M 592.05 276.94 C 618.68 299.67 645.43 322.25 672.08 344.96 C 644.77 341.92 617.44 339.05 590.17 335.78 C 590.05 335.29 589.80 334.31 589.68 333.82 C 589.88 316.93 591.14 300.10 591.28 283.20 C 591.47 281.63 591.86 278.51 592.05 276.94 Z" />
</g>
<g id="#c6cbd3ff">
<path fill="#c6cbd3" opacity="1.00" d=" M 227.05 291.01 L 228.00 291.03 L 228.02 292.01 C 227.96 314.67 228.04 337.34 227.99 360.01 L 227.01 359.95 C 227.01 336.97 226.93 313.98 227.05 291.01 Z" />
</g>
<g id="#737e8cff">
<path fill="#737e8c" opacity="1.00" d=" M 228.00 291.03 C 244.00 290.98 260.00 290.93 276.01 291.05 L 275.92 292.02 C 259.95 291.97 243.98 292.01 228.02 292.01 L 228.00 291.03 Z" />
</g>
<g id="#747e8bff">
<path fill="#747e8b" opacity="1.00" d=" M 294.98 291.03 C 308.98 290.99 323.00 290.92 337.01 291.05 L 336.98 292.01 C 323.32 292.00 309.67 291.97 296.02 292.02 L 295.05 291.99 L 294.98 291.03 Z" />
</g>
<g id="#c4cad4ff">
<path fill="#c4cad4" opacity="1.00" d=" M 337.01 291.05 L 337.97 290.98 C 338.01 298.32 338.10 305.68 337.98 313.03 L 337.00 312.99 C 336.96 305.99 337.03 299.01 336.98 292.01 L 337.01 291.05 Z" />
</g>
<g id="#75808cff">
<path fill="#75808c" opacity="1.00" d=" M 368.00 291.01 C 394.99 290.99 421.99 290.97 448.98 291.02 L 449.02 291.98 C 422.01 292.00 395.01 292.02 368.00 291.98 L 368.00 291.01 Z" />
</g>
<g id="#1f2f51ff">
<path fill="#1f2f51" opacity="1.00" d=" M 228.02 292.01 C 243.98 292.01 259.95 291.97 275.92 292.02 C 277.62 291.75 276.95 294.31 277.65 295.29 C 280.05 304.69 283.46 313.75 286.18 323.04 C 289.58 333.94 293.05 344.81 296.30 355.76 C 295.34 360.78 306.09 360.23 300.74 354.11 C 299.31 342.96 298.05 331.75 296.33 320.66 C 296.25 318.99 296.07 315.67 295.98 314.01 C 296.01 306.67 295.99 299.34 296.02 292.02 C 309.67 291.97 323.32 292.00 336.98 292.01 C 337.03 299.01 336.96 305.99 337.00 312.99 C 336.97 354.33 337.04 395.66 336.98 437.00 C 320.98 436.98 304.98 437.02 288.98 436.99 C 281.17 415.34 275.08 393.12 267.60 371.36 C 267.25 369.53 265.37 370.03 264.01 369.99 C 265.32 385.29 267.54 400.51 269.27 415.78 C 269.02 422.83 268.96 429.91 269.00 436.98 C 255.26 437.19 241.52 436.66 227.79 437.19 C 228.24 411.47 227.90 385.74 227.99 360.01 C 228.04 337.34 227.96 314.67 228.02 292.01 Z" />
<path fill="#1f2f51" opacity="1.00" d=" M 353.97 313.04 C 352.65 304.06 358.07 292.68 368.00 291.98 C 395.01 292.02 422.01 292.00 449.02 291.98 C 456.29 292.14 462.24 299.14 463.02 305.98 C 463.00 322.67 462.96 339.36 463.02 356.05 C 463.11 378.45 462.70 400.86 463.28 423.25 C 461.95 430.16 456.11 435.91 449.25 437.28 C 422.42 436.85 395.57 436.78 368.75 437.25 C 359.93 436.04 353.44 427.89 354.06 419.01 C 353.88 383.68 354.09 348.36 353.97 313.04 M 399.05 328.01 C 398.94 352.34 399.00 376.67 399.03 401.01 L 400.01 400.96 C 405.66 401.07 411.32 401.07 416.99 400.97 L 417.95 400.99 C 418.07 376.66 417.99 352.32 417.98 327.98 L 417.01 328.04 C 411.33 327.92 405.66 327.92 400.00 328.03 L 399.05 328.01 Z" />
<path fill="#1f2f51" opacity="1.00" d=" M 286.05 460.01 C 298.03 459.99 310.01 459.99 322.00 460.01 C 322.23 463.84 322.19 470.60 318.93 472.97 C 313.64 472.94 308.35 472.96 303.07 473.03 L 303.01 474.00 C 302.93 475.66 302.93 477.33 303.01 479.01 L 303.07 479.97 C 308.37 480.03 313.67 480.05 318.98 480.02 C 318.99 484.00 318.99 487.99 318.98 491.99 C 313.66 491.94 308.35 491.95 303.05 492.02 L 303.00 492.98 C 303.00 494.73 303.01 498.22 303.02 499.97 C 309.34 500.14 315.67 499.81 321.99 500.06 C 321.98 504.35 321.99 508.68 321.99 513.00 C 310.00 512.99 298.02 513.01 286.03 512.99 C 285.98 495.33 285.94 477.66 286.05 460.01 Z" />
</g>
<g id="#485067ff">
<path fill="#485067" opacity="1.00" d=" M 295.05 291.99 L 296.02 292.02 C 295.99 299.34 296.01 306.67 295.98 314.01 L 295.02 313.99 C 294.99 306.66 294.86 299.32 295.05 291.99 Z" />
</g>
<g id="#060506ff">
<path fill="#060506" opacity="1.00" d=" M 708.31 303.79 C 710.69 309.62 716.05 313.32 720.71 317.25 C 720.81 317.95 721.02 319.35 721.12 320.05 C 720.33 330.58 718.48 340.97 716.45 351.31 C 715.80 353.72 715.69 357.12 712.70 357.70 C 708.80 358.04 704.90 358.13 701.02 357.97 C 701.60 355.71 701.97 353.41 702.24 351.10 C 702.80 349.11 703.06 347.05 703.05 344.99 C 703.02 332.89 705.79 320.99 706.92 308.97 C 706.97 307.15 707.66 305.46 708.31 303.79 Z" />
</g>
<g id="#8f98a5ff">
<path fill="#8f98a5" opacity="1.00" d=" M 463.02 305.98 L 463.99 306.01 C 464.00 322.62 464.04 339.23 463.99 355.84 L 463.02 356.05 C 462.96 339.36 463.00 322.67 463.02 305.98 Z" />
</g>
<g id="#97a3bbff">
<path fill="#97a3bb" opacity="1.00" d=" M 337.00 312.99 L 337.98 313.03 C 338.05 353.35 337.94 393.68 338.04 434.01 C 337.59 435.16 338.97 438.21 336.99 437.97 L 336.98 437.00 C 337.04 395.66 336.97 354.33 337.00 312.99 Z" />
</g>
<g id="#c0c6d6ff">
<path fill="#c0c6d6" opacity="1.00" d=" M 337.98 313.03 C 343.30 312.96 348.65 312.88 353.97 313.04 C 354.09 348.36 353.88 383.68 354.06 419.01 C 353.44 427.89 359.93 436.04 368.75 437.25 C 387.08 438.97 405.59 437.52 424.00 438.01 C 432.40 437.81 440.89 438.61 449.25 437.28 C 456.11 435.91 461.95 430.16 463.28 423.25 C 464.94 400.86 463.55 378.30 463.99 355.84 C 482.07 371.62 496.53 391.34 507.35 412.70 C 520.90 442.48 527.23 475.73 523.59 508.35 C 518.87 551.96 497.19 593.43 464.00 622.15 C 464.02 600.10 463.95 578.05 464.05 556.00 C 463.78 552.89 464.48 549.69 463.35 546.71 C 461.88 540.65 457.50 535.14 451.32 533.58 C 450.79 533.39 449.73 533.02 449.20 532.83 C 430.92 530.90 412.38 532.54 394.00 531.99 C 385.59 532.22 377.08 531.30 368.76 532.77 C 367.71 532.98 366.71 533.31 365.73 533.73 C 359.78 535.31 356.54 540.86 353.98 546.04 C 352.13 552.47 353.30 559.37 352.98 566.00 C 353.03 598.99 352.99 631.98 353.00 664.98 C 347.98 664.97 342.99 665.01 337.98 664.99 C 337.90 621.09 338.22 577.19 337.84 533.30 L 337.22 532.77 C 323.53 531.05 309.04 532.33 295.06 532.06 L 295.01 533.01 C 295.24 540.72 294.18 548.64 295.67 556.27 C 297.30 570.87 298.97 585.48 301.03 600.01 C 299.78 600.05 298.55 599.99 297.32 599.82 C 290.39 578.92 284.81 557.56 277.19 536.92 C 276.75 535.59 277.52 533.60 276.19 532.77 C 263.11 530.97 249.33 532.50 235.99 531.95 C 233.84 533.25 229.80 530.73 227.78 532.80 L 227.22 533.41 C 226.67 561.30 227.18 589.20 226.98 617.10 C 173.78 569.50 157.09 487.26 184.87 421.92 C 194.24 398.85 208.74 377.79 226.97 360.90 C 227.19 386.12 226.67 411.36 227.22 436.57 L 227.79 437.19 C 241.32 439.01 255.98 437.62 269.94 437.95 L 269.99 437.00 C 270.07 429.92 270.31 422.79 269.27 415.78 C 267.54 400.51 265.32 385.29 264.01 369.99 C 265.37 370.03 267.25 369.53 267.60 371.36 C 275.08 393.12 281.17 415.34 288.98 436.99 L 289.33 437.84 C 305.21 438.17 321.10 438.00 336.99 437.97 C 338.97 438.21 337.59 435.16 338.04 434.01 C 337.94 393.68 338.05 353.35 337.98 313.03 M 228.93 459.08 L 229.20 460.02 C 226.39 474.49 225.61 489.34 223.99 503.99 C 223.74 506.48 223.26 511.46 223.02 513.95 C 228.68 514.15 234.35 513.99 240.02 513.97 L 239.94 513.00 C 240.21 504.60 239.79 496.18 240.08 487.79 C 241.18 488.45 241.51 489.89 241.87 491.05 C 242.81 498.39 244.58 505.63 245.15 513.02 L 244.95 513.96 C 248.71 513.96 256.23 513.95 259.99 513.95 C 259.97 513.50 259.95 512.61 259.93 512.16 C 260.56 506.04 262.31 500.08 262.74 493.93 C 261.97 491.07 262.69 489.05 264.91 487.86 C 265.24 496.23 264.79 504.61 265.03 512.99 L 264.99 513.97 C 270.32 514.06 275.66 514.06 281.00 513.97 L 281.95 513.99 C 281.24 511.58 284.24 505.05 281.02 504.99 C 279.45 490.00 277.73 474.99 275.84 460.02 L 276.03 459.06 C 269.67 458.82 263.29 459.00 256.94 459.08 L 257.18 460.03 C 255.00 466.83 254.69 474.12 252.82 481.04 C 251.60 480.62 251.55 478.98 251.16 477.95 C 250.41 471.91 249.12 465.96 247.81 460.03 L 248.04 459.07 C 241.67 458.81 235.29 459.00 228.93 459.08 M 285.98 459.03 L 286.05 460.01 C 285.94 477.66 285.98 495.33 286.03 512.99 L 286.00 513.97 C 298.00 514.04 310.00 514.02 322.00 513.97 L 321.99 513.00 L 322.95 512.98 C 323.17 508.65 322.98 504.29 322.97 499.98 L 321.99 500.06 C 315.67 499.81 309.34 500.14 303.02 499.97 C 303.01 498.22 303.00 494.73 303.00 492.98 C 308.33 493.09 313.66 493.02 319.00 492.96 L 319.95 492.99 C 320.15 488.32 319.98 483.62 319.97 478.97 L 319.01 479.06 C 313.68 478.86 308.33 478.97 303.01 479.01 C 302.93 477.33 302.93 475.66 303.01 474.00 C 308.34 474.07 313.68 474.05 319.02 473.96 L 318.93 472.97 C 322.19 470.60 322.23 463.84 322.00 460.01 L 321.99 459.03 C 309.99 458.95 297.98 458.96 285.98 459.03 M 332.94 459.08 L 333.18 460.03 C 332.94 460.33 332.46 460.93 332.23 461.23 C 330.70 471.38 328.95 481.49 327.46 491.65 C 326.51 498.74 324.28 505.74 325.00 512.99 L 325.01 513.96 C 330.69 514.15 336.37 513.99 342.06 513.95 L 341.84 512.99 C 342.32 509.61 342.72 506.17 343.24 502.82 C 345.31 503.37 347.78 503.35 349.85 502.74 C 351.61 505.08 350.79 508.05 351.10 510.84 C 351.08 511.62 351.04 513.19 351.02 513.97 C 356.67 514.07 362.33 514.06 367.99 513.98 L 368.95 513.99 C 368.53 511.59 370.21 506.91 368.03 506.00 C 366.08 490.65 362.90 475.38 360.83 460.02 L 361.03 459.06 C 351.67 458.85 342.30 458.99 332.94 459.08 M 373.00 459.03 L 373.01 460.00 L 372.05 460.02 C 371.92 477.67 372.01 495.34 372.03 513.00 L 373.00 512.99 L 373.02 513.95 C 378.01 514.15 382.99 514.00 388.00 513.97 L 388.95 513.99 C 388.25 511.58 391.23 505.05 388.02 504.99 C 387.86 499.60 386.71 494.28 386.21 488.92 C 386.59 488.98 387.36 489.11 387.74 489.17 C 389.89 497.21 393.11 504.90 395.16 512.96 L 394.97 513.94 C 400.97 514.13 406.98 514.02 413.00 513.97 L 413.95 513.99 C 414.09 496.00 413.98 478.00 413.97 460.00 L 412.99 460.00 L 413.00 459.02 C 409.25 459.03 401.77 459.06 398.02 459.08 L 397.95 460.12 C 396.16 460.96 396.15 466.02 397.94 466.84 C 398.26 472.95 399.93 478.96 399.99 485.12 C 399.55 484.79 398.65 484.12 398.20 483.78 C 396.36 475.73 393.61 467.64 390.84 460.03 L 391.03 459.07 C 385.02 458.81 379.00 459.00 373.00 459.03 M 423.01 459.02 L 422.99 460.00 C 420.21 460.10 417.51 463.12 417.98 465.98 C 414.92 467.49 418.15 474.84 417.00 477.99 L 417.97 478.01 C 417.24 486.54 427.58 489.70 433.05 493.91 C 436.56 494.43 437.41 497.10 437.00 499.95 C 430.67 500.19 424.33 499.82 418.01 500.03 L 417.05 500.01 C 416.83 504.33 416.98 508.65 417.02 513.00 L 418.00 512.99 L 418.01 513.97 C 428.33 514.05 438.66 514.02 448.99 513.98 L 449.02 513.01 C 452.83 512.80 454.81 508.48 454.03 505.00 L 454.99 504.99 C 454.99 502.24 455.00 496.75 455.00 494.00 L 454.03 493.99 C 454.87 485.83 445.05 482.96 439.96 479.06 C 438.68 477.29 434.26 477.04 434.99 474.00 C 440.68 474.12 446.37 474.00 452.07 473.91 L 451.73 472.96 C 452.84 468.65 455.51 464.78 454.00 460.01 L 453.99 459.03 C 443.66 458.94 433.33 458.97 423.01 459.02 Z" />
<path fill="#c0c6d6" opacity="1.00" d=" M 400.02 329.01 C 405.67 328.99 411.32 328.99 416.98 329.01 C 417.01 352.99 417.00 376.98 416.99 400.97 C 411.32 401.07 405.66 401.07 400.01 400.96 C 400.00 376.98 399.98 352.99 400.02 329.01 Z" />
<path fill="#c0c6d6" opacity="1.00" d=" M 401.20 573.26 C 402.92 570.76 405.81 569.83 408.99 570.97 C 412.36 569.56 415.12 571.77 416.98 574.08 C 417.02 596.38 417.00 618.69 416.98 641.00 C 412.01 641.02 407.02 641.03 402.06 640.94 C 401.51 618.38 402.91 595.76 401.20 573.26 Z" />
</g>
<g id="#b8c0d1ff">
<path fill="#b8c0d1" opacity="1.00" d=" M 286.18 323.04 C 289.75 323.14 292.86 321.14 296.33 320.66 C 298.05 331.75 299.31 342.96 300.74 354.11 C 306.09 360.23 295.34 360.78 296.30 355.76 C 293.05 344.81 289.58 333.94 286.18 323.04 Z" />
</g>
<g id="#455474ff">
<path fill="#455474" opacity="1.00" d=" M 399.05 328.01 L 400.00 328.03 L 400.02 329.01 C 399.98 352.99 400.00 376.98 400.01 400.96 L 399.03 401.01 C 399.00 376.67 398.94 352.34 399.05 328.01 Z" />
</g>
<g id="#abb3c5ff">
<path fill="#abb3c5" opacity="1.00" d=" M 400.00 328.03 C 405.66 327.92 411.33 327.92 417.01 328.04 L 416.98 329.01 C 411.32 328.99 405.67 328.99 400.02 329.01 L 400.00 328.03 Z" />
</g>
<g id="#96a1b6ff">
<path fill="#96a1b6" opacity="1.00" d=" M 417.01 328.04 L 417.98 327.98 C 417.99 352.32 418.07 376.66 417.95 400.99 L 416.99 400.97 C 417.00 376.98 417.01 352.99 416.98 329.01 L 417.01 328.04 Z" />
</g>
<g id="#37425bff">
<path fill="#37425b" opacity="1.00" d=" M 589.01 344.05 C 588.96 340.64 589.18 337.20 589.68 333.82 C 589.80 334.31 590.05 335.29 590.17 335.78 C 617.44 339.05 644.77 341.92 672.08 344.96 C 681.72 345.69 691.33 346.81 700.93 347.94 C 703.24 348.84 700.73 344.31 703.05 344.99 C 703.06 347.05 702.80 349.11 702.24 351.10 C 693.77 350.09 685.28 349.04 676.82 348.08 C 647.89 344.94 618.92 341.89 590.08 338.13 C 590.00 339.61 589.85 342.58 589.78 344.07 L 589.01 344.05 Z" />
</g>
<g id="#e2e4e9ff">
<path fill="#e2e4e9" opacity="1.00" d=" M 590.08 338.13 C 618.92 341.89 647.89 344.94 676.82 348.08 C 682.37 354.60 689.47 359.49 695.76 365.23 C 696.91 366.51 699.17 366.92 699.11 368.99 C 695.92 369.72 692.93 367.66 689.89 368.83 C 687.28 368.03 684.63 367.27 681.91 367.04 C 656.00 364.32 630.23 360.01 604.33 357.59 C 599.00 355.37 590.16 357.97 588.12 351.13 L 588.96 350.85 C 590.57 348.88 590.84 346.62 589.78 344.07 C 589.85 342.58 590.00 339.61 590.08 338.13 Z" />
</g>
<g id="#77767bff">
<path fill="#77767b" opacity="1.00" d=" M 589.01 344.05 L 589.78 344.07 C 590.84 346.62 590.57 348.88 588.96 350.85 C 588.98 349.15 589.00 345.75 589.01 344.05 Z" />
</g>
<g id="#6d7d95ff">
<path fill="#6d7d95" opacity="1.00" d=" M 463.02 356.05 L 463.99 355.84 C 463.55 378.30 464.94 400.86 463.28 423.25 C 462.70 400.86 463.11 378.45 463.02 356.05 Z" />
</g>
<g id="#141e37ff">
<path fill="#141e37" opacity="1.00" d=" M 604.33 357.59 C 630.23 360.01 656.00 364.32 681.91 367.04 C 682.61 367.61 683.30 368.21 683.97 368.85 C 678.46 372.73 673.44 377.66 667.12 380.21 C 666.98 375.47 667.21 370.75 666.92 366.03 C 664.58 365.22 665.03 367.16 665.28 368.74 C 665.13 372.81 665.04 376.89 665.00 380.98 C 664.97 381.45 664.91 382.38 664.87 382.85 C 637.68 399.64 612.09 418.89 585.30 436.31 C 583.61 437.12 582.08 439.09 580.05 438.17 C 579.92 436.51 579.81 434.86 579.61 433.23 C 579.85 430.48 579.38 427.33 582.16 425.98 C 582.67 425.93 583.67 425.83 584.18 425.78 C 594.01 424.15 603.39 418.24 608.55 409.61 C 617.44 394.98 626.25 380.04 631.89 363.81 C 630.06 363.84 629.66 365.65 628.99 366.99 C 622.08 383.25 614.02 399.24 603.29 413.29 C 598.20 419.86 590.52 422.88 582.74 424.76 C 574.67 425.53 566.05 425.29 558.75 421.35 C 569.84 397.61 584.19 374.71 604.33 357.59 Z" />
<path fill="#141e37" opacity="1.00" d=" M 558.04 423.11 C 562.12 424.70 566.44 425.62 570.79 426.21 C 573.15 426.68 575.69 427.07 578.03 427.92 C 578.14 430.52 578.26 433.14 578.38 435.78 C 578.09 437.40 577.51 440.65 577.22 442.27 C 569.78 447.51 561.74 451.91 554.60 457.58 C 553.54 458.30 552.39 458.89 551.12 459.11 C 550.99 457.40 550.98 455.70 550.95 453.99 C 550.54 443.33 553.42 432.64 558.04 423.11 Z" />
</g>
<g id="#97a2b9ff">
<path fill="#97a2b9" opacity="1.00" d=" M 227.01 359.95 L 227.99 360.01 C 227.90 385.74 228.24 411.47 227.79 437.19 L 227.22 436.57 C 226.67 411.36 227.19 386.12 226.97 360.90 L 227.01 359.95 Z" />
</g>
<g id="#737d95ff">
<path fill="#737d95" opacity="1.00" d=" M 628.99 366.99 C 629.66 365.65 630.06 363.84 631.89 363.81 C 626.25 380.04 617.44 394.98 608.55 409.61 C 603.39 418.24 594.01 424.15 584.18 425.78 C 583.82 425.52 583.10 425.01 582.74 424.76 C 590.52 422.88 598.20 419.86 603.29 413.29 C 614.02 399.24 622.08 383.25 628.99 366.99 Z" />
</g>
<g id="#636d85ff">
<path fill="#636d85" opacity="1.00" d=" M 665.28 368.74 C 665.03 367.16 664.58 365.22 666.92 366.03 C 667.21 370.75 666.98 375.47 667.12 380.21 L 667.03 381.11 L 666.04 381.02 C 665.88 376.92 666.08 372.77 665.28 368.74 Z" />
</g>
<g id="#213152ff">
<path fill="#213152" opacity="1.00" d=" M 681.91 367.04 C 684.63 367.27 687.28 368.03 689.89 368.83 C 701.27 395.97 707.34 424.89 714.50 453.35 C 738.60 559.55 756.52 666.98 774.46 774.36 C 779.45 803.86 783.63 833.51 788.99 862.94 C 787.31 863.01 785.65 862.98 783.99 862.99 C 781.19 862.93 778.43 862.64 775.88 863.80 C 772.44 863.88 769.13 864.01 765.73 863.83 C 767.12 862.73 768.67 861.87 770.21 860.99 C 770.93 861.87 771.67 862.77 772.77 863.25 C 742.92 721.50 713.17 579.72 683.05 438.03 C 691.84 440.44 700.76 443.07 709.98 443.02 C 709.98 442.54 709.99 441.60 709.99 441.13 C 699.34 441.27 688.67 438.51 678.98 434.30 C 667.68 420.67 668.31 401.45 666.74 384.79 C 666.84 383.56 666.94 382.33 667.03 381.11 L 667.12 380.21 C 673.44 377.66 678.46 372.73 683.97 368.85 C 683.30 368.21 682.61 367.61 681.91 367.04 Z" />
</g>
<g id="#7a849dff">
<path fill="#7a849d" opacity="1.00" d=" M 665.28 368.74 C 666.08 372.77 665.88 376.92 666.04 381.02 L 665.00 380.98 C 665.04 376.89 665.13 372.81 665.28 368.74 Z" />
</g>
<g id="#a4b0bcff">
<path fill="#a4b0bc" opacity="1.00" d=" M 665.00 380.98 L 666.04 381.02 L 667.03 381.11 C 666.94 382.33 666.84 383.56 666.74 384.79 C 666.29 387.90 665.97 391.07 665.68 394.22 C 665.26 390.43 664.99 386.64 664.87 382.85 C 664.91 382.38 664.97 381.45 665.00 380.98 Z" />
</g>
<g id="#203052ff">
<path fill="#203052" opacity="1.00" d=" M 585.30 436.31 C 612.09 418.89 637.68 399.64 664.87 382.85 C 664.99 386.64 665.26 390.43 665.68 394.22 C 665.92 405.39 668.40 416.41 672.09 426.92 C 673.44 429.99 675.32 432.94 677.87 435.18 C 682.16 436.99 681.94 442.09 683.03 445.99 C 712.11 582.99 740.77 720.08 769.77 857.10 C 769.94 858.38 770.08 859.68 770.21 860.99 C 768.67 861.87 767.12 862.73 765.73 863.83 C 764.51 863.94 763.30 864.05 762.09 864.18 C 760.33 864.16 756.81 864.11 755.05 864.08 C 752.20 864.07 749.45 863.94 746.74 864.65 C 745.05 864.75 741.68 864.96 739.99 865.06 C 739.31 865.00 737.94 864.89 737.25 864.83 C 705.98 746.94 675.27 628.89 643.95 511.01 C 642.22 505.11 641.99 498.64 638.65 493.34 C 636.31 491.02 632.03 492.10 631.28 495.33 C 630.12 502.99 632.00 510.55 632.11 518.18 C 632.11 519.38 632.14 520.57 632.21 521.78 C 632.09 525.59 632.27 529.41 632.75 533.22 C 632.85 536.36 632.99 539.61 633.21 542.79 C 633.09 546.60 633.27 550.41 633.75 554.22 C 633.85 557.36 633.99 560.61 634.21 563.79 C 634.10 567.60 634.27 571.41 634.75 575.21 C 639.20 668.40 643.49 761.58 648.34 854.75 C 648.14 858.08 648.18 861.57 647.86 864.94 C 646.34 865.03 643.31 865.19 641.79 865.28 C 639.88 865.10 637.97 865.01 636.07 864.92 C 629.79 863.87 623.18 865.02 617.12 862.95 C 616.84 853.85 616.07 844.76 614.78 835.75 C 614.77 826.40 613.30 817.10 612.42 807.81 C 612.26 806.04 611.93 802.51 611.77 800.74 C 611.78 791.39 610.32 782.08 609.38 772.81 C 609.12 770.79 608.93 768.76 608.81 766.75 C 604.92 715.00 599.74 663.32 595.58 611.59 C 590.07 554.42 586.17 497.00 580.14 439.91 C 580.12 439.48 580.07 438.61 580.05 438.17 C 582.08 439.09 583.61 437.12 585.30 436.31 Z" />
<path fill="#203052" opacity="1.00" d=" M 229.20 460.02 C 235.40 459.98 241.60 459.99 247.81 460.03 C 249.12 465.96 250.41 471.91 251.16 477.95 C 251.55 478.98 251.60 480.62 252.82 481.04 C 254.69 474.12 255.00 466.83 257.18 460.03 C 263.40 459.97 269.61 460.00 275.84 460.02 C 277.73 474.99 279.45 490.00 281.02 504.99 C 281.00 507.65 280.99 510.31 280.98 512.99 C 275.65 512.98 270.35 513.01 265.03 512.99 C 264.79 504.61 265.24 496.23 264.91 487.86 C 262.69 489.05 261.97 491.07 262.74 493.93 C 262.31 500.08 260.56 506.04 259.93 512.16 C 255.06 513.11 250.09 513.01 245.15 513.02 C 244.58 505.63 242.81 498.39 241.87 491.05 C 241.51 489.89 241.18 488.45 240.08 487.79 C 239.79 496.18 240.21 504.60 239.94 513.00 C 234.65 513.05 229.36 513.03 224.08 512.94 C 223.97 509.88 223.98 507.00 223.99 503.99 C 225.61 489.34 226.39 474.49 229.20 460.02 Z" />
<path fill="#203052" opacity="1.00" d=" M 373.01 460.00 C 378.95 459.99 384.89 459.98 390.84 460.03 C 393.61 467.64 396.36 475.73 398.20 483.78 C 398.65 484.12 399.55 484.79 399.99 485.12 C 399.93 478.96 398.26 472.95 397.94 466.84 C 397.95 465.16 397.95 461.80 397.95 460.12 C 402.96 459.91 407.96 460.01 412.99 460.00 C 412.99 477.66 413.02 495.33 412.98 512.99 C 407.03 512.99 401.09 513.00 395.16 512.96 C 393.11 504.90 389.89 497.21 387.74 489.17 C 387.36 489.11 386.59 488.98 386.21 488.92 C 386.71 494.28 387.86 499.60 388.02 504.99 C 388.00 507.65 387.99 510.31 387.98 512.99 C 382.97 512.98 378.00 513.01 373.00 512.99 C 373.00 495.32 372.99 477.66 373.01 460.00 Z" />
<path fill="#203052" opacity="1.00" d=" M 417.98 465.98 C 417.51 463.12 420.21 460.10 422.99 460.00 C 433.32 459.99 443.65 460.00 454.00 460.01 C 455.51 464.78 452.84 468.65 451.73 472.96 C 446.14 472.99 440.56 472.88 434.99 473.03 L 434.99 474.00 C 434.26 477.04 438.68 477.29 439.96 479.06 C 445.05 482.96 454.87 485.83 454.03 493.99 C 453.97 497.63 453.96 501.34 454.03 505.00 C 454.81 508.48 452.83 512.80 449.02 513.01 C 438.67 512.99 428.34 513.00 418.00 512.99 C 417.99 508.65 417.99 504.34 418.01 500.03 C 424.33 499.82 430.67 500.19 437.00 499.95 C 437.41 497.10 436.56 494.43 433.05 493.91 C 427.58 489.70 417.24 486.54 417.97 478.01 C 417.98 473.99 417.99 469.98 417.98 465.98 Z" />
</g>
<g id="#d2d9e1ff">
<path fill="#d2d9e1" opacity="1.00" d=" M 665.68 394.22 C 665.97 391.07 666.29 387.90 666.74 384.79 C 668.31 401.45 667.68 420.67 678.98 434.30 C 678.70 434.52 678.15 434.96 677.87 435.18 C 675.32 432.94 673.44 429.99 672.09 426.92 C 668.40 416.41 665.92 405.39 665.68 394.22 Z" />
</g>
<g id="#4c5773ff">
<path fill="#4c5773" opacity="1.00" d=" M 269.27 415.78 C 270.31 422.79 270.07 429.92 269.99 437.00 L 269.00 436.98 C 268.96 429.91 269.02 422.83 269.27 415.78 Z" />
</g>
<g id="#7f8aa0ff">
<path fill="#7f8aa0" opacity="1.00" d=" M 558.04 423.11 C 558.22 422.67 558.57 421.79 558.75 421.35 C 566.05 425.29 574.67 425.53 582.74 424.76 C 583.10 425.01 583.82 425.52 584.18 425.78 C 583.67 425.83 582.67 425.93 582.16 425.98 C 577.26 424.74 578.95 430.10 579.61 433.23 C 579.81 434.86 579.92 436.51 580.05 438.17 C 580.07 438.61 580.12 439.48 580.14 439.91 L 579.12 439.95 C 578.91 438.54 578.67 437.15 578.38 435.78 C 578.26 433.14 578.14 430.52 578.03 427.92 C 578.81 423.81 573.28 426.63 570.79 426.21 C 566.44 425.62 562.12 424.70 558.04 423.11 Z" />
</g>
<g id="#48526aff">
<path fill="#48526a" opacity="1.00" d=" M 570.79 426.21 C 573.28 426.63 578.81 423.81 578.03 427.92 C 575.69 427.07 573.15 426.68 570.79 426.21 Z" />
</g>
<g id="#454f67ff">
<path fill="#454f67" opacity="1.00" d=" M 579.61 433.23 C 578.95 430.10 577.26 424.74 582.16 425.98 C 579.38 427.33 579.85 430.48 579.61 433.23 Z" />
</g>
<g id="#cbd3dbff">
<path fill="#cbd3db" opacity="1.00" d=" M 678.98 434.30 C 688.67 438.51 699.34 441.27 709.99 441.13 C 709.99 441.60 709.98 442.54 709.98 443.02 C 700.76 443.07 691.84 440.44 683.05 438.03 C 713.17 579.72 742.92 721.50 772.77 863.25 C 771.67 862.77 770.93 861.87 770.21 860.99 C 770.08 859.68 769.94 858.38 769.77 857.10 C 740.77 720.08 712.11 582.99 683.03 445.99 C 681.94 442.09 682.16 436.99 677.87 435.18 C 678.15 434.96 678.70 434.52 678.98 434.30 Z" />
</g>
<g id="#213052ff">
<path fill="#213052" opacity="1.00" d=" M 578.38 435.78 C 578.67 437.15 578.91 438.54 579.12 439.95 C 579.13 457.70 582.39 475.28 583.09 493.01 C 591.51 585.38 599.01 677.83 607.58 770.19 C 607.74 771.96 608.07 775.49 608.23 777.26 C 608.22 786.60 609.67 795.91 610.62 805.19 C 610.87 807.20 611.06 809.22 611.19 811.25 C 611.34 820.93 612.73 830.56 613.53 840.20 C 613.85 846.76 614.84 853.26 615.23 859.83 C 615.13 860.62 614.95 862.19 614.86 862.98 C 610.80 863.51 606.88 862.62 602.91 862.07 C 602.46 862.04 601.57 861.98 601.12 861.96 C 599.56 861.73 596.45 861.27 594.89 861.04 C 577.72 758.54 562.31 655.56 553.11 551.99 C 551.85 535.00 550.51 518.01 549.99 501.00 C 549.98 497.95 550.04 495.00 550.01 492.00 C 550.00 484.95 550.03 477.92 549.97 470.88 C 549.96 469.20 549.95 465.84 549.94 464.16 C 550.99 461.55 548.50 455.41 550.95 453.99 C 550.98 455.70 550.99 457.40 551.12 459.11 C 552.39 458.89 553.54 458.30 554.60 457.58 C 561.74 451.91 569.78 447.51 577.22 442.27 C 577.51 440.65 578.09 437.40 578.38 435.78 Z" />
<path fill="#213052" opacity="1.00" d=" M 333.18 460.03 C 342.39 459.96 351.61 459.99 360.83 460.02 C 362.90 475.38 366.08 490.65 368.03 506.00 C 368.02 507.75 367.99 511.26 367.97 513.01 C 362.92 511.44 354.44 515.91 351.10 510.84 C 350.79 508.05 351.61 505.08 349.85 502.74 C 349.08 500.80 343.98 500.95 343.24 502.82 C 342.72 506.17 342.32 509.61 341.84 512.99 C 336.22 512.99 330.61 512.99 325.00 512.99 C 324.28 505.74 326.51 498.74 327.46 491.65 C 328.95 481.49 330.70 471.38 332.23 461.23 C 332.46 460.93 332.94 460.33 333.18 460.03 M 346.19 473.12 C 345.47 476.05 344.58 478.87 344.87 481.99 C 346.41 484.44 340.04 493.24 349.03 488.99 C 348.85 483.63 347.50 478.36 347.92 472.96 C 347.49 473.00 346.62 473.08 346.19 473.12 Z" />
</g>
<g id="#6f7a94ff">
<path fill="#6f7a94" opacity="1.00" d=" M 227.79 437.19 C 241.52 436.66 255.26 437.19 269.00 436.98 L 269.99 437.00 L 269.94 437.95 C 255.98 437.62 241.32 439.01 227.79 437.19 Z" />
</g>
<g id="#6e7a94ff">
<path fill="#6e7a94" opacity="1.00" d=" M 288.98 436.99 C 304.98 437.02 320.98 436.98 336.98 437.00 L 336.99 437.97 C 321.10 438.00 305.21 438.17 289.33 437.84 L 288.98 436.99 Z" />
</g>
<g id="#6f7b95ff">
<path fill="#6f7b95" opacity="1.00" d=" M 368.75 437.25 C 395.57 436.78 422.42 436.85 449.25 437.28 C 440.89 438.61 432.40 437.81 424.00 438.01 C 405.59 437.52 387.08 438.97 368.75 437.25 Z" />
</g>
<g id="#cad1d9ff">
<path fill="#cad1d9" opacity="1.00" d=" M 579.12 439.95 L 580.14 439.91 C 586.17 497.00 590.07 554.42 595.58 611.59 C 599.74 663.32 604.92 715.00 608.81 766.75 C 608.36 767.87 607.95 769.02 607.58 770.19 C 599.01 677.83 591.51 585.38 583.09 493.01 C 582.39 475.28 579.13 457.70 579.12 439.95 Z" />
</g>
<g id="#838ea6ff">
<path fill="#838ea6" opacity="1.00" d=" M 228.93 459.08 C 235.29 459.00 241.67 458.81 248.04 459.07 L 247.81 460.03 C 241.60 459.99 235.40 459.98 229.20 460.02 L 228.93 459.08 Z" />
</g>
<g id="#838ea7ff">
<path fill="#838ea7" opacity="1.00" d=" M 256.94 459.08 C 263.29 459.00 269.67 458.82 276.03 459.06 L 275.84 460.02 C 269.61 460.00 263.40 459.97 257.18 460.03 L 256.94 459.08 Z" />
<path fill="#838ea7" opacity="1.00" d=" M 373.00 459.03 C 379.00 459.00 385.02 458.81 391.03 459.07 L 390.84 460.03 C 384.89 459.98 378.95 459.99 373.01 460.00 L 373.00 459.03 Z" />
</g>
<g id="#838da8ff">
<path fill="#838da8" opacity="1.00" d=" M 285.98 459.03 C 297.98 458.96 309.99 458.95 321.99 459.03 L 322.00 460.01 C 310.01 459.99 298.03 459.99 286.05 460.01 L 285.98 459.03 Z" />
<path fill="#838da8" opacity="1.00" d=" M 332.94 459.08 C 342.30 458.99 351.67 458.85 361.03 459.06 L 360.83 460.02 C 351.61 459.99 342.39 459.96 333.18 460.03 L 332.94 459.08 Z" />
<path fill="#838da8" opacity="1.00" d=" M 423.01 459.02 C 433.33 458.97 443.66 458.94 453.99 459.03 L 454.00 460.01 C 443.65 460.00 433.32 459.99 422.99 460.00 L 423.01 459.02 Z" />
</g>
<g id="#838da7ff">
<path fill="#838da7" opacity="1.00" d=" M 398.02 459.08 C 401.77 459.06 409.25 459.03 413.00 459.02 L 412.99 460.00 C 407.96 460.01 402.96 459.91 397.95 460.12 L 398.02 459.08 Z" />
</g>
<g id="#aeb8cdff">
<path fill="#aeb8cd" opacity="1.00" d=" M 372.05 460.02 L 373.01 460.00 C 372.99 477.66 373.00 495.32 373.00 512.99 L 372.03 513.00 C 372.01 495.34 371.92 477.67 372.05 460.02 Z" />
</g>
<g id="#96a2b8ff">
<path fill="#96a2b8" opacity="1.00" d=" M 397.94 466.84 C 396.15 466.02 396.16 460.96 397.95 460.12 C 397.95 461.80 397.95 465.16 397.94 466.84 Z" />
</g>
<g id="#828ea6ff">
<path fill="#828ea6" opacity="1.00" d=" M 412.99 460.00 L 413.97 460.00 C 413.98 478.00 414.09 496.00 413.95 513.99 L 413.00 513.97 L 412.98 512.99 C 413.02 495.33 412.99 477.66 412.99 460.00 Z" />
</g>
<g id="#cfd5dcff">
<path fill="#cfd5dc" opacity="1.00" d=" M 549.35 470.91 C 548.67 469.03 548.06 465.19 549.94 464.16 C 549.95 465.84 549.96 469.20 549.97 470.88 L 549.35 470.91 Z" />
</g>
<g id="#abb4c8ff">
<path fill="#abb4c8" opacity="1.00" d=" M 417.00 477.99 C 418.15 474.84 414.92 467.49 417.98 465.98 C 417.99 469.98 417.98 473.99 417.97 478.01 L 417.00 477.99 Z" />
</g>
<g id="#abb2bcff">
<path fill="#abb2bc" opacity="1.00" d=" M 549.35 470.91 L 549.97 470.88 C 550.03 477.92 550.00 484.95 550.01 492.00 L 549.05 492.01 C 549.21 484.98 548.38 477.88 549.35 470.91 Z" />
</g>
<g id="#97a2bcff">
<path fill="#97a2bc" opacity="1.00" d=" M 303.07 473.03 C 308.35 472.96 313.64 472.94 318.93 472.97 L 319.02 473.96 C 313.68 474.05 308.34 474.07 303.01 474.00 L 303.07 473.03 Z" />
</g>
<g id="#adb6c9ff">
<path fill="#adb6c9" opacity="1.00" d=" M 346.19 473.12 C 346.62 473.08 347.49 473.00 347.92 472.96 C 347.50 478.36 348.85 483.63 349.03 488.99 C 340.04 493.24 346.41 484.44 344.87 481.99 C 344.58 478.87 345.47 476.05 346.19 473.12 Z" />
</g>
<g id="#98a3bfff">
<path fill="#98a3bf" opacity="1.00" d=" M 434.99 473.03 C 440.56 472.88 446.14 472.99 451.73 472.96 L 452.07 473.91 C 446.37 474.00 440.68 474.12 434.99 474.00 L 434.99 473.03 Z" />
</g>
<g id="#35435dff">
<path fill="#35435d" opacity="1.00" d=" M 303.01 479.01 C 308.33 478.97 313.68 478.86 319.01 479.06 L 318.98 480.02 C 313.67 480.05 308.37 480.03 303.07 479.97 L 303.01 479.01 Z" />
</g>
<g id="#6f7e99ff">
<path fill="#6f7e99" opacity="1.00" d=" M 319.01 479.06 L 319.97 478.97 C 319.98 483.62 320.15 488.32 319.95 492.99 L 319.00 492.96 L 318.98 491.99 C 318.99 487.99 318.99 484.00 318.98 480.02 L 319.01 479.06 Z" />
</g>
<g id="#475671ff">
<path fill="#475671" opacity="1.00" d=" M 303.05 492.02 C 308.35 491.95 313.66 491.94 318.98 491.99 L 319.00 492.96 C 313.66 493.02 308.33 493.09 303.00 492.98 L 303.05 492.02 Z" />
</g>
<g id="#d1d7deff">
<path fill="#d1d7de" opacity="1.00" d=" M 549.05 492.01 L 550.01 492.00 C 550.04 495.00 549.98 497.95 549.99 501.00 C 546.70 500.91 549.77 494.43 549.05 492.01 Z" />
</g>
<g id="#f6f7f9ff">
<path fill="#f6f7f9" opacity="1.00" d=" M 631.28 495.33 C 632.03 492.10 636.31 491.02 638.65 493.34 C 641.99 498.64 642.22 505.11 643.95 511.01 C 638.55 508.19 636.09 515.67 632.11 518.18 C 632.00 510.55 630.12 502.99 631.28 495.33 Z" />
</g>
<g id="#abb3c8ff">
<path fill="#abb3c8" opacity="1.00" d=" M 454.03 493.99 L 455.00 494.00 C 455.00 496.75 454.99 502.24 454.99 504.99 L 454.03 505.00 C 453.96 501.34 453.97 497.63 454.03 493.99 Z" />
</g>
<g id="#a8b3c8ff">
<path fill="#a8b3c8" opacity="1.00" d=" M 321.99 500.06 L 322.97 499.98 C 322.98 504.29 323.17 508.65 322.95 512.98 L 321.99 513.00 C 321.99 508.68 321.98 504.35 321.99 500.06 Z" />
</g>
<g id="#a9b3c7ff">
<path fill="#a9b3c7" opacity="1.00" d=" M 417.05 500.01 L 418.01 500.03 C 417.99 504.34 417.99 508.65 418.00 512.99 L 417.02 513.00 C 416.98 508.65 416.83 504.33 417.05 500.01 Z" />
</g>
<g id="#485571ff">
<path fill="#485571" opacity="1.00" d=" M 343.24 502.82 C 343.98 500.95 349.08 500.80 349.85 502.74 C 347.78 503.35 345.31 503.37 343.24 502.82 Z" />
</g>
<g id="#5f6a86ff">
<path fill="#5f6a86" opacity="1.00" d=" M 223.02 513.95 C 223.26 511.46 223.74 506.48 223.99 503.99 C 223.98 507.00 223.97 509.88 224.08 512.94 C 229.36 513.03 234.65 513.05 239.94 513.00 L 240.02 513.97 C 234.35 513.99 228.68 514.15 223.02 513.95 Z" />
</g>
<g id="#74829bff">
<path fill="#74829b" opacity="1.00" d=" M 281.02 504.99 C 284.24 505.05 281.24 511.58 281.95 513.99 L 281.00 513.97 L 280.98 512.99 C 280.99 510.31 281.00 507.65 281.02 504.99 Z" />
</g>
<g id="#767e9aff">
<path fill="#767e9a" opacity="1.00" d=" M 388.02 504.99 C 391.23 505.05 388.25 511.58 388.95 513.99 L 388.00 513.97 L 387.98 512.99 C 387.99 510.31 388.00 507.65 388.02 504.99 Z" />
</g>
<g id="#8592a1ff">
<path fill="#8592a1" opacity="1.00" d=" M 368.03 506.00 C 370.21 506.91 368.53 511.59 368.95 513.99 L 367.99 513.98 L 367.97 513.01 C 367.99 511.26 368.02 507.75 368.03 506.00 Z" />
</g>
<g id="#fefefeff">
<path fill="#fefefe" opacity="1.00" d=" M 632.11 518.18 C 636.09 515.67 638.55 508.19 643.95 511.01 C 675.27 628.89 705.98 746.94 737.25 864.83 C 739.13 867.46 738.74 870.91 739.17 874.02 C 737.86 876.79 738.09 879.14 739.87 881.08 C 739.92 882.71 739.96 884.35 740.01 886.00 L 740.01 887.04 C 739.95 890.21 739.93 893.54 740.31 896.75 C 740.18 899.47 740.06 902.23 739.98 905.00 C 727.26 905.53 714.31 903.90 701.74 905.73 C 695.90 905.99 690.07 905.93 684.26 906.25 C 681.35 906.17 678.51 905.84 675.74 906.69 C 665.11 906.76 654.60 908.41 644.01 909.05 L 643.03 909.04 L 642.05 909.00 C 641.97 901.32 640.96 893.69 639.77 886.12 C 639.66 885.78 639.43 885.09 639.31 884.75 C 638.18 878.15 638.11 871.34 636.07 864.92 C 637.97 865.01 639.88 865.10 641.79 865.28 C 644.17 865.62 646.57 865.87 649.01 866.03 C 649.13 862.23 648.91 858.47 648.34 854.75 C 643.49 761.58 639.20 668.40 634.75 575.21 C 634.90 571.37 634.72 567.56 634.21 563.79 C 633.99 560.61 633.85 557.36 633.75 554.22 C 633.90 550.37 633.72 546.56 633.21 542.79 C 632.99 539.61 632.85 536.36 632.75 533.22 C 632.90 529.37 632.72 525.56 632.21 521.78 C 632.14 520.57 632.11 519.38 632.11 518.18 Z" />
</g>
<g id="#5a6682ff">
<path fill="#5a6682" opacity="1.00" d=" M 351.10 510.84 C 354.44 515.91 362.92 511.44 367.97 513.01 L 367.99 513.98 C 362.33 514.06 356.67 514.07 351.02 513.97 C 351.04 513.19 351.08 511.62 351.10 510.84 Z" />
</g>
<g id="#5e6986ff">
<path fill="#5e6986" opacity="1.00" d=" M 245.15 513.02 C 250.09 513.01 255.06 513.11 259.93 512.16 C 259.95 512.61 259.97 513.50 259.99 513.95 C 256.23 513.95 248.71 513.96 244.95 513.96 L 245.15 513.02 Z" />
</g>
<g id="#5b6682ff">
<path fill="#5b6682" opacity="1.00" d=" M 265.03 512.99 C 270.35 513.01 275.65 512.98 280.98 512.99 L 281.00 513.97 C 275.66 514.06 270.32 514.06 264.99 513.97 L 265.03 512.99 Z" />
</g>
<g id="#5a6684ff">
<path fill="#5a6684" opacity="1.00" d=" M 286.03 512.99 C 298.02 513.01 310.00 512.99 321.99 513.00 L 322.00 513.97 C 310.00 514.02 298.00 514.04 286.00 513.97 L 286.03 512.99 Z" />
</g>
<g id="#5b6783ff">
<path fill="#5b6783" opacity="1.00" d=" M 325.00 512.99 C 330.61 512.99 336.22 512.99 341.84 512.99 L 342.06 513.95 C 336.37 513.99 330.69 514.15 325.01 513.96 L 325.00 512.99 Z" />
</g>
<g id="#5a6683ff">
<path fill="#5a6683" opacity="1.00" d=" M 373.00 512.99 C 378.00 513.01 382.97 512.98 387.98 512.99 L 388.00 513.97 C 382.99 514.00 378.01 514.15 373.02 513.95 L 373.00 512.99 Z" />
</g>
<g id="#5d6985ff">
<path fill="#5d6985" opacity="1.00" d=" M 395.16 512.96 C 401.09 513.00 407.03 512.99 412.98 512.99 L 413.00 513.97 C 406.98 514.02 400.97 514.13 394.97 513.94 L 395.16 512.96 Z" />
</g>
<g id="#5b6784ff">
<path fill="#5b6784" opacity="1.00" d=" M 418.00 512.99 C 428.34 513.00 438.67 512.99 449.02 513.01 L 448.99 513.98 C 438.66 514.02 428.33 514.05 418.01 513.97 L 418.00 512.99 Z" />
</g>
<g id="#9fa3b0ff">
<path fill="#9fa3b0" opacity="1.00" d=" M 632.21 521.78 C 632.72 525.56 632.90 529.37 632.75 533.22 C 632.27 529.41 632.09 525.59 632.21 521.78 Z" />
</g>
<g id="#d493adff">
<path fill="#d493ad" opacity="1.00" d=" M 227.78 532.80 C 229.80 530.73 233.84 533.25 235.99 531.95 C 249.33 532.50 263.11 530.97 276.19 532.77 C 260.06 533.12 243.91 533.14 227.78 532.80 Z" />
</g>
<g id="#d494adff">
<path fill="#d494ad" opacity="1.00" d=" M 295.06 532.06 C 309.04 532.33 323.53 531.05 337.22 532.77 C 323.47 533.21 309.73 532.90 295.99 533.02 L 295.01 533.01 L 295.06 532.06 Z" />
</g>
<g id="#d395aeff">
<path fill="#d395ae" opacity="1.00" d=" M 368.76 532.77 C 377.08 531.30 385.59 532.22 394.00 531.99 C 412.38 532.54 430.92 530.90 449.20 532.83 C 422.38 533.02 395.56 533.25 368.76 532.77 Z" />
</g>
<g id="#db8fb1ff">
<path fill="#db8fb1" opacity="1.00" d=" M 227.22 533.41 L 227.78 532.80 C 228.25 561.19 227.90 589.59 227.99 617.98 L 227.01 618.06 L 226.98 617.10 C 227.18 589.20 226.67 561.30 227.22 533.41 Z" />
</g>
<g id="#ea0c4dff">
<path fill="#ea0c4d" opacity="1.00" d=" M 227.78 532.80 C 243.91 533.14 260.06 533.12 276.19 532.77 C 277.52 533.60 276.75 535.59 277.19 536.92 C 275.72 535.01 274.95 531.50 270.98 534.05 C 257.00 533.96 243.02 533.89 229.05 534.07 C 228.91 577.38 229.07 620.70 228.97 664.02 C 229.54 667.38 228.11 671.89 230.61 674.81 C 227.83 675.06 230.34 676.80 231.26 677.81 C 243.83 678.26 256.41 677.89 268.98 677.99 L 269.00 678.97 C 255.34 678.96 241.67 679.14 228.01 678.94 C 227.97 658.62 228.04 638.30 227.99 617.98 C 227.90 589.59 228.25 561.19 227.78 532.80 Z" />
</g>
<g id="#dd3067ff">
<path fill="#dd3067" opacity="1.00" d=" M 295.01 533.01 L 295.99 533.02 C 296.00 533.52 296.02 534.53 296.03 535.03 C 295.87 542.09 296.35 549.21 295.67 556.27 C 294.18 548.64 295.24 540.72 295.01 533.01 Z" />
</g>
<g id="#ec0a4cff">
<path fill="#ec0a4c" opacity="1.00" d=" M 295.99 533.02 C 309.73 532.90 323.47 533.21 337.22 532.77 C 336.73 576.84 337.13 620.92 337.01 665.00 C 336.97 669.63 337.00 674.31 336.99 678.97 C 321.34 679.02 305.68 679.05 290.03 678.96 C 288.00 679.02 287.93 676.56 287.88 675.09 C 288.69 675.94 289.45 676.84 290.31 677.67 C 305.41 676.29 320.60 677.47 335.74 676.87 C 336.20 666.56 334.51 656.31 334.97 646.00 C 335.17 610.33 334.71 574.65 335.19 539.00 C 335.73 537.11 335.56 535.29 333.76 534.17 C 321.20 534.06 308.51 533.20 296.03 535.03 C 296.02 534.53 296.00 533.52 295.99 533.02 Z" />
</g>
<g id="#da91aeff">
<path fill="#da91ae" opacity="1.00" d=" M 337.22 532.77 L 337.84 533.30 C 338.22 577.19 337.90 621.09 337.98 664.99 L 337.01 665.00 C 337.13 620.92 336.73 576.84 337.22 532.77 Z" />
</g>
<g id="#ea0d50ff">
<path fill="#ea0d50" opacity="1.00" d=" M 365.73 533.73 C 366.71 533.31 367.71 532.98 368.76 532.77 C 395.56 533.25 422.38 533.02 449.20 532.83 C 449.73 533.02 450.79 533.39 451.32 533.58 C 422.80 534.31 394.24 534.16 365.73 533.73 Z" />
</g>
<g id="#f50749ff">
<path fill="#f50749" opacity="1.00" d=" M 229.05 534.07 C 243.02 533.89 257.00 533.96 270.98 534.05 C 274.95 531.50 275.72 535.01 277.19 536.92 C 284.81 557.56 290.39 578.92 297.32 599.82 C 298.55 599.99 299.78 600.05 301.03 600.01 C 298.97 585.48 297.30 570.87 295.67 556.27 C 296.35 549.21 295.87 542.09 296.03 535.03 C 308.51 533.20 321.20 534.06 333.76 534.17 C 335.56 535.29 335.73 537.11 335.19 539.00 C 334.71 574.65 335.17 610.33 334.97 646.00 C 334.51 656.31 336.20 666.56 335.74 676.87 C 320.60 677.47 305.41 676.29 290.31 677.67 C 289.45 676.84 288.69 675.94 287.88 675.09 C 284.32 667.83 283.15 659.49 280.11 651.94 C 278.27 644.46 275.40 637.30 273.17 629.95 C 271.32 623.91 270.23 617.48 266.92 612.02 C 266.19 612.01 264.74 612.00 264.01 612.00 C 265.29 625.10 266.98 638.19 268.72 651.25 C 269.01 653.14 269.03 655.07 269.02 657.00 C 268.95 663.98 269.03 670.99 268.98 677.99 C 256.41 677.89 243.83 678.26 231.26 677.81 C 230.34 676.80 227.83 675.06 230.61 674.81 C 228.11 671.89 229.54 667.38 228.97 664.02 C 229.07 620.70 228.91 577.38 229.05 534.07 Z" />
</g>
<g id="#f50649ff">
<path fill="#f50649" opacity="1.00" d=" M 353.98 546.04 C 356.54 540.86 359.78 535.31 365.73 533.73 C 394.24 534.16 422.80 534.31 451.32 533.58 C 457.50 535.14 461.88 540.65 463.35 546.71 C 462.60 571.78 463.15 596.87 463.02 621.95 C 462.97 635.97 462.99 649.99 463.02 664.02 C 462.58 670.82 457.19 677.81 450.02 678.02 C 422.27 677.80 394.49 678.43 366.77 677.58 C 361.10 677.38 355.30 671.72 354.97 666.02 C 355.06 632.35 354.93 598.67 355.04 565.00 C 354.70 560.59 355.74 556.00 354.28 551.74 C 354.08 549.84 353.98 547.94 353.98 546.04 M 400.00 569.03 L 400.01 570.00 L 399.04 570.02 C 398.95 594.01 398.99 618.00 399.03 642.00 L 400.00 641.99 L 400.02 642.95 C 406.01 643.17 412.01 642.97 418.01 642.97 L 417.97 642.01 C 418.02 618.00 418.03 594.00 417.97 569.99 L 417.99 569.05 C 411.99 568.83 405.99 569.00 400.00 569.03 Z" />
</g>
<g id="#9aa1afff">
<path fill="#9aa1af" opacity="1.00" d=" M 633.21 542.79 C 633.72 546.56 633.90 550.37 633.75 554.22 C 633.27 550.41 633.09 546.60 633.21 542.79 Z" />
</g>
<g id="#cdc1d3ff">
<path fill="#cdc1d3" opacity="1.00" d=" M 352.98 566.00 C 353.30 559.37 352.13 552.47 353.98 546.04 C 353.98 547.94 354.08 549.84 354.28 551.74 C 353.63 589.49 354.19 627.25 353.98 665.00 L 353.00 664.98 C 352.99 631.98 353.03 598.99 352.98 566.00 Z" />
</g>
<g id="#dc678eff">
<path fill="#dc678e" opacity="1.00" d=" M 463.35 546.71 C 464.48 549.69 463.78 552.89 464.05 556.00 C 463.95 578.05 464.02 600.10 464.00 622.15 L 463.02 621.95 C 463.15 596.87 462.60 571.78 463.35 546.71 Z" />
</g>
<g id="#e4104dff">
<path fill="#e4104d" opacity="1.00" d=" M 354.28 551.74 C 355.74 556.00 354.70 560.59 355.04 565.00 C 354.93 598.67 355.06 632.35 354.97 666.02 L 354.01 665.97 L 353.98 665.00 C 354.19 627.25 353.63 589.49 354.28 551.74 Z" />
</g>
<g id="#979fabff">
<path fill="#979fab" opacity="1.00" d=" M 634.21 563.79 C 634.72 567.56 634.90 571.37 634.75 575.21 C 634.27 571.41 634.10 567.60 634.21 563.79 Z" />
</g>
<g id="#dd4f7eff">
<path fill="#dd4f7e" opacity="1.00" d=" M 400.00 569.03 C 405.99 569.00 411.99 568.83 417.99 569.05 L 417.97 569.99 L 416.99 570.02 C 411.32 569.98 405.66 569.99 400.01 570.00 L 400.00 569.03 Z" />
</g>
<g id="#e03b6bff">
<path fill="#e03b6b" opacity="1.00" d=" M 399.04 570.02 L 400.01 570.00 C 399.99 594.00 400.00 617.99 400.00 641.99 L 399.03 642.00 C 398.99 618.00 398.95 594.01 399.04 570.02 Z" />
</g>
<g id="#c7c3d5ff">
<path fill="#c7c3d5" opacity="1.00" d=" M 400.01 570.00 C 405.66 569.99 411.32 569.98 416.99 570.02 C 416.98 571.36 416.98 572.72 416.98 574.08 C 415.12 571.77 412.36 569.56 408.99 570.97 C 405.81 569.83 402.92 570.76 401.20 573.26 C 402.91 595.76 401.51 618.38 402.06 640.94 C 407.02 641.03 412.01 641.02 416.98 641.00 L 417.00 641.98 C 411.33 641.99 405.66 641.99 400.00 641.99 C 400.00 617.99 399.99 594.00 400.01 570.00 Z" />
</g>
<g id="#d591aeff">
<path fill="#d591ae" opacity="1.00" d=" M 416.99 570.02 L 417.97 569.99 C 418.03 594.00 418.02 618.00 417.97 642.01 L 417.00 641.98 L 416.98 641.00 C 417.00 618.69 417.02 596.38 416.98 574.08 C 416.98 572.72 416.98 571.36 416.99 570.02 Z" />
</g>
<g id="#c7bdcfff">
<path fill="#c7bdcf" opacity="1.00" d=" M 264.01 612.00 C 264.74 612.00 266.19 612.01 266.92 612.02 C 270.23 617.48 271.32 623.91 273.17 629.95 C 275.40 637.30 278.27 644.46 280.11 651.94 C 276.44 650.32 272.74 648.76 269.09 647.13 C 268.96 648.49 268.84 649.86 268.72 651.25 C 266.98 638.19 265.29 625.10 264.01 612.00 Z" />
</g>
<g id="#f9bad0ff">
<path fill="#f9bad0" opacity="1.00" d=" M 227.01 618.06 L 227.99 617.98 C 228.04 638.30 227.97 658.62 228.01 678.94 L 227.03 679.02 C 226.96 658.70 226.99 638.37 227.01 618.06 Z" />
</g>
<g id="#da81a0ff">
<path fill="#da81a0" opacity="1.00" d=" M 463.02 621.95 L 464.00 622.15 C 464.00 636.09 464.03 650.03 463.98 663.98 L 463.02 664.02 C 462.99 649.99 462.97 635.97 463.02 621.95 Z" />
</g>
<g id="#dc4f7fff">
<path fill="#dc4f7f" opacity="1.00" d=" M 400.00 641.99 C 405.66 641.99 411.33 641.99 417.00 641.98 L 417.97 642.01 L 418.01 642.97 C 412.01 642.97 406.01 643.17 400.02 642.95 L 400.00 641.99 Z" />
</g>
<g id="#e6517eff">
<path fill="#e6517e" opacity="1.00" d=" M 269.02 657.00 L 269.99 657.00 C 270.00 664.32 270.12 671.66 269.96 678.99 L 269.00 678.97 L 268.98 677.99 C 269.03 670.99 268.95 663.98 269.02 657.00 Z" />
</g>
<g id="#fbb9cdff">
<path fill="#fbb9cd" opacity="1.00" d=" M 337.01 665.00 L 337.98 664.99 L 338.02 665.96 C 338.01 670.28 338.14 674.64 337.96 678.99 L 336.99 678.97 C 337.00 674.31 336.97 669.63 337.01 665.00 Z" />
</g>
<g id="#dfe2e9ff">
<path fill="#dfe2e9" opacity="1.00" d=" M 337.98 664.99 C 342.99 665.01 347.98 664.97 353.00 664.98 L 353.98 665.00 L 354.01 665.97 C 348.67 666.00 343.35 666.12 338.02 665.96 L 337.98 664.99 Z" />
</g>
<g id="#e91050ff">
<path fill="#e91050" opacity="1.00" d=" M 366.77 677.58 C 394.49 678.43 422.27 677.80 450.02 678.02 L 449.99 678.99 C 423.32 679.02 396.66 678.99 370.00 679.01 C 368.71 679.03 367.63 678.56 366.77 677.58 Z" />
</g>
<g id="#f2f6faff">
<path fill="#f2f6fa" opacity="1.00" d=" M 607.58 770.19 C 607.95 769.02 608.36 767.87 608.81 766.75 C 608.93 768.76 609.12 770.79 609.38 772.81 C 609.05 774.29 608.69 775.79 608.23 777.26 C 608.07 775.49 607.74 771.96 607.58 770.19 Z" />
</g>
<g id="#bec5ceff">
<path fill="#bec5ce" opacity="1.00" d=" M 609.38 772.81 C 610.32 782.08 611.78 791.39 611.77 800.74 C 611.30 802.20 610.92 803.68 610.62 805.19 C 609.67 795.91 608.22 786.60 608.23 777.26 C 608.69 775.79 609.05 774.29 609.38 772.81 Z" />
</g>
<g id="#f0f7faff">
<path fill="#f0f7fa" opacity="1.00" d=" M 610.62 805.19 C 610.92 803.68 611.30 802.20 611.77 800.74 C 611.93 802.51 612.26 806.04 612.42 807.81 C 612.04 808.96 611.63 810.11 611.19 811.25 C 611.06 809.22 610.87 807.20 610.62 805.19 Z" />
</g>
<g id="#c2c9d0ff">
<path fill="#c2c9d0" opacity="1.00" d=" M 612.42 807.81 C 613.30 817.10 614.77 826.40 614.78 835.75 C 614.29 837.21 613.88 838.69 613.53 840.20 C 612.73 830.56 611.34 820.93 611.19 811.25 C 611.63 810.11 612.04 808.96 612.42 807.81 Z" />
</g>
<g id="#d3dbe1ff">
<path fill="#d3dbe1" opacity="1.00" d=" M 613.53 840.20 C 613.88 838.69 614.29 837.21 614.78 835.75 C 616.07 844.76 616.84 853.85 617.12 862.95 C 615.75 862.60 615.88 860.81 615.23 859.83 C 614.84 853.26 613.85 846.76 613.53 840.20 Z" />
</g>
<g id="#9da3acff">
<path fill="#9da3ac" opacity="1.00" d=" M 648.34 854.75 C 648.91 858.47 649.13 862.23 649.01 866.03 C 646.57 865.87 644.17 865.62 641.79 865.28 C 643.31 865.19 646.34 865.03 647.86 864.94 C 648.18 861.57 648.14 858.08 648.34 854.75 Z" />
</g>
<g id="#d67974ff">
<path fill="#d67974" opacity="1.00" d=" M 615.23 859.83 C 615.88 860.81 615.75 862.60 617.12 862.95 C 623.18 865.02 629.79 863.87 636.07 864.92 C 638.11 871.34 638.18 878.15 639.31 884.75 C 633.58 884.96 627.85 885.02 622.14 884.96 C 615.12 877.86 610.42 868.62 602.91 862.07 C 606.88 862.62 610.80 863.51 614.86 862.98 C 614.95 862.19 615.13 860.62 615.23 859.83 Z" />
</g>
<g id="#fbc9c6ff">
<path fill="#fbc9c6" opacity="1.00" d=" M 601.12 861.96 C 601.57 861.98 602.46 862.04 602.91 862.07 C 610.42 868.62 615.12 877.86 622.14 884.96 C 616.12 884.96 610.11 885.05 604.11 884.97 C 601.68 877.87 603.76 869.32 601.12 861.96 Z" />
</g>
<g id="#a7afb9ff">
<path fill="#a7afb9" opacity="1.00" d=" M 775.88 863.80 C 778.43 862.64 781.19 862.93 783.99 862.99 C 783.45 865.23 778.93 863.52 776.84 863.88 L 775.88 863.80 Z" />
</g>
<g id="#63485eff">
<path fill="#63485e" opacity="1.00" d=" M 746.74 864.65 C 749.45 863.94 752.20 864.07 755.05 864.08 L 755.04 864.91 C 752.25 864.82 749.48 864.73 746.74 864.65 Z" />
</g>
<g id="#996267ff">
<path fill="#996267" opacity="1.00" d=" M 755.05 864.08 C 756.81 864.11 760.33 864.16 762.09 864.18 C 760.09 865.77 757.73 866.01 755.04 864.91 L 755.05 864.08 Z" />
</g>
<g id="#d87972ff">
<path fill="#d87972" opacity="1.00" d=" M 762.09 864.18 C 763.30 864.05 764.51 863.94 765.73 863.83 C 769.13 864.01 772.44 863.88 775.88 863.80 C 771.00 870.72 766.04 877.61 760.67 884.17 C 760.49 884.58 760.15 885.42 759.97 885.84 C 756.98 885.86 754.14 886.03 751.22 886.23 C 747.43 886.08 743.76 886.00 740.01 886.00 C 739.96 884.35 739.92 882.71 739.87 881.08 C 739.89 879.33 739.92 875.81 739.93 874.06 C 739.88 870.98 739.99 868.07 739.99 865.06 C 741.68 864.96 745.05 864.75 746.74 864.65 C 749.48 864.73 752.25 864.82 755.04 864.91 C 757.73 866.01 760.09 865.77 762.09 864.18 Z" />
</g>
<g id="#fccac6ff">
<path fill="#fccac6" opacity="1.00" d=" M 775.88 863.80 L 776.84 863.88 C 777.11 871.03 780.14 877.76 780.01 884.97 C 778.33 884.97 776.66 884.97 775.00 885.01 C 771.90 884.96 768.94 885.05 765.90 885.23 C 764.14 884.92 762.33 884.81 760.67 884.17 C 766.04 877.61 771.00 870.72 775.88 863.80 Z" />
</g>
<g id="#ddb8b9ff">
<path fill="#ddb8b9" opacity="1.00" d=" M 737.25 864.83 C 737.94 864.89 739.31 865.00 739.99 865.06 C 739.99 868.07 739.88 870.98 739.93 874.06 L 739.17 874.02 C 738.74 870.91 739.13 867.46 737.25 864.83 Z" />
</g>
<g id="#f2d6d2ff">
<path fill="#f2d6d2" opacity="1.00" d=" M 739.17 874.02 L 739.93 874.06 C 739.92 875.81 739.89 879.33 739.87 881.08 C 738.09 879.14 737.86 876.79 739.17 874.02 Z" />
</g>
<g id="#cba7aeff">
<path fill="#cba7ae" opacity="1.00" d=" M 759.97 885.84 C 760.15 885.42 760.49 884.58 760.67 884.17 C 762.33 884.81 764.14 884.92 765.90 885.23 L 765.92 885.87 C 763.93 886.09 761.94 886.07 759.97 885.84 Z" />
</g>
<g id="#584e60ff">
<path fill="#584e60" opacity="1.00" d=" M 595.99 886.00 C 595.62 882.50 601.93 885.79 604.11 884.97 C 610.11 885.05 616.12 884.96 622.14 884.96 C 627.85 885.02 633.58 884.96 639.31 884.75 C 639.43 885.09 639.66 885.78 639.77 886.12 C 625.17 885.86 610.58 886.04 595.99 886.00 Z" />
</g>
<g id="#998693ff">
<path fill="#998693" opacity="1.00" d=" M 765.90 885.23 C 768.94 885.05 771.90 884.96 775.00 885.01 L 775.00 886.03 C 771.91 885.95 768.95 885.98 765.92 885.87 L 765.90 885.23 Z" />
</g>
<g id="#6a6275ff">
<path fill="#6a6275" opacity="1.00" d=" M 775.00 885.01 C 776.66 884.97 778.33 884.97 780.01 884.97 C 781.43 884.98 782.85 885.08 784.27 885.26 C 781.14 885.61 778.13 886.10 775.00 886.03 L 775.00 885.01 Z" />
</g>
<g id="#223052ff">
<path fill="#223052" opacity="1.00" d=" M 784.27 885.26 C 786.66 884.63 788.68 886.47 790.82 887.23 C 788.88 890.68 782.73 891.01 780.91 895.05 C 785.28 894.18 788.72 890.88 792.27 888.36 C 794.83 888.93 796.88 891.10 799.16 892.41 C 796.08 894.63 792.31 896.05 789.82 899.02 C 794.26 899.00 797.40 895.23 801.12 893.26 C 811.37 897.86 821.43 903.37 831.13 908.91 C 801.09 909.11 771.06 908.94 741.03 909.00 C 740.93 904.88 740.99 900.78 740.31 896.75 C 739.93 893.54 739.95 890.21 740.01 887.04 C 743.74 886.94 747.48 886.67 751.22 886.23 C 754.14 886.03 756.98 885.86 759.97 885.84 C 761.94 886.07 763.93 886.09 765.92 885.87 C 768.95 885.98 771.91 885.95 775.00 886.03 C 778.13 886.10 781.14 885.61 784.27 885.26 Z" />
<path fill="#223052" opacity="1.00" d=" M 591.92 888.84 C 592.93 887.48 593.99 885.58 595.99 886.00 C 610.58 886.04 625.17 885.86 639.77 886.12 C 640.96 893.69 641.97 901.32 642.05 909.00 C 616.70 909.01 591.35 908.95 566.00 909.04 C 561.59 908.63 556.96 909.82 552.72 908.25 C 553.89 907.58 555.06 906.90 556.24 906.25 C 556.75 906.00 557.77 905.50 558.28 905.25 C 565.83 902.09 572.52 897.23 580.06 894.05 C 581.50 893.62 582.84 894.26 583.88 895.25 C 586.35 895.97 590.49 902.41 592.02 898.16 C 589.71 896.77 587.41 895.44 585.09 894.14 C 579.91 891.96 587.70 890.35 589.78 889.36 C 593.36 891.00 596.50 893.39 600.13 894.96 C 599.41 891.39 594.35 891.06 591.92 888.84 Z" />
</g>
<g id="#524151ff">
<path fill="#524151" opacity="1.00" d=" M 740.01 886.00 C 743.76 886.00 747.43 886.08 751.22 886.23 C 747.48 886.67 743.74 886.94 740.01 887.04 L 740.01 886.00 Z" />
</g>
<g id="#ccd5ddff">
<path fill="#ccd5dd" opacity="1.00" d=" M 799.16 892.41 C 799.65 892.62 800.63 893.04 801.12 893.26 C 797.40 895.23 794.26 899.00 789.82 899.02 C 792.31 896.05 796.08 894.63 799.16 892.41 Z" />
</g>
<g id="#bfc9d3ff">
<path fill="#bfc9d3" opacity="1.00" d=" M 585.09 894.14 C 587.41 895.44 589.71 896.77 592.02 898.16 C 590.49 902.41 586.35 895.97 583.88 895.25 C 584.18 894.97 584.79 894.42 585.09 894.14 Z" />
</g>
<g id="#848b9fff">
<path fill="#848b9f" opacity="1.00" d=" M 740.31 896.75 C 740.99 900.78 740.93 904.88 741.03 909.00 L 740.02 909.00 C 740.01 908.25 739.98 906.75 739.97 906.00 L 739.98 905.00 C 740.06 902.23 740.18 899.47 740.31 896.75 Z" />
</g>
<g id="#dcdfe6ff">
<path fill="#dcdfe6" opacity="1.00" d=" M 500.00 905.02 C 519.42 905.16 538.87 904.62 558.28 905.25 C 557.77 905.50 556.75 906.00 556.24 906.25 C 537.49 905.72 518.74 906.13 500.00 905.99 L 500.00 905.02 Z" />
</g>
<g id="#dbdfe6ff">
<path fill="#dbdfe6" opacity="1.00" d=" M 701.74 905.73 C 714.31 903.90 727.26 905.53 739.98 905.00 L 739.97 906.00 C 727.22 905.91 714.47 906.24 701.74 905.73 Z" />
</g>
<g id="#c1c7d6ff">
<path fill="#c1c7d6" opacity="1.00" d=" M 440.65 909.54 C 460.39 907.61 480.15 905.66 500.00 905.99 C 518.74 906.13 537.49 905.72 556.24 906.25 C 555.06 906.90 553.89 907.58 552.72 908.25 C 551.80 908.80 550.39 908.86 549.97 910.02 C 549.86 914.30 549.98 918.63 549.98 922.96 C 546.84 922.95 543.73 922.76 540.71 923.62 C 533.26 924.25 525.70 924.19 518.25 923.73 C 511.21 922.62 504.08 923.00 497.00 922.99 C 473.39 922.42 449.31 922.49 426.25 916.68 C 425.47 915.89 424.25 915.29 424.04 914.13 C 428.83 910.73 435.02 910.32 440.65 909.54 Z" />
</g>
<g id="#dee1e8ff">
<path fill="#dee1e8" opacity="1.00" d=" M 675.74 906.69 C 678.51 905.84 681.35 906.17 684.26 906.25 C 681.52 907.27 678.54 906.65 675.74 906.69 Z" />
</g>
<g id="#c0c7d6ff">
<path fill="#c0c7d6" opacity="1.00" d=" M 684.26 906.25 C 690.07 905.93 695.90 905.99 701.74 905.73 C 714.47 906.24 727.22 905.91 739.97 906.00 C 739.98 906.75 740.01 908.25 740.02 909.00 C 739.97 913.96 740.00 918.99 740.00 923.99 C 733.41 923.86 726.80 924.43 720.25 923.73 C 713.21 922.61 706.07 923.01 699.00 923.00 C 680.63 923.16 662.29 921.79 644.03 919.91 C 643.95 916.24 644.00 912.68 644.01 909.05 C 654.60 908.41 665.11 906.76 675.74 906.69 C 678.54 906.65 681.52 907.27 684.26 906.25 Z" />
</g>
<g id="#a41753ff">
<path fill="#a41753" opacity="1.00" d=" M 549.97 910.02 C 550.39 908.86 551.80 908.80 552.72 908.25 C 556.96 909.82 561.59 908.63 566.00 909.04 C 591.35 908.95 616.70 909.01 642.05 909.00 L 643.03 909.04 L 643.00 910.01 C 611.99 909.99 580.98 909.98 549.97 910.02 Z" />
</g>
<g id="#df89a7ff">
<path fill="#df89a7" opacity="1.00" d=" M 643.03 909.04 L 644.01 909.05 C 644.00 912.68 643.95 916.24 644.03 919.91 C 643.56 921.07 645.04 924.35 642.99 924.00 C 642.97 919.30 643.00 914.67 643.00 910.01 L 643.03 909.04 Z" />
</g>
<g id="#d46c91ff">
<path fill="#d46c91" opacity="1.00" d=" M 740.02 909.00 L 741.03 909.00 L 741.04 910.00 C 740.97 914.62 741.00 919.31 740.99 923.97 L 740.00 923.99 C 740.00 918.99 739.97 913.96 740.02 909.00 Z" />
</g>
<g id="#a51452ff">
<path fill="#a51452" opacity="1.00" d=" M 741.03 909.00 C 771.06 908.94 801.09 909.11 831.13 908.91 L 832.02 908.93 L 832.32 909.73 C 829.59 909.85 826.89 910.02 824.21 910.24 C 796.49 909.70 768.76 910.14 741.04 910.00 L 741.03 909.00 Z" />
</g>
<g id="#e03365ff">
<path fill="#e03365" opacity="1.00" d=" M 832.02 908.93 C 832.50 908.96 833.46 909.02 833.94 909.05 C 833.97 914.00 834.14 919.02 833.95 924.00 L 832.99 923.98 C 832.99 923.48 832.99 922.48 832.99 921.99 C 832.47 917.95 833.86 913.56 832.32 909.73 L 832.02 908.93 Z" />
</g>
<g id="#ee0a4bff">
<path fill="#ee0a4b" opacity="1.00" d=" M 549.97 910.02 C 580.98 909.98 611.99 909.99 643.00 910.01 C 643.00 914.67 642.97 919.30 642.99 924.00 C 611.99 923.99 581.00 924.02 550.01 923.98 L 549.98 922.96 C 549.98 918.63 549.86 914.30 549.97 910.02 M 552.04 911.03 C 551.90 914.99 551.90 918.97 552.03 922.96 C 582.00 923.02 611.97 923.04 641.95 922.95 C 639.31 919.20 644.32 913.73 639.77 911.20 C 610.56 910.72 581.28 911.11 552.04 911.03 Z" />
</g>
<g id="#ef094cff">
<path fill="#ef094c" opacity="1.00" d=" M 741.04 910.00 C 768.76 910.14 796.49 909.70 824.21 910.24 C 796.98 912.01 769.60 910.46 742.31 911.02 C 743.08 915.00 742.95 919.01 741.99 922.94 C 770.33 923.10 798.67 922.93 827.02 923.03 C 829.06 923.07 831.04 922.53 832.99 921.99 C 832.99 922.48 832.99 923.48 832.99 923.98 C 802.32 924.01 771.66 924.02 740.99 923.97 C 741.00 919.31 740.97 914.62 741.04 910.00 Z" />
</g>
<g id="#f40649ff">
<path fill="#f40649" opacity="1.00" d=" M 824.21 910.24 C 826.89 910.02 829.59 909.85 832.32 909.73 C 833.86 913.56 832.47 917.95 832.99 921.99 C 831.04 922.53 829.06 923.07 827.02 923.03 C 798.67 922.93 770.33 923.10 741.99 922.94 C 742.95 919.01 743.08 915.00 742.31 911.02 C 769.60 910.46 796.98 912.01 824.21 910.24 Z" />
<path fill="#f40649" opacity="1.00" d=" M 552.04 911.03 C 581.28 911.11 610.56 910.72 639.77 911.20 C 644.32 913.73 639.31 919.20 641.95 922.95 C 611.97 923.04 582.00 923.02 552.03 922.96 C 551.90 918.97 551.90 914.99 552.04 911.03 Z" />
</g>
<g id="#dde2e8ff">
<path fill="#dde2e8" opacity="1.00" d=" M 497.00 922.99 C 504.08 923.00 511.21 922.62 518.25 923.73 C 511.17 924.10 504.08 924.05 497.00 923.98 L 497.00 922.99 Z" />
<path fill="#dde2e8" opacity="1.00" d=" M 699.00 923.00 C 706.07 923.01 713.21 922.61 720.25 923.73 C 713.16 924.10 706.07 924.05 699.00 923.98 L 699.00 923.00 Z" />
</g>
<g id="#d9dbe5ff">
<path fill="#d9dbe5" opacity="1.00" d=" M 540.71 923.62 C 543.73 922.76 546.84 922.95 549.98 922.96 L 550.01 923.98 C 546.86 924.00 543.78 924.22 540.71 923.62 Z" />
</g>
<g id="#ea9dbaff">
<path fill="#ea9dba" opacity="1.00" d=" M 550.01 923.98 C 581.00 924.02 611.99 923.99 642.99 924.00 L 643.00 924.97 C 612.00 924.99 581.00 925.06 550.01 924.95 L 550.01 923.98 Z" />
</g>
<g id="#ea9ebaff">
<path fill="#ea9eba" opacity="1.00" d=" M 740.00 923.99 L 740.99 923.97 C 771.66 924.02 802.32 924.01 832.99 923.98 L 833.95 924.00 L 834.02 924.97 C 802.69 925.00 771.35 925.06 740.02 924.95 L 740.00 923.99 Z" />
</g>
</svg>
