<svg xmlns="http://www.w3.org/2000/svg" width="216" height="496pt" viewBox="0 0 162 496">
  <defs/>
  <path fill="#9f9e9b" d="M109.3 0h7.4l.5.8h-8.4l.5-.8z" opacity=".7"/>
  <path fill="#faf9f2" d="M102.1 5c2-1.8 4.1-3.4 6.7-4.2h8.5c5.7 2 7 9 5.5 14.2a6.8 6.8 0 00-.4 7.1l-1.3 1.2c-2.3-.9-5.8-2-2.6-6 2.8-3.6-1-13.5-5.8-8.8-1.8.9-3 2.3-3 4.4-1.4 15.2-5.1 30.6-2.4 45.9-.7 5.1.6 10.2 1.6 15.2-4.9-1.8-9.7.7-13.8 3.2v2.6c3.5.9 7.1 1.4 10.6 2.5 2.5 2 .9 5.9 2.6 8.4 1.1 1.6-.5 3.2-1 4.7-2.7 3.4-6.3-.7-9.7 0C93.3 95 85 97 86 102.9c3.4 2 6.5 6 10.8 5 1.5-2 1.7-4.5 2.5-6.8 2.2.6 4.4 1.6 6.6 2 3.6 3 8 .3 11.8 2.2 1.5 1 2.3 2.5 2.5 4.2-3 1.2-1 4.2-2.2 6.5-1.7 4-.8 8.1 0 12.1-10-4-19.2-10-28.5-15.5-.8-1.8-1.8-3.5-3.2-4.8-1.8-1.6-3.3-4.5-6-3.7-3.2 2.3-.7 6.8-.4 10-4.4.9-7-3.6-9.5-6.4-1.3-2.6-1.3-8.8-5.3-5.4-.2 3.8-.3 7.9 1 11.6-3.5-2.8-7.3-5.6-9-10-1.5-3.8-.7-8-1.3-12-3.2 2.2-4.6 6-6.7 9.3l-.3-3.4c1.8-7.9 8.8-12.8 12.1-20 3 1.4 10.7-2.4 10.4 3.2 2.1.5 3.5-1.5 5.1-2.5 1.5-.5 3.2-.7 4.5-1.7-2-9 1.3-17.8 2.3-26.7a106 106 0 0115.1-37.8C99.6 9.8 102 8 102.1 5z"/>
  <path fill="#f2f1e8" d="M66.2 60.3c8.9-20 18.9-40.9 36-55.3-.2 3-2.6 4.8-3.9 7.3a106 106 0 00-15.1 37.8c-1 8.9-4.3 17.8-2.3 26.7-1.3 1-3 1.2-4.5 1.7-1.6 1-3 3-5 2.5.2-5.6-7.6-1.8-10.5-3.2 3-5.4 2.7-12 5.3-17.5z"/>
  <path fill="#f1efe6" d="M112.7 8.5c4.8-4.7 8.6 5.3 5.8 8.9-3.2 3.8.3 5 2.6 6-2.2 0-4.2.7-6 1.8a179 179 0 007.1 47.6c-1 3.5-.3 7.6-2.8 10.5-3.5 3.3-2.5 9-6.4 11.8.5-1.6.9-3.1 1.2-4.7 2.5-5.9-1.3-11.2-3.2-16.4-2.2-4.8-2.5-10.2-3.7-15.2-2.7-15.3 1-30.7 2.5-46-.1-2 1-3.4 2.9-4.3-.3 1.5-.6 3-.7 4.5 1.7-.1 5 1 4-2 .8-2.4-1.8-2-3.3-2.5z"/>
  <path fill="#e8e4d3" d="M112.7 8.5c1.5.4 4.1 0 3.3 2.5 1 3-2.3 1.9-4 2 0-1.5.4-3 .7-4.5z"/>
  <path fill="#d1d1cc" d="M122.4 22.1a6.8 6.8 0 01.4-7.1c1 2.4 1 4.8-.4 7.1z" opacity=".9"/>
  <path fill="#e6dcb6" d="M140.8 56.6c3.2-4.8 9.9-2.4 14.2-.7 2 1.3 6.1 1.2 6.4 4.3a15.6 15.6 0 01-20.6-3.6z"/>
  <path fill="#e3d3a2" d="M137.7 63.7c.7-2.5 1-5.3 3.1-7a15.6 15.6 0 0020.6 3.5l.6-.4v3.8c-1.4 7.6-2.4 15.4-5.7 22.6-4.4 1.8-9 3-13.5 4.5-3.9-.3-7.7-.4-11.6.5 1.5-9.3 4.4-18.3 6.5-27.5z"/>
  <path fill="#f7f6ec" d="M107.3 58.8c1.2 5 1.5 10.4 3.8 15.2 1.8 5.2 5.6 10.5 3.1 16.4-1.2-1.4-2-3.7-4.2-3.5 0 2 .5 4 .8 6a22 22 0 01-3.5 2.5c.5-1.5 2.1-3 1-4.7-1.7-2.5 0-6.5-2.6-8.4-3.5-1.1-7.1-1.6-10.6-2.5v-2.6c4.1-2.5 9-5 13.8-3.2-1-5-2.3-10-1.6-15.2z"/>
  <path fill="#efebd5" d="M122.2 72.8l1.1 6v12.4c.2 6.4-4.7 13.2-.6 19.2-.1 2.3 1.3 3 3.4 2.6-2.2 4.3-6.2-.2-5.8-3.5-.3-1.7-1.1-3.3-2.6-4.2-3.8-1.9-8.2.8-11.8-2.2-2.5-5 4.7-5.2 7.1-8 3.9-2.8 3-8.5 6.4-11.8 2.5-2.9 1.9-7 2.8-10.5z"/>
  <path fill="#aaa69a" d="M123.3 78.7c1.5 4 .5 8.4 0 12.5V78.7z" opacity=".7"/>
  <path fill="#dcd4b7" d="M142.8 90.7c4.5-1.5 9.1-2.7 13.5-4.5-.4 3.7-1.6 7.2-2.4 10.8l-1.7-.3c0-.5-.3-1.6-.5-2.1-3.5 0-6-2.5-8.9-4z"/>
  <path fill="#faf7e2" d="M110 87c2.2-.3 3 2 4.2 3.4-.3 1.6-.8 3.1-1.2 4.7-2.4 2.8-9.6 3-7 8-2.3-.4-4.5-1.4-6.7-2-.8 2.3-1 4.9-2.5 6.9-4.3.8-7.4-3.2-10.8-5.1-1-5.8 7.3-8 11.6-7.5 3.4-.7 7 3.4 9.7 0a22 22 0 003.5-2.6c-.3-2-.8-3.9-.8-5.9z"/>
  <path fill="#e8e0bf" d="M131.2 91.2c3.9-.9 7.7-.8 11.6-.5 3 1.4 5.4 4 9 3.9l.4 2c-3-1.5-4.7 2-7.4 2.6-3.8.6-8.7-.6-11.5 2.1 2.6 7.2-3.2 4.6-5.4 2.7-2.6-4.5 2-8.7 3.3-12.8z"/>
  <path fill="#f4f0d7" d="M49.1 101.2c2-3.3 3.5-7.1 6.7-9.3.6 4-.2 8.2 1.3 12 .6 5.5-6 8.7-5.8 14 1 3 .5 6.4-1.5 9-2.1.9-2.9-2-4.8-2-2.5-.4-2.2 2.8-3.2 4.3-.4-3-3.4-7 0-9.2 2-2 4.6-3.5 6.4-5.8 1.4-4 .6-8.7 1-13z"/>
  <path fill="#d8c9a0" d="M144.8 99.2c2.7-.5 4.4-4.1 7.4-2.5l1.7.3c-2 5.9-2.9 12-4.4 18-1.8-1.3-4.2.8-6.2 1.1-1.2-1.1-3.5-1.8-3.4-3.9 2.4.3 7.6.6 7-3-1.4-1-2.8-1.8-4-2.9 2.4-.1 5.3-.6 6.2-3.2-1-1.8-3.8-1.7-4.3-3.9z"/>
  <path fill="#6f6e6a" d="M48.2 114.2c0-5.5-.8-11 .6-16.4l.3 3.4c-.3 4.3.5 9-1 13z" opacity=".5"/>
  <path fill="#e5d6a5" d="M133.3 101.3c2.8-2.7 7.7-1.5 11.5-2 .5 2 3.3 2 4.3 3.8-1 2.6-3.8 3-6.2 3.2l4 3c.6 3.5-4.6 3.2-7 3 0 2 2.2 2.7 3.4 3.8-2.3.8-4.6 1.5-6.8 2.8l-4.6-.8a7.6 7.6 0 01-2.1-2.8c1-1.8 2.2-4.8 0-6.2-2.5-.8-2.7 2.5-3.7 4-2.1.2-3.5-.4-3.4-2.7 3.8.3 3.8-3.9 5.2-6.4 2.2 2 8 4.5 5.4-2.7z"/>
  <path fill="#fcf9e4" d="M65.1 102.3c4-3.4 4 2.8 5.3 5.4 2.6 2.8 5 7.3 9.5 6.3-.3-3-2.8-7.7.3-9.9 2.8-.8 4.3 2.1 6 3.7l-3.3 6.7c-.3 4.5-1.5 8.7-4.2 12.3-2.1-1-4-2.5-6-3.3-3.8.6-6-2.2-8-4.5.8-1.5 3.3-3.2 1.4-5.1a29.7 29.7 0 01-1-11.6z"/>
  <path fill="#f7f5e8" d="M57.1 104c1.7 4.3 5.5 7.2 9 9.9 2 1.9-.5 3.5-1.5 5.1-2.6-1.7-5.3-3.7-8.5-4-2 0-2.5 2.4-2 3.9 1.5 5.4 4.6 10.1 7.1 15-4.4 1.6-6.8-2.3-10.3-3.8-2.3.2-4.6.6-7 1 0 4.3 4.3 7 5 11a69 69 0 00-5-4l-1.2-2.1-.7-2.9-.2-3.8c1-1.6.7-4.8 3.2-4.3 1.9-.1 2.7 2.8 4.8 2 2-2.7 2.6-6 1.5-9.1-.1-5.3 6.4-8.5 5.8-14z"/>
  <path fill="#b4afa1" d="M23.7 108.7c3-1.3 6.4-.6 9.6 0-3.2 0-6.4.2-9.6 0z" opacity=".8"/>
  <path fill="#f5f4e9" d="M86.3 107.8c1.4 1.3 2.4 3 3.2 4.8C98.8 118 108 124 118 128c-.8-4-1.7-8.2 0-12.1 1.2-2.3-.8-5.3 2.3-6.5-.4 3.3 3.6 7.8 5.8 3.5 1.8-.2 3.2.5 3.7 2.3.4 1.1 1.3 2 2.1 2.8l.4.8-6.1 1c-1.5-1.7-4.6-3.1-6.1-.6-2.7 5.2 2.9 8.2 3 12.8-6.3-1.1-11.5-6.4-18.1-6.1-1.1 6 5.6 8.6 8 13-.2 2.4-1.8 5.1-4 6-3.1-1.4-6-3.5-9-5-1 3.4.3 6.9 2.8 9.2l1 1 3.2 3c-2.6 1.3-5 2.8-7 5-.5 3.4 3.6 6.8 1 9.8-1.9-1-3.6-2.3-5-3.8-2.4-4-6.7-6.3-10.4-8.8-6.5-4-4.8 2-3.2 4.2 2.4 3.4 5.5 8.8.5 11.4l-3.8.2-1-.3c-3.8-4.1-7.8-8.2-11.9-12.1l-.4-.7c5 1.2 7.5 6.5 12.5 7.6 2.2 1.2 2.4-2.2 2.7-3.6-2.5-5.8-7.3-10.2-11-15-1.2-1.5-1-3.4-1-5.2 3.8-.3 6 3.5 9 5.1 5 3.8 9.9 8.3 16 10.1-1.4-4.1-.6-8.5 2.6-11.5l.3-4.4c-4.3-5.4-12.3-6.3-16-12.3 7.4 3 14.2 9.1 22.8 8.9 3.9-1.6.8-5.3-1.5-7-6.5-5.3-12.4-11.5-19.3-16.3l3.4-6.7z"/>
  <path fill="#eae0b6" d="M17 120.9c.3-5 .4-12 6.7-12.3 3.2.3 6.4.2 9.6.1 2.8.1 5.3 2.5 5.8 5.2 1 2.1-.5 6.3 2.7 6-3.4 2.3-.4 6.3 0 9.3l.2 3.9-1.8.6c-3.7-3.9.7-13-8.1-11-2.7-.1-4.9-4.1-7.6-2.2-1.9 2.5-5 .3-7.5.4m7.2-9.8c-1.1 1.4-2.1 3-2.3 4.9 3.2 1 4.9-1.3 6-3.9-.9-1.2-2.4-1.3-3.7-1z"/>
  <path fill="#f2ecce" d="M126 113c1-1.4 1.3-4.7 3.8-3.9 2.2 1.4 1 4.4 0 6.2-.5-1.8-1.9-2.5-3.7-2.3z"/>
  <path fill="#e5d59c" d="M24.2 111c1.3-.2 2.8 0 3.7 1.1-1.1 2.6-2.8 4.9-6 3.9a9.9 9.9 0 012.3-5z"/>
  <path fill="#ddd5b9" d="M143.3 116.1c2-.3 4.4-2.4 6.2-1l-2.2 8.2-.8-.5c-1.5-4-9 1.2-10-4 2.2-1.2 4.5-1.9 6.8-2.7z"/>
  <path fill="#fbfbf5" d="M54.1 118.9c-.5-1.5 0-4 2-3.9 3.2.3 6 2.3 8.5 4 2.2 2.3 4.3 5.1 8 4.5 2.2.8 4 2.4 6 3.3 2.8-3.6 4-7.8 4.3-12.3 6.9 4.8 12.8 11 19.3 16.3 2.3 1.7 5.4 5.4 1.5 7-8.6.2-15.4-5.8-22.8-8.9 3.7 6 11.7 6.8 16 12.3l-.3 4.4c-3.2 3-4 7.4-2.6 11.5-6.1-1.8-11-6.3-16-10-3-1.7-5.2-5.5-9-5.2 0 1.8-.2 3.7 1 5.1 3.7 5 8.5 9.3 11 15-.3 1.5-.5 4.9-2.7 3.7-5-1.1-7.5-6.4-12.5-7.6-5.4-5.5-11.2-10.6-16.8-16-.8-4-5-6.8-5-11 2.3-.4 4.6-.8 7-1 3.4 1.5 5.8 5.4 10.2 3.8-2.5-4.9-5.6-9.6-7.1-15z"/>
  <path fill="#efebd9" d="M120 119.3c1.6-2.5 4.7-1.1 6.2.7l6-1.1c.5.9.8 1.8 1 2.8-5.1 2.5-5.5 8.2-6.5 13-.6.2-2 .3-2.6.4-3.4-1.8-7.8-4.6-11-1-.3 3.6 4.7 5.2 3.8 8.8-1 2.6-2 5.9-5.1 6.6-1.3-.8-2.5-1.8-3.7-2.7a7.4 7.4 0 00-6-1.8c.1 1.4.4 2.8.7 4.2a9.1 9.1 0 01-2.9-9.2c3.1 1.5 6 3.6 9.1 5 2.3-.9 3.8-3.6 4-6-2.4-4.4-9.1-7-8-13 6.6-.3 11.8 5 18 6 0-4.5-5.6-7.5-3-12.7z"/>
  <path fill="#e7e0c6" d="M132 118l4.6.9c1 5 8.4 0 9.9 4a24 24 0 01-12.3 4l-1-5.2c-.2-1-.5-2-1-2.8l-.3-.8z"/>
  <path fill="#e4d5a5" d="M24.6 120.5c2.6-1.9 4.8 2 7.5 2.3 8.8-2.1 4.4 7 8.1 10.9l1.8-.6.7 2.9c-.5.7-1 1.4-1.7 2.1-3 1.1-7 1.3-9-1.8 1.4-1 4.6-.8 4-3.2 0-2.2-5-1.1-3.6-3.7 1.7-.7 4-3 1.3-4.1-4.9-.5-9.7-.9-14.6-1.2 0 1.9 2.4 5.8-1.2 4.7-.3-2.6-1-5.2-1-8 2.6 0 5.7 2.2 7.7-.3z"/>
  <path fill="#ebe4c4" d="M126.7 134.8c1-5 1.4-10.6 6.5-13.1-.6 2-1.4 4-2 6.2-.6 2-1 4.1 0 6.1.7 1.7.3 3.4-.1 5-2.6-.6-5-1.9-7.2-3.1l.2-.8 2.6-.3z"/>
  <path fill="#d9caa1" d="M133.2 121.7l1 5.3c4.4 0 8.6-2 12.3-4.2l.8.5c-1.4 5.6-2.8 11.1-4 16.8-2.1-2.5-2.4 3.5-5 3-.3-2.7-1.9-5-3.3-7.2 2 .3 4 1 6 1.1 0-2.5-2.4-4.7-4.9-3.6-2.1-1.4-2-5-4.8-5.5.5-2.1 1.3-4.2 1.9-6.2z"/>
  <path fill="#ddcc9d" d="M19 124l14.7 1.3c2.7 1 .4 3.4-1.3 4.1-1.4 2.6 3.7 1.5 3.5 3.7.7 2.4-2.5 2.3-4 3.3 2.1 3 6 2.8 9.1 1.7.7 2.3 1.2 4.6 1.1 7-6.2 1.5-13.8 2.5-18.4-2.9 2.4-1.8 9.1 2 10.3-2.2 1.7-4-8.8 1.8-6.9-2.8 2.1-1.6 5.7-1.5 7-4-4.6-2.6-9.6-4.2-14.8-2 0 1.3-.5 3.3 1.7 2.8 2.9-.6 1 2.1.9 3.6a9.2 9.2 0 00-3.2 2.5c-1-3.6-2.5-7.5-.8-11.3 3.6 1.1 1.3-2.8 1.2-4.7z"/>
  <path fill="#d3bd7f" d="M131.3 127.9c2.8.4 2.7 4 4.8 5.5-1.6.4-3.3.5-5 .6-1-2-.5-4.1.2-6.1z"/>
  <path fill="#dac795" d="M19.3 131.1c5.2-2 10.2-.5 14.7 2-1.2 2.6-4.8 2.5-6.9 4-1.9 4.7 8.6-1.1 6.9 3-1.2 4.2-7.9.3-10.3 2.1 4.6 5.4 12.2 4.4 18.4 3 0 3 1 6.7-2.3 8.3-3.5-.3-7.1-.6-10.7-1.3 2.4-3.4-2-6-5-5.3-1-2-3-4.1-2.8-6.4 1.7-.5 1.2-1.7.6-2.9.1-1.5 2-4.2-.9-3.6-2.2.5-1.7-1.5-1.7-2.9z"/>
  <path fill="#e1dac0" d="M113 134.2c3.3-3.7 7.7-.9 11 .9l-.1.8c-5-.5-5.9 5-3.7 8.4l-.2.8-.4.8-2.9 6.1c-1.8-.5-3.4-1.3-5-2.5 3.2-.7 4.2-4 5.2-6.6.9-3.6-4.1-5.2-3.9-8.7z"/>
  <path fill="#d7c592" d="M136.1 133.4c2.5-1.1 5 1 5 3.6-2-.2-4-.8-6-1 1.3 2.2 3 4.4 3.2 7l-4.2 1.3c-1.3 3 3.7 4.2 1.7 6.9.5 2 1.8 4.3 3 6.2l-.1 1-3.3-1.5c-1.5-1-3-1.8-4.6-2.6-.5-1.7-1.1-3.3-1.5-5 3.2-2 2.7-6.4 6.6-7.6-1-1.8-2.7-3-4.8-2.6.4-1.7.8-3.4 0-5 1.7-.2 3.4-.3 5-.7z"/>
  <path fill="#c1a96d" d="M41 138.1l1.7-2.1 1.2 2c2.3 3.4-.7 6.5-1 9.9 0 2 0 4 .2 6l-3.3-.4c3.2-1.6 2.4-5.3 2.3-8.4 0-2.4-.4-4.7-1-7z"/>
  <path fill="#d8caa3" d="M120.3 144.3c-2.3-3.5-1.4-8.9 3.6-8.4 2.3 1.2 4.6 2.5 7.2 3.2l-.8 2.1-1-.2c-3.2-.4-8-2.8-8.5 1.9l-.5 1.4z"/>
  <path fill="#dbd3ba" d="M18.7 140.1c.9-1 2-1.9 3.2-2.5.6 1.2 1.1 2.4-.5 2.9-.3 2.3 1.8 4.3 2.7 6.4h-3c.3-2.2-.6-3.4-2.8-3 .3-1.2.4-2.5.4-3.8z"/>
  <path fill="#e7e3d2" d="M44 138a69 69 0 015 4.2c5.6 5.3 11.4 10.4 16.8 15.9l.4.7-3.4-.6c1.6 4 5.8 7.7 3.4 12l-1 .2c-2.6.1-5-.3-7.3-1.2 3.4.7 5.8-1.6 5.7-5-3.1-7-9.9-11.4-14.9-17l-5.8.7c.3-3.4 3.3-6.5 1-9.9z"/>
  <path fill="#cdb67a" d="M131 139c2.3-.4 4 .8 5 2.7-4 1.2-3.5 5.6-6.7 7.6.4 1.7 1 3.3 1.5 5-1.4-.3-3-.5-3-2.2-2.3-4.6 4.4-6.3 2.5-10.9l.8-2.1z"/>
  <path fill="#d9cfaf" d="M138.3 143c2.6.6 2.9-5.4 5-3-.9 2.9-1 5.8-.6 8.8-3.3 1.1-1.6 6.3-4 8.6-1.1-2-2.4-4.1-3-6.2 2.1-2.7-3-4-1.6-6.9l4.2-1.2z"/>
  <path fill="#cebb8b" d="M120.8 142.9c.5-4.7 5.3-2.3 8.5-1.9l-.2 1-3 1-5.3-.1z"/>
  <path fill="#bea35f" d="M129.3 141l1 .2c2 4.6-4.8 6.3-2.6 11l-.7-.5c-2-1.4-1.5-3.6-.8-5.6 2.1-.4 3.2-1.9 3-4v-1z"/>
  <path fill="#a78935" d="M126.1 143l3-1c.3 2.2-.8 3.7-3 4 .3-.7.3-1.5.1-2.2v-.8z"/>
  <path fill="#b89d58" d="M120.8 142.9l5.3.1.1.8c-2 .4-4.1 1-6.2 1.3l.3-.8.5-1.4z"/>
  <path fill="#dcdbd4" d="M18.3 144c2.2-.5 3 .7 2.8 2.9l-2 .3c.8 4.8-.9 11.6 4 14.3l-3.9.6c1.6 3.6 3.7 7.3 3.5 11.3-.9 4.5.8 8.8 1.2 13.3l-4 1.3c-1.6-10.1-5.2-19.8-7.3-29.8-.3-2.6 1.7-1.6 3.3-1.2-2-2.6-1.8-6-2.2-9.2 1.4-1.5 3-2.7 4.6-3.8z"/>
  <path fill="#92701e" d="M120 145.1c2-.4 4.1-1 6.2-1.3.2.7.2 1.5 0 2.3-2 1-6.4 3.9-6.6-.2l.4-.8z"/>
  <path fill="#e2d6af" d="M102 145c2.3-.3 4.5.3 6.1 1.8-2.6-.2-5 .2-4.4 3.4a91 91 0 01-1-1l-.6-4.2z"/>
  <path fill="#b28b1c" d="M116.7 152c1-2 1.9-4.1 3-6.1 0 4 4.5 1.2 6.5.2-.7 2-1.3 4.2.8 5.6-1 1.2-2.1 2.2-3 3.4.6 3 2 5.9 3.1 8.8l-.7.5c-2.5-.7-5-1.4-7.7-1.3-3 .1-6.3-1-7.3-4.2l-1.1-2-.5-.8c2.1-1.6 5.1-2.2 7-4m3.3 4.8c-2.4.1-6.7-1-6.9 2 2.3 3 9.9 5.8 10.6.4l-3-2c2.7 1.4 3.3-4.6.9-2.7-2.3 1.3 1.7-3.6-.7-2.6-1.4.3-2.3 3.8-1 4.9z"/>
  <path fill="#d8caa2" d="M19 147.2l2-.3h3c3.2-.6 7.5 1.9 5.1 5.3H25c-.5 2.5 2.4 2.7 4 3.2-1.5 2.4-4.6 1.5-7.1 1.8 1.5 1.5 3.7 2.5 4.3 4.7l-3.1-.4c-4.9-2.7-3.2-9.5-4-14.3z"/>
  <path fill="#f2f0e7" d="M43 147.9l5.7-.7c5 5.6 11.8 10 15 17 0 3.4-2.4 5.7-5.8 5l-.8-.3-1.9-1.6c-1.8-1.4-3.4-3-5-4.5-2.3-2.5-5-4.6-6.5-7.7l-.6-1.2-.2-6z"/>
  <path fill="#bea35c" d="M103.7 150.2c-.6-3.2 1.8-3.6 4.4-3.4 1.2 1 2.4 1.9 3.7 2.7 1.5 1.2 3.2 2 5 2.5-1.9 1.9-4.9 2.5-7 4l-2.8-2.8-3.3-3z"/>
  <path fill="#b4b1a4" d="M12.6 158.2c-.6-3.3-2-8 1.1-10.4.4 3.1.1 6.6 2.2 9.2-1.6-.4-3.6-1.4-3.3 1.2z" opacity=".9"/>
  <path fill="#ddddd8" d="M138.7 157.4c2.4-2.3.7-7.5 4-8.6 2.2.8 4.5 1.6 5.5 4-.2 2.3-.3 4.6 1 6.6l-.1.8c-1.7-1.8-3.9-2.8-6.2-1.7-1.4.3-3 .7-4.2-.2v-.9z"/>
  <path fill="#d2bf8e" d="M25 152.3H29c3.6.6 7.1 1 10.8 1.2l3.2.4.6 1.2h-1.6c-2.6 1-12.2-2.3-11 3.6 1.7.4 3.9.2 5 2-1.5.3-3 .7-4.4 1.2a35 35 0 01-5.5 0c-.6-2.2-2.8-3.2-4.3-4.7 2.5-.3 5.6.6 7.2-1.8-1.7-.5-4.6-.7-4.1-3.1z"/>
  <path fill="#be9b2d" d="M120 156.9c-1.3-1.1-.4-4.6 1-4.9 2.4-1-1.6 3.9.7 2.6 2.4-2 1.8 4.1-1 2.7l-.7-.4z"/>
  <path fill="#caa62f" d="M124 155.1c.9-1.2 2-2.2 3-3.4l.8.5c0 1.7 1.6 1.8 3 2.1l4.6 2.6c-1.3 3.6-5.5 4.8-8.3 7-1-3-2.5-5.7-3.1-8.8z"/>
  <path fill="#e7e2cf" d="M107 153.2l2.8 2.9.5.8c-3.1 1.6-9.6 3.6-6.6 8.2l1 1.7-1.5 4.5h-1.8l-1.2-1.3c-2.2-4.1-12.1-7.4-11 .3-1.8 1.9-1 4 .9 5.5l-1 .2-4.8 1.2h-.9c-8.3-3.5-17.6-1-26.2-3.7l-3-.4-2.5-.3 7-1c3.4.4 6.8 1.1 10.2.7a18 18 0 0010 1.4l.2-2.7 3.8-.2c1.8 0 3.4-.5 5-1.2.7-2.5-2.2-5.8.3-7.7 2.8-.7 5.2 1.2 7.7 2 1.5 1.6 3.2 2.8 5 3.9 2.7-3-1.4-6.4-.8-9.8 2-2.2 4.3-3.7 7-5z"/>
  <path fill="#a09c8f" d="M148.2 152.8c1.5 1.9 2.4 4.3 1 6.6-1.3-2-1.2-4.3-1-6.6z" opacity=".8"/>
  <path fill="#d8c89d" d="M31 158.7c-1.1-5.9 8.5-2.5 11.1-3.6-.4 2-2.5 4-1 5.9-3 1-6.2.9-9.4.9l4.4-1.3c-1.1-1.7-3.3-1.5-5-1.9z"/>
  <path fill="#b9a67e" d="M42.1 155.1h1.6c1.4 3.1 4.2 5.2 6.4 7.7l-4.9 1.1c0-2.3-.8-4-1.5-.8l-.4-.3a3 3 0 00-2.2-1.8c-1.5-2 .6-4 1-5.9z"/>
  <path fill="#eeebde" d="M82.4 159.6c-1.7-2.1-3.3-8.3 3.2-4.2 3.7 2.5 8 4.8 10.3 8.8-2.5-1-4.9-2.8-7.7-2-2.5 1.8.4 5-.3 7.6-1.6.7-3.2 1.2-5 1.2 5-2.7 2-8-.5-11.4z"/>
  <g fill="#e4d8ad">
    <path d="M110.3 157l1 1.9c-.1 1.3-.9 2-2.2 2.2-2.5 0-4 2.3-5.4 4-3-4.6 3.5-6.6 6.6-8.2zM131.2 266.2c-.8-3-4-11 1.6-9 4.4 3.8.1 9 0 13.6l-1.6-4.6z"/>
  </g>
  <path fill="#7f6222" d="M113.2 158.8c.2-3 4.5-1.8 6.8-1.9l.8.4 3 2c-.7 5.4-8.3 2.5-10.6-.5z"/>
  <path fill="#dcb82c" d="M135.4 156.9l3.3 1.4c1.3 1 2.8.4 4.2.2 2.5 1.7-.3 3.2-1.7 4.3-6.3 3-13.1 4.6-20 5.6-2.7-.8-5.3-4.3-8.2-2.4-1.6 1.1-3.3.5-4.9-.2-3.7-.8-.2-3.1 1-4.8 1.3 0 2-.8 2.3-2.1 1 3.1 4.3 4.3 7.3 4.2.9 3.3 5.6 3.8 7.7 1.3l.7-.5c2.8-2.2 7-3.4 8.3-7z"/>
  <path fill="#ded9c5" d="M62.8 158.2l3.4.6c4.1 4 8.1 8 12 12.1-2.3-.3-4-2-6.1-2.8-1.9 1-3.8 2-6 2.1 2.5-4.3-1.7-8-3.3-12z"/>
  <path fill="#d4c283" d="M142.9 158.5c2.3-1.1 4.5 0 6.2 1.7a94.2 94.2 0 00-2.8 14c.1-1.5-.7-2-2-1.8-1.1-3.2-2.5-6.3-3.1-9.6 1.4-1 4.2-2.6 1.7-4.3z"/>
  <path fill="#dbd4bd" d="M23.1 161.5c1 .1 2 .3 3.1.3 1.9.2 3.7.2 5.6 0 3 0 6.3.1 9.3-.8a3 3 0 012.2 1.8l-1.6 2.2c-.7 1.5-2.2 2-3.7 2.4l2.1 2c-3 1.9-6.6 1.7-9.9 2.7-1.7.2-4-.7-5 1.1.4 4-.4 8.8 2.4 11.9l.6.7c.7 5-6.5 4.7-7 9.4l-1-2.4-.3-4.8 4-1.3c-.4-4.5-2-8.8-1.2-13.3.2-4-1.9-7.7-3.5-11.3l3.9-.6z"/>
  <path fill="#90763e" d="M43.8 163c.6-3.2 1.4-1.4 1.4 1 1.7-.4 3.3-.9 5-1.2l5 4.5-3 1c-2.5-.2-5-.7-7.4-1.3-1.2-1-1.2-2.5-1-4z"/>
  <path fill="#e3d087" d="M103.7 165c1.5-1.6 3-3.8 5.4-4-1.2 1.7-4.7 4-1 4.8l-3.4 1-1-1.7z"/>
  <path fill="#a68d54" d="M43.3 162.8l.5.3c-.2 1.4-.2 3 1 4-1.4.2-3.3-.2-3.1-2.1l1.6-2.2z"/>
  <path fill="#c49e23" d="M118.8 163c2.6 0 5 .7 7.6 1.4-2 2.5-6.8 2-7.7-1.3z"/>
  <path fill="#dccea1" d="M121.3 168.4c6.8-1 13.6-2.6 19.9-5.6.6 3.3 2 6.4 3.1 9.6 1.3-.1 2.1.3 2 1.8-.5 1.9-1.8 3.5-3 5l-1.5-4c-1.8 0-3.1 1.6-4.9 1 .2-1.2.8-2.2 2-2.8-2.4-2.2-5.5-1.2-7.7.7l-.8-1.2-.4-1v-1.8c3-1.3 7-1.2 9.2-4-7.3 1.3-14.4 3.7-21.9 4.2l-.3-1.1 4.3-.8z"/>
  <path fill="#c3b28d" d="M38 167.4c1.5-.4 3-1 3.7-2.4-.2 1.9 1.7 2.3 3.1 2 2.5.6 5 1.1 7.4 1.3L42 169.7l-1.9-.2-2-2.1z"/>
  <path fill="#e9c830" d="M113 166c2.9-2 5.5 1.6 8.3 2.4l-4.3.8c-4 0-7.9 1-11.9.8l-.4-3.2 3.4-1c1.6.7 3.3 1.3 4.9.2z"/>
  <path fill="#e0d8bb" d="M89.2 170.3c-1.1-7.7 8.8-4.4 11-.3-3.6-1.8-11.7-3.4-9.3 3.9h.8c3.8.2 7.5-.4 11.2-1 3.2.4 5.7 1.7 5.7 5.2l2 .9 1.5.5-1.1 1-3 3.1-5.1 4.9c-.6-1.4-.5-3 0-4.4 2.3-2.5 2.9-6 4-9.2-4.7.4-9.8-.9-14.3.9l-.8.3-1.7-.3c-1.8-1.5-2.7-3.6-1-5.5z"/>
  <path fill="#e1c865" d="M117.3 170.3c7.5-.5 14.6-3 21.9-4.3-2.1 2.9-6.1 2.8-9.2 4a110 110 0 01-22.2 3c1.8-3.6 6.5-1.2 9.5-2.7z"/>
  <path fill="#9b845a" d="M55.2 167.3l1.9 1.6-3.1.1 2.1 2c-4.4.1-8.7-.4-13-1l-1.1-.3c3.4-.4 6.8-.8 10.2-1.4l3-1z"/>
  <path fill="#decb8b" d="M103.3 171.3l1.4-4.5.4 3.2c4 .1 8-.9 12-.8l.2 1.1c-3 1.5-7.7-1-9.5 2.7 7.5-.4 15-1 22.2-3v2c-6.3.6-12.6 1.7-19 2.1-2 0-2 2.6-2.4 4 0-3.5-2.5-4.8-5.7-5.3l.3-1.5z"/>
  <path fill="#d1c8ac" d="M66.2 170.2c2.1 0 4-1 5.9-2 2 .7 3.8 2.4 6 2.7l1 .3-.3 2.7c-3.3.3-7 .2-9.9-1.4-3.4.4-6.8-.3-10.1-.8l6.5-1.3.9-.2z"/>
  <path fill="#d1c4a3" d="M90.9 173.9c-2.4-7.3 5.7-5.7 9.3-4l1.2 1.3c-3.4-.2-7.3-.2-9.7 2.7H91z"/>
  <path fill="#cdc09e" d="M40.1 169.5l1.9.2 1 .2-1.1 1c-1.8.7-3.8 1.2-5 2.7l5 1.6c0 4.2-5.5 3.9-8.2 5.6 3.7.2 7.4-.7 11.2-.8-.1 1.8-.8 3.9 1 5-5.4 1.6-11 2.2-16.6 2l-1.1-1.2-.6-.7c1.2-1.3 5.5-1.7 3.2-3.9-1.7-1.7 1.4-3.1 1.1-5l-5-2.9 3.3-1.2c3.3-1 7-.8 9.9-2.6z"/>
  <path fill="#b6a481" d="M54 169l3.1-.1.8.3c2.3 1 4.8 1.3 7.4 1.2-2.2.5-4.3 1-6.5 1.3l-7 1.1c-2.3.1-4.4-.5-6.6-.9 1.3 3.6.8 8 2.5 11.3 1.8 1.5 4.2 2.1 6.3 2.9a33 33 0 012.4 5.7c-1.5-1.3-2.8-2.8-4.4-4-4.9 2.4-4.9 9-1.3 12.5 3.6 4.5-5-2.5-5.2 1.5l-.5.7c.5-3.3 2.2-6.2.8-9.6-3.4 2.6-8 2.7-11.4 5.2.8 2 .5 6.5-2.4 3.8l-.2-1c-1.7-3.3.9-4.7 3.6-5.8 3.7-2.8 9.9-4.8 10.6-10-1.9-1.2-1.2-3.3-1.1-5.1 1-2-3.7 0-2.4-1.7 1.1-1.5 1.9-3.2 1.4-5-1.8-.2-3.6-.4-2-2.4l1.1-1c4.4.7 8.7 1.2 13.1 1.2l-2.1-2z"/>
  <path fill="#c6b48c" d="M37 173.6c1.1-1.5 3.1-2 4.9-2.7-1.6 2 .2 2.3 2 2.4.5 1.8-.3 3.5-1.4 5-1.3 1.6 3.4-.3 2.4 1.7-3.8.2-7.5 1-11.2.8 2.7-1.7 8.2-1.4 8.2-5.6l-5-1.6z"/>
  <path fill="#bdab86" d="M91.8 173.9c2.3-2.9 6.2-2.9 9.6-2.7h1.8l-.3 1.6c-3.7.7-7.4 1.3-11.2 1z"/>
  <path fill="#d3caac" d="M25.1 173.2c1.1-1.8 3.4-.9 5.1-1.1l-3.2 1.2c1.6 1 3.3 1.8 4.9 2.9.3 1.9-2.8 3.3-1 5 2.2 2.2-2.1 2.6-3.3 3.9-2.8-3.1-2-7.9-2.5-11.9z"/>
  <path fill="#917d5a" d="M45.2 172c2.2.3 4.3 1 6.5.8-.4 3-1.4 6.4.1 9.3l-3.8-2-.3 3c-1.7-3.2-1.2-7.6-2.5-11.2z"/>
  <path fill="#f1d85f" d="M111 174.1c6.4-.4 12.7-1.5 19-2.2l.4 1c-1.2 4-5.8-.1-7.4 3-2 1.8-4.6 1.3-6-.9-1.5 2.3-3.8 3.3-6.3 4l-2-.9c.2-1.4.3-4 2.4-4z"/>
  <path fill="#eae2be" d="M131.2 174.1c2.2-1.9 5.3-3 7.7-.7a3.5 3.5 0 00-2 2.8l-1 4.5c-5.6-.8-9.7 4.7-14.7 6.6.8-1.4 1.7-2.9.9-4.4 2-.5 3.5-1.5 3-3.8-2.1.3-4.2 1-6.3.8 0-3.1 5-.6 4.2-4 3 .2 6.5 1.7 8.2-1.8z"/>
  <path fill="#af9e7e" d="M51.7 172.8l2.4.3c-.5 1.6-2 3-2 4.7 1.2 1.6 2.2 3.4 2.8 5.4l-1.7-.4-1.4-.7c-1.4-3-.5-6.2 0-9.3z"/>
  <path fill="#c4b492" d="M54.1 173l3.1.5c-2.2 0-2.4 1.6-2.2 3.3 3.4 0 6.9.2 10.1 1.3-1 1-2 2-2.8 3.2.4 2 1.9 3.6 3.4 5 .7.4 1.4.3 2.2-.4 1.7.5 3.4.8 5.2.5-.6 2-1.4 3.8-2.2 5.6-2.2-1.9-4.2-4.5-7.6-4.1-1.7-1.6-4.2-5.9-5.7-1.8l-2.7-3c-.6-1.9-1.6-3.7-2.8-5.3 0-1.7 1.5-3.1 2-4.8z"/>
  <path fill="#efde8f" d="M130.4 172.9l.8 1.2c-1.7 3.5-5.2 2-8.2 1.7 1.6-3 6.2 1.1 7.4-3z"/>
  <path fill="#bfab7f" d="M55 176.8c-.2-1.7 0-3.4 2.2-3.3 8.6 2.7 17.9.2 26.2 3.8-3.7 1-7.5-.2-11.2.6 1-2.1.2-2.3-1.6-1l-1.6.7-3.9.5a28.1 28.1 0 00-10.1-1.3z"/>
  <path fill="#ccb98a" d="M92.6 175.8c4.6-1.8 9.6-.5 14.3-.9-1.1 3.2-1.7 6.7-4 9.2l-1-3c2.4.6 4.2-6 1.3-5h-2l-8.6-.3z"/>
  <path fill="#f0e195" d="M110.7 179c2.5-.7 4.8-1.7 6.3-4 1.4 2.2 4 2.7 6 .8.8 3.5-4.3 1-4.2 4a14 14 0 00-6.7-.3l-1.4-.5z"/>
  <path fill="#dfd7bc" d="M137 176.2c1.7.6 3-1 4.8-1l1.5 4a74 74 0 00-3.6 21.6l-.9 4c-1.8 2.1-4.4 3-6.4 4.6-4.1 4-2 10.3.8 14.5 2.8 3.2 4.3 7.8 2.8 12l-5.6-2.3c-2.6-1.1-1.4-4.5-2-6.8.7-1.5 2-2.9 1.6-4.6-2-1.7-6.2-.6-6.1-4.2-2.2-4.7 1.5-9.1 1.3-14 2.4-5.9 7-10.8 11-15.8 1.9-2 .7-5.3-.2-7.5.2-1.5.5-3 1-4.5m-4.8 20c-1.7 1.7-4.1 3.3-2.3 6.6 1.9-1.7 5.4 1.8 5.4-1.7 1.5-2.4.4-6.3-3-5z"/>
  <path fill="#daca9d" d="M70.6 176.8c1.8-1.2 2.6-1 1.6 1 3.7-.7 7.5.4 11.2-.5l1-.1-.8 1.6c-3.7-1-11.8 3-13-2z"/>
  <path fill="#e2d6ae" d="M84.3 177.2l4.8-1.2c-2 1.3-.2 3.1 1.6 3l1.6 1.1c-2.8 1.1-5.6 2.8-8.7 2.5-5.4-1-10.9 1-15.7 3.3-.8.7-1.5.8-2.2.3 1.1-2.6 5.6-5.8 3.3-8.6l1.6-.8c1.3 5 9.3 1 13 2l.7-1.6z"/>
  <path fill="#baa26d" d="M89.1 176l1-.2 1.7.3c-.9.8-1.5 1.8-1 3-1.9 0-3.7-1.8-1.7-3.1z"/>
  <path fill="#826730" d="M91.8 176l.8-.2c3 0 5.8.2 8.7.3-.5 2.8-3 3.2-5.4 3.1-1 .2-2 .4-3 .8l-.6.1-1.6-1c-.4-1.3.2-2.2 1-3z"/>
  <path fill="#8f774a" d="M101.3 176h1.9l-1.3 5c-1.8 4-4-.3-6-1.8 2.4 0 4.9-.3 5.4-3.1z"/>
  <path fill="#ae9555" d="M103.2 176c2.9-1 1 5.7-1.3 5 .5-1.6 1-3.3 1.3-5z"/>
  <path fill="#e0d9bf" d="M65.1 178.1l3.9-.5c2.3 2.8-2.2 6-3.3 8.7-1.5-1.4-3-3-3.5-5l3-3.2z"/>
  <path fill="#ab9666" d="M92.9 180c1-.4 2-.6 3-.8 2 1.5 4.2 5.7 6 1.9l1 3c-2.8.1-3.2 1.8-1 5.2l-2.6 1.8c-.5-2.2-1-4.3-2-6.3-.6-2.3-2.1-4-4.4-4.8z"/>
  <path fill="#e3c654" d="M112 179.5a14 14 0 016.8.4c2.1.3 4.2-.5 6.3-.8.5 2.3-1 3.3-3 3.8-2 .4-3.6 1.8-5.1 3.1-3.7 1 .4-3.8-3-3.2l-3-2.2 1-1z"/>
  <path fill="#72624d" d="M48 180.1c1.3.7 2.5 1.4 3.9 2l1.3.7.8 3.3c-2.1-.8-4.5-1.4-6.3-3l.3-3z"/>
  <path fill="#d6c79e" d="M92.3 180.1h.6c2.3.7 3.8 2.4 4.4 4.7-1.9 1.2-4 2.1-6.3 1.4.2 1 .5 2 .9 2.9L90 189l-4.8-1c1-1.1 2.6-2.8.5-3.8-4-.6-8 1-10.6 4-1.2 3.3 2 5.7 3.8 8 2.8-1.2 1.8-7.6 6-6.6.5 1.7.8 4.6 3.1 2.6l5.1-.5c2 0 3.1 1.4 3.9 3-.7 1.7-1 3.4-1.3 5l-.9.8a56.6 56.6 0 00-5 4.2h-2.8l-2-1-1.9-1c-3.7-3.2-8.2-5.8-10.7-10.2L71 192c.8-1.8 1.6-3.7 2.2-5.6-1.8.3-3.5 0-5.2-.5a26.3 26.3 0 0115.7-3.3c3.1.3 5.9-1.4 8.7-2.5z"/>
  <path fill="#e4dfcc" d="M121.3 187.3c5-2 9-7.4 14.7-6.6 1 2.2 2.1 5.5.2 7.5-4 5-8.6 10-11 15.9.2 4.8-3.5 9.2-1.3 14 0 3.5 4.1 2.4 6 4 .4 1.8-.8 3.3-1.6 4.7-.8 1-1.7 2-2.4 3.2 2.2 4.9 8.3 6.2 10 11.4 1.7 4.1 2 8.7 4.1 12.6 3.8 8 5.3 16.8 9.3 24.7 1.7 2.9-1.9 6.2-.2 9.1.8 1.5.7 3.6 2.1 4.7l5 .6c0 2.4-2.6 1.1-4 2-5.4 2.8-11.3.5-17 0-3.6 1.7 4 8.3-1 7.8-.1-3.2-1.4-6.3-4.1-8.1l-.4-1.4c4 1.5 5.6-3.5 9-4.6-.2-3.7-.2-7.6-1.3-11.1-.8-2.7-5.2-1.5-5.5-4.4 2.8-.2 2-3.5 3-5.4.4-2.2 4.2-5.2 5.2-1.7 1.4-8.5-5.1-16.2-12-20.3.9-3.1 1.7-6.5-1-9-1.7-2-2.8-6-6-6-1.5.9-2.8 2-4.1 3 .6-4.7 2.5-9.3 3-14-.7-6.7 2-14.2-1.7-20.2l-.3-1c-.4-2.5-2.8-5.2-1-7.7.9-1.7 2.8-2.5 4.3-3.7z"/>
  <path fill="#c3a965" d="M108 183.6l3-3 3 2.2c-1 2.3 0 4.6 1 6.6l-.7 1c-3.5 1.8-.9-2.5-3.2-3.7a4 4 0 00-3.2-3z"/>
  <path fill="#a08857" d="M53.2 182.8l1.7.4 2.7 3c1.2 2 3.6 1.7 5.8 1.7.2 1.2-.3 2.2-1 3.1-.3 1.6 1.6 3 2.8 3.9l.8.4a7.7 7.7 0 01-4.9 3c.6 5.2 6.6 5.4 10 2.5.5 2 4 4.6 1.4 6.2-1-.8-2.2-.7-3.3-.4-3.5-1.6-5.5.3-7.1 2.7-1.4-.6-2.8-1.4-4.1-2.1 0-2.6-.3-5-.7-7.5-.3-2.7 0-5.4-1-7.9a33 33 0 00-2.3-5.7 122 122 0 00-.8-3.3z"/>
  <path fill="#d7c695" d="M114 182.8c3.4-.6-.7 4.2 3 3.2-.2 1.4-1 2.5-2 3.4-1-2-2-4.3-1-6.6z"/>
  <path fill="#ddd5b8" d="M117 186c1.5-1.3 3-2.7 5-3.1.9 1.5 0 3-.8 4.4-1.4 1.2-3.3 2-4.3 3.7-1.7 2.5.7 5.2 1.1 7.8-2.7.1-5.3 1.5-6.3 4-1.6 3.3-2.3 7-3.5 10.3-2.5.2-5 .3-7.4.6l.3-2.5.3-1c.5-2 1.1-4.1 2-6l.7-1.1c1.3-1.8 2-3.9 2.9-5.8l2.1-2.4c3 .7 5-2 5.2-4.6l.7-.9c1-1 1.8-2 2-3.4z"/>
  <path fill="#b19d74" d="M57.6 186.2c1.5-4.2 4 .1 5.8 1.7-2.2 0-4.6.4-5.8-1.8z"/>
  <path fill="#e1d5ad" d="M75.2 188.2c2.7-3 6.5-4.6 10.6-4 2.1 1 .5 2.7-.5 3.8l-.3 1.6c-4.2-1-3.2 5.4-6 6.5-1.8-2.2-5-4.6-3.8-7.9z"/>
  <path fill="#c4b695" d="M101.8 189.3c-2-3.4-1.7-5 1-5.2-.4 1.4-.5 3 0 4.4l-1 .8z"/>
  <path fill="#9f8655" d="M102.9 188.5l5-4.9a4 4 0 013.2 3c-1.4 1.3-3 2.6-4.2 4-1 1.2-1.8 2.6-1.8 4.2-.1 2.2-.3 4.4-1 6.5a7.7 7.7 0 01-6.3-6l1.5-4.2 2.5-1.8 1-.8z"/>
  <path fill="#cec5aa" d="M29.3 187c5.6.2 11.2-.4 16.7-2-.7 5.3-6.9 7.3-10.6 10.1-.4-3.7-5.1-1-7.2-3.2.5-1.6 1.6-3.1 1.1-4.9z"/>
  <path fill="#cdba8c" d="M91 186.2c2.3.7 4.4-.2 6.3-1.4 1 2 1.5 4.1 2 6.3l-1.5 4.2-.7-.5c-.8-1.7-1.9-3-3.9-3L92 189l-1-2.9z"/>
  <path fill="#d6ccae" d="M28.2 185.8l1.1 1.2c.5 1.8-.6 3.3-1 5 2 2.1 6.7-.6 7.1 3.1-3.6 0-7 1.2-9.5 4-1-1.3-2.2-4.3-3.8-1.9-.2 4-.2 7.8-.1 11.7.5 3.8.8 7.5.1 11.3l-.7 2c-1.3-2.3-1.7.8-2.5 1.8l1.3-9.8c.4-2.7.8-5.4.8-8.2 0-3.6 0-7.2.2-10.8.5-4.7 7.7-4.4 7-9.4z"/>
  <path fill="#cdc2a5" d="M107 190.6c1.2-1.4 2.7-2.7 4.1-4 2.3 1.3-.3 5.6 3.2 3.7-.3 2.7-2.3 5.3-5.2 4.6 0-1.8-.6-3.3-2.2-4.3z"/>
  <path fill="#baac91" d="M50.7 200.3c-3.6-3.6-3.6-10 1.3-12.5 1.6 1.2 2.9 2.7 4.4 4 .9 2.5.6 5.2.9 7.8a16 16 0 00-1.4 4.3c-2.4 1-7-2.5-7.2 1.2l-3.2-3.3c.3-4 8.9 3 5.2-1.5z"/>
  <path fill="#af9c77" d="M63.4 187.9c3.3-.4 5.3 2.2 7.5 4.1l.3 1.9c-1.7-1-3.2-2.5-5.1-3-.2 1.4 1 3.2 0 4.4l-1-.4c.4-2 0-4.8-2.7-3.9.7-.9 1.2-2 1-3.1z"/>
  <path fill="#9d865c" d="M85.3 188l4.8 1-2 3.2c-2.3 2-2.6-1-3.1-2.6l.3-1.6z"/>
  <path fill="#bba679" d="M90 189H92l1.3 2.7-5 .5L90 189z"/>
  <path fill="#bbaf98" d="M62.4 191c2.6-1 3 2 2.8 3.9-1.2-.8-3.1-2.3-2.8-3.9z"/>
  <path fill="#8d7c5d" d="M66 190.9c2 .5 3.5 2 5.2 3l1 1c-.4 2-.9 4-1.1 5.9-3.4 2.9-9.4 2.7-10-2.4 2-.5 3.8-1.4 5-3 1-1.3-.2-3 0-4.5z"/>
  <path fill="#b69c5a" d="M105.2 194.8c-.1-1.6.7-3 1.7-4.2 1.6 1 2.2 2.5 2.2 4.3l-2.1 2.3-1.8-2.4z"/>
  <path fill="#beb194" d="M71 192l1.5.5c2.5 4.4 7 7 10.7 10.3-2.7-.1-5.5.5-7.9-1.1-1.1-2.2-1.5-4.8-3.1-6.8l-1-1-.3-1.9z"/>
  <path fill="#676662" d="M20.2 192.8l1 2.4c-.3 3.6-.1 7.2-.2 10.8h-1l.2-13.2z" opacity=".5"/>
  <path fill="#b09a6b" d="M34.4 198c3.4-2.4 8-2.5 11.4-5 1.4 3.3-.3 6.2-.8 9.5-1.1-1.3-1.9-2.7-2.5-4.3-6.2-3.6-3 3-6.1 4.2-2 1-1.8 3.4.8 2.8l-2.4 2.2L33 206l-.9-4.2c2.9 2.7 3.2-1.8 2.4-3.8z"/>
  <path fill="#d2c090" d="M25.9 199c2.4-2.7 6-4 9.5-3.9-2.7 1.1-5.3 2.5-3.6 5.7-1.5.3-2.7 1.2-3.9 2l-3.8-1.6a35 35 0 00-1.3 8l-.8-.3c-.1-3.9 0-7.8.1-11.7 1.6-2.4 2.7.6 3.8 1.8z"/>
  <path fill="#ab9b7e" d="M72.2 195c1.6 1.9 2 4.5 3.1 6.7 2.4 1.6 5.2 1 8 1l1.8 1c-4 .6-2.9 5.4-2 8.2-3.6-1.8-7.6-2.6-11.3-4.1l.7-.8c2.6-1.6-1-4.2-1.4-6.2.2-2 .7-3.9 1-5.9z"/>
  <path fill="#b29b66" d="M97 194.8l.8.4a7.7 7.7 0 006.3 6.1v1.8l-.7 1c-2.6-1.3-5.3-2.5-7.6-4.3.3-1.8.6-3.4 1.3-5z"/>
  <path fill="#ccb889" d="M105.2 194.8l1.8 2.4c-.9 2-1.6 4.1-2.9 5.9v-1.8c.7-2 .9-4.3 1-6.5z"/>
  <path fill="#d9cead" d="M132.2 196.2c3.5-1.4 4.6 2.5 3 5 .1 3.4-3.4 0-5.3 1.6-1.8-3.3.6-4.9 2.3-6.6z"/>
  <path fill="#9f8758" d="M36.4 202.4c3-1.2 0-7.8 6.1-4.2.6 1.6 1.4 3 2.5 4.3-.4 2-1.9 2.9-3.9 2.6h-4c-2.5.7-2.6-1.8-.7-2.7z"/>
  <path fill="#c8bca1" d="M111.7 202.9c1-2.6 3.6-4 6.3-4.1l.3.9c0 1.6-.3 4.7-.4 6.3-2.1-.9-6-.1-6.3-3.1z"/>
  <path fill="#b8a16d" d="M57.3 199.7c.4 2.4.7 5 .7 7.5l-2-3.3a16 16 0 011.3-4.3z"/>
  <path fill="#bea14c" d="M95 200.5l.8-.7c2.3 1.8 5 3 7.6 4.3-.9 2-1.5 4-2 6-1.5-1.7-3.5-2.9-5.4-4.2 0-1.8.2-3.9-1-5.4z"/>
  <path fill="#d5c9a5" d="M118.3 199.7c3.7 6 1 13.5 1.6 20.1-2 2-4 4-5.7 6.3l-.9-2.3-.3-1.6v-1c.6-3.4 1-9.3-4-8h-.8c1.3-3.4 2-7 3.5-10.3.3 3 4 2.2 6.2 3l.4-6.2z"/>
  <path fill="#c9af6a" d="M24.1 201.2c1.3.5 2.5 1.2 3.8 1.6 1.2-.8 2.4-1.7 3.9-2l.2 1 1 4.3c-1.8-.9-3.6-2.6-5.7-2l-2.2 4.6c-.3.7-1 2-1.5 2.6l-.8-2.2a35 35 0 011.3-8z"/>
  <path fill="#a78c4d" d="M91 203.7l4-3.2c1.2 1.5 1 3.6 1 5.4l-1.1.2c-1.2-1-2.5-1.8-3.9-2.4z"/>
  <path fill="#797872" d="M138.8 204.9l1-4.2v13.5a98 98 0 01-1-9.3z" opacity=".6"/>
  <path fill="#b89b42" d="M45 202.5l.5-.7 3.2 3.3.5.6c-.2 2.2-1.1 4.5-.5 6.7L48 214a77 77 0 00-5-2.4l-1.7-5.8-.3-.8c2 .3 3.5-.6 3.9-2.6z"/>
  <path fill="#d3c18f" d="M48.7 205c.2-3.6 4.8-.2 7.2-1.1.8 1 1.4 2.2 2.1 3.3v1c-2.8 1-5.2-1.8-8-2.2l-.8-.3-.5-.6z"/>
  <path fill="#bda047" d="M27.3 204.2c2.1-.7 3.9 1 5.6 1.9l2 1.3 1 2-.1.8L32 208c-1.5.8-2.7 2.1-4 3.2-.8-1-1.7-1.9-2.9-2.5l2.2-4.5z"/>
  <path fill="#a08e6b" d="M83.1 211.9c-.9-2.8-2-7.6 2-8.2l2 1-1 .3c-4.3 1.2-.4 6.2 0 9l-3-2.1z"/>
  <path fill="#8c6e2b" d="M89.9 204.7l1.1-1c1.4.6 2.7 1.5 3.9 2.4.5 3 3.5 4.4 6.2 5l-.3 2.6-.8 1.5c-3-1-5.4-5.4-8.8-3.1 2.2-2.2 1.3-6-1.3-7.4z"/>
  <path fill="#cab88c" d="M37.2 205.2l4-.1.2.8c-.7 2.6-2.8 5-5.6 3.5l-1-2 2.4-2.2z"/>
  <path fill="#907a4f" d="M86 214c-.3-2.8-4.2-7.8.1-9 .2 2.4.4 4.7.8 7v3.3L86 214z"/>
  <path fill="#725825" d="M86.1 205l1-.4 2.8.1c2.6 1.5 3.5 5.2 1.3 7.4h-4.4a119 119 0 01-.7-7z"/>
  <path fill="#dfdac8" d="M132.4 209.4c2-1.7 4.7-2.5 6.4-4.5a272.4 272.4 0 004 27c-5.9-1.1-1.9 8.8-6.9 9.5-1.7-5.2-7.8-6.5-10-11.4l2.4-3.2c.7 2.3-.5 5.7 2 6.8 2 .8 3.8 1.6 5.7 2.2 1.5-4.1 0-8.7-2.8-12-2.9-4-5-10.4-.8-14.4z"/>
  <path fill="#7c7b74" d="M20 206h1c0 2.8-.4 5.5-.8 8.2L20 206z" opacity=".6"/>
  <path fill="#c1a967" d="M41.4 206c.6 1.8 1 3.8 1.7 5.7-3-.4-3.3 2.1-3.8 4.4-1-.7-2.2-1-3.4-1.2-.5-1.5-.1-3.1-.1-4.7v-.8c2.8 1.4 4.9-.9 5.6-3.5z"/>
  <path fill="#cbae51" d="M49.2 205.7l.9.3 1.3 4-1.7 2.5-1-.1c-.6-2.2.3-4.5.5-6.7z"/>
  <path fill="#d4be76" d="M50 206c2.8.4 5.2 3.2 8 2.1v1.9h-6.6l-1.3-4z"/>
  <path fill="#cfae32" d="M62 209.3c1.7-2.5 3.7-4.3 7.2-2.7l-.3 7.4c-2.3-.8-4.6-1-7-1l-2.3-.8 2.5-2.9z"/>
  <path fill="#b9a160" d="M69.2 206.6c1.1-.3 2.3-.4 3.3.4l-.7.8c-2-.2-2 1.5-1.7 3 3.4 2 7.5 2.4 10.9 4.2-2.7.1-6-1-8 1-.7.8-1.9 0-2.7 0l-1.4-2 .3-7.4z"/>
  <path fill="#ae8e2d" d="M94.9 206H96c1.9 1.2 3.9 2.4 5.4 4.2l-.3 1c-2.7-.7-5.7-2-6.2-5.1z"/>
  <path fill="#c1a44a" d="M58 207.2l4 2.1-2.4 3-.8-.3-.8-.3V210 207z"/>
  <path fill="#bb9a30" d="M28 211.2c1.3-1 2.5-2.3 4-3.2l3.8 2.2c0 1.6-.4 3.2.1 4.7.6 3.5 1.6 7 4.6 9.2l.5.8c-2-.3-2 .5-1.1 1.8-2.8.5-3.2 2.9-3 5.3-1.7 1.3-3.2 2.8-4.8 4.1l-1-.2c-4.2-3.5-3 6.2-7.4 3.3 1.2-1.8 3.3-3.6 3.2-6l-.6-4.2H28c1.3 0 2.6 0 3.8-.2 2-2.4-1-4.6-1.7-6.9a71 71 0 00-1-3.8c0-2.4-.4-4.7-1-7z"/>
  <path fill="#bbaa85" d="M70.1 210.8c-.3-1.5-.3-3.2 1.7-3 3.7 1.5 7.7 2.3 11.3 4l3 2.2c.1.4.5 1 .7 1.3l1 1.9.4.8-1.2 1.3L84 218a47.4 47.4 0 00-3.1-3c-3.4-1.7-7.5-2-10.9-4z"/>
  <path fill="#c5b389" d="M22 209l.8.1.8 2.2c1.5 2.6 1.6 7.4 5.6 6.8a71 71 0 01.9 3.8l-1-.3-2.9-.8c-1.4-1.6-3.3-4-4-.6.6-3.8.3-7.5-.2-11.3z"/>
  <path fill="#a08850" d="M25.1 208.7c1.2.6 2 1.6 3 2.5.6 2.2 1 4.5 1 6.9-3.9.6-4-4.2-5.5-6.8l1.5-2.6z"/>
  <path fill="#baa46c" d="M51.4 210H58v1.8a37 37 0 00-4 1.2c-1.5 0-2.9-.2-4.3-.5l1.6-2.5z"/>
  <path fill="#a28843" d="M91.2 212c3.4-2.2 5.7 2.1 8.8 3.2l-.1 1.8c-3.2-3.4-8.4-1.4-12.1.2l-1-1.9c2.3.1 4-1 4.4-3.2z"/>
  <path fill="#a98d3a" d="M39.3 216.1c.5-2.3.8-4.8 3.8-4.4a77 77 0 015 2.4l-.4 1.7c-2-1-4.8-1.4-5.8 1.2-.8 2-2.2.4-2.6-.9z"/>
  <path fill="#ad944f" d="M48.7 212.4l1 .1c1.4.3 2.8.4 4.3.5l-2 1.8c1 2.3 2.2 4.6 2 7.1-3.5 1-6.8 2.8-10.5 2.5-.5 1.4-1.5 1.2-2.5.5l-.5-.8c1.7-3.7 5.7-.2 8.5-2.3-.5-2-2.4-3.8-1.3-6l.4-1.7.6-1.7z"/>
  <path fill="#9b8556" d="M54 213a37 37 0 014-1.3l.9.3c.9 3.3 1.7 6.6 2.2 9.9-1.7-1.2-2.9.2-4 1.4l-2.2-1c2.3-.6 4.9-2.4 4-5.1a10.5 10.5 0 00-6.9-2.4l2-1.8z"/>
  <path fill="#987723" d="M58.9 212l.7.2 2.3.8.1 3c2.3-2.9 5.1-.5 7.4 1 .1 1 .6 2.1 0 3.1-1.2-2-4.3-4.8-6.3-1.9-1 2.8 1.9 4.5 4 5.2l-2.1.6c-3-.4-.6 3.4-1.2 5.1a315 315 0 00-2.4-5.3l-.3-1.9c-.5-3.3-1.3-6.6-2.3-9.9z"/>
  <path fill="#8a6b24" d="M86.8 212h4.4c-.4 2.3-2.1 3.4-4.4 3.3v-3.2z"/>
  <path fill="#b79528" d="M62 213c2.3 0 4.6.2 6.9 1l1.4 2-.9 1c-2.3-1.5-5-3.9-7.4-1v-3z"/>
  <path fill="#c8bb9b" d="M100.8 213.7l7.4-.6h.8c2 1.9 2.2 4.6 1.8 7.1l-3-1.4c-.6-1.3-.9-3-2.7-2.9 0 1.8.6 3.8-.2 5.5-1.8-.3-3.6-.8-5.2-1.6l.1-1.9.1-.9v-1.8l1-1.5z"/>
  <path fill="#917a4f" d="M109 213.1c5-1.3 4.6 4.7 4 8.1l-2.2-1c.4-2.5.3-5.2-1.8-7z"/>
  <path fill="#9a7e35" d="M36 214.9c1.1.1 2.3.5 3.3 1.2.4 1.3 1.8 2.9 2.6.9 1-2.6 3.8-2.2 5.9-1.2-1.2 2.2.7 4 1.2 6-2.8 2.1-6.8-1.4-8.5 2.3-3-2.2-4-5.7-4.6-9.2z"/>
  <path fill="#876d3c" d="M52 214.8c2.5.1 5 .7 7 2.4.8 2.7-1.8 4.5-4.1 5.1l-.8-.4c0-2.5-1-4.8-2-7z"/>
  <path fill="#a9904a" d="M73 216c2-2 5.3-.9 8-1l1 1 .5 2c-3 0-8.1-4.3-8.5.9l-.3.8c-2 1-3.5 2.8-5.7 3.5l1.4-3c.6-1 .1-2.2 0-3.3l.9-.8c.8 0 2 .8 2.7 0z"/>
  <path fill="#bba461" d="M87.8 217.2c3.7-1.6 9-3.6 12.1-.2v1c-3.9 1.1-7.8.7-11.7 0l-.4-.8z"/>
  <path fill="#ad881e" d="M74 218.9c.4-5.2 5.5-1 8.5-.8-2.6 1.3-5.7.3-8.5.8z"/>
  <path fill="#bba25d" d="M82 216c.8.6 1.5 1.2 2.1 2l.8 3.8c-1.7.7-3.4 1.3-5.1 1.7-2.2-.3-4.2-2.2-6.5-1.3-2 1.6-4.8 4-1.5 5.8-3.5-.7-5.5 2.8-3.3 6.1l1.3 2.3c1.6 1 3.7.6 5.5 1L75 239l-.8.3-3-.4c-2.3-1.5-4-3.5-6-5.2L65 224l2.2-.6.8-.2c2.2-.7 3.8-2.4 5.7-3.5 2.7.2 5.4 1 8.1 1.2 1.1-.7 1.1-1.7.7-2.8l-.4-2.1z"/>
  <path fill="#b8a579" d="M105.1 216c1.8-.3 2.1 1.5 2.8 2.8l-.8 2.3c-.7.3-1.5.3-2.2.3.8-1.8.2-3.7.2-5.5z"/>
  <path fill="#7b6025" d="M63.1 218.2c2-2.9 5-.2 6.3 2l-1.4 3-.8.2c-2.2-.7-5-2.4-4-5.2z"/>
  <path fill="#cab166" d="M22.1 220.2c.8-3.5 2.7-1 4.1.6-.3 2.7-.2 5.4 0 8.2.3 1.4.6 2.8.7 4.2-1.1-1.3-2-2.7-3.2-4-2-.7-2.6 1.8-3.7 2.8l-.3-1.1c.4-3 .8-6 1.7-8.8.2-.5.6-1.4.7-2z"/>
  <path fill="#c5a22f" d="M74 218.9c2.8-.5 5.9.5 8.5-.8.4 1 .4 2.2-.7 2.8-2.7-.2-5.4-1-8-1.2l.2-.8z"/>
  <path fill="#baa46e" d="M84.1 218l2.9 1.3.2 3.9-.2.8c-2.6 1.3-8 .3-8 4 0 1.3.4 2.6.9 3.9l-1 1.1-1.8-.9c-1.9-1.2-3.7-2.5-5.3-4-3.3-1.9-.5-4.3 1.5-5.9 2.3-.9 4.3 1 6.5 1.3 1.7-.4 3.4-1 5-1.7 0-1.3-.4-2.6-.7-3.9z"/>
  <path fill="#b4932d" d="M88.2 218c3.9.7 7.8 1.1 11.6 0v1.8c-.8 2.3-1.4 4.8-2 7.2-2 2-3.5-.1-4.5-2-.4 1.4-.5 3-2.1 3.3.5-2.8 1.2-6-2-7.5-1.4-2-1.3 1.4-2 2.4l-.2-3.9 1.2-1.3z"/>
  <path fill="#c4a647" d="M107.1 221.1l.8-2.3 3 1.4 2 1v1l-5.8-1z"/>
  <path fill="#a88217" d="M87.2 223.2c.7-1 .6-4.4 2-2.4 3.2 1.6 2.5 4.7 2 7.5l-5.4 3c.2-2.5.5-5 1.2-7.3l.2-.8z"/>
  <path fill="#ccae51" d="M97.9 227c.5-2.4 1-4.8 1.8-7.2 1.6.8 3.4 1.3 5.2 1.6.7 0 1.5 0 2.2-.3-.4 3.5-5.5 1-7 4.2v6.4l-3-.8.1-1 .7-2.9z"/>
  <path fill="#e2d5a9" d="M114.2 226.1c1.6-2.3 3.6-4.3 5.7-6.3-.4 4.8-2.3 9.4-3 14.1-2-.2-1.9 1.7-2.2 3.1l-1.6-1.7c.5-3 1-6 1-9.2z"/>
  <path fill="#c1b89f" d="M18.9 224c.8-1 1.2-4 2.5-1.9-.9 2.9-1.3 5.8-1.7 8.8-3 2.4-1.2 7-1.9 10.3A5 5 0 0114 239c1.5-5 3-10 4.9-15z" opacity=".9"/>
  <path fill="#aa9050" d="M26.2 220.8l3 .8c-4.2-.2-1.3 4.8-1.2 7.4h-1.7c-.3-2.8-.4-5.5-.1-8.3z"/>
  <path fill="#a99565" d="M57 223.3c1.2-1.2 2.4-2.6 4-1.4l.4 2c-1.3 1.8-3 4-5.4 2.2l1-2.8z"/>
  <path fill="#dcb824" d="M107.1 221.1c2 .4 4 .8 5.9 1l.3 1.7a11 11 0 01-4 9.4c-2.8-.3-5.5-1-8.2-1.3l-1-.2v-6.4c1.5-3.2 6.6-.7 7-4.2z"/>
  <path fill="#94793c" d="M28 229c-.1-2.6-3-7.6 1.2-7.4l.9.3c.8 2.3 3.7 4.5 1.7 7H28z"/>
  <path fill="#bfa660" d="M43.5 224.4c3.7.3 7-1.6 10.6-2.5l.8.4 2.2 1L56 226l-.3.7-.9.3a8 8 0 00-5 4.8c-2-.6-3.8-1.3-5.6-2-1.5-1-2.9-2-4.3-3.2-1-1.3-.8-2 1-1.8 1 .7 2 1 2.6-.5z"/>
  <path fill="#775c24" d="M61.4 223.8a315 315 0 012.4 5.3v.8c-1.1 1.4-1.3 4-3.5 4 .1-2.3-1-2.9-3.1-2.1-.7-1.6-1.2-3.3-1.5-5l.3-.7c2.3 1.8 4.1-.4 5.4-2.3z"/>
  <path fill="#b19339" d="M63.8 229.1c.6-1.7-1.8-5.5 1.2-5.1l.2 9.7-1 2.6-.3-3.5v-3.7z"/>
  <path fill="#876925" d="M79 228c0-3.7 5.4-2.7 8-4-.7 2.3-1 4.8-1.2 7.2a15 15 0 01-6.9-3.2z"/>
  <path fill="#e4c856" d="M113.3 223.8l.9 2.3a92 92 0 01-1 9.2c-1.4-.9-2.9-1.3-4.4-1.6l.5-.5a11 11 0 004-9.4z"/>
  <path fill="#cba72b" d="M93.3 225c1 1.9 2.5 4 4.6 2l-.7 3c-3.6-1.3-7.2 1.3-10 3.2l-1.4-2 5.4-2.9c1.6-.3 1.7-2 2-3.3z"/>
  <path fill="#9d7f30" d="M36.9 232c-.2-2.4.2-4.8 3-5.3l4.3 3.2c-3-.8-5.9-1-7.4 2z"/>
  <path fill="#bc941b" d="M49.8 231.9a8 8 0 015-4.8c-.2 4 2.6 8.7 7 8.8l2.2-3 .2 3.4v.8c-1.8.6-3.6 1-5.4 1.2l-3.7-1.3-1.8-1.2-2.1-2.3-.5-.5-1-1.1z"/>
  <path fill="#967521" d="M54.8 227l.9-.2c.3 1.7.8 3.4 1.5 5 2.1-.8 3.2-.2 3 2.2 2.3 0 2.5-2.7 3.6-4.1l.2 3-2.3 3c-4.3 0-7.1-4.8-6.9-8.8z"/>
  <path fill="#ab9253" d="M68.5 234.1c-2.2-3.3-.2-6.8 3.3-6 1.6 1.5 3.4 2.8 5.3 4-.5 1.8-1.2 3.5-1.8 5.2-1.8-.3-3.9 0-5.5-1 1.7-.3 3.3-.8 4.9-1.5 0-1.3.1-2.7-.8-3.8-2.2 0-4 1.6-5.4 3.1z"/>
  <path fill="#bb992c" d="M79 228a15 15 0 006.8 3.2l1.4 2c-2.5-.3-4.9-.9-7.3-1.3-.5-1.3-.9-2.6-1-4z"/>
  <path fill="#b09856" d="M20 232c1.1-1 1.8-3.5 3.7-2.8 1.1 1.3 2 2.7 3.2 4 .1 2.4-2 4.2-3.2 6l-4.5 2c.8-1.7-.1-6 3-4.5-.8-1.6-1.8-3-2.2-4.7z"/>
  <path fill="#7f663a" d="M36.9 232c1.4-3.2 4.4-2.8 7.3-2l-.5 3c-1.2 2-3 3.4-5.6 3.1l-1.3-4.1z"/>
  <path fill="#e1bf32" d="M87.2 233.2c2.8-2 6.4-4.5 10-3.2v1l-2.3 3a6.9 6.9 0 01-4.8 2l-3-1v-1.8z"/>
  <path fill="#9c7c29" d="M44.2 230l5.6 1.9 1 1c-2.6-.3-4.6.2-4 3.2-1-1-2.1-2-3.1-3.2l.5-3z"/>
  <path fill="#beab7d" d="M17.8 241.2c.7-3.3-1.1-7.8 1.9-10.3l.3 1c.4 1.8 1.4 3.2 2.1 4.8-3-1.5-2 2.8-2.9 4.6l-.4 1.9-1-2z"/>
  <path fill="#91763a" d="M68.5 234.1c1.4-1.5 3.2-3 5.4-3 .9 1 .7 2.4.8 3.7-1.6.8-3.2 1.2-4.9 1.6l-1.3-2.3z"/>
  <path fill="#e4d079" d="M97.1 231l3 .7 1 .3c1 2.4-1.7 4.3-1.2 6.8-1.4-.8-3-1.7-4.6-1.9l-.4-3 2.2-3z"/>
  <path fill="#ece6cc" d="M117 234c1.3-1 2.6-2.2 4-3 3.3-.2 4.4 3.9 6.2 5.9 2.5 2.5 1.8 5.9 1 9-.8 1.3-1.7 3-.4 4.3 3.9 4.8-3.3 13.1 3.4 16-6.1 3.6-5.3-1.5-5.9-5.5.2-2.6-2.3-3.6-4.1-5 0-2.4.5-5 .6-7.4-2-1.5-4-2.7-5.6-4.6 0-3.3.4-6.5.8-9.8z"/>
  <path fill="#9a7e36" d="M32 236.1L37 232 38 236c1 2.8 1.2 5.6-2.4 5.8-1.3-1.4-2.6-3-4-4.3l.4-1.5z"/>
  <path fill="#c8aa4c" d="M77 232.1l1.9 1 .1 1.5c-1.3 1.6-1.6 4.3-4 4.4l.3-1.7c.6-1.7 1.3-3.4 1.8-5.2z"/>
  <path fill="#d7be69" d="M78.9 233l1-1.1c2.4.4 4.8 1 7.3 1.3L87 235c-1.2.6-3.4 2-4.1 0-.6-1.6-2 .9-3 1.2l-1-1.5-.1-1.6z"/>
  <path fill="#eed03f" d="M101 232c2.8.2 5.5.9 8.3 1.2l-.5.5a43 43 0 00-5.6 6.7l-3.3-1.6c-.5-2.5 2.2-4.4 1.2-6.9z"/>
  <path fill="#dbdad2" d="M136 241.4c5-.7 1-10.6 6.9-9.5 1.2 5.5 1.7 11.1 3.7 16.4 3.8 12 11 23.4 10.7 36.5l-.3 8.2-.9.1-4.9-.6c-1.4-1.1-1.3-3.2-2.1-4.7-1.7-3 2-6.2.2-9.1-4-7.9-5.5-16.8-9.3-24.7-2-4-2.4-8.5-4-12.6z"/>
  <path fill="#a28b56" d="M38.1 236.1c2.6.3 4.4-1 5.6-3.2l3.1 3.2 1.2 1.1a84 84 0 00-7.6-.2c.3 1.8 0 3.5-.6 5.2l-4-.3c3.5-.3 3.4-3 2.3-5.8z"/>
  <path fill="#856624" d="M46.8 236c-.6-3 1.4-3.4 4-3l.4.5c-1 1.4-1.3 3.4-3.2 3.7l-1.2-1.1z"/>
  <path fill="#907744" d="M48 237.2c2-.3 2.3-2.3 3.2-3.7l2.1 2.3c-.2 1.6-.6 5-3 4l-2.3-2.6z"/>
  <path fill="#d1b665" d="M65.2 233.7c2 1.7 3.7 3.7 6 5.2l-3.5 2c-.7-1.5-2.2-1.9-3.7-2l.1-1.8.1-.8 1-2.6z"/>
  <path fill="#e3d18e" d="M80 236c1-.2 2.4-2.7 3-1 .7 1.9 2.9.5 4 0l3.2 1-.2.8c-3 .6-5.9 1-8.8.3.5 3.8.3 10.7-5.3 10l-.8.2c-2 .4-3.8 1.6-5.7 2.2 1.6 3.4-1 4.6-3 5.6v-1c1.6-3.5.4-6.9-2.2-9.3a108 108 0 01-.4-4l.2-2c1.5.2 3 .6 3.7 2 .1 2.6 1.7 4.4 3.4 6 2.7-2 6-2.5 8.8-4l.1-4v-2.7z"/>
  <path fill="#f0d54e" d="M90.2 236c1.8 0 3.4-.8 4.7-2l.4 3-3 1.9-.5-.9-1.8-1.2.2-.8z"/>
  <path fill="#eee4b5" d="M105 237.8a43 43 0 013.8-4c1.5.2 3 .6 4.3 1.5l1.6 1.7c.3-1.4.3-3.3 2.3-3-.4 3.2-.8 6.4-.8 9.7 1.6 1.9 3.7 3.1 5.6 4.6 0 2.4-.7 5-.6 7.4 1.8 1.4 4.3 2.4 4.1 5-1 3.5-1.2 9.7 3.6 7.7l.3 2.5c-1.9.7-3.4 1.9-5 3-1.5-4.1-.3-10.1-4.8-12.4.5-4.1-1.6-8.5-5-11-3.4-1.8-1.6-6.7-3.3-9.6 0-3.1-3.7-4-6.2-3z"/>
  <path fill="#cdac41" d="M23.7 239.2c4.4 3 3.2-6.8 7.5-3.3-1.2 1.5-2.5 3.1-3 5l-1.4 5-.8-.2-7.2-2.5.4-2 4.5-2z"/>
  <path fill="#ddbe49" d="M75 239c2.4 0 2.7-2.8 4-4.4l1 1.5v2.8c-1.5 3.1-5 3.3-7.8 4.4l2-4 .8-.3z"/>
  <path fill="#baa25f" d="M31.2 236l.9.1-.3 1.5c-1.3 2.7 4.3 5.2 0 6.9-1.3-1-2.4-2.3-3.6-3.6.5-1.9 1.8-3.5 3-5z"/>
  <path fill="#b19a63" d="M53.4 235.8L55 237c-.9 2.1-1.8 4.8.9 6-2.1-.1-4 1-5.8 2-.3-1.7-.7-3.3-1.4-4.9-5.9-3.5-4.4 1.5-5 4-1.5-.3-2.8-1.2-4-2 .6-1.6 1-3.3.6-5.1 2.5 0 5 0 7.6.2l2.3 2.6c2.4 1 2.8-2.4 3-4z"/>
  <path fill="#cab275" d="M55.1 237c1.2.5 2.5 1 3.7 1.3 4.2.8 1.6 6-2 5l-.8-.3c-2.7-1.2-1.8-3.9-.9-6z"/>
  <path fill="#cfad32" d="M58.8 238.3c1.8-.2 3.6-.6 5.3-1.2v1.7l-.3 2c-.8 1.8-1.5 3.7-2.6 5.3h-1c1.7-2.6-1.7-2.2-3.4-2.8 3.6 1 6.2-4.2 2-5z"/>
  <path fill="#e8dbab" d="M81.2 237c3 .7 5.9.4 8.8-.2l1.8 1.2a6.6 6.6 0 00-3.7 2.2c.2 3.3 2.3 6 4 8.6-2-.4-4.2-1.2-6 .2.2-1.5 1.1-2.8 1.8-4.1l-2.7.3c-1.2 4-2.6 7.9-3.5 12l-.9-2c2.4-4-1.8-6.6-5-8 5.7.6 6-6.3 5.4-10.1z"/>
  <path fill="#eee3ad" d="M95.3 237c1.7.1 3.2 1 4.6 1.8 1 .6 2.2 1.1 3.3 1.6-1.7 6.2-8.1-1.3-11-1.5l3-2z"/>
  <path fill="#ece6ca" d="M105 237.8c2.4-1 6.1 0 6 3.1 1.8 2.9 0 7.8 3.4 9.7 3.4 2.4 5.5 6.8 5 11 4.5 2.2 3.3 8.2 4.8 12.3 1.6-1.1 3.1-2.3 5-3 2-1.6 2.2 1 2.7 2.4.3 3 4.7 1.7 5.5 4.4 1.1 3.5 1 7.4 1.4 11-3.5 1.2-5.2 6.2-9.1 4.7a11 11 0 01-2.6-2.4c-.3-3.3-3.6-3.5-6.3-3.7 4.4 0 .2-5.2-1-7.1-5.6-3-8.8-9-15-11-2.2.3-4.5 1-5-2 1.6-.6 3.4-.8 5.1-.2l6 2.2a15 15 0 008 3.7c2.3-1.6.3-4.3-.4-6.3-1.5-5-7-7-10.3-10.8a7.2 7.2 0 00-8.5-2.1c-3.6 1-5.6-2.5-7.5-4.9-1.8-2.6-4-5.3-4-8.6 1-1 2.1-2 3.6-2.2l.4.9c2.9.2 9.3 7.7 11 1.5.5-.9 1-1.8 1.7-2.6z"/>
  <path fill="#af954a" d="M31.9 244.5c4.2-1.7-1.4-4.3-.1-7l4 4.4 2.1 3c-1.7 0-3.3.6-4.2 2.1l-1.4-1-.4-1.5z"/>
  <path fill="#e4dbba" d="M14 239a5 5 0 003.8 2.2l1 2c-.3 1.6-.7 3.2-.8 4.8a8 8 0 005-1.2c1.3.3 2.3 1.1 3.1 2v1c-.1 3.3 2 7.1-.3 10-1.3 1.6 0 3.6.1 5.4-2.1 1.3-2.3-1.5-3.3-2.8-1.5-.6-3-1-4.6-1.5-1.2-.6-2.5-1.2-3.8-1.6l-6.5 6c.5 6-2.7 11.6-2.8 17.6-4-4.9 3.5-11.5-.8-16.1 2.2-9.7 6.9-18.5 10-27.9z"/>
  <path fill="#d7b42d" d="M67.7 240.9l3.4-2c.8 0 2.3.3 3 .4l-2 4c-1.7.6-2.9-1.8-4.4-2.4z"/>
  <path fill="#e5ce6f" d="M72.2 243.3c2.9-1 6.3-1.3 7.8-4.4l-.1 4c-2.9 1.4-6.1 1.9-8.8 3.9-1.7-1.6-3.3-3.4-3.4-6 1.5.7 2.7 3.1 4.5 2.5z"/>
  <path fill="#c1ab7c" d="M43.8 244c.6-2.4-.9-7.4 5-3.9.7 1.6 1.1 3.2 1.4 4.9l-1.3 1c-2 1.5-3.6 3.4-6 4.3l-3.7-1.5-1.2-1v-3l-2.3-2.9 4 .3c1.3.7 2.6 1.6 4 1.9z"/>
  <path fill="#957c46" d="M28.2 241c1.2 1.2 2.3 2.5 3.7 3.5 0 .4.3 1.1.4 1.5-1 2.6-4.5 2.6-5.5 0l1.4-5z"/>
  <path fill="#d1b868" d="M61.2 246.1c1.1-1.6 1.8-3.5 2.6-5.3l.5 4-2.4 3.2-2-.1 1.3-1.8z"/>
  <path fill="#e3c652" d="M18.8 243.2c2.4 1 4.8 1.7 7.2 2.5-1 .2-2 .6-3 1a8 8 0 01-5 1.3c.1-1.6.5-3.2.8-4.8z"/>
  <path fill="#a4801e" d="M50.2 245c1.8-1 3.7-2.1 5.8-2l.8.3c1.7.6 5 .2 3.5 2.8h-1c-1.3-.5-2.6-1.2-4-1-2.7-.8-4.3 1.2-5.7 3l-.7-2 1.3-1.1z"/>
  <path fill="#caaa39" d="M33.7 247c1-1.5 2.5-2.1 4.2-2.1l.1 2.8c-1 .9-1.3 2-1.1 3.3l-3.2-4z"/>
  <path fill="#755c2e" d="M49.6 248.2c1.4-2 3-3.9 5.6-3.2-.6 1.4-1.4 2.8-2.1 4.1l-1.1 1c-1.5 0-2.2-.6-2.4-2z"/>
  <path fill="#907c56" d="M55.2 245c1.5-.1 2.8.6 4.2 1.2-2 1.1-4.1 2.1-6.3 2.9l2.1-4z"/>
  <path fill="#d6b53b" d="M64.3 244.8c2.5 2.4 3.7 5.8 2 9.3l-1.2-1.3c-1-1-2.5-.6-3.7-1l.5-3.8 2.4-3.2z"/>
  <path fill="#e4d493" d="M85.2 245.2l2.7-.3c-.7 1.3-1.6 2.6-1.9 4-1.3 3.4-1 6.7 2 9-1.4.4-3.5-.4-4.4 1-1.4 3-.3 6.8-.6 10l-1 .1c0-4-.2-7.9-.3-11.8.9-4.1 2.3-8 3.5-12z"/>
  <path fill="#d2ba6d" d="M23 246.8c1-.5 2-.9 3-1.1l.8.3c1 2.6 4.4 2.6 5.5 0l1.4 1 3.2 4c.4 1.4.7 2.9.9 4.3l-.8-.4a17.6 17.6 0 01-3.4-5.6c-2.5.5-5.1.9-7.5-.5-.9-.9-1.8-1.7-3.1-2z"/>
  <path fill="#bfa768" d="M43 250.3c2.3-.9 4-2.8 5.9-4.2l.7 2c.2 1.4 1 2 2.4 2l1 .1-2 1.8-4.7 1.4c-1.4 1.2-2 4-4.3 3.6-1.6 0-2.9-1-4.2-1.7-.2-1.4-.5-2.9-1-4.3l1.9 1c.6 2.2 3.1 5.8 5.2 2.8-.2-1.5-.6-3-1-4.5z"/>
  <path fill="#a49067" d="M59.4 246.2h1.8l-1.3 1.7-.9 1.1c-2 .5-4 1-6 1.2l-1-.1 1-1c2.3-.8 4.4-1.8 6.4-3z"/>
  <path fill="#e9e1c0" d="M128.1 245.9c6.9 4 13.4 11.8 12 20.3-1-3.5-4.8-.5-5.2 1.7-1 1.9-.2 5.2-3 5.4-.5-1.5-.7-4-2.7-2.4l-.3-2.5c-4.8 2-4.6-4.2-3.6-7.7.6 4-.2 9.1 5.9 5.5l1.7 4.6c0-4.5 4.3-9.8 0-13.7-5.6-1.9-2.6 6.2-1.7 9.1-6.7-2.9.5-11.2-3.4-16-1.3-1.3-.4-3 .3-4.3z"/>
  <path fill="#e4d6a7" d="M69.4 249.5c2-.6 3.7-1.8 5.7-2.3-.7 1.6-1.7 3-2 4.8a47 47 0 00-1.2 7.2c-1.8-1.1-4.6-2.1-5.5-4.1 2-1 4.6-2.2 3-5.6z"/>
  <path fill="#ede5c0" d="M75.1 247.3l.8-.2c3 1.5 7.3 4 5 8-2.3-1.9-4.7-5.8-7.9-3.1.4-1.7 1.4-3.2 2.1-4.8z"/>
  <path fill="#af8f2c" d="M36.9 251c-.2-1.3.1-2.4 1.1-3.3l1.2 1.1-.5 3.3-1.8-1z"/>
  <path fill="#d6c593" d="M59 249l1-1.1h2l-.6 3.9c1.2.4 2.7 0 3.7 1-4.3-.6-7.8 1.9-10.1 5.3l-4.7-.1c0-4.4-4.4 1-3.2 3.2l-1.2 1.8c-2.4-.8-4.1-3-6.8-3.2-.7-1.7-1.5-3.2-2.1-4.9l.8.4c1.4.7 2.6 1.8 4.2 1.7 2.4.4 2.9-2.4 4.3-3.6L51 252c3.4.5 6.6.2 8.1-3z"/>
  <path fill="#e5dec1" d="M86 249c2-1.4 4.1-.6 6.2-.2 1.9 2.3 3.9 5.8 7.5 4.9a7.2 7.2 0 018.5 2.1l-4-.7c2.1 4.1-2.6 8.3.7 11.9a7.3 7.3 0 00-5.2.2c-2-3-4.3-5.6-7-8-2.6.5-6.7 0-5.9 4-1.3-1.3-2.7-2.5-3.2-4.3 1-1.4 3-.6 4.4-1-3-2.3-3.3-5.6-2-9z"/>
  <path fill="#e1d198" d="M26.1 248.8c2.4 1.4 5 1 7.5.5.6 2.1 2 4 3.4 5.6.6 1.7 1.4 3.2 2.1 4.9-1.3 2.5.4 4.8.9 7.2.7 2.6-2.5 3-4 4h-2c4.7-3.6 3.8-11 .2-15.2-1-3.9-6.2-2.4-8-6v-1z"/>
  <path fill="#a28b59" d="M39.2 248.8l3.8 1.5.9 4.5c-2 3-4.6-.7-5.2-2.8l.5-3.2z"/>
  <path fill="#c2b28d" d="M53 250.2l6-1.2c-1.5 3.2-4.7 3.5-8 3l2-1.8z"/>
  <path fill="#e5d9ae" d="M26.2 249.8c1.9 3.6 7 2.1 8 6 3.5 4.3 4.5 11.6-.2 15.2-.8 1.2-1 2.6-1.3 4l-1.8-1.3c1.2-2.7.6-6-2.6-7l-2.4-1.5c-.2-1.8-1.4-3.8 0-5.4 2.2-2.9 0-6.7.3-10z"/>
  <path fill="#ebe8d6" d="M73 252c3.2-2.7 5.7 1.2 7.8 3.2l1 2L82 269c1.5 8.4-.8 17 1.8 25.3l.2.7.2 1.8c.2 4.8-2.2 9.2-4.3 13.4-1.1-1-2.4-1.8-3-3 0-6.3 1-12.7-1.4-18.6-2.6-6.2 2.7-13.5-.8-19.3-9.3 2-2-6.2-2.8-10A47 47 0 0173 252z"/>
  <path fill="#dbcfaa" d="M55 258c2.3-3.3 5.8-5.8 10.1-5.2l1.3 1.3c-4.3.2-7 4.7-11.4 4z"/>
  <path fill="#e6e1cb" d="M55 258c4.4.8 7.1-3.7 11.3-4l.1 1.1c1 2 3.7 3 5.5 4.1.7 4-6.5 12.2 2.8 10.1 3.5 5.8-1.8 13 .8 19.3 2.4 6 1.4 12.3 1.3 18.6 0-4.1-1.7-7.4-5.8-6.2-1.2 5.6 4.6 9.4 4 14.8-1 1.2-2.7 1.2-4.1 1.5l-.8-.4-1-1v-.8l2.9-.3c1.6-6.2-5-10.4-4-16.6l6.1-.3c-2.3-5.2-4.8-11.7-11-13.1l-1.5-5.5c-4-3.1-9.6-1-13.6-4.1-2.1.7-4 2-6.1 2.7l.1-.9.1-1c1.3-.6 2.8-1 4-1.9l1.1-1c4 1 8 2.2 12 1.3 1.4.6 3.7 2.8 4.5.3 1.5-5.2 2-14.3-5-15.4-1.6-.7-3 .4-4.5 1l.8-2.2z"/>
  <path fill="#e1d7b3" d="M104.2 255l4 .8c3.3 3.8 8.8 5.8 10.3 10.8.7 2 2.7 4.7.3 6.3-3-.2-5.5-2-7.8-3.7l6.2-.3c-1.6-4.1-6.7-8.9-11.1-5.7-.2 3 4 3.2 4.9 6l-6-2.2c-3.4-3.6 1.3-7.8-.8-12z"/>
  <path fill="#dfc55f" d="M47 261.2c-1.1-2.2 3.3-7.6 3.3-3.2-1 1.2-1.6 2.8-3.2 3.2z"/>
  <path fill="#e2d8b4" d="M50.3 258H55l-.8 2.3c-1.4 1.4-5.7.9-5 3.5 3.5 3.3 6.8 7 10 10.6-4 1-8-.4-12-1.3.8-2.4 1.7-4.7 1.8-7.2-.3-1.5-2-2-3.1-2.9l1.2-1.8c1.6-.4 2.3-2 3.2-3.2z"/>
  <path fill="#e3d4a2" d="M14.2 259.3c1.3.4 2.6 1 3.8 1.6v1c-5.1-2.8-7.5 4-8.5 7.8-2 3.3-1.4 7.3-1 11 2 4.6.3 10.2 3.6 14.3 1-.4 1.6-1.1 2.2-2 0 4-.6 8.8-3.3 12.2-2.6-6.3-1.3-13.4-3.3-20L4.9 283c.1-6 3.3-11.5 2.8-17.5l6.5-6.1z"/>
  <path fill="#f0edde" d="M54.2 260.3c1.4-.6 2.9-1.7 4.5-1 7 1.1 6.5 10.2 5 15.4-.8 2.5-3 .3-4.5-.3a154 154 0 00-10-10.6c-.7-2.6 3.6-2 5-3.6z"/>
  <path fill="#f5dd5e" d="M83 268.9c.3-3.3-.8-7 .6-10 .5 1.8 1.9 3 3.2 4.2.7 1.1 1.2 2.3 1.5 3.6l-.4 6.4c-2.4.4-3.5-1.9-4.9-3.3v-.9z"/>
  <path fill="#eeead6" d="M86.8 263.1c-.8-3.8 3.3-3.4 6-3.9 2.6 2.4 5 5 7 8 .5 3 2.8 2.3 5 2 6.2 2 9.4 8 15 11 1.2 1.9 5.4 7.2 1 7-5.3-2.3-9.6-6.4-14.7-9.2-2.1 1.8 0 4.1 1 6 3 5 9 7.9 11.6 13.3 3.7 6.3-2.3 4.3-5 5l-2.6-1.5-3-2c-1-3.4-5-3-7.7-4.2-1-1.4-1.9-2.8-2.6-4.3 1.1-5.5-4.1-9-6.5-13.4-1.7-3.2-2.2-6.7-3-10.2-.3-1.3-.8-2.4-1.5-3.6z"/>
  <path fill="#e5cf77" d="M39.1 259.8c2.6.3 4.4 2.4 6.8 3.2 1 .9 2.8 1.4 3.1 3-1 1.3-2.1 2.8-2.3 0-3.8 1.6-1.6 5.3-.7 8.1-1.1 1-2.6 1.3-3.9 2 .9-4-3.5-3.5-6.1-4.2v-.9c1.5-1 4.7-1.4 4-4-.5-2.4-2.2-4.7-.9-7.2z"/>
  <path fill="#e2d08c" d="M9.5 269.7c1-3.9 3.4-10.6 8.5-7.8v1c-5.9-.4-5.8 8.2-5.9 12 5 5-3.8 13 1.8 17.3l.4.8c-.6.9-1.3 1.6-2.2 2-3.3-4.1-1.7-9.8-3.5-14.4-.5-3.6-1-7.6.9-11z"/>
  <path fill="#dad2b5" d="M18 261c1.6.4 3.1.8 4.6 1.4 1 1.3 1.2 4.1 3.3 2.8l2.4 1.5-1.2 6.5c-2.5-1.3-5-1.6-5.4 1.9a968.7 968.7 0 01-2.6-7.2l-1.1-5v-2z"/>
  <path fill="#d8c899" d="M106 263.2c4.5-3.2 9.6 1.6 11.2 5.7l-6.2.3c-.8-2.8-5-3-5-6z"/>
  <path fill="#ddc977" d="M12.1 274.9c.1-3.8 0-12.4 5.9-12l1 5c-3.2-2.4-3.6 1.4-3.9 4a14 14 0 003 6 15 15 0 00-2 7.3c-.8 2.3-1.6 4.6-2.2 7-5.6-4.3 3.2-12.4-1.8-17.3z"/>
  <path fill="#e6d695" d="M46 274.1c-1-2.8-3.1-6.5.7-8 .1 2.7 1.3 1.2 2.3-.2 0 2.5-1 4.9-1.8 7.2l-1.2 1z"/>
  <path fill="#dedaca" d="M4.1 266.8c4.3 4.6-3.2 11.2.8 16.1 1 .8 2 1.5 2.8 2.4 2 6.5.7 13.6 3.3 20-.8 2.6-1.3 5.8-4.7 6.2-3.4 6.5 6 12.1 3 18.8A69.2 69.2 0 011 299v-13c.4-6.5 1.3-13 3.1-19.2z"/>
  <path fill="#d3ba64" d="M15.1 272c.3-2.7.7-6.5 4-4l.9 2.1-.8 7.7-1 .2a14 14 0 01-3-6z"/>
  <path fill="#d7c696" d="M28.3 266.7c3.2 1 3.8 4.3 2.6 7l-1.6 2.2c-.6-1-1.3-1.9-2.2-2.7l1.2-6.5z"/>
  <path fill="#f6e376" d="M88.3 266.7c.8 3.5 1.3 7 3 10.2.1 1.7-.6 2.4-2.1 2a49.1 49.1 0 01-6.1-7v-2c1.3 1.4 2.4 3.6 4.8 3.2l.4-6.4z"/>
  <path fill="#e7dfbe" d="M82 269l1-.1v3c1 6.3 8.6 9.6 10.2 16.1-3.1-2-6-4.3-9-6.2-.6 4 1.3 8.6-.4 12.5-2.6-8.3-.3-16.9-1.8-25.3z"/>
  <path fill="#cec2a2" d="M20 270.1l1.7 5-1.3 5.1-1.2-2.4.8-7.7z"/>
  <path fill="#dfc566" d="M34 271h2v.9l.1 4 6 .2-.1 1c-3.2-.1-6.6.5-9.4-1.3l.1-.8c.3-1.4.5-2.8 1.3-4z"/>
  <path fill="#bfa66a" d="M21.7 275c.4-3.4 3-3.1 5.4-1.8.9.8 1.6 1.7 2.2 2.7-3.3 1.9-6 4.4-9.3 6.2 0-.5.3-1.4.4-1.9l1.3-5.1z"/>
  <path fill="#d9b523" d="M36 271.9c2.6.7 7 .3 6.1 4.2l-6-.2-.1-4z"/>
  <path fill="#f3e38a" d="M83 271.9c1.8 2.5 4 4.8 6.2 7 1.5.4 2.2-.3 2-2 2.5 4.3 7.7 7.9 6.6 13.4-1.7-.4-3.3-1.2-4.6-2.3-1.6-6.5-9.2-9.8-10.1-16.1z"/>
  <path fill="#d3c9aa" d="M29.3 276l1.6-2.3 1.9 1.3-.2.8c-1.4 5.3-2.9 10.7-3.5 16.1v.8c-1.5 5-2 10.3-3 15.4l-.4 6.5-.6 6.3c-1.5 0-2.5-.8-3.3-2l.2-4.8c.3-3 .8-6 1.2-8.9 2.5-7.1 2.4-15 5-22 .5-2.4.8-4.9 1-7.3z"/>
  <path fill="#f1eee0" d="M41.9 278c2-.9 4-2 6-2.8 4 3 9.7 1 13.7 4.1l1.5 5.5c-.6 6-.2 12-1.3 18-1 1.7-3.2 1-4.9 1.4l-1-1.1c-2.3-3.7-5.5-7-6.8-11.2-.7-1.6-.7-4.4-3.1-4-.8 6.2 2.7 11.5 3.8 17.4-2.5-2.3-5-4.6-8.6-4.7-2.3-3.4-4-7.2-6-10.9l-.8-2.8c-1-3-1.2-6-1.5-8.9 3 0 6 .2 9 0z"/>
  <path fill="#bfae8b" d="M20 282c3.3-1.7 6-4.2 9.3-6l-1 7.2c-4.9-2.8-7.3 3.6-8.3 7.3l-2-1.7c.6-2.3 1.2-4.5 2-6.7z"/>
  <path fill="#c2a867" d="M29.1 292c.6-5.5 2.1-10.9 3.5-16.2l.3 2.2c.3 3 .6 6 1.5 8.9-.7 2-2.4 3.2-3.6 4.8l-1.7.2z"/>
  <path fill="#e8daa2" d="M32.6 275.8c2.8 1.8 6.2 1.2 9.4 1.2l-.1 1c-3 .2-6 0-9 0l-.3-2.2z"/>
  <path fill="#cab990" d="M18.1 278l1.1-.2c-.7 2.6-1.6 5.1-3 7.4-.1-2.5.8-5 2-7.2z"/>
  <path fill="#d7cfb3" d="M19.2 277.8l1.2 2.4-.4 1.9c-.8 2.2-1.4 4.4-2 6.7-.6 1.6-1 3.1-1.3 4.7-1.8 9.1-4.6 20.1.5 28.6-2.5 3.5-5.3 9.3-.2 12 3.5 2.8 6.7-5.5 10-1 3 4 2.1 9.3 1.1 14-1.1 3 3.4 2.2 4.4 4.3 1.1 3.6 5.3 4.9 6.6 8.5.7 3 4.8 4.4 6.8 1.9.2-2.1-3.4-5 0-5.8l4 4.8-2.8 1.6c3.3 4.3 9.4 5.5 12.9 9.8h-4.2c-5.6-.4-10.2-4.3-14.9-7.1a98.2 98.2 0 01-31.7-34.8c3.1-6.7-6.3-12.3-2.9-18.8 3.4-.4 4-3.6 4.7-6.3a19 19 0 003.3-12.2l-.4-.8c.6-2.4 1.4-4.7 2.2-7 1.5-2.3 2.4-4.8 3.1-7.4z"/>
  <path fill="#e5e0cb" d="M106.1 278c5 2.8 9.4 7 14.7 9.3 2.7.2 6 .4 6.3 3.7-2.3-.8-4.7-1.2-7.1-1 .3 5 2.5 10.2 1 15.3a27 27 0 01-6.7-2.6l-.6-.4c2.7-.7 8.7 1.3 5-5-2.6-5.4-8.6-8.2-11.6-13.4-1-1.8-3.1-4-1-5.9z"/>
  <path fill="#b7a379" d="M20 290.5c1-3.7 3.4-10 8.3-7.3-2.7 7-2.6 14.9-5 22-.2-3.7.5-7.4 1.3-11-1.5-1.3-3.2-2.4-4.6-3.7z"/>
  <path fill="#dad2b7" d="M84.2 281.8c3 1.9 5.9 4.2 9 6.2 1.3 1.1 2.9 2 4.6 2.3.7 1.5 1.6 3 2.6 4.3 2.7 1.3 6.6.8 7.8 4.2-1.4.8-2.4 2.3-4 2.2-1.6-2.1-1-6.8-5.9-3.7-1.9 1.7-4 3.2-5.4 5.4l-.7.1c-.6-1-1.3-2-2.1-2.8-1.7-2-4-3.4-6.1-5l-.2-.7c1.7-4-.2-8.5.4-12.5z"/>
  <path fill="#ebe8d5" d="M63.1 284.8c6.2 1.4 8.7 7.9 11 13l-6.1.4c-1 6.2 5.6 10.4 4 16.6l-3 .3c-3.6-4-8.3-7-12.1-10.9 1.7-.3 3.9.3 4.9-1.4 1-6 .7-12 1.3-18z"/>
  <path fill="#9b988f" d="M157.3 284.8c.9 5 1 10.3 0 15.4l-.3-7.2c0-2.8.2-5.5.3-8.2z" opacity=".7"/>
  <path fill="#85847d" d="M0 286h1v13H0v-13z" opacity=".6"/>
  <path fill="#e3d192" d="M34.4 286.9l.9 2.8-3.1 6.5c-.2-1.6-.7-3-1.4-4.5 1.2-1.6 3-2.9 3.6-4.8z"/>
  <path fill="#e9e5d3" d="M46 288c2.4-.5 2.4 2.3 3.1 3.9 1.3 4.3 4.5 7.5 6.8 11.2-1.3-.4-2.6-.9-4-1.1.3 5.3 4.9 9.6 4.1 15-1.6 0-4 .4-4.4-1.7-1-2.5-3.7-3.8-4.4-6.4-1.5-4.5-6.9-6-9.1-10-.5 2.7 1.5 8.2-3 7.3-1.3-3.2-2.8-6.5-2.9-10 1.2-2 2-4.3 3-6.5 2 3.7 3.7 7.5 6 11 3.6 0 6.1 2.3 8.6 4.6-1-5.9-4.6-11.2-3.8-17.4z"/>
  <path fill="#dec76d" d="M18 288.8l2 1.7c1.4 1.3 3 2.4 4.6 3.7-.8 3.6-1.5 7.3-1.4 11l-1.2 9c-4.2-.2-8.3-3-4.6-7.8 2.6-3.7 4.8-11-.7-12.9l1.2-4.7z"/>
  <path fill="#dfd8bd" d="M120 290c2.4-.2 4.8.2 7 1a11 11 0 002.7 2.4c0 .4.3 1 .4 1.4-2.4-.2-5.5-2-7 .4-.3 3 .8 5.9 1 8.8 3.7.9 4.4-4 7.7-4.4-.4-1.7-1.2-3.2-1.7-4.8 2.7 1.8 4 4.9 4.2 8 5 .6-2.7-6 1-7.7 5.5.5 11.5 2.8 17 0 1.3-.9 4 .4 3.8-2h1l.2 7.1c-.4 5-.8 10.2-2.4 15a33 33 0 01-.1-15c-1.7-1.8-7.3-1.4-7 2-2.9-3.2-7-5.9-11.8-5.4a8 8 0 012.2 9c-.3 2-1.3 4-1 6 .3 2.4 2.7 6.5-4 3-3.5-2.5-1.5-8.9-6.1-9.7l-2.4 1.2-3.7-1c1.5-5.1-.7-10.2-1-15.3z"/>
  <path fill="#b49746" d="M29.1 292l1.7-.3c.7 1.4 1.2 3 1.4 4.5 0 3.5 1.6 6.8 2.9 10l.3.9c-2 1.9-4.6 0-6.3-1.3-.2-4.4.4-8.7 0-13v-.9z"/>
  <path fill="#c4a650" d="M29 292.7c.5 4.4 0 8.7 0 13 1.8 1.4 4.3 3.3 6.4 1.4a93 93 0 002.7 4c1 1.6 2.3 3 3.3 4.5-.5 3.8-1.6 7.5-1.1 11.3l-1.3 1c2.6-6.8-3.2-10.3-8.1-12.6 2.2-.2 3.4-2.2 4-4.2-2.2-2.6-5.8-2-8.8-3 1-5.1 1.5-10.3 3-15.4z"/>
  <path fill="#e4d289" d="M17.2 322.1c-5.1-8.5-2.3-19.5-.5-28.6 5.5 1.9 3.3 9.2.7 12.9-3.7 4.7.4 7.6 4.6 7.7l-.2 4.9-2.5 3.3-2-.2z"/>
  <path fill="#e1d6af" d="M123.1 295.2c1.5-2.5 4.6-.6 7-.4.5 1.6 1.3 3.1 1.7 4.8-3.3.4-4 5.3-7.7 4.4-.2-3-1.3-5.8-1-8.8z"/>
  <path fill="#c7b280" d="M84 295c2 1.6 4.4 3 6 5-2.7.5-4.8-.5-5.8-3.2L84 295z"/>
  <path fill="#e1dac4" d="M84.2 296.8c1 2.7 3.1 3.7 5.9 3.2l2.2 2.8L90 304c-2.7.3-7.2 1.3-6 5 .9 1 3.2 3.1 1 4.1-3.8.8-4 5.1-4.2 8.3-.7-1-1.3-2.1-2.1-3-2.7.7-5.5.4-8-1 1.5-.3 3.2-.3 4.1-1.5.7-5.4-5.1-9.2-3.9-14.8 4.1-1.2 5.9 2 5.8 6.2.7 1.2 2 2 3.1 3 2.1-4.2 4.5-8.6 4.3-13.4z"/>
  <path fill="#cdc19f" d="M98.3 297.3c4.9-3 4.3 1.6 5.9 3.7 1.6.1 2.6-1.4 4-2.2l2.9 2c-2-.2-4.3.7-4.2 3.2l-.2.8c-1 6.4 0 12.8-.7 19.2l-1 9c-.4 1-.8 1.9-1 2.9-3.8 3-5 10.1-10.9 9.1-.5-2.5 1.5-4.2 2.8-6.1a9.8 9.8 0 005.1-8l1-3.8.8-5.9c-.1-5.8.8-11.4 1.2-17.1h-4.2l-4.5-1.4a6 6 0 00-2.4 0c1.4-2.2 3.5-3.7 5.4-5.4z"/>
  <path fill="#d7d0b9" d="M136 296.8c4.8-.5 9 2.2 11.8 5.4-3.7 1.3-4.1 5.8-5.6 9 .2-2.6 0-5.1-3.3-4.2l-.7-1.2a8 8 0 00-2.2-9z"/>
  <path fill="#e2dcc8" d="M38 298.9c2.4 4 7.7 5.5 9.2 10 .7 2.7 3.4 4 4.4 6.4.4 2.1 2.8 1.7 4.4 1.7.8-5.4-3.9-9.7-4-15 1.3.2 2.6.7 4 1l.9 1.2c3.8 4 8.5 6.9 12.2 11v.8c-5.7-2-9.8-6.2-14.2-10.1.9 4.2 4.7 7.6 4 12-.6 1.7-.6 4.4-3 4.4L54 321c-1.9-1.6-3.1-3.8-4.4-5.9a26 26 0 00-2 2c-3.6-1-2.8-5.4-4.6-8-1.5.9-3 1.8-4.9 2a93 93 0 01-2.7-4l-.3-.9c4.5.9 2.5-4.6 3-7.3z"/>
  <path fill="#d5cfba" d="M147.8 302.2c-.3-3.4 5.3-3.8 7-2a33 33 0 000 15 71.5 71.5 0 01-18.6 33c-1-6.2 3-11.7 4.6-17.4l1.2-2.4 3.8-3.7c.2-1.8-.8-3.6-.6-5.5 2.6-2.4 3-6.1 2.6-9.4v-.9c.5-2.7 2.6-5 2.3-7.9-.5.3-1.7 1-2.3 1.2z"/>
  <path fill="#baa680" d="M106.9 304c-.1-2.5 2.1-3.4 4.2-3.2l2.6 1.5.6.4-3.5 1-4 .3z"/>
  <path fill="#cdc2a4" d="M147.8 302.2l2.3-1.2c.3 3-1.8 5.2-2.3 8l-2.7-2c-1.7 3.2-1.8 6.9-2.7 10.3-.1 2 .7 5.1-2 6 .4-3.5-1.7-7.5.7-10.4l1.1-1.7c1.5-3.2 1.9-7.7 5.7-9z"/>
  <path fill="#af9a6f" d="M93 302.7a6 6 0 012.3 0l-.5.9c-2 1.5-1.8 4-2 6.3l-1.6 1.3c-1.6-3.2-.5-6 1.7-8.5z"/>
  <path fill="#c6b692" d="M90 304l2.3-1.2.6-.1c-2.2 2.4-3.3 5.3-1.7 8.4l-1.5 1.3-.5-.8c-.1-2-1.6-3-3.1-4 1-1.5 2.6-2.5 4-3.7z"/>
  <path fill="#7a602e" d="M95.3 302.7l4.5 1.4c1.2.8 3.8.6 3 2.7l-3.1 2c-1.6 1-2.6 2.4-4 3.6l-.7-1.3c-.5-2.5-.8-5-.2-7.5l.5-.9z"/>
  <path fill="#9a8251" d="M110.8 303.7l3.5-1c2.1 1 4.3 2.1 6.7 2.6a166.2 166.2 0 006 1.7l-.7 6c-2.5-2.5-6.2-1.8-9.4-2.1 3.5-.8.4-3.4-.7-5.1-1-2-3.5-1.9-5.4-2.1z"/>
  <path fill="#d9ceae" d="M84 308.8c-1.1-3.7 3.4-4.6 6-4.9-1.3 1.2-3 2.2-4 3.8 1.6 1 3 2 3.2 4-1.2 1.2-3.6 2-3.1 4.2l2.1 3H85c-2-.2-3.3.7-4 2.4 0-3.2.3-7.5 4-8.3 2.3-1 0-3-1-4.2z"/>
  <path fill="#937948" d="M92.8 310c.2-2.4 0-4.9 2-6.4-.6 2.5-.3 5 .2 7.5l-1.8-.4-.5-.8z"/>
  <path fill="#b59c64" d="M99.8 304.1h4.2c-.4 5.7-1.3 11.3-1.2 17.1l-.8-1-.2-2c-.4-3.2-1.8-6.1-2.1-9.4l3.1-2c.8-2-1.8-2-3-2.7z"/>
  <path fill="#90753d" d="M106.9 304l3.9-.3c2 .3 4.4 0 5.4 2 1 1.8 4.2 4.4.7 5.2-2-.2-3.8-1.4-5.7-2.1l-4.3-1.9-.2-2 .2-1z"/>
  <path fill="#c7b17e" d="M106 324c.7-6.4-.3-12.8.7-19.2l.2 2.1c0 1.4 0 2.7.2 4 1.4-.6 2.8-1.4 4.1-2.1 1.9.7 3.6 1.9 5.7 2 3.2.4 7-.3 9.4 2.3l1.6 1.1c0 2.4-1.3 4.4-2 6.5 3.3-2 5.3 1.7 3.5 4.4-1.3-3.3-4.6-1.4-7.1-1 .3-1.4.6-2.8.7-4.2-3.3-.1-3.2 5.3-7 4.3-2.6-1.6-6.7-2.5-6.1-6.2.3-2.1-3-.6-2.7.8-.2 1.7-.2 3.5-.3 5.2h-1z"/>
  <path fill="#dbd1ad" d="M124.7 306.3l2.3-1.2c4.7.8 2.7 7.2 6.3 9.8 6.6 3.4 4.2-.7 4-3-.4-2.1.6-4 .9-6.1l.7 1.2c.3 2.1 1.3 4 2.2 5.9-2.4 2.9-.3 6.9-.7 10.4l-1.4.8c-1.2.5-.2 2.2-.8 3.2 0 2.5-3.8 2.5-4 4.6 1.8 2.6 4.7-.2 6.6-1.1-1.7 5.7-5.6 11.2-4.6 17.4a79 79 0 01-14 12.3c-1.2-1.4-1.4-5-3.9-4.1-1.7.6-2.2-1.7-3.4-2.5-5 .8-9.9 3.3-15.1 3 1.6-.8 3.3-1.4 5-2 4.8 0 8.2-5.4 13-3 1-1.5 1.4-3.3 2.5-4.6 2-1.3 5.9-1.1 5.9-4.2-1.3.4-2.5 2-4 1.7l-2-2.9v-.8l1-5.8c3-.4 9.5-2.9 6.8-6.5l1.4-3.7c1.8-2.7-.2-6.3-3.5-4.4.7-2.1 2-4.1 2-6.4-.8-2.4 2.8-7.4-.8-7.3l-2.4-.7z"/>
  <path fill="#dcd5be" d="M55 305.9c4.3 3.9 8.4 8 14 10l1.1 1c-4.5-1-6.4 2.6-5.3 7-2.6 0-5.2-.7-7.8-1-.3 0-.8-.4-1-.6 2.3 0 2.3-2.7 2.9-4.4.7-4.4-3.1-7.8-4-12z"/>
  <path fill="#baa063" d="M106.9 307c1.4.6 2.9 1.1 4.3 1.8l-4.1 2.2-.2-4z"/>
  <path fill="#ae9e7e" d="M127 307c3.7 0 .1 5 .9 7.3l-1.6-1.2.8-6.1z"/>
  <path fill="#b4a484" d="M138.9 307c3.2-1 3.5 1.6 3.3 4.2l-1.1 1.7c-.9-2-1.9-3.8-2.2-5.9z"/>
  <path fill="#b9ab8e" d="M145 307l2.8 2v.8a31 31 0 00-2.6 9.4c-.2 1.9.8 3.7.6 5.5l-3.8 3.7c-2.1-.4-2.2-2.8-3-4.3l1.4-.9c2.7-.8 1.9-3.8 2-5.9.9-3.4 1-7.1 2.7-10.3z"/>
  <path fill="#d5ba5f" d="M26 308.1c3 1 6.7.4 8.9 3-.6 2-1.8 4-4 4.2l-2.8-.5-2.4-.2.4-6.5z"/>
  <path fill="#dad2b8" d="M38.1 311.1c1.8-.2 3.4-1.1 5-2 1.7 2.6 1 7 4.5 8l-.4 2.8-.5 5.2-2 2.3c-.7-3.1-.6-6.2 0-9.2-1-1-2.1-1.8-3.3-2.6l-3.3-4.5z"/>
  <path fill="#997d40" d="M95.8 312.4c1.3-1.2 2.3-2.7 3.9-3.6.3 3.3 1.7 6.2 2.1 9.4-3-.7-4.8-3.1-6-5.8z"/>
  <path fill="#bfa259" d="M91.2 311.1l1.5-1.2.5.8c1 2.2 2 4.4 2.7 6.6h-.7c-1.7-2-4.5-2.6-5.5-5l1.5-1.2z"/>
  <path fill="#c7bfa9" d="M145.2 319.2a31 31 0 012.6-9.4c.4 3.3 0 7-2.6 9.4z"/>
  <path fill="#b39434" d="M93.2 310.7l1.8.4.8 1.3c1.2 2.7 3 5.1 6 5.8l.2 2c-2.2-.6-4.3-1.6-6.1-2.9-.7-2.2-1.6-4.4-2.7-6.6z"/>
  <path fill="#d2bb7c" d="M86 315.9c-.4-2.2 2-3 3.2-4.3l.5.8c1 2.4 3.8 3 5.5 4.8l-4.4 1.6h-2.6l-2.1-3z"/>
  <path fill="#baa781" d="M25.7 314.6c.8 0 1.6 0 2.4.2 1 4.7 9.1 2.9 8 8.2-3-.3-5.8-.8-8.7-.8-.5 2.6-1.7 4.3-4.4 3 0 1.7-.4 4.2 2.1 4.4-1.3-.1-3.8 1.3-4.2-.5-1.8-2.4.6-7.4 3.8-5.7 2.4 1.2 1-1.4.4-2.5l.6-6.3z"/>
  <path fill="#aa9365" d="M28 314.8l2.9.5c5 2.3 10.7 5.8 8.1 12.6-1.1.8-2.5 1-3.8 1.3-1.5-.4-5.5.7-3.9-2 .4-2.6 4.2-2 4.7-4.2 1.3-5.3-7-3.5-8-8.2z"/>
  <path fill="#d8caa0" d="M47.6 317a26 26 0 012-1.9c1.3 2.1 2.5 4.3 4.4 6l-5-.5-1.8-.7c0-1 .2-1.9.4-2.8z"/>
  <path fill="#d3c6a1" d="M41.4 315.6c1.2.8 2.4 1.6 3.4 2.6-.7 3-.8 6 0 9.2v1.7l-3.6-.1-.9-2c-.5-3.9.6-7.6 1-11.4z"/>
  <path fill="#dacfad" d="M64.8 324c-1.1-4.5.8-8.1 5.3-7l.8.3a9.6 9.6 0 007.9 1c.8.9 1.5 2 2.1 3v1a9.5 9.5 0 00-6.8-2.6l-1-.1c-2.3-.2-5.4-1.7-7 .6 0 2 .8 4 1.1 6-3.3.3-3.5 3.1-3.7 5.8-1.1 3.2-2.3 6.4-2.8 9.8 0 2.3-.6 4.4-1.9 6.1-1.7.5-2.6-1.2-3.6-2.1-.3-5 3.2-9.3 4.8-13.8 2.2-2.3-.5-4.4-1.6-6.3L57 323c2.6.2 5.2 1 7.8 1z"/>
  <path fill="#d2b144" d="M95.2 317.2l.7.1c1.8 1.3 3.9 2.3 6 2.9l.9 1c-.2 2-.6 3.9-.9 5.9-5.5 1.7-11.3 2.2-15.7 6.1a63 63 0 00-1-3.4l-.2-5c.8 1 1.5 2.6 3 2.2 3.7-.7 9-.3 11-4-2-2.5-4.6-4.9-8.2-4.2l4.4-1.6z"/>
  <path fill="#b39b68" d="M107.2 318.8c-.4-1.4 3-3 2.7-.8-.6 3.7 3.5 4.6 6 6.2 1.6 1 4.6 1.2 4.1 3.7-1.7.2-3.4.2-5.2.3l-2.8-2.6-2.7-2.8-2-4z"/>
  <path fill="#c7ba9b" d="M19.3 322.3l2.5-3.3c.8 1 1.8 2 3.3 2 .7 1 2 3.6-.4 2.4-3.2-1.7-5.6 3.3-3.8 5.7.5 1.8 2.9.4 4.2.5 2.5 1 5 2.1 7.7 2.4l.2 1.9c-2-.5-4-.6-6-.8-3.3-4.5-6.5 3.8-10 1-2.8-4.4 2.2-7.6 2.3-11.9z"/>
  <path fill="#d0c3a0" d="M66.1 320.2c1.6-2.3 4.7-.8 7-.6-2.2 1.7-3.6 4.1-5.1 6.4l-.8.2c-.3-2-1.2-4-1.1-6z"/>
  <path fill="#d3c08d" d="M81 321.3c.7-1.7 2-2.6 4-2.3v5.9l.2 4.9-.2 7.3c-1.3-3-3.3-1.8-5 0 0-3 0-5.9.2-8.8l.6-6 .1-1z"/>
  <path fill="#dab72b" d="M85 319l3.2-.2h2.6c3.6-.7 6.1 1.7 8.3 4.3-2.2 3.6-7.4 3.2-11.1 3.9-1.5.4-2.2-1.2-3-2.1v-6z"/>
  <path fill="#7a664a" d="M107.2 318.8l2 4c-.4 1.6.7 5.1-2 4.2l-.3-3c0-1.7.1-3.5.3-5.2z"/>
  <path fill="#d0b563" d="M47.2 319.9l1.8.7c-.9 1-2.2 5 .3 3.8 3-1 3.3 3.9 5.7 4.7l3.2-2.3-1 4.2c-1.8 4.1-4-1-5.3-2.9-.7-2.4-3.4-2-5.2-3l.5-5.2z"/>
  <path fill="#ccb67f" d="M68 326c1.5-2.3 3-4.7 5.2-6.4l1 .1c-1.5 2.4-2 6.3-5.4 6.5l-.8-.2z"/>
  <path fill="#cba732" d="M74.1 319.7c2.6 0 4.9.8 6.8 2.5l-.7 6c-3.6-.6-7.3-.8-11-.3l-.4-1.7c3.4-.2 3.9-4.1 5.3-6.5z"/>
  <path fill="#c6ae73" d="M116 324.2c3.8 1 3.7-4.4 7-4.3-.1 1.4-.4 2.8-.7 4.2 2.5-.4 5.8-2.3 7.1 1l-1.5 3.7c-3-2.2-5.3 4.8-7.9.4-1.7-.4-3.7 0-5.2-1 1.8 0 3.5-.1 5.2-.3.5-2.5-2.5-2.7-4-3.7z"/>
  <path fill="#c4a75c" d="M49.3 324.4c-2.5 1.3-1.2-2.8-.3-3.8l5 .4 2 1.3 1 .7 1.4 2.7-.2 1c-1 .9-2 1.7-3.2 2.4-2.4-.8-2.7-5.6-5.7-4.7z"/>
  <path fill="#d2c6a6" d="M17.2 322.1l2 .1c0 4.3-5 7.5-2.2 11.8-5.1-2.6-2.3-8.4.2-11.9z"/>
  <path fill="#ad9b7b" d="M27.4 322.2c2.9 0 5.8.5 8.6.8-.5 2.2-4.3 1.6-4.7 4.3-1.6 2.6 2.4 1.5 3.9 2-1 .3-1.7 1-2 1.8l-.4 1c-2.7-.4-5.2-1.5-7.7-2.5-2.5-.2-2.1-2.7-2.1-4.5 2.7 1.4 4-.3 4.4-3z"/>
  <path fill="#c0a459" d="M109.3 322.8l2.7 2.8c-2.5 1.6-2 4.6-2.2 7.3H105l1-8.9h.9l.2 3c2.8 1 1.7-2.6 2.2-4.2z"/>
  <path fill="#d4c69e" d="M138.2 327.3c.6-1-.4-2.7.8-3.2.8 1.5.9 3.9 3 4.3l-1.2 2.4c-2 1-4.8 3.7-6.6 1 .2-2 4-2 4-4.5z"/>
  <path fill="#e0ca74" d="M44.8 327.4l1.9-2.3c1.8 1 4.5.6 5.2 3 1.2 1.9 3.5 7 5.3 2.9-.3 1.6-.5 3.3-1 5-1.7-.8-3.4-.5-5-.2-1-1.3-1.5-2.9-2-4.3-.1-3.2-5 1.5-4.3-2.4l-.1-1.7z"/>
  <path fill="#dcce9a" d="M58.4 325.7c1.1 2 3.8 4 1.6 6.3-1.6 4.5-5 8.7-4.8 13.8 1 1 2 2.6 3.6 2.1 1.3-1.7 2-3.8 1.9-6.1.2 2.5.6 5 1.3 7.3l.8 2.1 1 2 .3 1.5c-1.8 2.5-5 4.7-4.1 8.2l7.2.4c-1.9 2.8-5.3 1.3-8 .4-1.5-1.8-1.6-5-4.3-5.5a68.3 68.3 0 01-19.2-12c-1.8-1-1.7-3.3-2-5.2 3.8-1.6 8-1.6 11.1 1.2 1.4 1 5.6 3.5 5.2.1 1.2.3 2.5.7 3.8.7 1.4-2.1 1.6-4.7 2.4-7 .5-1.7.7-3.4 1-5l1-4.2.2-1z"/>
  <path fill="#d0b050" d="M67.2 326.2l.8-.2.8.2.5 1.7c3.6-.5 7.3-.3 11 .4-.3 3-.3 5.9-.3 8.9l-.2 1c-3.6.1.5-4.1-1.5-5.5-1.5-1.8-3.2 1.6-5 .9-3.1-1-6.4-1.5-9.8-1.6.3-2.7.5-5.6 3.7-5.8z"/>
  <path fill="#d5be74" d="M109.8 332.9c.3-2.7-.3-5.6 2.2-7.3l2.8 2.6c1.5 1 3.5.6 5.2 1 0 3.9-5.4 0-7.8.8-1 2.5-1 5.2-1.3 7.9-1.7.2-3.7-.3-4.8 1.3-2.8 4.8 2 5.7 4.7 7 .6 1.5 1.3 3 1.2 4.6l-7.2 4-5 2-1.8.2.3-2.9c1.3-2.7 5.3-4.7 4.4-8-1.5-3.6 2.2-6.4 1.2-10.3l1-2.8 5-.1z"/>
  <path fill="#e3d291" d="M40.3 327l1 2c-.4 1.7 0 3.7-1.5 5-2.4-.4-4.5-2-6.7-2.9.4-.8 1.1-1.5 2-1.9 1.4-.3 2.8-.5 4-1.3l1.2-1z"/>
  <path fill="#c9a84a" d="M86.2 333.2c4.4-4 10.3-4.4 15.7-6.1-.2 1.3-.6 2.5-.9 3.8-7-2.6-8.5 4.7-11 9.2l-4-.2.2-6.7z"/>
  <path fill="#e0d094" d="M120 329.2c2.6 4.4 4.9-2.6 8-.4 2.7 3.6-3.8 6.1-6.8 6.5l-1 5.8c1-5.5-6-2.5-9.3-3.2.3-2.7.2-5.4 1.3-7.9 2.4-.8 7.8 3.1 7.8-.8z"/>
  <path fill="#e1d5a8" d="M41.2 329H45c-.7 4 4.2-.7 4.2 2.5a7.6 7.6 0 00.9 10.8c.4 3.4-3.8 1-5.2-.1-3-2.8-7.3-2.8-11-1.2-.4-2.4-.6-4.7-.8-7.1l-.2-1.8.3-1c2.2 1 4.3 2.5 6.7 2.9 1.5-1.3 1.1-3.3 1.4-5z"/>
  <path fill="#d7bd61" d="M85.2 329.8a63 63 0 011 3.4L86 340l4 .2-.3.8c-2.7 3.3.3 8 3.4 5a43 43 0 013.3 3.9l-1 1.6c-3.3-1.4-6.7-1.5-10-2.4.3-4 0-8-.4-11.9l.2-7.4z"/>
  <path fill="#b59d6c" d="M90 340c2.5-4.4 4-11.7 11-9-.4 3.3-2 6.3-5 7.9-2 1-4 2.1-6.3 2l.2-.8z"/>
  <path fill="#e7d78c" d="M50 342.3a7.6 7.6 0 01-.9-10.8c.6 1.4 1.1 3 2 4.3 1.7-.3 3.4-.6 5 .1-.7 2.4-.9 5-2.3 7.1-1.3 0-2.6-.4-3.8-.7z"/>
  <path fill="#e0c358" d="M60.7 341.8c.5-3.4 1.7-6.6 2.8-9.8 3.4.1 6.7.5 9.8 1.6 1.8.7 3.5-2.7 5-1 2 1.5-2.1 5.7 1.5 5.6a202 202 0 00-.7 7.9c-3.1 1.6-6.7 0-10 .3a16.6 16.6 0 01-7 2.8c-.8-2.4-1.2-5-1.4-7.4z"/>
  <path fill="#d4caa8" d="M27 333c2 .3 4 .4 6 .9.2 2.4.4 4.7.8 7 .2 2 0 4.2 2 5.4 5.8 4.7 12 9.3 19.1 11.9 2.8.5 2.8 3.7 4.4 5.5 2.6 1 6 2.4 8-.4l1.8-1.4c.3 3.9-5 3-5 6 5.7 1.9 12.5.8 17.8 4.2l-.9 2c-4.7-.7-10.9 1.8-14.2-2.7-2.1 1.3-4.4 1.2-6.8.8-3.5-4.3-9.6-5.5-12.9-9.8l2.8-1.6-4-4.8c-3.4.9.2 3.7 0 5.8-2 2.5-6.1 1.2-6.8-1.9-1.3-3.6-5.5-4.9-6.6-8.5-1-2.1-5.5-1.3-4.4-4.4 1-4.6 1.9-10-1.2-14z"/>
  <path fill="#dacda0" d="M80 337.2c1.7-2 3.7-3 5 0 .4 3.9.7 7.8.4 11.8 0 3.5.3 7.1 2.4 10-1.5.8-3.2 1.3-4.8 2.2.3 2.9 1.2 6 4.8 4.8.8-2.5 5-7.2 1.3-8.4 2-2.2 4.7-3.6 6.2-6.2l1-1.6a6.8 6.8 0 012 4.3L98 357c-1.1 1.5-2.5 3.2-1.5 5.1l-.7 1.3-9 4.5c-3.5-.6-6-3.3-9.1-4.6-3.1-1-2.5-5.6-6.6-4.5l.2-1c2.3.2 5-.2 5.2 2.8.4 3 4.5.6 3.5-1.6-.7-2.7-2.3-5.3-1.2-8.2v-1c.2-1.2.2-2.5.3-3.8.2-2.6.4-5.2.8-7.8v-1z"/>
  <path fill="#cfbb88" d="M93.1 345c6 1 7-6.1 10.8-9.1 1 3.8-2.7 6.6-1.2 10.2 1 3.3-3.1 5.3-4.5 8a6.8 6.8 0 00-1.8-4.3 43 43 0 00-3.3-4v-.8z"/>
  <path fill="#e0cc7e" d="M106 339.2c1.2-1.6 3.3-1 5-1.3 3.3.8 10.2-2.3 9.2 3.2v.8a34 34 0 00-10 2.3l.6 2c-2.7-1.3-7.5-2.2-4.7-7z"/>
  <path fill="#c6ae77" d="M89.7 341c2.3 0 4.3-1.1 6.2-2.1-1.3 1.9-3.3 3.6-2.8 6.1v.9c-3.1 3-6.1-1.7-3.4-5z"/>
  <path fill="#ddce95" d="M110.3 344.2a34 34 0 019.8-2.3l2.2 2.9c1.4.4 2.6-1.3 3.9-1.7 0 3-3.9 3-6 4.2-1 1.3-1.5 3-2.4 4.5-4.8-2.3-8.2 3.2-13 3l7.2-4c0-1.6-.6-3-1.2-4.6l-.5-2z"/>
  <path fill="#e2ca65" d="M62 349.1c2.6-.1 5-1.4 7.1-2.7 3.3-.3 6.9 1.3 10-.3l-.2 3.7c-3.1-.2-5.3 2-8 3.2-2.8-.2-5.4-1.1-8.1-1.8l-.8-2z"/>
  <path fill="#e1cb73" d="M87.8 359c-2.1-2.9-2.5-6.5-2.4-10 3.3 1 6.7 1 10 2.4-1.6 2.6-4.4 4-6.3 6.2 3.7 1.2-.5 5.9-1.3 8.3-3.6 1.3-4.5-1.8-4.8-4.7 1.6-1 3.3-1.4 4.8-2.3z"/>
  <path fill="#dec977" d="M71 353c2.6-1.1 4.8-3.4 7.9-3.2l-.1 1c-3 1-2 4-3 6.2-4-1.3-7.7-3.5-12-3.8l-1-2c2.7.7 5.3 1.6 8.1 1.8z"/>
  <path fill="#ddcc8b" d="M75.9 357c1-2.3 0-5.3 2.9-6.2-1 2.9.5 5.5 1.2 8.2 1 2.3-3.1 4.6-3.5 1.6-.1-3-3-2.6-5.2-2.7-.8-3-4.8-2.4-7.3-3.2l-.3-1.5c4.4.3 8.1 2.5 12.2 3.8z"/>
  <path fill="#d4ccb3" d="M99.8 356.9c5.2.3 10-2.2 15-3 1.3.8 1.8 3 3.5 2.5 2.5-.9 2.7 2.7 3.9 4-6.9 4.9-13.8 10.2-22.1 12-3-2.1 3.8-3 3.8-4.5 4.4-1.2 2.4-5.8 3-8.9l-5 .8c-1.8.8-3.6 1.4-5.4 2.3-1-2 .4-3.6 1.5-5.1l1.8-.1z"/>
  <path fill="#e0c561" d="M60 362.9c-.9-3.5 2.3-5.7 4-8.2 2.5.8 6.5.2 7.3 3.2l-.2 1-2 3-1.9 1.4-7.2-.4z"/>
  <path fill="#d3ccb2" d="M71.1 358.8c4.2-1 3.5 3.5 6.6 4.5 3.2 1.3 5.6 4 9 4.6 2 .8 3.5 2 5 3.4 2.2.4 4.4.8 6.6 1.5l-2 1c-3.1-.3-6.1-.8-8.9-2.2A7 7 0 0181 374l.9-2c-5.3-3.4-12-2.4-17.8-4.3 0-2.8 5.3-2 5-5.9l2-3z"/>
  <path fill="#cfc6a8" d="M102 359.8l5-.8c-.7 3.1 1.3 7.7-3.1 8.9 0 1.6-6.8 2.4-3.8 4.6l-1.8.3c-2.2-.7-4.4-1.1-6.7-1.5-1.4-1.4-3-2.6-4.8-3.4l9-4.5c2.9.7 6 .5 8-1.5.5-1.6-.2-2.3-1.9-2.1z"/>
  <path fill="#cabb99" d="M96.5 362.1c1.8-.9 3.6-1.6 5.4-2.3 1.7-.2 2.4.5 2 2-2.2 2.1-5.2 2.3-8 1.6l.6-1.3z"/>
  <path fill="#d1cebf" d="M60 372.2c2.4.4 4.7.4 6.8-.8 3.3 4.5 9.5 2 14.3 2.7a7 7 0 006.3-2.5c2.8 1.4 5.8 2 8.9 2.3-1 1.4-2 2.8-3.2 4.1-7 .3-14 2.7-21.1 1-1.8.6-6.5-2.5-7 1l-.3 1a33.5 33.5 0 00-8.9-8.9H60z"/>
  <path fill="#cdc3a7" d="M65 380c.5-3.5 5.2-.4 7-1 7 1.7 14-.7 21.1-1a36 36 0 01-2 2.1c-8.6 1.1-17.4 1.2-26 0z"/>
  <path fill="#dbdcda" d="M65 380a98.2 98.2 0 0026.1.1 89.6 89.6 0 00-3.1 29l-5.8.8c-3.2-2.6-2.9-7.8-6.8-9.8-2.3 3.5-4.9 6.9-6.9 10.6-1.6.8-3 0-3-1.9 2.7-9.1-.6-18.5-.8-27.8l.4-1z"/>
  <path fill="#d3d4d2" d="M75.4 400.1c4 2 3.6 7.2 6.8 9.8l5.8-.8c0 2 .2 4 .7 5.9l-.7.2-9 2.8c-3.6-.8-7-2.1-10.8-2.3-1.3-.8-2.7-1.7-4.1-.8l1.5-6c-.2 1.9 1.3 2.6 3 1.8 2-3.7 4.5-7 6.8-10.6z"/>
  <path fill="#d8d9d7" d="M64 415c1.5-1 3 0 4.2.7-.8 0-2.3.3-3.1.4l2.9 6c-1.7-.7-3.2-1.6-4.9-2.2 0 2.5 0 5-.2 7.6-5.4-.9-2.7 6.8-1 9.5-3.3-.7-7.2-1.8-9.2 1.7-3 2.6 4.1 4.8 5.3 3.5 8.7 2.6 18 1.8 26.9.7-3-5.5 5.5-6 6.3-10.8l.8-3.2c-3.8 1.5-7.2 3.8-11.2 5 .4-2.9 4.5-2 6-4 1.1-2.4 3.9-4.9 3-7.6-1-2.4-3.2.7-4.8.8 2.1-2.2 3.6-4.8 3-8l.7-.1a7 7 0 004.6 4.7 73.9 73.9 0 0134.8 17.2c-4.7-2-9.7-3.8-14.8-2.7-3.3 5.5-3 12.3-3.7 18.4-3.7 7.8-9 16-18 18-9 2.9-19 2.7-28.3 1-6.3-1.5-11.8-5.3-17.1-8.8-8.3-7.2-5.8-19.4-1.5-28 .5-2.4 3-3.1 4.3-5 .6-1.8-1.3-2.3-2.8-2.4-8.3.8-16 4.1-23.4 7.5 7.3-7.3 17.3-11 26.9-14.3 4.8-1.9 11.5-.6 14.4-5.7m-20 29.2c-1.5 5.8.9 12.7 4.1 17.6 5.4 1.7 9 8.5 15 7 6.6 2.5 13.6 3.1 20.6 2 6 .5 12.5-3 16-8 2.5-2.5 6.9-5.9 4-9.7-2.7 2.4-4.3 5.8-6 9-3.1-3.7-6.6 2.3-10.5 2.4-3 3.7-8.5 4.7-12 1.3-1.3-2.8 3.5-.8 3.8-3.5-7.5-1.8-15.2 2.3-22.8.7l-1-1.5a3.7 3.7 0 00-2.5-2.6c-3.1-1.7-3.3-6-5.8-8.8-1.4-1.6-1-5.2-2.9-5.9M65 457c2.4 2.7 7.8 1.8 11.1 2 3 4.7 11.4-7 1.4-1.4-4.2.9-8.4-.6-12.5-.6z"/>
  <path fill="#e2e2e1" d="M79 418c3-1 6-2 9-2.8.6 3.1-.9 5.7-3 7.9-5.5 1.4-12 2-17-1l-3-6 3.2-.4c3.7.2 7.2 1.5 10.8 2.3z"/>
  <path fill="#cdcfcc" d="M63.1 419.9c1.7.6 3.2 1.5 4.9 2.2 5 3 11.5 2.4 17 1 1.6-.1 3.8-3.2 4.8-.8.9 2.7-1.9 5.2-3 7.5-1.5 2-5.6 1.2-6 4.2 4-1.3 7.4-3.6 11.2-5.1l-.8 3.2c-.8 4.7-9.2 5.3-6.3 10.8-9 1.1-18.2 2-26.9-.7-1.2 1.3-8.3-.9-5.3-3.5 2-3.5 5.9-2.4 9.2-1.7-1.7-2.8-4.4-10.4 1-9.5.2-2.5.3-5 .2-7.6z"/>
  <path fill="#dfe0df" d="M46.2 427.4c1.5 0 3.4.6 2.8 2.5-1.3 1.8-3.8 2.5-4.3 4.9-4.3 8.6-6.8 20.8 1.5 28 5.3 3.5 10.8 7.3 17.1 8.8 9.4 1.7 19.2 1.9 28.4-1 8.8-2 14.2-10.2 17.9-18 .8-6.1.4-12.9 3.7-18.4 5.1-1 10.1.7 14.8 2.7 1.6 2 3.4 4 4.8 6.1-1.7-.4-3.5-1.4-5.2-.3-2 1.4-4.3 0-6.5-.2-2 1.8-5.6 3-5.6 6.3.1 3.3-.2 6.7-.8 10-7.2 6.3-14.6 13.3-24.2 15.7-5 .8-10.2 1.6-14.6 4.3-3.2-2.5-7-1-10.8-.9 0-.7-.4-2.2-.5-3-1.8.6-3.3 2.3-5.3 2-.5-1.2-.4-2.8-1.8-3.4-6.6-3-13.5-6.2-18.4-11.7-4.4-5-3-11.8-4-17.7-.2-2 3-3 2.6-5-3-2.8-7.8-2-11.7-2.9-2 .7-4 1.6-6.3 1.8l3-3.1a76.5 76.5 0 0123.4-7.5z"/>
  <path fill="#e5e6e6" d="M19.8 438c2.2-.2 4.2-1 6.3-1.8 4 .8 8.6.1 11.7 3 .4 2-2.8 2.8-2.7 4.9 1 5.9-.3 12.8 4.1 17.7a51.3 51.3 0 0018.4 11.7c1.4.6 1.3 2.2 1.8 3.4 2 .3 3.5-1.4 5.3-2l.5 3c3.7 0 7.6-1.6 10.8.9 4.4-2.7 9.6-3.5 14.6-4.3 9.6-2.4 17-9.4 24.2-15.7.6-3.3 1-6.7.8-10 0-3.3 3.6-4.5 5.6-6.3 2.2.3 4.4 1.6 6.5.2 1.7-1.1 3.5-.1 5.2.3 3.4 5.3 5.5 11.6 3.1 17.8a59 59 0 01-28 22 114.4 114.4 0 01-44.7 4.6c-14.6-3.5-30.2-7-41.3-17.7-2.9-3.1-4.8-7-8-9.8-3-7.6 1.3-16 5.8-22z"/>
  <path fill="#cfd0cc" d="M44.1 444.1c2 .7 1.5 4.3 3 5.9 2.4 2.7 2.6 7.1 5.7 8.8-1 .4-2.3 1-2.9 2 1.7.7 3.6 1.6 5.4.6l1 1.5c7.6 1.6 15.3-2.5 22.8-.7-.3 2.7-5.1.7-3.8 3.5 3.5 3.4 9 2.4 12-1.3 3.9-.1 7.4-6.1 10.6-2.4 1.6-3.2 3.2-6.6 6-9 2.8 3.8-1.6 7.2-4.1 9.8-3.5 5-10 8.4-16 8 2.3-1.2 6.2-1.5 6.4-4.7-3.7 1.6-7.4 3.8-11.6 3.4-6.1-.2-11.6-3.6-17.8-3.1.3 1.2 1.4 1.8 2.4 2.4-6 1.4-9.6-5.4-15-7.1-3.2-4.9-5.6-11.8-4-17.6z"/>
  <path fill="#f1f1ee" d="M64.9 457c4.1 0 8.3 1.5 12.5.6 10-5.6 1.7 6-1.4 1.4-3.3-.2-8.7.7-11.1-2z"/>
  <path fill="#bfc1bc" d="M50 460.8c.5-1 1.7-1.6 2.8-2 1.3.4 2 1.2 2.5 2.6-1.8 1-3.7 0-5.4-.6z"/>
  <path fill="#bec0bd" d="M14 459.9c3.2 2.8 5.1 6.7 8 9.8l-3.4 3.4c-2.3-4-4.6-8.5-4.7-13.2z" opacity=".9"/>
  <path fill="#c7c9c6" d="M108 482.9a59 59 0 0028-22c-1.8 14.6-15.3 24.3-28.3 28.7a94.8 94.8 0 01-57.5 2 63.2 63.2 0 01-31.6-18.5l3.4-3.4C33 480.5 48.7 484 63.3 487.4c15 1.6 30.2-.3 44.6-4.5z"/>
  <path fill="#c8c5b7" d="M60.8 466.4c6.2-.5 11.7 3 17.8 3.1 4.2.4 8-1.8 11.6-3.4-.2 3.2-4.2 3.5-6.4 4.7-7 1-14 .4-20.6-2-1-.6-2.1-1.2-2.4-2.4z"/>
</svg>
