<svg xmlns="http://www.w3.org/2000/svg" width="157pt" height="449pt" viewBox="0 0 157 449">
  <defs/>
  <path fill="#7c452b" d="M73.4 7C77.5.1 87.5-1.6 92.3 5.6c-1.9 1-3.7 2.5-6 2-4.3-.6-8.8.6-13-.8z"/>
  <path fill="#ad6c49" d="M86.3 7.7c2.3.5 4.1-1 6-2 .9.8 1.6 1.9 1.7 3.1-1.3.9-3 1.5-3.2 3.2l-.6-.3c-1.3-3.3-6.5-2-9.1-3.3-3.4-.7-6.5 1.8-9.7 2.7-1-1.8 1.1-3 2-4.2 4.1 1.4 8.6.2 13 .8z"/>
  <path fill="#d8a273" d="M71.4 11c3.2-.8 6.3-3.3 9.7-2.6-1.6 1.1-.9 2.6.7 3-.9 1.2-2 2.3-3 3.3l-3 1.2c-2.2-.9-4.3-2.2-4.4-4.8z"/>
  <path fill="#e8c699" d="M81.8 11.5c-1.6-.5-2.3-2-.7-3 2.6 1.2 7.8-.1 9.1 3.2l-.8-.2c-3.6-1.2-4.4 4.8-7.5 5.5-1.5.4-2.2-1.5-3-2.3l3-3.2z"/>
  <path fill="#c39571" d="M90.8 12c.3-1.7 2-2.3 3.2-3.2l1.4 5.2c-1 1.2-2.1.8-3.2 0l-1.4-2z"/>
  <path fill="#f2e8d1" d="M82 17c3-.7 3.8-6.7 7.4-5.5l-.9 5.4-.8 3.9-.9 6.2c-2.2.6-3.2-1.8-4.6-3L81 27.9l-2.2 4c-3.2-1-2.3 2.1-1.7 4l-3.5 2.7c-1.8-1-3.3-2.5-5-3.8l2.3-4 4.3.1c0-1.5-1.2-2.4-2.2-3.3 1.7-3.7 3.8-7.3 2.9-11.7l3-1.2c1 .8 1.6 2.8 3.2 2.3z"/>
  <path fill="#97583a" d="M89.4 11.5l.8.2.6.3 1.4 2c.3 2.2-1.6 5.6-3.7 3l.9-5.5z"/>
  <path fill="#a66f52" d="M92.2 14c1 .8 2.3 1.2 3.2 0l.9 2.7c-3-1.2-3.4 2.7-5 4.3-.1-2-1-2.2-2.1-.7 0 4 .8 7.8.8 11.7h-1c-.1-1.5-.3-2.9-.7-4.2l-.5-7 .7-3.9c2 2.7 4-.7 3.7-2.8z"/>
  <path fill="#6c3a26" d="M91.3 21c1.6-1.6 2-5.5 5-4.3l-.2 7a11.2 11.2 0 00-2.4 7.5c-.6-1.4-.3-3.4-1.6-4.4-.5 3.4-1.1 6.8-1.1 10.2h-1v-5c0-4-.9-7.8-.8-11.7 1.1-1.5 2-1.3 2.1.7z"/>
  <path fill="#8e6b59" d="M96.3 16.7c1 3 3.5 6 3.2 9.4-1-1-2-1.9-3.4-2.4l.2-7z" opacity=".9"/>
  <path fill="#eed6b3" d="M86.8 27l1-6.2.5 7c-.1 3.3-1 7.5-5.4 7.2-2.2.7 0-2.1 0-3 4 1 .5-7-2-4.1l1.3-4c1.4 1.4 2.4 3.7 4.6 3.1z"/>
  <path fill="#d7af8a" d="M96.1 23.7c1.3.5 2.4 1.4 3.4 2.4-1 3.5.5 7 1.5 10.4-2.1 1.8 1.2 4.9-1 6.5-3 1.3 0 4.7-2 6.8L96.3 53l-1.5-4.8c-.3-4.4 1-9.1-.5-13.5a214 214 0 01-.6-3.5c0-2.7.6-5.4 2.4-7.5z"/>
  <path fill="#e1a978" d="M80.9 27.9c2.5-2.8 6 5 2 4.1-1.8-.3-3 1.4-3 3.2l-.9-1.5-.3-1.8 2.2-4z"/>
  <path fill="#602916" d="M92 26.8c1.4 1 1 3 1.7 4.4l.6 3.5c.3 4.4-1.4 9.3.5 13.5l1.5 4.8-.2.6-2.4 2.6-1.4-4.4-1-4L91 46c.4-3 .4-6 0-9 0-3.4.6-6.8 1-10.2z"/>
  <path fill="#e9ceaa" d="M70.8 30.9l2-3.3c1.1.9 2.3 1.8 2.3 3.3h-4.3z"/>
  <path fill="#eec292" d="M88.3 27.8c.4 1.3.6 2.7.8 4.1v8.2c.2 3.1-2 5.4-4.8 6.3.1 1.7.5 3.3.7 5-.6 0-1.6-.3-2.1-.5-.7-2-1.2-4-1.7-6 .7-4.7-7.7-5.2-8.5-1l-2.9 3.8c-1-.2-1.9-.4-2.7.3L64 50c.2-2.7.9-6 4.2-4.1-.8-2-2.4-3.1-4.4-4l4.8-7.1c1.7 1.3 3.2 2.7 5 3.8l3.5-2.8c-1 3.7 3.5 2 2.9-.6 0-1.8 1.2-3.5 3-3.2 0 .9-2.2 3.7 0 3 4.3.3 5.3-3.9 5.4-7.2z"/>
  <path fill="#f3cc9d" d="M77 35.9c-.6-1.9-1.5-5 1.7-4l.3 1.8a36 36 0 01-2 2.1z"/>
  <path fill="#cb8456" d="M89 32h1v8h-1v-8z"/>
  <path fill="#b16e49" d="M77 35.9a36 36 0 002-2.2l.9 1.5c.5 2.6-3.9 4.3-2.9.6z"/>
  <path fill="#7e4227" d="M94.3 34.7c1.5 4.4.2 9 .5 13.5-2-4.2-.2-9-.5-13.5z"/>
  <path fill="#9b5330" d="M90 37h1c.4 3 .4 6 0 9h-1v-6-3z"/>
  <path fill="#be845e" d="M100 43c2.2-1.6-1.1-4.7 1-6.5 1.7 4 2 8.2 3 12.4-1.5.1-3.3 0-3.4 2L98 49.9c2-2.1-1-5.5 2-6.8z" opacity=".9"/>
  <path fill="#e8aa75" d="M89 40h1v6c.9 3.3-1.3 2.6-3.5 2 .3 1.4-.4 2.5-1.5 3.4-.2-1.7-.6-3.3-.7-5 2.8-1 5-3.1 4.8-6.3z"/>
  <path fill="#bd6938" d="M72.7 43.9c.8-4.2 9.2-3.7 8.5 1-1.7-.6-4.9-2-4.4 1-.9-1-1.9-3-3-.9l-1-1.1z"/>
  <path fill="#eab17c" d="M59.8 46.8c1.4-1.5 2.8-3.1 4-4.8 1.9.8 3.5 1.9 4.3 3.9-3.3-1.8-4 1.4-4.2 4l3.2-2c1.6 2.3-.4 4.2-1.7 6-.2-1.7-2.5-2.7-2.7-.5-1.9 1-3 2.8-3.5 4.8l-.3-4.2c0-2.4.4-4.8 1-7.2z"/>
  <path fill="#bd8664" d="M69.8 47.7l3-3.8 1 1.1a82 82 0 01-2.8 4.3l-.9-.6-.3-1z"/>
  <path fill="#eac9a4" d="M73.9 45c1-2 2-.1 2.9 1v.8c-.5 2.8-1.3 5.8 0 8.5.6 1.9.7 4 1.8 5.7l-2 1-1-4.2-1.2 3.3c-1.4-4-3.8-7.5-3.4-11.8l2.9-4.3z"/>
  <path fill="#643a2a" d="M76.8 46c-.5-3.1 2.7-1.7 4.4-1.1.5 2 1 4 1.7 6l.2.9c-.3 2.8 1.3 5.2 2.9 7.4 0 2.5.6 5.8-3 5-1.5-1-3-2-4.4-3.2-1.1-1.7-1.2-3.8-1.8-5.7V46z"/>
  <path fill="#d58954" d="M90 46h1l.3 1.8L91 52c-2 1.4-4.2.6-6-.7 1-.9 1.8-2 1.5-3.4 2.2.6 4.4 1.3 3.6-2z"/>
  <path fill="#7f6153" d="M57 50.5c.5-1.5 1.7-2.6 2.8-3.7a39 39 0 00-.8 7.3l-.8-.2a31 31 0 00-1.3-3.4z" opacity=".9"/>
  <path fill="#d8915e" d="M67.1 48c.8-.7 1.8-.5 2.7-.3l.3 1c-1.4 2.5-2.6 5-2 8-3.2-1.8-2 2.6-2.4 4.6-1.7 2.6-2.6 5.6-4.6 8A24 24 0 0160 65c3 .7 1.7-2 1.7-3.8 1.7-2.3 5.4-5.8 1.1-7.8.2-2.2 2.5-1.2 2.7.5 1.3-1.8 3.3-3.7 1.7-6z"/>
  <path fill="#a56a4c" d="M76.8 55.3c-1.3-2.7-.5-5.7 0-8.5v8.5z"/>
  <path fill="#ad6239" d="M91.3 47.8l1 4c-.3 2.8.7 6-1.1 8.4L91 52l.3-4.4z"/>
  <path fill="#7a4e3c" d="M70.1 48.7l.9.6c-.4 4.4 2 7.9 3.4 11.8 1.4 2.6-2.6 1.3-2.6 3.6 1.7-.4 3.5-.8 5.1.2l.2 4h-5.8c.3-2.1-.1-4.2-.9-6.2a60 60 0 00-2.2-6c-.7-3 .5-5.5 2-8z"/>
  <path fill="#b56b41" d="M100.6 51c.1-2 1.9-2 3.4-2.1l.8 3.3c-1.5.6-3.2 1.2-4.3-.3l.1-1z"/>
  <path fill="#d7a274" d="M96.3 53l1.7-3.3 2.6 1.3-.1.9c-.7 1.8.1 3.6.6 5.3-1.4-.3-2.8-.7-4-1.2l-1-2.4.2-.6z"/>
  <path fill="#5e4036" d="M55.8 52.8l1.1-2.3a31 31 0 011.3 3.4c1.2 4.5-1.7 9.2-.4 13.5.6 1.4 1 2.9 1 4.5-.5 1.3-.8 2.8-1.1 4.3-4.8.3-3-4.5-3.9-7.4.5-5.4 1.5-10.7 2-16z"/>
  <path fill="#e5a46f" d="M82.9 51l2 .4c2 1.3 4.1 2.1 6.1.7 0 2.7 0 5.4.2 8-1.1 1.5-2.4 2.8-3.5 4.2-1.1-2.1 2-4 .3-6.2l-2 1c.1-2.7-1.4-5-2.9-7.3l-.2-.9z"/>
  <path fill="#bc774e" d="M83.1 51.8c1.5 2.2 3 4.6 2.9 7.4-1.6-2.2-3.2-4.6-2.9-7.4z"/>
  <path fill="#804c36" d="M92.3 51.8l1.4 4.4c.4 1.7.3 3.4-1 4.7-1.4 1.2-1.6 3-2.2 4.8-1.4 3-6 2.1-7.5 5.3-1 1.6-4 4.2-4.9 1.3l.2-1.6V70l4.7-4.2c2 1.4 3.8.7 4.7-1.5l3.5-4.1c1.8-2.4.8-5.7 1.1-8.4z"/>
  <path fill="#c88257" d="M101.1 57.2c-.5-1.8-1.3-3.5-.6-5.3 1.1 1.5 2.8.9 4.3.3l.5 2.7-3.1 2.5-1-.2z"/>
  <path fill="#d7ab85" d="M50.2 63.9c1-4 3.2-7.7 5.6-11.1-.5 5.3-1.5 10.6-2 16-.6 2.7-.2 5.8-1.6 8.4-1.7-3.5 2.8-12.3-2-13.3z"/>
  <path fill="#be8562" d="M58.2 53.9l.8.1c0 1.4 0 2.8.2 4.2.1 2.3.7 4.5.7 6.8l-2 2.4c-1.4-4.3 1.5-9 .3-13.5z"/>
  <path fill="#f1c797" d="M59.2 58.2c.6-2 1.6-3.8 3.5-4.8 4.3 2 .6 5.5-1.1 7.9 0 1.7 1.2 4.4-1.7 3.7 0-2.3-.6-4.5-.7-6.8z"/>
  <path fill="#3d1e15" d="M93.7 56.2l2.4-2.6c-.1 4.5.1 9-.2 13.5-2.9-.3-2.3-4.2-3.2-6.2 1.3-1.3 1.4-3 1-4.7z"/>
  <path fill="#7a4934" d="M96 53.6l1 2.4v7.6c1.8-.5 3.2 0 4 1.6 1 .5 2 1 3 1.3-2.4 1.3-5.1 2-7.7 2.8C95 70.8 94.8 73 93 74c-.8-2.5-.9-6.3 2.7-6.2l.2-.6c.3-4.5 0-9 .2-13.5z"/>
  <path fill="#daa06f" d="M102.2 57.4l3-2.5c-.3 1.8-.4 3.6-.4 5.3-2.5.1-4.6-.1-2.6-2.8z"/>
  <path fill="#b57e5c" d="M105.3 55l1 1.8c0 1.7 0 3.6-1 5.2l-.5-1.8c0-1.7.1-3.5.5-5.3z"/>
  <path fill="#e9ac77" d="M65.7 61.3c.3-2-.8-6.4 2.5-4.6 0 .3.3.8.5 1.1-1.5.8-2 2.3-3 3.5z"/>
  <path fill="#e5c7a4" d="M97 56c1.3.5 2.7.9 4.1 1.2l1 .2c-2 2.7.2 3 2.7 2.8l.5 1.8-.4.8c-.7 1.7-2.2 2.4-4 2.5-.7-1.7-2.1-2.1-3.9-1.7V56z"/>
  <path fill="#714331" d="M106.3 56.8l3 4.9-.2 3.2c-.3 1.3.4 3.3-1 4l-1.1-2a4.3 4.3 0 01-2-4l.3-.9c1-1.6 1-3.5 1-5.3z"/>
  <path fill="#e8be94" d="M65.7 61.3c1-1.2 1.5-2.8 3-3.5a60 60 0 011.7 5L68 66.8c-2.7 2.6-5 6-8.7 7.2l-.1-1 2-3.8c2-2.4 2.9-5.4 4.6-8z"/>
  <path fill="#bb8361" d="M74.4 61l1.3-3.2 1 4.3.2 2.8c-1.6-1-3.4-.6-5.1-.2 0-2.3 4-1 2.6-3.6z"/>
  <path fill="#ae704e" d="M86 59.2l2-1.1c1.7 2.2-1.4 4-.3 6.2-.9 2.2-2.6 2.9-4.8 1.5v-1.6c3.7.8 3.2-2.5 3-5z"/>
  <path fill="#efdfc7" d="M76.6 62l2-1c1.4 1.3 2.9 2.3 4.4 3.2v1.6L78.3 70l-1.2-1c0-1.4 0-2.7-.2-4l-.3-3z"/>
  <path fill="#542f24" d="M90.5 65.7c.6-1.7.8-3.6 2.2-4.8.9 2 .3 5.9 3.2 6.2l-.2.6c-3.6 0-3.5 3.7-2.7 6.2a19 19 0 00-4 4l-.7.9-1 1.6c-2.6-.4-5-6-6.8-1.8-1 1-1.8 2-2.6 3l-1.9.9c-1.8-2-.9-4.1 1.8-3.8-.3-2-.8-3.9-1-5.9.3 0 1-.4 1.3-.5 1 3 4 .3 4.9-1.3 1.5-3.2 6-2.3 7.5-5.3z"/>
  <path fill="#a7765a" d="M109.3 61.7c3.3 1 3.8 4.8 5.8 7.2h-2c-1.6-1-3-2.4-4-4l.2-3.2z" opacity=".9"/>
  <path fill="#58362b" d="M70.4 62.7c.8 2 1.2 4 .9 6.2H77l1.2 1.1v.7c-3.5-.5-7-.2-10.4 0V67l2.5-4.2z"/>
  <path fill="#a5603d" d="M101 65.3c1.7-.1 3.2-.8 4-2.5-.2 1.7.6 3.2 2 4-2.7 1.7-7.3 3.6-5.3 7.5-1.7-2.3-3.7-2.5-5.6-.4-1.6.8-3.1 1.7-4.1 3.1l-3 1a19 19 0 014-4c1.8-1 2-3.2 3.3-4.7 2.6-.8 5.3-1.5 7.8-2.8l-3.1-1.3z"/>
  <path fill="#f3e7d3" d="M50.2 63.9c4.8 1 .3 9.8 2 13.3L51 78.9l-.9.3-.5-13.5.5-1.8z"/>
  <path fill="#ab6b49" d="M57.8 67.4L60 65c.3 1.5.7 2.9 1.2 4.3l-2 3.8-.2-1.2c0-1.6-.5-3-1-4.5z"/>
  <path fill="#8a5b47" d="M109.1 65c1 1.5 2.4 2.8 4 3.8l-4.2 2c-1 1-2.3-1.8-.9-1.9 1.5-.7.8-2.7 1.1-4z"/>
  <path fill="#908e8c" d="M48.9 80c.2-4.8 0-9.6.9-14.3l.4 13.5-1.3.7z" opacity=".6"/>
  <path fill="#754a39" d="M59.2 74c3.6-1 6-4.5 8.7-7v3.7l-2.9.5c-.5 2.4 2.2 3 4 3l-.2.8c-2.6.3-5.5 1.5-7.1 3.7l-1.8 1.4-.9-.2c.1-.9 1.8-2.6.2-2.9l-1.6-.8c.4-1.5.7-3 1.3-4.3L59 73l.1 1z"/>
  <path fill="#542d21" d="M101.7 74.3c-2-3.9 2.6-5.8 5.3-7.5l1 2.1c-1.4 0 0 2.8.9 1.9l4.3-2-.9 3.1c-1.8 2.5-4 5-7.2 3.5-2 2.7-1.4 7.4-5.4 8.2-2.2.3-.9 2.2-.7 3.6.3 1.9 1.2 3.8 2.8 5-.3-2-.7-4-.6-6.2 3.5-2.1 5.4-6.6 10-6.6l2-.3c-2 2.9-5.7 4-7.4 6.8-1.8 2.5-.2 5 2.1 6.3l-1.1 2.1c-4.3.7-8.3-.8-12.5-1.6-2.9-.6-6.7-2-8.5 1.2l-.7.3c-2.2-1.3-4.3-3-6.8-3.5l-3.3-1c1-1.3 2.1-2.7 3.8-3 2.3 0 4.2 1 6.1 2 1.3-.8 2.6-1.7 4-2l1.4 4.2c2.3-1.2 4.5-3 4.7-5.8l1-3.3c1.9-1.8 3.3-4 3.3-6.6 1.2 0 3.6 1.3 2.4-1z"/>
  <path fill="#8d5e48" d="M52.1 77.2c1.5-2.6 1-5.7 1.7-8.4 1 3-1 7.7 3.9 7.4l1.5.8c-1.4 1.1-3.3 2-3.4 4a85 85 0 00-4.7-1.2V79l1-1.8z"/>
  <path fill="#925234" d="M113.2 68.8h2c.6 1 1.3 2 1.7 3-2.8 1.4-1.9 4.6-.8 6.8-2.2.6-2.3 3.3-3.8 4.7-1.6 2-4.3 1.8-6.5 2.6 1.7-2.7 5.4-3.9 7.3-6.8l-2 .3c-4-3 6.5-4.7 1.2-7.5l.9-3z"/>
  <path fill="#351710" d="M68 70.7c3.4-.2 6.8-.5 10.3 0l-.2 1.6-1.4.5-6 1-1.7.3c-1.8 0-4.5-.5-4-3l3-.4z"/>
  <path fill="#e9c49d" d="M96.1 74c2-2.2 3.9-2 5.6.3 1.2 2.3-1.2 1-2.4.9 0 2.7-1.4 4.8-3.4 6.6l-2-.1h-4c0-1.7 1.3-3.1 2-4.7 2.7 2.1 4.5-.3 4.2-3z"/>
  <path fill="#7c432a" d="M112.3 71.9c5.3 2.8-5.2 4.5-1.2 7.5-4.5 0-6.4 4.5-10 6.6-1-1.6-1.5.3-2.1 1.2-.2-1.4-1.5-3.3.7-3.6 4-.8 3.3-5.5 5.4-8.2 3.3 1.5 5.5-1 7.2-3.5z"/>
  <path fill="#a87b62" d="M116.1 78.6c-1-2.2-2-5.4.8-6.8.7 2.2.1 4.6 2.4 6-.3 1.2-.5 2.3-.9 3.4l-2.3-2.6z" opacity=".9"/>
  <path fill="#784b38" d="M70.8 73.8l6-1c.2 2 .7 4 1 6-2.7-.4-3.6 1.7-1.8 3.7l-1.7.7-1-.2c.3-6-6.8-3.5-10.7-4.3 3.8-.9 8-.1 11.6-1.7.8-.8 1.3-1.9 1.9-2.9l-5.3-.3z"/>
  <path fill="#af6e4b" d="M69 74.1l1.8-.3c1.8 0 3.5.1 5.3.3-.6 1-1.1 2-1.9 3 .2-3.3-3.5-1.2-5.4-2l.2-1z"/>
  <path fill="#dda272" d="M92 77c1-1.4 2.5-2.3 4.1-3 .3 2.7-1.5 5.1-4.1 3z"/>
  <path fill="#d9a477" d="M61.7 78.7c1.6-2.2 4.5-3.4 7.1-3.7 2 .9 5.6-1.2 5.4 2-3.6 1.6-7.8.8-11.6 1.7h-1z"/>
  <path fill="#b87d5a" d="M59.2 77c1.6.3 0 2-.2 2.9L56 83l-.2-2c.1-2 2-3 3.4-4.1z"/>
  <path fill="#42221b" d="M80.5 78.6c1.9-4.2 4.2 1.5 6.8 1.8-1.2 3.8-8 2.3-6.8-1.8z"/>
  <path fill="#d09164" d="M89 78l3-1c-.8 1.6-2 3-2 4.8l4-.1c-1.6 1.2-3.8 2-4.2 4.2H89c-.1-2.4-.3-4.7-.7-7.1l.7-.9z"/>
  <path fill="#72564c" d="M119.3 77.8l1.9 1.1c-.2 1.8-1.7 4.1.6 5.2.5 3 2.2 6.3 5.3 7.4l-.1 3.4c-3.7-2.3-5.5-10.5-11.1-7 .7-2.2 1.8-4.4 2.5-6.7l.9-3.4z"/>
  <path fill="#916d5c" d="M50.2 79.2l.9-.3v1c-1.6 1.3-3.1 2.9-4.1 4.8l-2.3-.8a49 49 0 014.2-4l1.3-.7z" opacity=".9"/>
  <path fill="#4a312a" d="M60 80l1.7-1.3h1c3.8.8 11-1.7 10.6 4.3-3.6-.7-6.7 1.6-10.1 2a46 46 0 00-3.2-1.3V80z"/>
  <path fill="#6e4b3e" d="M77.9 81.7l2.6-3c-1.1 4 5.6 5.5 6.8 1.7l1-1.6c.4 2.4.6 4.8.7 7.2v.8c-1.5.3-2.8 1.1-4 2-2-1.1-4-2-6.2-2.1 1.3-.7 3.8-.4 3-2.5a10 10 0 00-3-2.1l-1-.4z"/>
  <g fill="#c4835a">
    <path d="M112.3 83.3c1.5-1.4 1.6-4 3.8-4.7a9.8 9.8 0 01-7 9.6 5 5 0 00-.4 4h-.8c-2.3-1.3-3.9-3.8-2-6.3 2.1-.8 4.8-.7 6.4-2.6zM76 82.5l1.9-.8.9.4 1 2.9c-2.5-.4-5-.4-7.5 0L73 88c-2-.9-4-1.8-6.2-2.3 2.5-.8 5.1-1.3 7.5-2.4l1.7-.7z"/>
  </g>
  <path fill="#e0d1bb" d="M116.1 78.6l2.3 2.6c-.7 2.3-1.8 4.5-2.5 6.8-.2 2.2 1.2 4 2.2 6l-.2 2.8c-2.4.2-4.6 3.1-6.9 1.1a84 84 0 00-1-.9c-.5-1.6-1-3.3-1.3-4.9a5 5 0 01.5-3.9c4-1.2 7.2-5.3 7-9.6z"/>
  <path fill="#5e3b2e" d="M121.2 79c3.1 1.8 6.3 4.3 6.8 8.1-2.8 2.2-3.8-2.2-6.2-3-2.3-1-.8-3.4-.6-5.2z" opacity=".9"/>
  <path fill="#ddc1a4" d="M51.1 79.8l4.7 1.2.2 2v2l-6.9.2-2.1-.5c1-2 2.5-3.5 4.1-4.9z"/>
  <path fill="#5b4540" d="M56 83l3-3.1 1 .2v3.6L57 85h-1v-2z"/>
  <path fill="#cf753d" d="M94 81.7h2l-1 3.4a11 11 0 01-5.2.8c.4-2.2 2.6-3 4.2-4.2z"/>
  <path fill="#dac2ab" d="M78.8 82a10 10 0 013 2.2c.8 2-1.8 1.8-3 2.5-1.7.3-2.8 1.7-3.8 3l3.3 1-6.5-.3 1.3-1.2c-2.8-.5-5.5-1-8.3-1.3 0-1.3.8-2 2-2.3C69 86.1 71 87 73 88l-.7-2.9c2.5-.4 5-.4 7.6 0l-1.1-3z"/>
  <path fill="#975333" d="M63.2 85c3.4-.4 6.5-2.7 10-2l1 .2c-2.3 1.1-4.9 1.6-7.4 2.4-1.2.2-2 1-2 2.4-2.3.5-1.7-1.6-1.6-3z"/>
  <path fill="#aaa4a1" d="M28.9 87.7c4.7-2.8 10.5-3 15.8-3.8l2.3.8 2.1.5-.4 1.7c-6 0-12-.5-17.6 1.7l-2.2-.9z" opacity=".9"/>
  <path fill="#381b13" d="M57 85c1-.5 2-1 3-1.3l3.2 1.2c-2 .7-4.3 1.4-6.3.1z"/>
  <path fill="#88533a" d="M121.8 84c2.4.9 3.5 5.3 6.2 3.1.1 1.5-.2 3-.9 4.4-3-1.1-4.8-4.4-5.3-7.4z"/>
  <path fill="#907a71" d="M49.1 85.2l7-.2h.8c-1.4.9-3.6 1-4.1 2.8C45 88 37.5 89 30 90.1l1-1.5c5.7-2.2 11.8-1.6 17.7-1.7 0-.5.3-1.3.4-1.8z"/>
  <path fill="#794f3e" d="M57 85c2 1.3 4.1.6 6.2 0-.1 1.4-.7 3.5 1.6 3 2.8.1 5.5.7 8.3 1.2l-1.3 1.2-19-2.6c.5-1.9 2.7-2 4.1-2.8z"/>
  <path fill="#884323" d="M89.8 86c1.8 0 3.6-.1 5.2-1-.2 2.9-2.4 4.7-4.7 5.9L89 86.8V86h.8z"/>
  <path fill="#895741" d="M99 87.2c.6-1 1.2-2.8 2.2-1.2 0 2.1.3 4.1.6 6.2a7.6 7.6 0 01-2.8-5z"/>
  <path fill="#4e352f" d="M115.9 88c5.6-3.6 7.4 4.6 11 7 .4.1 1 .5 1.3.8 2 2.2 1.5 4-1.1 5.4l-2.1-1-1.2-1c-1-2.9-1.9-6.3-5.7-5.3-1-1.8-2.4-3.7-2.2-6z"/>
  <path fill="#f1efe0" d="M19 96.1c2.9-3.3 6.2-6.1 9.9-8.4l2.2 1-1.2 1.4c7.6-1.2 15.2-2.2 22.9-2.3l19 2.6 6.5.3c2.5.5 4.6 2.2 6.8 3.5-1.8.3-4.6 2-2.2 3.7l1.2 1c-2.4 3.6 1.5 3.5 4.1 4 1.6.7 3 1.6 4.6 2 1.4.3 3 .4 3.6 1.8 1.2-3.4 4.6-2.5 7.4-2.2 3.7.2 7.4 0 11 .6-.1 1.3-.5 2.5-.6 3.7 1.2 1.4 3.3 1 5 1.5-1.8 3.2-7 1.4-7.9 5-.5 2.2 2.5 4.2 1.5 6.5-1.8 3.5-2.2 8-5.5 10.5-3.2 4.2-13.2 4.3-11.7-3-1.7-3.5-6.3-2.8-9.6-2.8-12.4.1-24.8-.1-37.1-.6 4-4.3 8-8.7 12.4-12.6l10-2.5c-5.3-3-11.5-3-17.3-3.7-4.3.3-9.1-1.3-13.2.6l-2.1 1c-2.9.4-5.7 1-8.5 1.6-3-.4-5.8-1.3-8.8-1.7-2.5-.2-5-.4-7.6-.4A11 11 0 0111 104c1.8-3.3 5.7-5 8-7.9z"/>
  <path fill="#59382c" d="M85.8 93.9c1.8-3.1 5.6-1.8 8.5-1.2-.5 1.4-1 2.7-1.3 4.2 3.3 1.7 7.6-1.1 10.3 1.8 2.3 2.9 4.8-2 7.8-.8 2.2 2 4.4-1 6.8-1-1 2.8-5.5 3.3-8.1 5-2.4-.1-4.4.8-6 2.6-2.8-.3-6.2-1.2-7.4 2.2-.7-1.4-2.2-1.5-3.6-1.8V101l-5 1.1a54.9 54.9 0 00-3.7-3.2L83 98c-.6-3.5 6.3-.6 3-4.1z"/>
  <path fill="#7a655e" d="M108 92.2h.7L110 97l-3.2-2.7 1.1-2z"/>
  <path fill="#523f3c" d="M94.3 92.7c4.2.8 8.2 2.3 12.5 1.6a69.3 69.3 0 004.3 3.6c-3-1.2-5.5 3.7-7.8.8-2.7-3-7-.1-10.3-1.8.3-1.5.8-2.8 1.3-4.2z"/>
  <path fill="#be9074" d="M85.1 94.2l.7-.3c3.4 3.5-3.5.6-3 4-2.3-1.7.5-3.4 2.3-3.7z"/>
  <path fill="#c09172" d="M118.1 94c3.8-1 4.8 2.3 5.8 5.2l-2.4-1.9c-1.4 1.2-2.5 2.8-3.8 4l-8 .5c2.7-1.6 7.1-2 8.2-5l.2-2.8z"/>
  <path fill="#824d35" d="M128.2 95.8c1 .5 2 1.1 3 2 .3 1.7 1.8 3.4.8 5.2-1.2.3-2 1-2.8 1.9l-1-1.9-1.1-1.8c2.6-1.3 3.1-3.3 1.1-5.4z"/>
  <path fill="#e8e4d4" d="M117.7 101.3c1.3-1.2 2.4-2.8 3.8-4a61.1 61.1 0 003.5 2.8c-.4 2-.6 4-.8 6-.2 1-2.8 2.5-1.4 3.1 3.5 1.2 4.2 5.3 8 6 2.6 7.5-4.6 13.6-10 17.6-2.5 3.3-7.5 2.8-10 6-2 2.2-2 6.6-5.8 6.6l-1-.2 1-3.2c.2-1.4-1.7-2.6-3-1.9-1.6.5-1.3 2.9-2 4.2l-3-1.4c-.8-2-1.7-4.2-3-6-1-1.6-3.4-.5-5-.8-1.9-.2-3-1.7-4.3-2.9 1.5-.9 2.6-2.3 2.4-4.1L81 129c-9 .2-18.2-.6-27.2.6-2.6.4-5.2.8-7.8 1.4l-2.1.7-.8.3c-2.5 1-3.3 3.8-4.4 6-3.4-2.7-5.8-8.3-11.2-5.7-1.7 2.6-3.2 5.3-5 7.8l-1.3-4.2c-2.6-7-3.5-14.4-5.3-21.5 2-1.7 4-3.6 5.6-5.8 3 .4 5.8 1.3 8.8 1.7-2.8.4-7.7.5-3.5 2 7.4 3.9 16.3.7 24.2.5 1.8-.9 5.3-1 5-3.6-4.9-1.3-10-1.2-15.1-1.5 4-1.9 8.9-.3 13.2-.6 5.8.7 12 .7 17.3 3.7l-10 2.5c-4.4 4-8.4 8.3-12.4 12.6 12.3.5 24.7.7 37 .6 3.4 0 8-.7 9.7 2.8-1.5 7.3 8.5 7.2 11.7 3 3.3-2.6 3.7-7 5.5-10.5 1-2.3-2-4.3-1.5-6.5 1-3.6 6.1-1.8 7.8-5-1.6-.4-3.7 0-5-1.5l.8-3.7c-3.7-.7-7.4-.4-11-.6a7.6 7.6 0 015.9-2.7c2.6 0 5.2-.3 7.9-.5z"/>
  <path fill="#996c55" d="M131.1 97.8c1.9 1.4 3.1 3.4 4 5.5-1 0-2 0-3.1-.3 1-1.8-.5-3.5-.9-5.2z" opacity=".9"/>
  <path fill="#dbc7af" d="M84.1 99l3.7 3.2.4.7c-2.6-.5-6.5-.4-4-4z"/>
  <path fill="#cfb19a" d="M125 100.1l2 1 1.2 2c-.2 2-2.6 2-4 3 .2-2 .4-4 .8-6z"/>
  <path fill="#896859" d="M87.8 102.2l5-1.1v3.8c-1.6-.4-3-1.3-4.6-2l-.4-.7z"/>
  <path fill="#b68c74" d="M128.2 103l1 1.9c.5 1.2 2 1.4 3 2.2-2.3 3-6.2.9-9.4 2.1-1.4-.6 1.2-2.1 1.4-3.1 1.4-1 3.8-1 4-3z"/>
  <path fill="#bf9d87" d="M129.2 104.9c.8-.9 1.7-1.6 2.8-1.9 1 .2 2 .3 3.1.3l4.1.8c-2.4.9-4.5 2.3-7 3-1-.8-2.5-1-3-2.2z"/>
  <path fill="#cfc9c1" d="M139.2 104.1c2.7.3 7.8.6 4.2 5.4-1.9 4-2.7 8.4-3.2 12.7v-2c0-2.8-.1-5.6-.3-8.3-3 .3-7 4.8-3.3 7 2.6 2 .6 4.9-.5 7-2.2 1.6-4.4 3-6.2 5l-1 1.1c-2.2.8-5.7 0-6.4 2.8-1.7 2.5 1 4.6 2.4 6.4-2.2 0-3.4-2-5-3.2-1.4-1.3-3.6-1.3-5.2-.3l-2 1-.8.1h-1c2.4-3.2 7.3-2.7 10-6 5.3-4 12.5-10 9.9-17.6-3.9-.8-4.5-4.8-8-6 3.2-1.2 7 1 9.5-2.1 2.4-.7 4.5-2.1 6.9-3z"/>
  <path fill="#d6cebc" d="M13.8 108.2c2.5 0 5 .2 7.6.4a31.7 31.7 0 01-5.6 5.8l-2-6.2z" opacity=".9"/>
  <path fill="#e7dfc8" d="M38.7 108.8l2-1c5.1.2 10.3.2 15.3 1.4.2 2.6-3.3 2.7-5.1 3.6-7.9.2-16.8 3.4-24.2-.5 6.8.5 13.5.6 20.2-.4 1.2-4.4-6-.6-8.2-3.1z"/>
  <path fill="#e4d5ba" d="M30.2 110.3c2.8-.5 5.6-1.2 8.5-1.5 2.1 2.5 9.4-1.3 8.2 3-6.7 1.1-13.4 1-20.2.5-4.2-1.5.7-1.6 3.5-2z"/>
  <path fill="#bbb4b0" d="M136.6 119c-3.7-2.3.3-6.8 3.3-7.1.2 2.7.2 5.5.3 8.2l-1-.2c.2-2.3-1.1-1.9-2.6-1z"/>
  <path fill="#aba29e" d="M136.6 119c1.5-1 2.8-1.4 2.6.9 0 2.3-.5 4.5-2.1 6.2l-1-.1c1-2.2 3.1-5 .5-7z"/>
  <path fill="#c1c1bf" d="M139.2 119.9l1 .2v2.1c-.8 5-2.3 9.7-3.2 14.6l-3 1.3v-4.2c.8-2.7 1.6-5.4 3-7.8 1.7-1.7 2.2-4 2.2-6.2z"/>
  <path fill="#9c8f8a" d="M130 131c1.7-2 4-3.5 6-5l1 .1a31.4 31.4 0 00-3 7.8v-3.7l-3 .7h-1z"/>
  <path fill="#a89e9b" d="M53.7 129.6c9-1.2 18.1-.4 27.2-.6l.3.8c-9.2.3-18.3.4-27.5-.2z"/>
  <path fill="#d6c4b1" d="M80.9 129H87c.2 2-.9 3.3-2.4 4.2l-1.4-1.3-2.1-2-.3-1z"/>
  <path fill="#64453b" d="M46 131c2.5-.6 5.1-1 7.7-1.4 9.2.6 18.3.5 27.5.2l2.1 2.1c-.3 3.1-4 3.7-6.3 5-3.6-3.1-8.6-3.2-13-2-4.9 1.7-6.1-4.9-11.1-2.8-2.3.4-4.5 1.2-6.8 1.6-1.5-.5-.6-1.8-.1-2.7z"/>
  <path fill="#8e776f" d="M131 131l3-.8v3.8c-1.3 3.1-3.4 6.1-3 9.8.5 0 1.3.3 1.7.4 3.8-.2 2 4.5 3 7 .5 3 .2 6-.6 9 0-1.5-.1-3-.3-4.4-1.1 1-1.2 4.4-3 3.5v-3.1c.3-4 3.4-9.7-1.4-11.8-.8-4.5.2-9 .5-13.5z" opacity=".9"/>
  <path fill="#7b503e" d="M43.8 131.7l2.2-.7c-.5 1-1.4 2.2.1 2.7 2.3-.4 4.5-1.2 6.8-1.6 4.6 1.5.2 7.6-3.2 6.4-1.9-.6-2.5 1.8-3.7 2.7l-1.9-1.3a452 452 0 00-.4-8.2z"/>
  <path fill="#856357" d="M129 132l1-1h1c-.4 4.4-1.4 9-.6 13.4 4.8 2.1 1.7 7.8 1.5 11.8-1-1.7-1.3-4.2-3.5-4.5-1.1-.4-2.3-.7-3.4-.9-.2-2 1.3-3.1 2.8-4.1 0-1.8-1-3.4-1.6-5a57 57 0 002.7-9.7z"/>
  <path fill="#dcd0bf" d="M27.4 132.3c5.4-2.6 7.8 3 11.2 5.6 1.1-2.1 1.9-4.9 4.4-5.9l.1 10.2c-.2 3.8.5 7.4 1.1 11-1 .3-2 0-3-.2-.8-1.1-1.5-2.3-2.4-3.3l-2.6-2.9c0-1.9-2-1.4-3.2-1.6-1.8 0-1.8 3.1-2 4.6a22 22 0 001 7c-.6 0-1.6-.4-2-.6 0-3.7-1.8-7-2.2-10.6-3.6 1.1-2.7-6.5-6-3.4l-.7-6.3c.5 1.3 1 2.8 1.3 4.2 1.8-2.5 3.3-5.2 5-7.8M33 138c-.5 2 .5 4.5 3 4-.4-1.7-.5-4.7-3-4z"/>
  <path fill="#b6a296" d="M43 132l.8-.3.4 8.2-1 2.3c-.2-3.3-.2-6.8-.2-10.2z"/>
  <path fill="#78442e" d="M52.9 132c5-2 6.2 4.6 11 3-.4 2-1.9 4.9.8 6L66 142c0 3-.5 6.4-3.1 8.3-.5-2.1-2.2-2.6-4.2-2.2l-.7-2.3c1.6.3 3.3.8 5 1 1-3.7-2-6.4-6-6-4.7-2.8-9.4.4-12 4.2 0-1.4.4-2.7 1-4 1.2-.8 1.9-3.2 3.7-2.6 3.4 1.2 7.8-4.9 3.2-6.4z"/>
  <path fill="#75574b" d="M83.3 132c.4.2 1 .9 1.4 1.2 1.3 1.2 2.4 2.7 4.3 2.9a48.4 48.4 0 00-3 4.8c-3 1.4-6.2 2-9.1 3.3-1.4-1.4-2-3.3-3.2-5-2-1-4.3-1.5-6.6-2-1 1.1-2 2.4-2.4 3.8-2.7-1.1-1.2-4-.8-6 4.5-1.3 9.5-1.2 13.1 2 2.3-1.4 6-2 6.3-5z"/>
  <path fill="#ada9a7" d="M122.5 134.8c.7-2.9 4.2-2 6.4-2.8a57 57 0 01-2.7 9.7 68 68 0 00-2.3 2.2c-3.2.1-3.6-3.5-4-5.9 1.6 1.2 2.8 3.2 5 3.2-1.3-1.8-4-4-2.4-6.4-.5 2.8 4.8 3.3 3.5.2.5-2.2-2.4 0-3.5-.2z"/>
  <path fill="#685956" d="M122.5 134.8c1 .1 4-2 3.5.2 1.3 3.1-4 2.6-3.5-.2z"/>
  <path fill="#a08d86" d="M131 143.8c-.4-3.7 1.7-6.7 3-9.9v4.2c-.3 2-.8 4-1.3 6l-1.7-.3z"/>
  <path fill="#694a40" d="M89 136c1.6.4 4-.7 5 .8-3.2-.3-.7 2.9-1.7 4.5-1.6.4-3.2.6-4.9.9l-1.4-1.3c.9-1.6 1.9-3.3 3-4.8z"/>
  <path fill="#846053" d="M67.1 137.3c2.3.4 4.6.9 6.6 2 1.1 1.6 1.8 3.5 3.2 5 .7 3.7-5.7-.6-6.6 1.3-2 .1-2.6-2.6-4.3-3.5l-1.3-1.1a9.2 9.2 0 012.4-3.7z"/>
  <path fill="#532b1e" d="M92.3 141.3c1-1.6-1.5-4.8 1.7-4.5 1.3 2 2.2 4 3 6 .5 2.1 1 4.2 1.1 6.3-3.4 2.6-5.7-1.6-7.3-4.1l1.5-3.7z"/>
  <path fill="#452b24" d="M114.7 137.7c1.6-1 3.8-1 5.2.3.4 2.4.8 6 4 5.9 2.4 1.3-.7 1.6-1.9 2.1-2.9.7-3.7 4.5-6.8 5.2l-.4-.9c2-2.8-1.8-5.6.4-8.1 1.3-1.4-.2-3-.5-4.5z"/>
  <path fill="#a49d9b" d="M134 138l3-1.2c-.1 4.9-1.6 9.6-1.3 14.4-1-2.5.8-7.2-3-7l1.4-6.1z" opacity=".9"/>
  <path fill="#a8897e" d="M33 138c2.5-.7 2.6 2.3 3 4-2.5.5-3.5-2-3-4z"/>
  <path fill="#583830" d="M112.8 138.7l2-1c.2 1.5 1.7 3.1.4 4.5-2.2 2.5 1.6 5.3-.4 8.1l-.5-.8-.5-.6-5-1.8.2-1 1.2-2.9c2.5-.5 5-1.9 2.6-4.5z"/>
  <path fill="#bdaea4" d="M105 145.4c3.8 0 3.8-4.4 5.9-6.5l1-.1-1.7 4.4-1.2 2.9-3.7.2-.3-1z"/>
  <path fill="#6f5c56" d="M111.9 138.8l.9-.1c2.5 2.6-.1 4-2.6 4.5l1.7-4.4z"/>
  <path fill="#a86645" d="M44.1 140l1.9 1.2c-.6 1.2-1 2.5-1 3.9v8.1h-.8c-.6-3.6-1.3-7.2-1-11l1-2.3z"/>
  <path fill="#773518" d="M45 145c2.6-3.7 7.3-7 12-4 4-.5 7 2.2 6 6l-5-1.1c-1-.5-2.2-1.1-2.1.5l-1.2 3.7c-2.4-1.4-2.7-4-3.4-6.4 2 5.4-2 8-5.4 10.6l-1-1.1.1-8.1z"/>
  <path fill="#bcaba0" d="M100 144.3c.7-1.3.4-3.8 2-4.2-1 2.3 1.3 3.9 3 2l-1 3.1c-1.3-.2-2.8-.2-4-.9z"/>
  <path fill="#796159" d="M102 140.1c1.3-.7 3.2.5 3 2-1.7 1.9-4 .3-3-2z"/>
  <path fill="#e1bc95" d="M21.8 142.2c3.3-3.1 2.4 4.5 6 3.4.4 3.6 2.3 7 2.1 10.6-1.8-3.1-2.8-7.2-6.6-8.5l-1-3-.5-2.5z"/>
  <path fill="#804f39" d="M76.9 144.2c3-1.3 6.2-1.9 9-3.3l1.5 1.3c-1.3 3-5 4.2-5.5 7.7l-2.1 3c-1.8 1.5-3.6 3.4-3.7 5.8l-.1 1c-1.3.5-2.4 1.4-3.4 2.3-.8-.8.1-2.1 0-3.1-1.2.2-2.4.5-3.5 1l-2.3-9.7c-1.3.6-3.9 3.2-4 .3 2.7-2 3.1-5.4 3.2-8.4 1.7.9 2.3 3.6 4.3 3.5 1-1.9 7.3 2.4 6.6-1.4z"/>
  <path fill="#743f29" d="M87.4 142.2l5-.9-1.6 3.7c-.7 1.8-.5 4-.6 6v1c-2.8 2.6-6.2 4.6-10.2 4l-.2-3.1c3.3 2.9 6.1-.6 6.3-4-1.5 0-2.9.5-4.2 1 .5-3.5 4.2-4.7 5.5-7.7z"/>
  <path fill="#70574e" d="M123.9 143.9a68 68 0 012.3-2.2c.6 1.6 1.6 3.2 1.6 5-1.5 1-3 2-2.8 4.1l-2 2.2c-1 .5-2.1 1-3.2 1.3-.5 0-1.4-.4-1.8-.5-1-.8-2.3-1.4-2.8-2.6 3.1-.7 4-4.5 6.8-5.2 1.2-.5 4.3-.8 1.9-2.1z"/>
  <path fill="#c17344" d="M97 142.9l3 1.4c1.2.7 2.7.7 4 1h1l.3 1c-3.4-.6-6.9 1-6.7 5L98 149c-.2-2.1-.6-4.2-1-6.2z"/>
  <path fill="#8b5238" d="M51.3 143.7c.7 2.3 1 5 3.4 6.4l1.2-3.7c1.8 2-.5 4.2-.6 6.3a6.7 6.7 0 01-5 1.1c-1.5-1-3.2 2.2-4.4.5 3.5-2.6 7.4-5.2 5.4-10.6z"/>
  <path fill="#b7b1ac" d="M22.2 144.8l1 2.9c0 3.4-.2 7-.4 10.4H22l.1-13.3z" opacity=".8"/>
  <path fill="#daa87c" d="M31 149.8c.2-1.5.2-4.5 2-4.6-.2 3.3-1.4 7.9 3 6.9v1c-2.6.3-4.5-.6-5-3.3z"/>
  <path fill="#b87550" d="M33 145.2c1.3.2 3.1-.3 3.2 1.6L36 151v1.2c-4.4 1-3.2-3.6-3-6.9z"/>
  <path fill="#ab7d67" d="M55.9 146.4c0-1.6 1-1 2-.5l.8 2.3c.7 3.5 2.8 6.4 4.8 9.2 1.7 1.2 4.7 1.2 4.6 3.8-1.9.2-3.8.1-5.7 0 .7-3.5-4.4-6.7-7.6-5.4.3-1 .6-2 .5-3 .1-2.2 2.4-4.5.6-6.4z"/>
  <path fill="#703015" d="M90.2 151c.1-2-.1-4.2.6-6 1.6 2.5 3.9 6.7 7.3 4l.5 2.3.4 1.9c-3.2 0-6-1-8.8-2.3z"/>
  <path fill="#d38e5c" d="M98.6 151.3c-.2-4 3.3-5.6 6.7-5l3.7-.2-.3 1c-2 1.5-4.2 2.5-6.4 3.8-1 1.1-2.4.7-3.7.4z"/>
  <path fill="#d1aa8c" d="M36.2 146.8l2.6 3c-.5 2.4-1.2 4-2.8 1.1l.2-4z"/>
  <path fill="#a9603b" d="M102.3 150.9c2.2-1.3 4.5-2.3 6.4-3.8l5.1 1.8c-3.7-.9-3.3 3.5-5.6 5-.2-3.8-5.6-4-4.5.3l-.7-.1-.7-3.2z"/>
  <path fill="#f3e2c6" d="M23.3 147.7c3.8 1.3 4.8 5.4 6.6 8.5 0 2.7.8 5.7-.8 8.1-1-1-1.8-1-2.3 0-1.3.5-2.4-.5-3.5-1-.1-1.8-.2-3.5-.5-5.2l.5-10.4z"/>
  <path fill="#8e5c45" d="M58.7 148.2c2-.4 3.7.1 4.2 2.3 0 2.9 2.6.3 4-.3l2.1 9.7-.9 1.3c.1-2.6-2.9-2.6-4.5-3.8-2.1-2.8-4.2-5.7-5-9.2z"/>
  <path fill="#67301b" d="M81.9 149.9c1.3-.5 2.7-1 4.2-1-.2 3.4-3 6.9-6.3 4l2-3z"/>
  <path fill="#d68953" d="M108.2 154c2.3-1.6 2-6 5.6-5.1l.5.6c-3.8-.1-1.6 3-.1 4.3 2.3 2.2 2.6 6.3 5.7 7.4l2 2.5c-1 .4-1.7 1-2.2 2a9.5 9.5 0 00-3.7 2.2c-1.7-4.9-1.4-13.8-9.3-12.8l.7-.6.8-.6z"/>
  <path fill="#e9c498" d="M31 149.8c.5 2.7 2.4 3.6 5 3.3v1.8l-.3 2.7c-1.4.6-1.6 2.1-2 3.4l-2.8-3a10 10 0 001.7 6l-1.5 1.4-2-1c1.6-2.5.8-5.5.8-8.2l2 .7a22 22 0 01-.8-7.1z"/>
  <path fill="#9d5c3c" d="M36 151c1.6 2.9 2.3 1.2 2.8-1.3 1 1 1.6 2.2 2.4 3.3a5.5 5.5 0 011 5c-.6 1.9.5 3.4 1.4 5l-.4 1.3c-2.2 1.2-3.3-1-4.5-2.4 2-3.2-.3-5-2.6-7l-.1-1.8V151z"/>
  <path fill="#d8a071" d="M114.2 153.8c-1.5-1.4-3.7-4.4 0-4.3l.6.8.4 1c.5 1.1 1.8 1.7 2.8 2.5-1.2 1.8 3 4.7 2 7.4-3.2-1.1-3.5-5.2-5.8-7.4z"/>
  <path fill="#883d19" d="M90.2 151c2.8 1.1 5.6 2.2 8.8 2.2 1.3.3 2.6.7 4 .9l.8.1c1.1.3 2.4.2 3.6.3l-.7.6-1.6 1c-3.4 0-6.7-.3-10-1.4l-5-2.8v-1z"/>
  <path fill="#c77542" d="M98.6 151.3c1.3.3 2.7.7 3.8-.4l.6 3.2c-1.4-.2-2.7-.6-4-1l-.4-1.8z"/>
  <path fill="#5b2513" d="M103.8 154.2c-1.2-4.3 4.2-4.1 4.4-.3l-.8.6c-1.2 0-2.5 0-3.7-.3z"/>
  <path fill="#9c8c85" d="M125 150.8c1.2.2 2.3.5 3.4 1-1.6 1.4-3.4 2.1-5.4 1.2l2-2.2z"/>
  <path fill="#934824" d="M90.1 152l5 2.7c-2 0-3.3.9-3.5 3-2.9.8-5.9 1.4-8.8 1.6l-2.7-1.2v-2c3.9.5 7.3-1.5 10-4.2z"/>
  <path fill="#b8a296" d="M123 153c2 1 3.8.3 5.4-1.3l-1.3 4.4-.8-.3c-1.9-1.7-4.3-.9-6.5-1.5l3.2-1.3z"/>
  <path fill="#b7876a" d="M128.4 151.7c2.2.3 2.6 2.8 3.5 4.5l-.2 3.1-1.5-.4-.5-4c-1 .8-1.7 2-2.2 3.1l-.4-1.9 1.3-4.4z"/>
  <path fill="#aa7b64" d="M41.2 153c1 .2 2 .5 3 .3l.7-.1 1 1c1.2 1.8 2.9-1.3 4.3-.4.6 2.1 1.2 4.3 2.7 6-1.6.1-3.3.2-3.2 2.3 0-3.8-4-4-5.7-1.1-.1-1.9.6-5.3-1.9-3 .5-1.8.3-3.5-.9-5z"/>
  <path fill="#966753" d="M50.2 153.8c1.8.4 3.6 0 5-1 .1 1-.1 2-.4 3-.5 1.4-.8 2.8-1.1 4.3l-.8-.3a13.9 13.9 0 01-2.7-6z"/>
  <path fill="#642914" d="M76.1 158.8c.1-2.5 1.9-4.4 3.7-6l.2 3.3.1 2-1.2 4.2c-1.7-.4-2-2.2-2.8-3.6z"/>
  <path fill="#dfcbaf" d="M120 161.3c1-2.8-3.2-5.7-2-7.5l1.8.5c2.2.6 4.6-.2 6.5 1.4l-1 7.1c.4 3-1.9 2.1-3.4 1l-2-2.6z"/>
  <path fill="#c57749" d="M36 155c2.4 1.8 4.7 3.7 2.7 6.9-2.7.1 0 3.6-1 5.3a45 45 0 01-2-4.3c-.2-1.7-.4-3.5 0-5.3l.4-2.7z"/>
  <path fill="#c29c83" d="M54.8 155.8c3.2-1.3 8.3 1.9 7.6 5.3l-.4.8c-2.2-.7-4.5-1-6.4-2.1l-.8-4z"/>
  <path fill="#ac5325" d="M91.6 157.7c.2-2.1 1.5-3 3.6-3 3.2 1.1 6.5 1.5 9.9 1.4l-2 1c-1.9.5-3.8.8-5.8.6-2-.4-3.1 2.3-5.3 1.7-1.4-.1-2.7.4-4 .7-1.8-.1-3.6 0-5.2-.8 3-.3 5.9-.8 8.8-1.6z"/>
  <path fill="#cf7138" d="M105 156.1l1.7-1c8-1 7.6 7.9 9.3 12.8 1-1 2.3-1.8 3.7-2.2.2 2.3 1 5.3-1.6 6.6-.8-2-3-3.3-5-2.7a10 10 0 00-1.9-5.8c1-4.8-4.8-1.9-4.8 1h-1.2c-1-.6-2-1.3-3.2-1.7-2 1.4-4.2 2.7-6.5 1 4.2 0 6-3.6 7.6-7l2-1z"/>
  <path fill="#dbd0bf" d="M127.5 158c.5-1.2 1.3-2.3 2.2-3.2l.5 4c.5 1.8.8 3.7 2 5.1 2 .5 2-1.7 2.7-3 1.2 7 2.8 14 4.3 20.9 0 3.3.3 6.7 0 10.1l-.1 1c-.7 0-2 0-2.8-.2-1-3.4-1.9-7-4.2-9.9l-.8-1c-.8-2-1.6-4.2-3.1-6l-1-2.9-.5-4.7c.2-3.4.3-6.8.8-10.2z"/>
  <path fill="#af826b" d="M53.7 160.1c.3-1.5.6-3 1.1-4.3l.8 4c2 1 4.2 1.4 6.4 2l-1 2-1.2 1.2-2.7-2-.3 3.2-.8-.2c0-2.2-1.3-4-2.3-5.9z"/>
  <path fill="#d7a275" d="M126.3 155.8l.8.3.4 2c-.5 3.3-.6 6.7-.8 10.1a199.4 199.4 0 00-1.4-5.4l1-7z"/>
  <path fill="#bb9983" d="M131.7 159.3c2 1 2-2.5 3.1-3.5.2 1.4.3 2.9.3 4.3l-.2.8c-.7 1.3-.8 3.5-2.8 3-1-1.4-1.4-3.3-1.9-5 .4 0 1.2.3 1.5.4z"/>
  <path fill="#c1a390" d="M42.1 158c2.5-2.3 1.8 1.1 2 3 1.5-3 5.7-2.7 5.6 1l-.8 4-.6-.4c.2-2.5-2.6-3.6-4.6-2.7-1-1.5-2.1-3-1.6-4.9z"/>
  <path fill="#c8642b" d="M92 159.4c2.2.6 3.3-2 5.3-1.7 2 .2 4-.1 5.8-.5-1.6 3.3-3.4 7-7.6 7-1.7-.1-3-1-4-2.3l.5-2.5z"/>
  <path fill="#777472" d="M22 158h.8c.3 1.8.4 3.5.5 5.2l-.5 1.6-.7.1v-6.8z" opacity=".5"/>
  <path fill="#ebab72" d="M31 158l2.6 3c.5-1.3.7-2.8 2-3.4-.3 1.8-.1 3.6.1 5.3-.5.4-1.8 3.6-1.6 1.2 0-2.9-.6-2-1.5 0a10 10 0 01-1.7-6.2z"/>
  <path fill="#ad6641" d="M80.1 158c.9.5 1.8 1 2.7 1.3 1.6.8 3.4.7 5.2.8l-.2 1h-.7c-2-.1-4 0-5.8 1l.9 4.1-.4.9-2.9-4.8c.5-1.4 1-2.8 1.2-4.2z"/>
  <path fill="#6e331a" d="M69 159.9c1.2-.5 2.4-.8 3.7-1 0 1-.9 2.3-.1 3.1l1.7 2.1c1 1 2.4 2.2.5 3.2h-1l-.9-.1-.7-1.4c-.3-3-5.6-.6-4-4.6l.8-1.3z"/>
  <path fill="#8b401c" d="M76.1 158.8c.7 1.3 1.1 3 2.8 3.5l2.9 4.8-1.5 3.3-1.7-2c-1.3-.8-3.8 1.4-3.8-1 2-1.1.4-2.2-.5-3.3 1.6-1 1.7-2.7 1.7-4.4l.1-1z"/>
  <path fill="#e5a264" d="M88 160.1c1.3-.3 2.6-.8 4-.7l-.4 2.5-.6 2a23 23 0 01-3.2-2.8l.2-1z"/>
  <path fill="#91563b" d="M49.7 162c0-2 1.6-2.1 3.2-2.3l.8.4c1 1.9 2.2 3.7 2.3 5.9l-.8-.2c-1.4-2.3-2.2-5.9-5.5-3.7z"/>
  <path fill="#ba7f5b" d="M72.6 162c1-1 2.1-1.8 3.4-2.3 0 1.7-.1 3.4-1.7 4.4l-1.7-2z"/>
  <path fill="#7f4024" d="M49.7 162c3.3-2.1 4.1 1.5 5.5 3.8.4 1.4.8 2.8.9 4.3-2 .2-3.7-1-5.3-2l-1.9-2 .8-4z"/>
  <path fill="#8f5e49" d="M62.4 161.1c1.9.2 3.8.3 5.7 0-1.5 4 3.8 1.7 4 4.7-2.3-1.6-4 0-5 2.3.9-4-3.6-3.2-6.2-4.2l1-2 .5-.8z"/>
  <path fill="#de9e66" d="M81.3 162a11 11 0 015.8-1c-.3 2.4-3.8 1.8-3.2 4.7l-1.8.5-.8-4.1z"/>
  <path fill="#f5c081" d="M87.1 161h.7c1 1.1 2 2 3.2 3 3 2.5 6.1 5.2 7 9.2l1.2 7.2c1.6.5 4.6 0 3.8 2.5.3 2-2.9.8-4 1.4-.6-4.4-.8-10.2-6.2-11.2 3.3-3.7-4.3-4-6.6-5.3l-1.1-1-1.2-1c-.6-3 2.9-2.4 3.2-4.7z"/>
  <path fill="#efa660" d="M106.5 164.7c-.1-2.8 5.8-5.7 4.7-1l.4 4.1c-3 1-9.6 2.4-8.5-2.7l2.1-.3h1.3z"/>
  <path fill="#da905a" d="M32.6 164c.9-2 1.5-2.8 1.5 0-.1 2.5 1.1-.7 1.6-1a45 45 0 002 4.2c0 1.7-.4 3.3-.5 5l-1.2 2.1-.8-.2v-.9c.5-2.4 1.7-5.3-1.1-6.3-1-.7-2.1-.5-3.2-.8l.2-.7 1.5-1.3z"/>
  <path fill="#e5ac78" d="M37.7 167.2c1-1.7-1.7-5.2 1-5.3 1.2 1.4 2.3 3.6 4.5 2.4l-1 3c-.7-1-1.8-1.5-3.1-1.4v4l-2 2.3c.2-1.7.5-3.3.6-5z"/>
  <path fill="#e4cbad" d="M43.6 163c2-1 5 0 4.7 2.6-1-.5-1.8-1.3-3-1.5-1 1.4-1 4.8-3.2 3.2a44.8 44.8 0 001.5-4.4z"/>
  <path fill="#e38b4b" d="M91 164l.6-2.1c1 1.3 2.2 2.2 3.9 2.3 2.3 1.6 4.6.3 6.5-1.1 1.2.4 2.2 1.1 3.2 1.7l-2.1.3c-1.1 5.1 5.6 3.6 8.5 2.7l-.4-4a10 10 0 011.9 5.8c-1.6.3-3 .6-4.5 1.3-3.6 2.7-5.8-1.3-8.6-3-2.6.5-2.2 3.3-1 5l-1 .3c-.9-4-4-6.7-7-9.3z"/>
  <path fill="#ebc396" d="M23.3 163.2c1 .7 2.2 1.6 3.5 1v1.7a4 4 0 01-4-1.1l.5-1.6z"/>
  <path fill="#c7723f" d="M26.8 164.2c.5-.8 1.3-.8 2.3.1l2 1.1-.2.7-4 1.9a146.1 146.1 0 010-3.8z"/>
  <path fill="#c4a38d" d="M57.1 163c1 .6 1.8 1.3 2.7 2l.2.7-1.4 2.5c-1-.4-1.5-1-1.8-2l.3-3.2z"/>
  <path fill="#d48a57" d="M125.3 162.8l.8 3.1c-1 1-2 1.8-3 2.4l-1.3-3.7v-.9c1.6 1.2 4 2 3.5-.9z"/>
  <path fill="#f4e9d3" d="M45.3 164.1c1.2.2 2 1 3 1.5l.6.4 2 2.1c.4 2.4 1.2 4.8 2 7l-.9 4c-4.5 1-8.3-1-12-3-1.2-1.6-4.2.7-4-1.8l1.2-2L39 170l2.8.8c.2-1-1.7-3.7.2-3.5 2.3 1.6 2.3-1.8 3.2-3.2z"/>
  <path fill="#794028" d="M59.8 165l1.1-1.1c2.6 1 7 .2 6.3 4.2l-.3.9c-2 2-4.1-2.5-4.2.8l-.8-.9c.2-1.4-.6-2.7-1.9-3.3l-.2-.6z"/>
  <path fill="#bb5c29" d="M119.7 165.7c.5-1 1.2-1.6 2.2-2v1c-.4 2.6-.9 7.9-1.1 10.5l-2.7-3c2.6-1.2 1.8-4.2 1.6-6.5z"/>
  <path fill="#c1a794" d="M22.1 165l.7-.2c.2 2.3-.2 5.1 2.1 6.6v1.7c-2.7-1.7-3.3 0-3.3 2.5-1 3.9 1.3 7.9-1.1 11.5l-2.2-1.2c1.1-7 3.2-13.9 3.8-21z" opacity=".9"/>
  <path fill="#d49c72" d="M22.8 164.8a4 4 0 004 1l.2 2.2-.1.8-2 2.6c-2.3-1.5-1.9-4.3-2.1-6.6z"/>
  <path fill="#eddbbf" d="M67.2 168.1c1-2.2 2.6-3.9 5-2.3l.7 1.4c.5 3.5.6 7.2-1.9 9.9l-3.9 1-.8-6.2.6-3 .3-.8z"/>
  <path fill="#a0481c" d="M120.8 175.2l1-10.6 1.3 3.7c.2 2.3 2.3 3.6 4 4.6.4 1 .8 2 1 3-1.5-1-3.3-1.6-5.1-1.7.9 3 3.8 7.9 0 9.7a9.2 9.2 0 01-4.2-4.9c-.8-1.7-2.2-2.9-3.5-4.1 0-.5-.3-1.5-.5-2-.5-2.8 1.8-1.2 3.3-.7l2.7 3z"/>
  <path fill="#9a471e" d="M27 168l4-2c1 .4 2.2.3 3 .9 0 2.2.5 4.3 1.3 6.3l-.1.9-.2 2c-.7-1-1.3-2.2-2.8-2l-1.3 3.8c-1-.2-1.3-1.2-1-3 0-1.2.7-3.4-1.2-2.3-2.6 1.4-1.5-2.3-1.8-3.8v-.8z"/>
  <path fill="#f2c89a" d="M39 166c1.4-.2 2.5.2 3.1 1.3-2-.2 0 2.4-.2 3.5l-2.8-.8v-4z"/>
  <path fill="#c6703d" d="M55.2 165.8l.8.2.8.2c.3 1 .9 1.6 1.8 2 1 .6 2.2.4 3.3.7l.9 1c0-3.4 2 1.1 4-1l-.5 3c-1.6 2.5-3.3-1.2-5.3-1-1.3-.3-1.9 1.3-2.8 1.9-2.8-.8-6.5-2.1-4.3 1.3v.9l-1 .1c-.8-2.3-1.6-4.6-2-7 1.5 1 3.2 2.2 5.2 2-.1-1.5-.5-2.9-1-4.3z"/>
  <path fill="#9c593a" d="M58.6 168.2c.3-.6 1-2 1.4-2.5 1.3.5 2 1.8 1.9 3.2-1-.3-2.4 0-3.3-.7z"/>
  <path fill="#c5642d" d="M82.2 166.2l1.7-.5 1.2 1.1v5.1l-3 5.4-3-1.3 1.2-5.7 1.5-3.2.4-.9z"/>
  <path fill="#bd6433" d="M123 168.3c1.2-.6 2.1-1.5 3-2.4l.7 2.3.5 4.8c-1.8-1.1-3.9-2.4-4.2-4.7z"/>
  <path fill="#bf6533" d="M34 166.9c2.9 1 1.8 3.8 1.3 6.3-.8-2-1.3-4.1-1.2-6.3z"/>
  <path fill="#f1b271" d="M73 167.2h.8c0 3.6 5.3 3.9 4.2 7.6-1.8 1.1-3.9 1.6-5.8 2.5A585.2 585.2 0 0072 199l-1 .1c0-3 0-5.8-.4-8.7L71 177c2.5-2.8 2.5-6.4 2-10z"/>
  <path fill="#e28d4d" d="M73.8 167.3h1c0 2.5 2.5.3 3.8 1l1.7 2L79 176c-.3 3-1.8 6.1.1 8.9 1.3.5 2-1.2 2.8-1.9v1l-.3 2.7a35 35 0 00-1.8 2.8l-.5.6c-1-2.2-4-5.2-6.6-3.4l-.8.3c0-3.2 0-6.5.2-9.7 1.9-.9 4-1.4 5.8-2.5 1.1-3.7-4.3-4-4.2-7.5z"/>
  <path fill="#da8c54" d="M85.1 166.8l1 1c1.6 1.3 2.3 2.8.7 4.5l-.8-.2-1-.2.1-5z"/>
  <path fill="#efae75" d="M86.2 167.8c2.3 1.4 10 1.6 6.6 5.3h-4l-2-.8c1.6-1.7 1-3.2-.6-4.5z"/>
  <path fill="#cf6f36" d="M99 172.9c-1.2-1.7-1.6-4.5 1-5 2.8 1.7 5 5.7 8.6 3-.1 2.6 2.5 2 4.3 2.1-1.1 1.7-.4 3.4.3 5.1a5 5 0 002.1-3.2c1.3 1.2 2.8 2.4 3.5 4.1l-2.8.8c-2.4 0-4.1 1.7-5.7 3.3l-1-2.1c-1-1.3-1-2.7-.7-4.1-1.8.6-3.5 1.9-5.4 2-1.9-1.8-2.2-4.5-4.3-6z"/>
  <path fill="#b46b44" d="M25 171.4l1.9-2.6c.3 1.5-.8 5.2 1.8 3.8 1.9-1.1 1.2 1.1 1.3 2.3l-4 3.2-1.1-5v-1.7z"/>
  <path fill="#c46129" d="M113 169.6c2.2-.5 4.3.7 5 2.7-1.4-.6-3.7-2.2-3.2.7H113c-1.8-.1-4.4.5-4.3-2.1 1.4-.7 3-1 4.5-1.3z"/>
  <path fill="#e99957" d="M58.3 172.8c.8-.6 1.4-2.2 2.7-1.8 2-.3 3.7 3.4 5.3.9l.8 6.2v.8c.7 4.2-3.4 7.4-7 8.1-2.8.8-1.5-3-3.8-3.4-1.5-1.2-3.4 0-5 .4l.2-.9c.3-1.3.4-2.7.5-4l1-4 .9-.1.2 2c1.4 1.5 3.6 2.5 4.2 4.7.7 1.3.4 3.9 2.6 3.2 1.2-2.7 1.3-8.6-2.7-8L57 174l1.1-1.3z"/>
  <path fill="#d09267" d="M21.6 175.6c0-2.6.6-4.2 3.3-2.5.3 1.7.7 3.3 1.2 5h-1l-3.5-2.5z"/>
  <path fill="#914018" d="M54 174c-2.3-3.3 1.4-2 4.3-1.2l-1.2 1.3h-3.2z"/>
  <path fill="#f7d19d" d="M85 172l1 .1c.2 2.7.3 5.5-2.8 6.3.9 1.2 2 2.3 3 3.4l-.2 2c-1.5-1-3.2-2.3-4 .3v-1-5.8c1.2-1.7 2.1-3.5 3-5.4z"/>
  <path fill="#f9f1dd" d="M86 172.1l.8.2 2 .8c1.4 1.2 3.6 2 4.2 3.8-.7 1.6-3.1 3.5-1 5a5 5 0 011.2 3l-7-3-3-3.5c3-.8 3-3.6 2.8-6.3z"/>
  <path fill="#f6dfb9" d="M88.8 173.1h4c5.4 1 5.6 6.8 6.2 11.2l.2 1-3 .9c.3-3-2-4.8-4-6.3l-.3 2c-2-1.5.4-3.4 1-5-.5-1.8-2.7-2.6-4-3.8z"/>
  <path fill="#eca767" d="M98 173.2l1-.3c2 1.5 2.3 4.3 4.2 6 2-.1 3.6-1.4 5.4-2-.3 1.4-.2 2.8.6 4 0 4-5 2.3-6.5 5.2l-3.5-.8-.2-1c1.1-.6 4.3.6 4-1.4.8-2.6-2.2-2-3.8-2.5l-1.3-7.2z"/>
  <path fill="#e38b4a" d="M113 173h1.8l.5 1.9a5 5 0 01-2.1 3.2c-.7-1.7-1.4-3.4-.3-5z"/>
  <path fill="#a85830" d="M32.2 174c1.5-.1 2 1.2 2.8 2.1l-.2 3.8H33l1.2-2.6-3.3.6 1.3-3.8z"/>
  <path fill="#d4ac8a" d="M35.2 174.1l.8.2c-.2 2.5 2.8.2 4 1.7.4 1.6.9 3.2.8 4.8-2-.3-4 0-6.1 0v-.9c.2-1.3.3-2.5.3-3.8l.2-2z"/>
  <path fill="#b75723" d="M54 174h3l1.2 2.8-4.1.2-.2-2v-1z"/>
  <path fill="#7b3f24" d="M123 174.2c1.8 0 3.6.7 5.2 1.7 1.5 1.7 2.3 3.8 3 6-1 2.6-.8 5 .4 7.2.5 1.6 1 3.2 1.7 4.8l-1.4 2.6-4.6-7.7c-.9-2-2.5-3.7-4.4-4.9 4-1.8 1-6.7 0-9.7z"/>
  <path fill="#7d4731" d="M26 178.1c1.4-1 2.7-2.2 4-3.3-.4 1.9-.1 2.9.9 3l3.3-.5-1.2 2.6-1.8 1.3c-1 .9-2 1.4-3.4 1.2L26 178z"/>
  <path fill="#b7876b" d="M20.5 187.1c2.4-3.6.1-7.6 1.1-11.5l3.6 2.6c-3.5 1-1.7 4.9-1.6 7.7-2.7 3.4-3.8 7.8-5 12-.7 2.3-1.3 4.7-1.7 7-.6 3.4-1.5 6.7-2 10.1-.2 4-1.9 8.3-.2 12l.3.8-.2 2c-.6 3-.9 6.3-.6 9.4l-.2 1.9-.9-.1-1-1.2-.2-5.6c-.2-4.4.4-9-.4-13.4.6-5 4.5-10.1 2.7-15.1l1-3.6c2-5 3.7-10 5.3-15z"/>
  <path fill="#f0d5ad" d="M40 176c3.7 2 7.5 4 12 3-.1 1.4-.2 2.8-.5 4.1-.7-.5-1.5-.5-2.4 0-2.8-.3-5.6-.4-8.2-1.4v-.9c0-1.6-.5-3.2-1-4.8z"/>
  <path fill="#d7763a" d="M79.1 176c1 .5 2 1 3 1.3v5.7c-1 .7-1.6 2.4-2.9 1.9-1.9-2.8-.4-6 0-8.9z"/>
  <path fill="#d57538" d="M54 177l4.2-.2c4-.5 4 5.4 2.7 8-2.2.8-1.9-1.8-2.6-3.1-.6-2.2-2.8-3.2-4.2-4.7z"/>
  <path fill="#f8d29b" d="M67.1 178.1l4-1-.4 13.2a29 29 0 01-.9-4.5c1.2-3.1.7-5.1-1.5-6l-1.1-.9v-.8z"/>
  <path fill="#a26141" d="M25.2 178.2h.9c.5 1.3 1 2.8 1.7 4.2a55 55 0 00-.7 2.5l-1.5 5c-1 3-1.7 6-1.5 9.2l-2.9 5-.4-2.3.3-1.5c1.1-4.8 3.3-9.5 2.5-14.4-.1-2.8-1.9-6.7 1.6-7.7z"/>
  <path fill="#f4bd84" d="M67.2 179c.3.1.8.6 1 .8l-1 6.4c-4 1-6.5 4-8.3 7.7l-2.8.3c4.2-2.8-1-5.7-4-6-1 4.4-1 9-1.2 13.5l-3.7 4.6c0-5 3.2-9.5 2.6-14.5l1.5-7.8c1.6-.4 3.5-1.6 5-.4 2.3.4 1 4.2 3.7 3.4 3.7-.7 7.8-4 7.2-8z"/>
  <path fill="#cc8759" d="M116 179.8l2.8-.8a9.2 9.2 0 004.1 5c2 1.1 3.5 2.7 4.4 4.8-3.8-2.1-7-5.3-11.1-7l-.6 3.4c-.5-1.3-.6-2.8-.7-4.2l1-1.2z"/>
  <path fill="#a97e77" d="M31.2 181.2l1.8-1.3h1.8l-.1 1c-.8 5.6-6.5 11.5-3.4 17.2l-.2.8c-1 2.5-2 5-3.5 7.4l-.3-5.7v-.7c3.5.7-.9-3-.2-4.8 1.8-4.5 4-9 4.1-13.9z"/>
  <path fill="#dfcaba" d="M34.7 180.9c2-.2 4-.4 6.1 0v.8c-1.3 2.2.2 4.8.3 7.1l-2.1 2.4c-1.5-1.5-2.7-3.4-5-3.4-.2-2 .8-4.3 3.1-3.2-.8-1.3-1.7-2.4-2.4-3.7z"/>
  <path fill="#f6deb5" d="M68.3 179.8c2.2.9 2.7 2.9 1.5 6-1.1 5.3-6.3 7-11 8 1.9-3.6 4.3-6.6 8.4-7.6l1-6.4z"/>
  <path fill="#e6b07e" d="M92.1 180c2.1 1.4 4.4 3.3 4 6.2a482.8 482.8 0 01-2 6.8l-.2-5.8c-2-1.4-4.6-1.5-6.8-2.5L86 184l.2-2 7 3a5 5 0 00-1.3-3l.2-2z"/>
  <path fill="#864425" d="M110.3 183c1.6-1.5 3.3-3.2 5.7-3.2l-1.1 1.2c-1.7 2.7-.1 6.5-1.7 9.4a239.4 239.4 0 00-5.5-4.4l2.6-3z"/>
  <path fill="#966e64" d="M27.8 182.4c1.3.2 2.4-.3 3.4-1.2-.1 5-2.3 9.4-4 13.9-.8 1.8 3.6 5.5 0 4.8.3-2.6-1.7-1.2-3.1-.8-.2-3.2.5-6.3 1.5-9.3 2 2.6 2-3.3 3.2-4.7l-1.7-.2.7-2.5z"/>
  <path fill="#c3a592" d="M31.3 198.1c-3.1-5.7 2.6-11.6 3.4-17.2.7 1.3 1.6 2.4 2.4 3.7-2.3-1.1-3.3 1.2-3.1 3.2-.8 3.5-1.6 7-2.7 10.3z"/>
  <path fill="#c67e50" d="M109.2 181l1 2-2.5 3c-1.6.6-3.4.8-5 0 1.4-2.8 6.4-1 6.5-5z"/>
  <path fill="#c16531" d="M113.2 190.4c1.6-2.9 0-6.7 1.7-9.4.1 1.4.2 2.9.7 4.3l1 2.9c1.4 4 3.2 8 6.3 11 .9 1.5 1.6 3 2.3 4.7-2-1.3-3.2-3.5-5-5 .4 2.4.8 4.8.7 7.3-2.1-1.9-2.6-4.9-3.7-7.4-.9-3-1.6-6.2-4-8.4z"/>
  <path fill="#efe0c9" d="M41.1 188.8c0-2.3-1.6-4.9-.2-7 2.6.9 5.4 1 8.2 1.3l-6.9 1c.9 3 2 5.7 1.8 8.8-.9 2.5-3.3 4.3-3 7.1 2-.2 4-.7 6.1-1l-.9 4.2c-3 1.4-6.5-1.2-9.1 1.5-1.4-.1-2.7 0-4 .3l2.2-4.9c3.7.4 4.3-4.2 6.3-6.3 2-1.5-.1-3.3-.5-5z"/>
  <path fill="#f5ead5" d="M49 183c1-.4 1.8-.4 2.5.1l-.2 1c-.5 2.5-1.1 5-1.5 7.7-.8 2.4-1.6 4.8-2.7 7.2-2 .3-4 .8-6.2 1-.2-2.8 2.3-4.6 3.1-7 .3-3.2-1-6-1.8-8.9l6.9-1z"/>
  <path fill="#f7e4c1" d="M82 184c.8-2.5 2.5-1.3 4-.1l1.1.8c-2 .3-3.3 2-4.6 3.4l-.8-1.4.3-2.6z"/>
  <path fill="#e4c6a1" d="M116.2 181.9c4 1.6 7.3 4.8 11 7 1.7 2.4 3.2 5 4.7 7.6.6 1.2 1.4 2.3 2.2 3.3.5 2 1 4 .9 6-1.6.9-3.4 1-5 1.3l-4.8-3.2c-.7-1.6-1.4-3.2-2.3-4.7a686 686 0 00-1.2-6.8c-1.6-1.5-3.4-2.8-5-4.2-.4-1-.8-2-1-3 0-.8.3-2.5.5-3.3z"/>
  <path fill="#a86c4d" d="M131.3 181.8l.8 1c.3 2.1.1 4.3-.5 6.3a8.3 8.3 0 01-.3-7.3z"/>
  <path fill="#b0a19a" d="M139.2 181.8c1.4 3.9 2.3 8 3.6 12l-1.1 2.4c-.7-1.5-.3-4.1-2.4-4.3.2-3.4 0-6.8 0-10.1z" opacity=".9"/>
  <path fill="#debb97" d="M132.1 182.8c2.3 2.9 3.3 6.5 4.2 10l2.8.2-.2 1.8c-1.4.3-2.9.8-4.3 1.4l-1.3-2.3-1.7-4.8c.6-2 .8-4.2.5-6.3z"/>
  <path fill="#b4978d" d="M27 184.9l1.8.2c-1.2 1.4-1.2 7.3-3.2 4.8.4-1.7 1-3.4 1.5-5z"/>
  <path fill="#f8f2e1" d="M82.5 188.1c1.3-1.4 2.6-3 4.6-3.4 2.3 1 4.8 1.1 6.8 2.5l.2 5.8c-2.3 2-2.1 5-2.3 8-4.9 1.1-7.6-3.5-7.5-8l-1.8-4.9z"/>
  <path fill="#eec89c" d="M99.2 185.3l3.5.8c1.6.8 3.4.5 5 0l2.4 1.8v1l-3-1c.2 3.8-.2 7.8-2.2 11.2a23 23 0 01-2-1.7c3.3-1.9 2.4-6.3 1-9.2l-1.9.7-6.4-.8.6-2 3-.8z"/>
  <path fill="#bcada5" d="M18.3 186l2.2 1.1c-1.6 5-3.3 10-5.3 15l-1.8.3c-2.7 5.5-4 11.6-7.4 16.7 2.5-11.5 8.6-22 12.3-33.2z" opacity=".9"/>
  <path fill="#dcc1a9" d="M18.5 197.8c1.3-4.2 2.4-8.5 5.1-12 .8 5-1.4 9.8-2.6 14.5-1.4-.3-2.2-1-2.5-2.5z"/>
  <path fill="#f8ecd5" d="M58.9 193.8c4.6-1 9.8-2.7 11-8 .1 1.5.4 3 .8 4.5.3 2.9.3 5.8.4 8.7 0 1.6 0 3.2-.3 4.8-4 2.4-8.6-.3-12.8-.7l-4.1-.2c.5-2.9.5-6.2 2.2-8.7l2.8-.3z"/>
  <path fill="#cb7b4b" d="M72.8 186.7c2.6-1.8 5.6 1.2 6.6 3.4l-1.5 6c-1.5 1.2-3.2.6-4.7-.3l-.4-9.1z"/>
  <path fill="#da935f" d="M72 187l.8-.3.4 9c1.5 1 3.2 1.6 4.7.4.1 2.6.7 5.2 1 7.9a5.4 5.4 0 00-5.8 0c-.2-1.5-.4-2.9-.8-4.3l-.2-.8L72 187z"/>
  <path fill="#f7ca8e" d="M79.9 189.5a35 35 0 011.8-2.8l.8 1.4c.6 1.7 1.3 3.3 1.8 5-2.8 2.5-2.2-2.6-4.4-3.6z"/>
  <path fill="#e6d5c9" d="M34 187.8c2.3 0 3.5 2 5 3.4l2.1-2.4c.4 1.7 2.5 3.5.5 5-2 2.1-2.6 6.7-6.3 6.3-1.4-.5-2.8-1-4.2-1.3l.2-.7c1-3.4 2-6.8 2.7-10.3z"/>
  <path fill="#e6a26d" d="M52.1 188.2c3 .3 8.2 3.2 4 6-1.8 2.5-1.7 5.8-2.2 8.8-1-.5-2-1-3-1.3.2-4.6.2-9.1 1.2-13.5z"/>
  <path fill="#c87a49" d="M95.1 190l.5-2 6.4 1c.8 2.3 2 5.4 0 7.4l-2.3-.5.2-.7c3.2.4 1.4-2.6 1.1-4.3-.2-1.8-3.2-1-4.1 0l-1.8-1z"/>
  <path fill="#e9ad74" d="M102 189l1.9-.8c1.4 3 2.3 7.3-1 9.2l-1-1c2.1-2 .9-5 .1-7.5z"/>
  <path fill="#f1e2ca" d="M107.2 188l2.9.8 3 5c.8 2.4-.4 7 3 7.3l.6 1.2 2.8 5.6a56 56 0 01-3.3 1.9l-5.8-4.6c-.5 1.5-1.1 2.9-2.2 4l-3-4.3c-.7-1.3-1.9-2-3.4-1.8l-1.8-.2-.3-7 2.2.5a95.4 95.4 0 003 2.7c2-3.3 2.4-7.4 2.3-11.2z"/>
  <path fill="#e6ad79" d="M110 187.9l3.2 2.5c2.4 2.2 3.1 5.3 4 8.4l-.5 3.5-.6-1.2c-.1-2.7-1.5-5-3-7.3l-3-5v-.9z"/>
  <path fill="#e4a269" d="M116.7 188.2c1.6 1.4 3.4 2.7 5 4.2l1.2 6.8c-3.1-3-4.9-7-6.2-11z"/>
  <path fill="#ecac6e" d="M79.4 190.1l.5-.6a88.5 88.5 0 003.6 28.7c.5 3 1.3 6 2.1 9 1.4 7.9 5.8 15 6.7 22.8l-2.5 1.3c1-1.4 1.6-3.1.6-4.7-2.6-5-2.6-11.1-6.3-15.6-.3-9.3-4.1-17.9-5.2-27-.3-2.7-.9-5.3-1-8l1.5-5.9z"/>
  <path fill="#f3e0be" d="M79.9 189.5c2.2 1 1.5 6 4.4 3.6-.1 4.4 2.6 9 7.5 7.9.2-3 0-6 2.3-8l-.1 10.8c-3.7-.2-1.3 3.8-.3 5.4l1 2 .3 1.7c-3.8.8-1.5-6.5-5.8-4.8-2 3.2-4.2 6.5-5.7 10-2.4-9.3-4.3-18.9-3.6-28.6z"/>
  <path fill="#e69e61" d="M95.1 190l1.8 1c-.3 3-2.6 5.7-2 9 0 2 .1 3.9.3 5.8l-.4 5.4-1-2 .2-5.4V193c.5-1 .8-2 1.1-3z"/>
  <path fill="#b85d2c" d="M96.9 191c1-1 3.9-1.9 4.1 0-3.7-1.3-3.8 2.9-1 4.2l-.3.7c-.4 1.3-.7 2.7-.9 4.1-1.2 1-2.6.8-3.8 0-.7-3.3 1.6-6 1.9-9z"/>
  <path fill="#844123" d="M100 195.2c-2.8-1.3-2.7-5.5 1-4.3.3 1.7 2 4.7-1 4.3z"/>
  <path fill="#f5cf9f" d="M47.1 199c1.1-2.3 2-4.8 2.7-7.2.6 5-2.5 9.5-2.6 14.5l-.3 1c-1 .1-2 0-3-.3a5 5 0 002.3-3.8l1-4.2z"/>
  <path fill="#bb8e71" d="M139.3 192c2.1 0 1.7 2.7 2.4 4.2.8 4.5 3.4 8.4 4.4 12.9-1-1-1.9-2-3.3-2-1-4.2-2.2-8.4-3.9-12.3l.2-1.8.2-1z"/>
  <path fill="#f0cba1" d="M113.1 193.8c1.5 2.2 2.9 4.6 3 7.3-3.4-.2-2.2-4.9-3-7.3z"/>
  <path fill="#af7351" d="M133.3 193.9l1.3 2.3c2 5.2 5 10.1 5.5 15.7l-4.1.3-.9-1.2c5.1.6-.5-7.6.6-9.6l-1.6-1.6c-.8-1-1.6-2.1-2.2-3.3l1.4-2.6z"/>
  <path fill="#c8bdb3" d="M141.7 196.2l1-2.4c3 7.5 6.3 15 8.6 22.8l-2.3 2.6-3-10.1c-1-4.5-3.5-8.4-4.3-12.9z" opacity=".9"/>
  <path fill="#d7c2ae" d="M134.6 196.2c1.4-.6 2.9-1 4.3-1.4 1.7 4 2.8 8 3.9 12.3.7 2.8 1.7 5.7 1.9 8.7 1.2 3.3 4 6.2 3.2 10l-1.9.3c-2-2.7-2.3-6.3-4-9.3l-2-4.9c-.4-5.6-3.5-10.5-5.4-15.7z"/>
  <path fill="#e69959" d="M98.8 200c.3-1.4.5-2.8 1-4.1l.2 7c0 1.7 0 3.4.2 5.1-1.5-2.4-1-5.3-1.4-8z"/>
  <path fill="#d3ae8e" d="M17 205c.3-2.4.9-4.8 1.5-7.2a2.8 2.8 0 002.6 2.5l-.3 1.5-1.5 4.4c.3-2.3-.9-2.2-2.4-1.2z"/>
  <path fill="#98461d" d="M24.1 199.1c1.4-.4 3.4-1.8 3.1.8v.7l-2.3 3.2c-2 3.2-2.3 6.9-2.7 10.5L22 216l-.1 1H21l-2.2-.2c-2-4.3 2-8.4 2.3-12.7.9-1.8 2-3.4 2.9-5z"/>
  <path fill="#e8e9ea" d="M31.1 198.8l4.2 1.3L33 205l-3.3 3-2.3-1v-.7c1.6-2.3 2.6-4.9 3.6-7.5z"/>
  <path fill="#f4deb8" d="M71.1 199l1-.1.2.8c-.7 5 0 9.9 1.5 14.6L76 224v2c-3.7 0-7 2-9.1 5 .8-4.9 1.6-9.9 4-14.2.8-2.3-1.9-3.4-3.7-2.9-2.1 2.6-1.4 6.3-3.4 8.8-3.2-.6-6.5-.5-9.7.3l-.4-5.4v-2.4c0-2.4.2-5.3 3.3-5.4H61c-.6-2.4-2-4.6-3.1-6.8 4.2.4 8.8 3.1 12.8.7l.3-4.8z"/>
  <path fill="#db945f" d="M117.2 198.8c1.1 2.5 1.6 5.5 3.7 7.4.7 2 1.3 3.9 1 5.9l-.6-.4c-.4-1.3-1-2.7-1.8-3.8-1-1.9-2-3.7-2.8-5.6l.5-3.5z"/>
  <path fill="#9a451b" d="M120.2 198.8c1.8 1.6 3 3.8 5 5.1 1.6 1 3.2 2 4.7 3.2l.3.7a69 69 0 01-7.4-2.6c-2 5.1 2.6 7.8 6.2 9.5-.5 3-2.3 3.5-5 2.4l.8 4.1-1.6-1.4c.2-2.6-1-4.4-3.5-5.2l2.3-2.5c.2-2-.4-4-1-5.8 0-2.6-.4-5-.8-7.5z"/>
  <path fill="#f1b06c" d="M72.3 199.8c.4 1.3.6 2.7.8 4.1.3 3.4.6 6.9.7 10.3a34.4 34.4 0 01-1.5-14.4z"/>
  <path fill="#cc682d" d="M95 200c1.2.8 2.6 1 3.8 0 .4 2.7 0 5.6 1.4 8 .8 5.8-5.6 1.4-5-2.2l-.3-5.7z"/>
  <path fill="#daa97e" d="M134.1 199.8l1.6 1.6c-1 2 4.5 10.2-.6 9.6-1.1-1.8-2.7-3.1-5-3.2l-.2-.8c1.7-.3 3.5-.3 5-1.1.2-2-.3-4-.8-6z"/>
  <path fill="#b39687" d="M24.9 203.8c.7-1.1 1.5-2.2 2.4-3.2.2 1.9 0 3.8.3 5.7v.8c-.5.9-.8 1.8-1 2.8-.8 1.9 1.8 3.1 1.6 5.1l-1.2 1.2c-1.6-.2-3.3-.5-5 0l.2-2c3.2-2.6 2.8-6.6 2.7-10.4z"/>
  <path fill="#d7d4d2" d="M13.4 202.4l1.8-.3-1 3.6c-3.1 7.7-5.7 15.7-6.3 24-.4 2.7-1 5.5-1 8.3 0 5 0 10 .2 15.1-4.6 2 .3 7.8-2 11.2-1.3-3-2.1-6.3-3-9.5 0-4.7 0-9.4-.4-14C2.5 233.5 3 225.9 6 219c3.3-5.1 4.7-11.2 7.4-16.7z"/>
  <path fill="#b36c46" d="M19.3 206.2l1.5-4.4.4 2.4c-.3 4.3-4.3 8.4-2.3 12.7-1.1.3-2 1.1-2.7 2a45 45 0 01-.3-3.8c1.3-3 2.3-6 3.4-9z"/>
  <path fill="#ea9a57" d="M47.2 206.3l3.7-4.6 3 1.3.3.9c-.1 1.8-.3 3.6-1 5.3l-.3-3.2c-4.7 1.4-6.8 6.6-7.2 11.1-.5-4-3.2 1.2-5-1 1-1.4 2.3-2.6 3.4-4 1.1-1.5 2.5-3 2.9-4.9l.2-.9z"/>
  <path fill="#f2dcb8" d="M37 204.7c2.7-2.7 6.2-.1 9.2-1.5a5 5 0 01-2.4 3.8c-2.3.8-2 6.1-4.8 4l-.1-2.2c.2-1.5-1-2.4-2-3.3l.2-.8z"/>
  <path fill="#f4d7a3" d="M53.9 203l4 .1c1.3 2.2 2.6 4.4 3.2 6.8H57c.5-1 1.3-2.2.8-3.5-1.5-.5-2.8-1.1-3.6-2.5l-.3-1z"/>
  <path fill="#d17236" d="M73 204c2-1.2 4.1-1.3 6 0 1 9.1 4.8 17.7 5 27-4-3.1-1.4-8.2-3.2-12a10.4 10.4 0 00-4 4.7l-.8.4-2.3-9.8c0-3.5-.3-7-.6-10.4z"/>
  <path fill="#f3d7a6" d="M100 203h1.8a27 27 0 003 6.2l.4-4.3 3 4.4c0 1.5.7 3.2-.2 4.6-1.7-1-3.2-2-5-2.9-.5 1-1 2-1.4 3.2-.3-2.1-.8-4.2-1.4-6.2-.2-1.7-.2-3.4-.2-5z"/>
  <path fill="#f3c080" d="M101.8 203c1.5-.2 2.7.6 3.4 1.9l-.4 4.3a27 27 0 01-3-6.1z"/>
  <path fill="#dcc5b2" d="M17 205c1.4-1 2.6-1 2.3 1.2-1.1 3-2.1 6-3.4 8.9h-1c.5-3.5 1.3-6.8 2-10.1z"/>
  <path fill="#b65d30" d="M22.2 214.3c.4-3.6.8-7.3 2.7-10.5.1 3.8.5 7.8-2.7 10.5z"/>
  <path fill="#dfb994" d="M33.1 205c1.3-.3 2.6-.4 4-.3l-.1.8c-2.3.8-2.3 3.4-3.2 5.3l-.8.2-.9.2c-1.9.3-2.7 2.5-4 3.8.3-2-2.3-3.2-1.6-5.1 1.3 2 2.9-.6 3.3-1.8 1-1.1 2.2-2.1 3.3-3.1z"/>
  <path fill="#f2cb89" d="M54.2 203.9c.8 1.4 2.1 2 3.6 2.5.5 1.3-.3 2.4-.8 3.5-3 0-3.3 3-3.4 5.3-.4-1.7-.7-3.5-.6-5.3l.2-.8c.7-1.6.9-3.4 1-5.2z"/>
  <path fill="#f1d39d" d="M93.8 209.3c-1-1.7-3.5-5.7.2-5.5l-.3 5.4z"/>
  <path fill="#efdbbb" d="M110.4 205.2l5.8 4.6c-3 1.2-2.3 4.5-2.3 7.3l-3-3.3c-2.5 2-4 5-4 8.2-1.3-1.4-3.4-4.9-3.2-.8L102 217l-.4-3 1.5-3.1c1.7.8 3.3 2 4.9 3 1-1.5.2-3.2.3-4.7 1-1.2 1.6-2.6 2.1-4z"/>
  <path fill="#702f14" d="M122.8 205.2a69 69 0 007.4 2.6c2.2 0 3.8 1.4 5 3.2l.8 1.2c.4 1.6.8 3.2 1 4.8l-2.7-1.3c-1.7-.8-3.5-.8-5.3-1-3.6-1.7-8.1-4.4-6.2-9.5z"/>
  <path fill="#af7d63" d="M14.2 205.7c1.8 5-2 10.1-2.7 15.1-.5 2.3-1.3 4.6-1.3 7L10 232l-.9-.3-1.3-2.2c.7-8.3 3.3-16.3 6.4-23.9z"/>
  <path fill="#ca8152" d="M33.8 210.8c.9-1.9.9-4.5 3.2-5.3.9 1 2.1 1.8 1.9 3.3-1 2.1-2 4.1-3.2 6.1-1.7-.7-1.8-2.5-2-4z"/>
  <path fill="#d17238" d="M45.7 217.1c.4-4.5 2.5-9.7 7.2-11.1l.3 3.2-.2.7c0 4.6-1.7 10.2-6.8 11.2a133 133 0 01-.5-4z"/>
  <path fill="#de894c" d="M95.2 205.8c-.6 3.6 5.8 8 5 2.2.6 2 1 4 1.4 6.2l.4 2.9c-1.5-1.6-2.5-4.4-5.1-4l-1.9-.2-.2-1.7.4-5.4z"/>
  <path fill="#e0d0c3" d="M26.5 209.9c.3-1 .6-2 1-2.8l2.3 1c-.4 1.3-2 3.7-3.3 1.8z"/>
  <path fill="#f2c38e" d="M39 211c2.9 2.1 2.5-3.2 4.8-4l.3 5.1c-1 1.4-2.3 2.6-3.4 4-1 2-1.3 4.3-2.5 6.3-.1-3.8.6-7.6.8-11.4z"/>
  <path fill="#f1b472" d="M43.8 207c1 .4 2.1.4 3.2.2-.4 2-1.8 3.4-2.9 5 0-1.8-.1-3.5-.3-5.2z"/>
  <path fill="#9f7867" d="M142.8 207c1.4.1 2.4 1 3.3 2 .8 3.5 1.9 6.8 2.9 10.2 2 2.4-.6 11.3 4 10.1-.6 2.1-1 4.2-1 6.4l-1 .3c-.4-1.7-.8-3.3-1-5 1.2-4-3-3.4-5.2-1.9l1.2-3 2-.3c.6-3.8-2.1-6.8-3.3-10-.2-3-1.2-5.9-2-8.8z"/>
  <path fill="#f1e3c9" d="M89.2 208c4.3-1.6 2 5.7 5.8 5H97l.4.8-.4 11.3c-2-2.8-2.5-6.7-5.9-8.2-.8-.6-1.8-.9-2.8-.8-2.8 3-2 7.4-2.6 11.2-.8-3-1.5-6-2-9.1 1.4-3.6 3.6-6.9 5.6-10.1z"/>
  <path fill="#eccc98" d="M119.5 207.9c.8 1.1 1.4 2.5 1.8 3.8-1.3-.3-4.2-3-3 0 0 2.4-.4 4.8-2.2 6.5 1.6 3.4 2 7.2 1.7 11-1.4-4-2.3-8.1-3.9-12.1 0-2.8-.8-6.1 2.3-7.3a56 56 0 003.3-2z"/>
  <path fill="#d39566" d="M35.7 215c1.1-2 2.2-4 3.2-6.2l.1 2.2c-.2 3.8-1 7.6-.8 11.4l-.7-.6c-.4-1.8-2.1-1.8-3.6-2l-2-.7c1-2.6.8-5.4 1.1-8.1l.8-.2c.1 1.6.2 3.4 1.9 4.1z"/>
  <path fill="#e49e64" d="M46.2 221c5.1-.9 6.7-6.5 6.8-11 0 1.7.2 3.5.6 5.3l.1 2.4a23 23 0 00-.8 5.2 93 93 0 01-3.7 2l-3.1-1.1c-4.9-3-2.7 4.7-5.1 7.2-.9-.5-1.8-.8-2.7-.8-2.3 5.2-5 10.4-6.2 16-.3-4.1.5-8.2.7-12.3v-.7c4.6-1.8 4.7-6.6 5.4-10.8 1.2-2 1.6-4.3 2.5-6.3 1.8 2.2 4.5-3 5 1l.5 4z"/>
  <path fill="#b16339" d="M118.3 211.8c-1.2-3 1.7-.4 3 0l.7.3-2.3 2.5-.6.6-.8-3.4z"/>
  <path fill="#ecedf0" d="M28.2 215c1.2-1.3 2-3.5 4-3.8-.4 2.5-.6 5-1.3 7.5l-1 2c-1.8 3.7-2.8 7.6-3.9 11.5-1 .8-2.1 1.6-2.9 2.7l-.4.6c-.8 1.1-1.3 2.3-1.9 3.5l-1.7-.3c.3-6.6-.7-14 3.1-19.8 1.1-1.8 3.4-1.6 4.8-2.7l1.2-1.2z"/>
  <path fill="#e8cdac" d="M32.1 211.2l1-.2c-.4 2.7-.2 5.5-1.2 8l-1-.3c.7-2.4.9-5 1.2-7.5z"/>
  <path fill="#e2ac77" d="M118.3 211.8l.8 3.4c-.1 8 0 16-.3 24-.5-3.3-.8-6.6-1-10 .3-3.8-.1-7.6-1.7-11 1.8-1.7 2.2-4 2.2-6.4z"/>
  <path fill="#7a4733" d="M136 212.2l4-.3 2 5c.1 4.5 1.4 8.9 2.5 13.3l2.2 8 .6 2.6-.4 8-2.8 1.2c-.2-1.4-.3-2.8-.7-4.2-1.7-5.6-2.3-11.6-4.7-17a64 64 0 01-.8-3.7l2-.2c-.7-2.7-1.8-5.3-2.9-7.9l-1-4.8z"/>
  <path fill="#90421c" d="M96.9 213c2.6-.3 3.6 2.5 5 4l1.8 4.2.7 3.6c-.6 1.1.5 4.3-1.4 4.1.4-5.2-1.5-10.2-4.9-14l-.8-1.1-.4-.7z"/>
  <path fill="#f2e2c5" d="M67.2 214c1.8-.5 4.5.6 3.6 2.9-2.3 4.3-3 9.3-4 14.2 2.3-3 5.5-5 9.2-5l1.1 4.8c-2 5.8-.8 12.3 3.9 16.3l1.1 4.5-1.9 2.4c1-6.4-8.2-9.2-5.6-15.7.4-2.3-1-4.3-1.9-6.2-3 0-5.9.5-8.8.8l.9-4.1c-2-.1-4 .3-5.3 2-2 0-6.7 5.2-6.6 1.2l.3-2.9.9-6.1c3.2-.8 6.5-.8 9.7-.3 2-2.5 1.3-6.3 3.4-8.8z"/>
  <path fill="#e4b484" d="M97.3 213.8l.8 1.1c0 3.8 0 7.6-.4 11.3l-.8-1.1c0-3.8.2-7.6.4-11.3z"/>
  <path fill="#f0ead9" d="M106.8 222c0-3.2 1.6-6.3 4.1-8.2l3 3.3c1.6 4 2.5 8.1 4 12.1 0 3.4.4 6.7.9 10l.2 2.9v6c-2.7 2.3-1.3-2-3.1-2-1.8-.3-.5 2.7-1 3.8l-.5.7c-3 .3-5.7-1.5-7.4-3.7a249.6 249.6 0 00-3.3-25.7c-.2-4 1.9-.6 3.1.8z"/>
  <path fill="#c5a086" d="M15 215h1c0 1.3 0 2.6.2 3.9 1.4 1.9 1.2 4.4 2.4 6.4-1-3.4 1-5.7 2.4-8.2h.9l.4 1.8c-3.9 5.8-2.9 13.2-3.2 19.8l1.7.3c-.6.9-1.5 1.3-2.8 1.2l-.2-5.4.2-3.7c0-2.2.7-6.7-2.9-6l-.4 2c-1.7-3.8 0-8 .3-12z"/>
  <path fill="#c05e28" d="M98.1 215c3.4 3.8 5.3 8.7 5 14h-2.9l-2.1-2-.4-.8c.3-3.7.4-7.5.4-11.3z"/>
  <path fill="#ca7e4e" d="M119.1 215.2l.6-.6c.2 2.6.8 5.2 2.1 7.6l.4.7c1.3 4.4-3.9 8.6-1.3 12.7l-1 6.4-1 .1-.1-2.9c.3-8 .2-16 .3-24z"/>
  <path fill="#b25d31" d="M119.7 214.6c2.4.8 3.7 2.6 3.5 5.2l-1.4 2.3c-1.3-2.3-1.9-4.9-2.1-7.5z"/>
  <path fill="#3f1b11" d="M124 217.1c2.7 1.1 4.5.5 5-2.4 1.8.3 3.6.2 5.3 1 .1 3.1-.1 6.2-.3 9.3l-1.1 1.4c-3-1.3-5.9-2.8-8-5.2l-.8-4z"/>
  <path fill="#d0ccca" d="M22 216.1c1.7-.4 3.4-.1 5 .1-1.4 1.1-3.7 1-4.8 2.7L22 217l.1-.9z"/>
  <path fill="#f6f1e1" d="M88.2 216c1 0 2 .3 2.8 1 3.4 1.4 4 5.3 5.9 8l.8 1.2.4.7c.4 4.1.6 8.3 1.5 12.3.4 2.6 1 5.2 1.5 7.7a201 201 0 01-.9 7.3l-3-.3c-1.5-1.4-3.2-2.6-4.9-3.9-.9-7.9-5.3-14.9-6.7-22.7.6-3.8-.2-8.2 2.6-11.2z"/>
  <path fill="#41261e" d="M134.3 215.7l2.7 1.3c1 2.6 2.2 5.2 2.8 8l-1.9.1h-3.8c0-3.2.3-6.3.2-9.4z"/>
  <path fill="#a17368" d="M16.2 218.9c.8-.9 1.6-1.7 2.7-2l2.2.2c-1.5 2.5-3.5 4.8-2.6 8.2-1-2-1-4.5-2.3-6.4z"/>
  <path fill="#b7805f" d="M142 216.8c1.7 3 2 6.6 4 9.3l-1.2 3-.3 1c-1.1-4.3-2.4-8.7-2.4-13.3z"/>
  <path fill="#aea09a" d="M149 219.2l2.3-2.6c2.3 8.1 3.6 16.6 4.1 25 .4 1.3 1 2.5 1.6 3.7v.5c-1.4 4.7-1.7 9.5-2.4 14.3-1.3-8 .9-16.6-2.5-24.4-.1-2.2.3-4.3.8-6.4-4.5 1.2-2-7.7-4-10z" opacity=".9"/>
  <path fill="#f4c98b" d="M52.9 223c.1-1.8.3-3.6.8-5.3l.4 5.4-.9 6.1-.3-6.3z"/>
  <path fill="#d5c2b2" d="M29.8 220.8l1.1-2c.5 4.4 0 8.7-.9 13l2.9 1.4v.7l-1.7 3.3-1.9.2c-1.8-1.5-3.5-4-6.2-2.5.8-1.1 1.9-1.9 3-2.7 5-1 3.3-7.6 3.7-11.4z"/>
  <path fill="#c2aca1" d="M31 218.7l1 .4c-.3 3.3-1 7.2 3 8-.9 2-1.5 4-2.1 6.1-1-.4-2-.8-2.9-1.4.8-4.3 1.4-8.6 1-13z"/>
  <path fill="#b39486" d="M32 219c.4.3 1.4.7 2 .8-.8 1.9-.6 5.2 1.9 5.4l-1 1.9c-3.8-.8-3.2-4.7-3-8z"/>
  <path fill="#c36733" d="M76.8 223.7c.8-2 2.3-3.6 4-4.8 1.8 4-.7 9 3.3 12 3.7 4.6 3.7 10.7 6.3 15.8 1 1.5.3 3.2-.6 4.6l-1-.1c-.5-5.1-2.9-9.7-4.5-14.5-.3-1.7-2-2-3.3-2.8-.5 6.2 1.6 12 2 18.2l-.9-.4-1.1-4.5c-.6-5.4-2.3-10.7-3-16.1 0-2.6-.4-5-1.2-7.4z"/>
  <path fill="#a97b77" d="M34 219.8c1.4.3 3.1.2 3.5 2l-1.6 3.4c-2.5-.2-2.6-3.5-2-5.4z"/>
  <path fill="#954f2d" d="M123.2 219.8l1.6 1.4c2.3 2.4 5.1 4 8 5.2l.5 3.4a89 89 0 01-1 3.4c-.1-2.1-.2-5.7-3.3-5.3 0 2.6 2.5 6.7-1.8 6.5-1 3.2-.7 6.7-2 9.8-.5-3-2.5-6.2-1.3-9.3a13 13 0 00-1.7-12l-.4-.8 1.4-2.3z"/>
  <path fill="#ccb8aa" d="M11.5 220.8c.8 4.4.3 9 .4 13.4l-1.7-6.5c0-2.3.8-4.6 1.3-6.9z"/>
  <path fill="#e2d7cd" d="M26 232.2c1.1-3.9 2.1-7.8 3.8-11.4-.4 3.8 1.3 10.4-3.8 11.4z"/>
  <path fill="#e6c199" d="M37.5 221.8l.7.6c-.7 4.2-.8 9-5.3 10.8a62.1 62.1 0 013-8l1.6-3.4z"/>
  <path fill="#efac6b" d="M41 231c2.4-2.5.2-10.2 5-7.2.4 1.8.8 3.5 1 5.3-1.1-2.7-7-4.5-3 2.9-.1 2.4.1 6.2 3.2 6.3l-3.1.8-3.1-8z"/>
  <path fill="#eeb376" d="M49.2 224.9a93 93 0 003.7-2l.3 6.3-.4 2.9-.8-.3c-.1-1 .5-2.9-1.3-2.3-2.5 0-1.4-3-1.5-4.6z"/>
  <path fill="#b16136" d="M122.2 222.9a13 13 0 011.7 12c-1.2 3.1.8 6.3 1.3 9.3l-.7 1.9c-2.2-1.5-3.4 3-5.4 4v-2l-.1-6 1-.1c3.8.9 2.5-4.5.9-6.4-2.6-4.1 2.6-8.3 1.3-12.7z"/>
  <path fill="#e49355" d="M46 223.8l3.2 1c.1 1.7-1 4.8 1.5 4.7 1.8-.6 1.2 1.3 1.3 2.3-1.3 2.2-1 4.7 0 6.9l-3.8-.7c-.5-3-1-5.9-1.3-8.9-.1-1.8-.5-3.5-.8-5.3z"/>
  <path fill="#e89f61" d="M76 224.1l.8-.4c.8 2.4 1.2 4.8 1.2 7.4l-.9-.2-1-4.8v-2z"/>
  <path fill="#a0715f" d="M15.1 225c3.6-.6 2.9 3.9 2.9 6.1l-3-3.3-.3-.7.4-2z"/>
  <path fill="#af6944" d="M104.4 224.8c1.1 7.3 2.1 14.7 2.6 22.1.1 2.2-.6 5.1 2.1 6l-4 .2.9-6-4.9-.2-1.5-7.7c1.1-3.3 1-6.8.6-10.2h2.8c2 0 .8-3 1.4-4.2M101 238c-.3 2 .3 4 1.2 6 3.2-.6 1.7-6.7-1.2-6z"/>
  <path fill="#c1997e" d="M134 225l3.9.1.8 3.7c-1.4 1.9-1 6-4.4 5.1l-1-4.1-.4-3.4 1.2-1.4z"/>
  <path fill="#f7c88c" d="M44 232c-4-7.4 1.9-5.6 3-2.9.1 3 .7 6 1.2 9l-1 .2c-3-.1-3.3-4-3.3-6.3z"/>
  <path fill="#c88559" d="M98 227l2.2 2c.4 3.4.5 7-.6 10.3-1-4.1-1-8.3-1.5-12.4z"/>
  <path fill="#e2dfde" d="M10.2 227.7a175 175 0 011.7 6.5l.2 5.6v8.2c-.4 1.7 1 6.6-2 4l-.4-5.7a371 371 0 00.5-18.6z"/>
  <path fill="#8e3d16" d="M15 227.8l3 3.3c0 1.2 0 2.5-.2 3.7-1.5 4.6.3 11-3.6 14.5L14 241l.2-1.9c.6-3.1.9-6.3.6-9.5l.2-1.8z"/>
  <path fill="#793111" d="M129 228c3.1-.5 3.2 3 3.4 5.2l-.6 2.5-1 2.1c-.2 3.2-2.8 10.2.2 12.1l1 .2.3.7c-1.9.3-4.2-.3-5.6 1l-1.7 1.5c-3.2-1.5-1.4-4.8-.5-7.2l.8-1.9c1.2-3.1.9-6.6 2-9.8 4.2.2 1.7-4 1.7-6.5z"/>
  <path fill="#c8aa96" d="M144.8 229.1c2.2-1.5 6.4-2 5.2 1.8-4.7-1-2.9 4.3-3.3 7.3l-2.2-8 .3-1z"/>
  <path fill="#ac9285" d="M59.5 230.8c1.3-1.6 3.3-2 5.3-2l-.9 4.2-1.8.3c-1.4-.2-2.3-1-2.6-2.5z"/>
  <path fill="#dcbd9d" d="M134.3 234c3.3.9 3-3.3 4.4-5.2 2.4 5.4 3 11.4 4.7 17-.3 2.5-1.8 4.5-3.3 6.4-1.3-.4-2.6-.9-4-1.2-.7 1.3-1.3 2.8-1.9 4.2l-1-2.4-1-2-.3-.7c0-4.8.2-9.6-.1-14.4a226.2 226.2 0 011.5-6l1 4.2z"/>
  <path fill="#c7a48b" d="M7 238c0-2.8.5-5.6.8-8.4L8 238H7z"/>
  <path fill="#99634a" d="M7.8 229.6l1.3 2.3c.3 4.7-1 9.7.6 14.4l.5 5.7c.2 1.6.5 3.1.6 4.7a14 14 0 00-2.3 3.4 72 72 0 01-.8-4.3l.2-3a335.2 335.2 0 000-23.2z"/>
  <path fill="#b35726" d="M14.2 239.2c-.3-3.1 0-6.3.6-9.5.3 3.2 0 6.4-.6 9.5z"/>
  <path fill="#e28b4c" d="M38.3 230.2c1 0 1.9.3 2.7.8l3 8.1.2 1c-2.6 0-2.2-3.2-4-4.4-1.7-2.3-2.8 1.4-3.7 2.7-1 5.3-3.2 10.3-7.6 13.6l.3-2.8 3-3c1.1-5.6 3.8-10.8 6.1-16z"/>
  <path fill="#f1c593" d="M52.9 232c-.1 4 4.6-1 6.6-1.2.3 1.5 1.2 2.3 2.6 2.5-3 .5-9.9.6-9.2 5.5l-.8-.1c-1.1-2.2-1.4-4.7-.1-6.9l.9.3z"/>
  <path fill="#e9bf92" d="M77.1 231h.9c.7 5.5 2.4 10.8 3 16.2-4.8-4-6-10.5-3.9-16.3z"/>
  <path fill="#d5ccc3" d="M146.7 238.2c.4-3-1.4-8.3 3.3-7.3.2 1.8.6 3.4 1 5.1l.2 3.6-3 3.6-1-2.4c0-.7-.3-2-.5-2.6z"/>
  <path fill="#bfa69a" d="M9.1 231.8l.9.3-.3 14.2c-1.6-4.7-.3-9.7-.6-14.5z"/>
  <path fill="#f2eedf" d="M64 233c2.8-.3 5.8-.8 8.7-.8 1 2 2.3 3.9 1.9 6.2-2.6 6.5 6.6 9.3 5.6 15.7l-1.2 1.6c-1.6 2.2-3.3 4.2-5 6.2-4.5-.3-9.1 0-13.2 2-1.5.9-3.8.8-4.8 2.3l-1 1.6-.8.2c-3.2-1.5-6.2-.2-9.1 1 .8-2.4 1.2-4.8-2-5.2l-.3-.7.2-13 2.8-1.4 2.4 1c-2.7.2-6.8 1.6-3.8 5.7 2.9 1.5 2.6 4.4 1.8 7.4 6.4 6 16.4-1 18.5-7.9-.7-4 3.2-8.6.2-11.8-3.5.7-4.8 3.9-6 6.8a53.4 53.4 0 01-7.5 3.9A7.6 7.6 0 0049 250c4.3 1.5 6.7-.4 8-4 1.7-1.2 3.8-2.4 2.9-4.8a33 33 0 00-7-2.4c-.6-4.9 6.1-5 9.2-5.5l1.8-.3z"/>
  <path fill="#deb48b" d="M23.1 234.9c2.7-1.4 4.4 1 6.2 2.5l-1.3.8c-1.9-.8-3.5-1.8-5.3-2.7l.4-.6z"/>
  <path fill="#f0bc80" d="M31.2 237.2c.6-1 1-2.2 1.6-3.3-.2 4.1-1 8.2-.7 12.3-.8 1.1-1.9 2-3 3 .1-3.3 3-6.4 1-9.6l1.1-2.4z"/>
  <path fill="#994217" d="M81 233.9c1.3.7 3 1.1 3.3 2.8 1.6 4.8 4 9.4 4.5 14.5v.8c-2 0-3.9.5-5.8 1v-1c-.4-6-2.5-12-2-18.1z"/>
  <path fill="#9e512b" d="M14.2 249.3c4-3.6 2.1-10 3.6-14.5l.2 5.4v1l-.3 6.7c-.9 1.5-1 4.9-3.5 4-1.2-1-1.1-2.5-1.3-3.8l.2-7.1h.9c0 2.8 0 5.6.2 8.3z"/>
  <path fill="#ca6c36" d="M36.5 238.4c.9-1.3 2-5 3.8-2.7 1.7 1.2 1.3 4.5 3.9 4.3-3.5 2.4-3.6 6.2-2 9.9l-3.9.8c-4-.6-9.3 3.7-8.4 8.2l-.7.3-.4-6.4.1-.8c4.4-3.3 6.6-8.3 7.6-13.6z"/>
  <path fill="#d79b6d" d="M20.8 239c.6-1.2 1.1-2.4 1.9-3.5 1.8.9 3.4 2 5.3 2.7-4-1.3-6.4 5.3-10 3v-1c1.3 0 2.2-.3 2.8-1.2z"/>
  <path fill="#df9c68" d="M120 242l.9-6.4c1.6 2 2.8 7.3-1 6.4z"/>
  <path fill="#cb8658" d="M130.8 237.8l1-2c.3 4.7.1 9.5.1 14.3l-.9-.2-.2-12.1z"/>
  <path fill="#9e8c84" d="M151 236l1-.3c3.5 7.8 1.3 16.3 2.6 24.4-.6 3.7-1.3 7.4-2.6 11l-1-.3c.3-4 1.7-8.3-.6-12-.6-3-1.5-5.8-2.6-8.6l.4-5.4c1.8 3.1.5 8 3.6 10.3a21.9 21.9 0 00-.6-15.5l-.1-3.6z"/>
  <path fill="#c47a4c" d="M29.3 237.4l2-.2-1.1 2.4c-2.3 2.1-4.5 4.6-7.8 4.8-1 2.3-1.3 5-3.1 7l-1.6-3.6.3-6.7c3.6 2.4 6-4.2 10-3l1.3-.7z"/>
  <path fill="#b17c60" d="M7 238h1V253l-1 .2V238z"/>
  <path fill="#c3855d" d="M47.2 238.3l1-.3 3.9.7.8.1 3.2.9c-2.8.1-5.6 1-7.4 3.2-3 1-2.1-2.7-4.5-2.9l-.1-.9 3.1-.8z"/>
  <path fill="#d28855" d="M101 238c3-.7 4.4 5.4 1.2 6-.9-2-1.5-4-1.2-6z"/>
  <path fill="#934017" d="M131 250c-3-2-.3-9-.2-12.2l.2 12.1z"/>
  <path fill="#dabc9f" d="M12 239.8l1.1 1.2-.2 7H12v-8.2z"/>
  <path fill="#f2debe" d="M22.4 244.4c3.3-.2 5.5-2.7 7.8-4.8 2 3.2-1 6.3-1 9.6l-.3 2.8-.1.8c-.5 2.5-.9 5-1.5 7.4l-1 2c-.2-1.7-.7-3.4-2.1-4.5l-1-1.2-.4-.6c-.6-2-2.7-2.3-4.3-3l.3-1 .5-.6c1.8-1.9 2.1-4.6 3-6.9z"/>
  <path fill="#5b3325" d="M44.2 240c2.4.2 1.5 4 4.5 3 2 3.4 3.9.3 6.1-1 3.4 5.3-6 6-9 6.7L43 250l-.8-.1c-1.6-3.7-1.5-7.5 2-9.9z"/>
  <path fill="#8b5b45" d="M48.7 243a9.5 9.5 0 017.4-3.3c-.5 2.5 2.4 3.8.9 6.3-1.3 3.6-3.7 5.5-8 4l-.8-.3-2.4-1c3-.6 12.4-1.3 9-6.7-2.2 1.3-4.1 4.4-6 1z"/>
  <path fill="#9d8178" d="M56 239.7c1.4.4 2.6 1 3.9 1.6.9 2.3-1.2 3.5-3 4.7 1.6-2.5-1.3-3.8-.8-6.3z"/>
  <path fill="#c6bab4" d="M148.2 243.2l3-3.6c2.3 5 2 10.4.6 15.5-3-2.3-1.9-7.2-3.6-10.3v-1.6z"/>
  <path fill="#969292" d="M1.6 258.3c-1.4-5.7-.5-11.8.1-17.5.3 4.6.3 9.3.5 14l-.6 3.5z" opacity=".8"/>
  <path fill="#aa765a" d="M147.3 240.8l1 2.4v1.6l-.5 5.4-1-1.4.5-8z"/>
  <path fill="#f7f5e7" d="M58.8 249.9c1.3-2.9 2.7-6.1 6-6.8 3.1 3.3-.8 7.9-.1 11.8-2 6.8-12.1 13.8-18.5 7.9.8-3 1-6-1.8-7.4-3-4 1-5.5 3.8-5.7l.8.3c1.2 1 1.9 2.3 2.4 3.8 2.5-1.1 5-2.5 7.4-4z"/>
  <path fill="#8c3d16" d="M119.1 250c2-1 3.2-5.4 5.4-4-.9 2.5-2.7 5.8.5 7.3l-.8 3.8-.8-.3c-1-.5-2-.8-3.2-.7h-1c-3.7.7-4.1-1.5-2.5-5.1l2.4-1z"/>
  <path fill="#b1673f" d="M114.9 249.9c.5-1-.8-4 1-3.8l.8 4.9c-1.6 3.7-1.2 5.8 2.6 5l-1.3.9-2.2 1.1-1.7-1.6.8-6.5z"/>
  <path fill="#e2bd96" d="M115.9 246c1.8.2.4 4.4 3.2 2v2l-2.4 1-.8-5z"/>
  <path fill="#866559" d="M143.4 245.8c.4 1.4.5 2.8.7 4.2l-.2 10c-1.6.6-3.2.9-3.8-1.1-.2-1.8-.1-3.7-1-5.3l1-1.4c1.5-2 3-4 3.3-6.4z"/>
  <path fill="#e3ccba" d="M101.1 247l4.9.1-.8 6-4 1.3-1-.2 1-7.3z"/>
  <path fill="#e0be99" d="M107 247c1.7 2.1 4.5 4 7.4 3.6a4.6 4.6 0 01-4.5 2.7l-.8-.4c-2.7-.9-2-3.8-2-6z"/>
  <path fill="#a66b4e" d="M12 248h.9c.2 1.4 0 3 1.3 3.9 2.5.9 2.6-2.5 3.6-4l1.5 3.4-.5.7c-4.3.2-.6 6.6-1.8 9.5-.7-3.3-4.2-2.9-5.4-.1-.4-1.5-.6-3.1-.8-4.7-.1-1.6-.4-3.1-.6-4.7 2.9 2.6 1.5-2.3 1.8-4z"/>
  <path fill="#62504c" d="M144 250l2.9-1.2 1 1.4c1 2.8 2 5.6 2.5 8.6-.7 5.7-2.1 11.4-2.2 17.2-2.7.6-2.8 7-5.8 4a62 62 0 011.8-5l.6-6.2v-3c0-2-.6-3.9-.9-5.8l.2-10z"/>
  <path fill="#914622" d="M30 258.9c-1-4.5 4.3-8.8 8.3-8.2l-1.6 1.5-1 .8c-1.9 1.5-4 3.2-4 5.9H30z"/>
  <path fill="#e7b17c" d="M38.3 250.7l3.9-.8-.9 3.3h-1.1a31 31 0 01-3.5-1l1.6-1.5z"/>
  <path fill="#ca8d62" d="M42.2 249.9l.8.1-.2 13.1-1-2c0-2.6.1-5.3-.5-7.9l.9-3.3z"/>
  <path fill="#eadac6" d="M92.3 250c1.7 1.3 3.4 2.5 5 3.9-3.3 0-8.2 1.8-7.5-2.7l2.5-1.2z"/>
  <path fill="#c98b61" d="M114.4 250.6l.5-.7-.8 6.5-3-1.8-1.2-1.3c2 0 3.6-1 4.5-2.8z"/>
  <path fill="#c19a81" d="M88.8 251.2h1c-.7 4.5 4.3 2.6 7.4 2.7l3 .3 1 .2c-2.9 1.5-6.3.8-9.2 1.6-1 .7-2 .5-3 0 0-1.4 0-2.7-.2-4v-.8z"/>
  <path fill="#3c1910" d="M126.7 251.9c1.4-1.4 3.7-.8 5.6-1.1l1 2c-.3 3.1.4 6.6-1.3 9.4-3.8-1.4-3.6-7-5.3-10.3z"/>
  <path fill="#bf9981" d="M136.2 251l4 1.2-1 1.4c-1.1.8-2.3 1.4-3.3 2.3l-1.3 1.1-.4-1.8c.6-1.4 1.2-2.9 2-4.2z"/>
  <path fill="#ad7f68" d="M17 261.5c1.2-3-2.5-9.3 1.8-9.5l-.3.9c-1.6 2.7 2.6 2.6 4.3 3l.3.6c-2 .6-3.5 2.1-3.6 4.3l-.9 3.3a8.7 8.7 0 01-1.6-2.6z"/>
  <path fill="#ce6c32" d="M35.7 253l1-.8 3.5 1c-2.7 2 2 3.4 0 5.9l-1 .2c-2.3-1.2-3-3.9-3.5-6.3z"/>
  <path fill="#8e5a42" d="M80.2 254l2-2.3.8.4v1c-1.3 4.6 3.8.6 6 2.9 1 .5 2 .7 3 0l-1.1 3c-3.2 2.3-5.8-1.6-8.8.3-2-.2-2.3-2.1-3-3.6l1.1-1.6z"/>
  <path fill="#723820" d="M83 253a25 25 0 015.8-1l.3 4c-2.3-2.3-7.4 1.7-6-3z"/>
  <path fill="#4e2316" d="M125 253.3l1.7-1.4c1.7 3.3 1.5 8.8 5.3 10.3-1.4 1.7-3.4 2.6-4.8 4-.6 2 .5 4 1 5.9-1.3.7-5.8 1.7-5.4-1.2a91.5 91.5 0 012.2-17.6z"/>
  <path fill="#cabdb6" d="M7 253.1l1-.2-.3 3c-2.1 4 .7 8.3-.5 12.4L4.8 265l.3-.6c2.3-3.4-2.6-9.2 2-11.2z"/>
  <path fill="#d9ba9c" d="M22.8 256c-1.7-.5-5.9-.4-4.3-3.1 1.6.8 3.7 1 4.3 3z"/>
  <path fill="#e69758" d="M27.3 260.3l1.5-7.5.4 6.4-2 1z"/>
  <path fill="#ba5925" d="M31.8 258.9c0-2.7 2-4.4 3.9-6 .5 2.5 1.2 5.2 3.6 6.4-1.6.6-3.4.7-5 1l-2.5-1.4z"/>
  <path fill="#a04e25" d="M40.2 253.1l1.1.1c.6 2.6.5 5.3.6 8l-1.7-2.1c2-2.5-2.7-3.9 0-6z"/>
  <path fill="#9c6951" d="M101.3 254.4l3.9-1.3a52.1 52.1 0 00-1.5 5.9l-3.6-.1c-3-.6-6.2-.1-9.2.1l1-3c3-.8 6.4-.1 9.3-1.6z"/>
  <path fill="#6f321a" d="M105.2 253h4l.7.3 1.3 1.3c-2.1 1.4-4.4 2.3-7 1.5l1-3z"/>
  <path fill="#915437" d="M133.3 252.8l1 2.3.3 2c-.6 2.6-.6 5.7-3 7.5-2.4 1.7-2 5-3.4 7.5-.5-2-1.6-3.9-1-5.9 1.4-1.4 3.4-2.3 4.8-4 1.7-2.8 1-6.3 1.3-9.4z"/>
  <path fill="#594541" d="M136 255.8l3.1-2.2c.9 1.6.8 3.5 1 5.3.3 4.5 1.6 9.5-2 13.2l.8-5.2c-2.4.8-7.9 4.2-7.8-.5 4-.2 4.5-4.4 6.3-7 1-1.4 1-4.2-1.5-3.5z"/>
  <path fill="#adaaa8" d="M2.2 254.8c.8 3.2 1.6 6.4 3 9.5l-.4.6-1.7 3.3c-.7-3.3-1.1-6.6-1.5-10l.6-3.4z"/>
  <path fill="#4b1f12" d="M104.2 256c2.6.9 4.9 0 7-1.4l3 1.8 1.6 1.6v5l-.6 1.3c-3.7.8-12.9.7-11.5-5.3l.5-3z"/>
  <path fill="#b59d93" d="M7.3 268.3c1.1-4-1.7-8.4.4-12.5l.8 4.3.7 9.3c-.7 1.5-1.4-.7-2-1z"/>
  <path fill="#684134" d="M74 262c1.7-2.1 3.4-4.1 5-6.3.8 1.5 1.2 3.4 3.1 3.6-2.2 2.3-7.3 3-7.1 6.8-.5 2.8.1 5.6 2.9 7l.3.7c-1.5 1.9-3.4 3.6-3.5 6.2-1.8 3 1.4 4.4 3.5 5.8.3 1.5 1.1 4.2-1.3 4.2-3.1 1-4.4-2.3-5.5-4.5-2.5 0-4.4-1.2-6.3-2.5l.4-2c1.2-2.8-1.5-5.1-3.2-7l-1 2c-.4-2-1-4-1.5-5.9l-3.4.8c.4-1.3-.2-2.4-1.4-3l1-1.7c1 .2 2.2.4 3.3.2 3.7-.8 6 2.9 8 5.3 2 1.2 1.6-1.2 2-2.4 1.3-2.6 2.9-5 4.7-7.4z"/>
  <path fill="#b08875" d="M119.3 256h.9a40 40 0 011.2 5.3l-.5 2.6a51 51 0 01-3.7 0l.8-7 1.3-.9z"/>
  <path fill="#985434" d="M120.2 256c1.1 0 2.2.3 3.3.8a11 11 0 01-2 4.4 40 40 0 00-1.3-5.1z"/>
  <path fill="#533a34" d="M134.6 257l1.3-1.2c2.5-.6 2.5 2.2 1.5 3.7-1.8 2.5-2.4 6.7-6.3 6.9 0 4.7 5.4 1.3 7.8.5l-.8 5.2c-1.5 1.5-4.2 1.2-6.2 1.8-4.3-.8-3.7 4.7-4.6 7.4-.5 1.8-.6 4 1.6 4.5 2.3 1.5 0 3.7-.8 5.4 1.6-.8 3.2-1.7 4.8-2.3l-1.7 4.7c-2.7.9-5.6 2.2-6.4 5.2l-.7.4c-3.1 2.4-7.2 2.4-10.6 4.2-.8 4.1-5.4 4.7-8.2 7a31 31 0 01-8.5 9.5h-2.4c-2.9-2.2-8.5 2.6-9.2-2 0-2.5-2.7-1.8-4.3-1.9 1.4 1.4 3.2 2.7 3.3 5H69a127.7 127.7 0 01-13-1l-.1-7c4 0 8 1 12.1 1 .5-3.2-3.7-7.7-6.9-6l-1-1.8c2.3-.1 4.4-.8 6.1-2.4l1.7 1c2.3 2 3.4 5.4 6.8 5.6 1.4.4 2.8.5 4.2.7-1 5.1 4 1.8 6.3.6 3.2.4 6.5 1.3 9.8 1.3 1-4.2-5.1-1.2-7.5-2.8 1.7-2.8 5.5-1.7 7.7-4L97 305c3.6-2.2 9.5-1.5 11.5-5.8l1.3-2.1c.6-2.7 3-3.8 5.5-4.3h2.8c.6-2.3-2.8-3.3-2-5.7.7-1.9 2-3.4 3-5-1.7 0-4.3 1.9-5.3.1 2.1-1.8 3.2-4.8 6-5.6-1-2.9.4-4.7 3.1-5.7-.4 2.9 4 1.9 5.4 1.2 1.3-2.4 1-5.8 3.4-7.5 2.4-1.8 2.4-5 3-7.6z"/>
  <path fill="#7f5543" d="M8.5 260.1a14 14 0 012.3-3.4 36.7 36.7 0 002.1 9.1l-1.2.9c-.9.5-1.6 1.2-2 2l-.5.7-.7-9.3z"/>
  <path fill="#734837" d="M19.5 260.8c.1-2.2 1.6-3.7 3.6-4.3l1 1.2c-.4 1.1-1.4 2.4-.3 3.5 1.7 4.4-4.3 3.2-4.3-.4z"/>
  <path fill="#c69c7f" d="M115.8 258l2.2-1.1-.8 7-1.5-1a54 54 0 000-4.9z"/>
  <path fill="#683e30" d="M123.5 256.8l.7.3c-.8 4.5-1.3 9.1-1.4 13.8-2.7 1-4 2.8-3 5.7-2.9.8-4 3.8-6.1 5.6-2.1-2.9-1.1-6.6 1.3-9l1.3-1c5 .3 1.5-4.3-.3-6.1 1.3-1.3 4.3-.4 4.9-2.2l.5-2.6a11 11 0 002-4.5z"/>
  <path fill="#a47761" d="M24.2 257.7c1.4 1.1 1.9 2.8 2 4.5l-2.4-1c-1.1-1.1-.1-2.4.4-3.5z"/>
  <path fill="#5e3427" d="M82.1 259.3c3-2 5.6 2 8.8-.3.3 2.2.6 5.1 3.3 5.5l-.4.7c-2.8 0-4-2.6-6-4-3 .2-3 4-5.4 5 1-2.4-1.4-3-3.3-3.2-1.6.7-2.8 2-4.1 3.1-.2-3.8 5-4.5 7.1-6.8z"/>
  <path fill="#85523b" d="M90.9 259c3-.2 6.1-.7 9.2-.1 1.7 2.5-.1 3.4-2.5 4l-2 1c-.4 0-1 .4-1.4.6-2.7-.4-3-3.3-3.3-5.5z"/>
  <path fill="#8d5d47" d="M11.6 261.4c1.2-2.8 4.7-3.2 5.4 0 .4 1 1 2 1.6 2.7l1-3.3c0 3.6 5.9 4.8 4.2.4l2.4 1-.2 3.9c3.3.2 1.6-5 4.6-5.5 1.2-1 1.8.3 2.4 1.2-.7 4.1-1.4 9 2 12.4l2.4 3.5c-2 .4-4 .6-4.2-1.8-.1-2.3-2.6-1.8-4.2-2.1l-.2-1.6c.5-1.7 1-3.3 1.3-5.1l-5 .9c-1.4-1.8-3.6-.8-5.3 0-2.3-.6-4.6-1.4-6.9-2.2-.5-1.4-1-3-1.3-4.4z"/>
  <path fill="#b57450" d="M29.2 259.2l.7-.3h1.9l2.4 1.4-1.2 1.5c-.6-.9-1.2-2.3-2.4-1.2-3 .5-1.3 5.7-4.6 5.4l.2-3.8 1-2 2-1z"/>
  <path fill="#70361f" d="M39.3 259.3l.9-.3 1.7 2.2.9 2 .3.6.2 1c-3 0-6-.4-8.9-.7-.7 3.1.5 6.1 1.8 8.9l-1.3 1.3c-3.3-3.4-2.6-8.4-1.9-12.5l1.3-1.5c1.6-.3 3.4-.4 5-1z"/>
  <path fill="#6a3927" d="M100 258.9h3.7c-1.4 6 7.8 6.2 11.5 5.4-.5 2-1.5 3.9-2.4 5.8l-4.7 1c.7-1 3.6-2 2.2-3.4-1.6-2.7-4.5-.3-7-.8-.4-1.4-.7-2.9-1.8-3.8-.8.8-1 2.7-2.4 2.9l-1.5-3.1c2.4-.6 4.2-1.5 2.5-4z"/>
  <path fill="#6c5c59" d="M140 258.9c.7 2 2.3 1.8 4 1.1.2 2 .8 3.8.9 5.7-2.7.8-2.7 4.2-4.2 6-2 3.1-5.3 3.7-8.5 4.2l-.3-2c2-.6 4.7-.3 6.2-1.8 3.6-3.7 2.3-8.7 2-13.2z"/>
  <path fill="#82736f" d="M150.4 258.8c2.3 3.8 1 8 .5 12-.9 1.8-1.7 3.5-2.7 5.2 0-5.8 1.5-11.5 2.2-17.3z"/>
  <path fill="#432a24" d="M82.4 266.2c2.4-1 2.4-4.8 5.4-5 2 1.4 3.2 4 6 4-1.5 3.5-4.6 6-6.3 9.4-3 3-6.5-1-9.6-1.6-2.8-1.3-3.4-4-2.9-6.9 1.3-1 2.5-2.4 4-3.1 2 .1 4.5.8 3.4 3.2z"/>
  <path fill="#d89765" d="M60.8 263.9c4-2 8.7-2.3 13.2-2a48.5 48.5 0 00-4.8 7.4c-2.6 1.6-2.2-1.2-2.4-3-1.7-1.5-4-1.6-6-2.4z"/>
  <path fill="#51291c" d="M95.6 263.8l2-.9 1.5 3c1.4 0 1.6-2 2.4-2.8 1.1 1 1.4 2.4 1.9 3.8 2.4.5 5.3-2 7 .8 1.3 1.4-1.6 2.4-2.3 3.5-5.5 1.5-10.2-3-12.5-7.4z"/>
  <path fill="#855845" d="M115.2 264.3l.5-1.3 1.5 1h3.7c-.6 1.7-3.6.8-5 2 2 1.9 5.4 6.5.4 6.2.3-1.3.3-2.6-.3-3.8-1.2 0-2 1.4-3.2 1.7.9-2 1.9-3.8 2.4-5.8z"/>
  <path fill="#451f15" d="M34.4 264.1c3 .3 5.9.8 8.9.7.1 2.8 1 5.3 3.7 6.3 1.6 1.6 6-2 5 1.8-5.3 0-10.7 2.2-15.8.1-1.3-2.8-2.5-5.8-1.8-8.9z"/>
  <path fill="#c3aea4" d="M43 263.8c3.3.4 3 2.8 2 5.3 3-1.3 6-2.6 9.2-1-2.7.5-5.8.4-7.2 3-2.7-1-3.6-3.5-3.7-6.3l-.2-1z"/>
  <path fill="#98654c" d="M56 266.2c1-1.5 3.3-1.4 4.8-2.3 2 .8 4.3.9 6 2.3.2 2-.2 4.7 2.4 3-.3 1.3 0 3.7-2 2.5-1.9-2.4-4.3-6.1-7.9-5.3-1 .2-2.2 0-3.3-.2z"/>
  <path fill="#543933" d="M94.2 264.5l1.4-.7c2.3 4.4 7 8.9 12.5 7.4-3 5.8-10.6 1.5-14.2 6.5-2 2.7-6 3.2-8.7 1.2-2-2.3-5.7-2.1-7-5l-.3-.8c3.1.6 6.7 4.5 9.6 1.5 1.7-3.4 4.8-5.9 6.3-9.4l.4-.7z"/>
  <path fill="#8e8380" d="M3.1 268.2l1.7-3.3 2.5 3.4c.5.4 1.2 2.6 1.9 1l.5-.5.7 2.2c-1 .5-2.2.2-3.2.2 2 5.4 4.5 10.7 6.6 16 7.6 12.4 17.7 23.1 29.9 31.2 3.7 3.8 9.2 4.1 14.2 3 1.6.9 3.4 1.6 5.2 1.8-1.4.7-3.3.9-3.3 2.9-1.8-3.2-5.8-4-9.1-2.4l-2 .6a94.7 94.7 0 01-45.6-56.1z" opacity=".9"/>
  <path fill="#663d2f" d="M11.7 266.7c.3-.2 1-.6 1.2-.9l7 2.3v2c-2.8-1-5.5-2-8.2-3.4z"/>
  <path fill="#86706a" d="M140.7 271.8c1.5-2 1.5-5.3 4.2-6v3c-.7 1.2-1.4 2.5-1.9 3.9l-.9 1.3c-2 0-2.4 2-3.4 3.5-1.2-.1-2.4-.4-3.5-.4-1.6 2.8-2.3 6-3.4 9.1l-2.5-1.2c1.4-3 4.5-5.5 2.9-9 3.3-.6 6.6-1.2 8.5-4.2z"/>
  <path fill="#634f4b" d="M9.7 268.8c.4-1 1.1-1.6 2-2.1.3 5.3 5.5 5.6 9.5 7 1.2.5 2.4 1 3.6 1.3-1.8 1.2-3 2.7-1.8 4.9a12 12 0 00.7 7.2l.9 1.2 2.4 4.4c-.7.7-2.8 1.6-1.3 2.7 3.9 3.1 8.8 4.4 13.4 6.4-.5 4.4 3.1 7.8 6.9 9.2 2.6 1.3 5.9 3.3 8.9 2h1l.1 7c-1.7 0-3.5 0-5-.9-10.8-6.2-20.6-14-29.2-22.9a39 39 0 01-8.4-18.1c.5-2.8-1.7-4.9-3-7l-.7-2.3z"/>
  <path fill="#7b5342" d="M11.7 266.7c2.7 1.3 5.4 2.4 8.2 3.3l1.3 3.8c-4-1.5-9.2-1.8-9.5-7.1z"/>
  <path fill="#682f1a" d="M19.8 268c1.7-.8 3.9-1.8 5.3 0 1 1.5 1.8 3.6 3.7 4.2l.2 1.6c-1.4.2-3 .3-4.2 1.2a32 32 0 01-3.6-1.2l-1.3-3.8v-2z"/>
  <path fill="#7c4933" d="M25.1 268l5-1c-.2 1.9-.8 3.5-1.3 5.2-1.9-.6-2.6-2.7-3.7-4.2z"/>
  <path fill="#5c3a31" d="M54.2 268l.8-.2c1.2.7 1.8 1.8 1.4 3.1l3.4-.8 1.5 6v.7c-.2 2 0 5.8-3.1 5.2-1.5-2.2-.8-5.5-3.9-6.4-2.1-4.7-7.4 4.4-3.6 6.5a37 37 0 006.5 7.3c-.7 1-1.5 1.7-2.3 2.5l-2 .3H52l-2.9-2.2c-.3 1.7 0 3.7-1.4 5-3-.3-5.7-2.2-8.8-2.1 0-1.7.1-3.4 1.1-4.8 2-3.4-.7-7.5-2.7-10.4l-2.5-3.4 1.3-1.3c5 2.1 10.5-.1 15.7-.1 1.1-3.8-3.3-.1-5-1.8 1.5-2.6 4.6-2.5 7.3-3z"/>
  <path fill="#986f5f" d="M112.8 270.1c1.2-.3 2-1.7 3.2-1.7.6 1.2.6 2.5.3 3.8l-1.3 1c-2 .2-2-1.6-2.2-3z"/>
  <path fill="#978c8a" d="M143 272.7c.5-1.4 1.2-2.7 1.8-4l-.7 6.4-1-2.4z"/>
  <path fill="#744b3a" d="M108 271.2c1.7-.4 3.2-.8 4.8-1 .2 1.4.2 3.2 2.2 3-2.4 2.4-3.4 6.1-1.3 9 1 1.8 3.6-.2 5.3-.2-1 1.7-2.3 3.2-3 5-.8 2.5 2.6 3.5 2 5.9h-2.8c-.8-1.7-2-4.9-4.1-3-1.5-2.8-.3-5.7-.1-8.7-4.6 2.1-5.2-3.3-8.8-3.5-2.6-1.3-5 0-7.3 1.2l-1-1.2c3.6-5 11.2-.8 14.2-6.5z"/>
  <path fill="#756561" d="M7.2 271.2c1 0 2.2.3 3.2-.2 1.3 2.2 3.5 4.3 3 7a39 39 0 008.4 18.2c8.6 8.9 18.4 16.7 29.1 22.9 1.6 1 3.4.8 5.1.9 2.8.1 5.5.4 8.2.7l-6.3.7c-5 1.1-10.5.8-14.2-3-12.2-8-22.3-18.8-30-31.1-2-5.4-4.6-10.7-6.5-16.1z"/>
  <path fill="#8d8786" d="M148.2 276c1-1.7 1.8-3.4 2.7-5.2l1.1.3c-7.4 26.4-30.1 45-52.6 58.7-1.5-.5-3-.8-4.5-1 6.9-4.2 14.8-6.6 20.8-12 13.5-11 27.3-23.6 32.5-40.8z" opacity=".9"/>
  <path fill="#b9b6b3" d="M143 272.7l1.2 2.4a62 62 0 00-1.8 4.8l-1.5 4-2-.3c.3-3.4 2-6.5 3.2-9.6l1-1.3z"/>
  <path fill="#936e61" d="M24.8 275c1.3-.9 2.8-1 4.2-1.2 1.6.3 4-.2 4.2 2 .3 2.5 2.3 2.3 4.2 2 2 2.8 4.8 7 2.8 10.3h-5.3c-.6 2.5 1.4 3.7 3.3 4.7.4 1.4.6 2.9.8 4.4-1.6-2.6-4.7-3.8-5.5-6.9-2.3-2.1-6-4.7-8.9-2l-.9-1.2c-.7-5 8 3 3.3-5.9-1.7.3-3.3.5-4-1.3-1.2-2.2 0-3.7 1.8-5z"/>
  <path fill="#624b45" d="M50.7 282.1c-3.8-2.1 1.5-11.2 3.6-6.5-1 1.3-1.7 2.8-.2 4.1-1.6.2-3.6.2-3.4 2.4z"/>
  <path fill="#7a5648" d="M62.3 274c1.7 1.9 4.4 4.2 3.2 7-.8-2-2.2-3.5-4.2-4.2v-.8l1-2z"/>
  <path fill="#5e4c47" d="M78.3 273.8c1.2 3 5 2.8 6.9 5.1l-1.8-.2c-3.3-2.3-5.6 2.6-8.7 1.3.1-2.6 2-4.3 3.5-6.2z"/>
  <path fill="#6d493b" d="M127.3 281.3c1-2.7.3-8.2 4.6-7.4l.3 2c1.6 3.6-1.5 6.1-3 9l-.3.9c-2.2-.5-2.1-2.7-1.6-4.5z"/>
  <path fill="#9b867f" d="M138.7 277.5c1-1.4 1.3-3.6 3.4-3.5-1.2 3.1-3 6.2-3.2 9.6-2.8-1.3-3.1 1.4-4 3.4-1.2 0-2.2-.2-3-.8 1-3 1.7-6.3 3.3-9.1 1.1 0 2.3.3 3.5.4z"/>
  <path fill="#a4755f" d="M54.3 275.6c3 1 2.4 4.2 3.9 6.4 3 .6 2.9-3.2 3-5.2 2.1.7 3.5 2.2 4.3 4.2-2.9 1-5 3.3-7.3 5.2-2.4-1.6-2-4.8-4-6.5-1.6-1.3-.8-2.8.1-4.1z"/>
  <path fill="#80726f" d="M142.4 280c3 3 3-3.4 5.8-4-5.2 17.2-19 29.7-32.5 40.7-6 5.5-14 7.9-20.8 12a3.5 3.5 0 01-4.4.4c2.5-2.5 6.4-3 8.6-6l-2.3-.4 4.5-1.4a13 13 0 006-2c4-2.8 9.6-4.2 11.6-9a319 319 0 01-3.3-1.3l6-.3a72.7 72.7 0 0021.5-24.5l-2.2-.3 1.5-4z"/>
  <path fill="#5d3a31" d="M94.9 279c2.3-1.2 4.7-2.6 7.3-1.3 3.6.2 4.2 5.6 8.8 3.5-.2 3-1.4 6 0 8.8-1.3 1.3-3.4 2.1-4 4 .5 1.3 1 2.9 2.7 3l-1.3 2.2c-3.9.9-7.7 4.2-11.4 1 .4-2.3-.6-4.4-3-4.3l-1-.1c-1-1.4-3-2.5-3-4.4 2.7-.1 3.3-2.3 4-4.3h1.8c2.3 4.4 8.4 3.4 10.2-1-3.3-2.4-8.2 1.6-11.3-2 0-1.7-.1-3.5.2-5.2z"/>
  <path fill="#72564d" d="M74.7 280c3 1.3 5.4-3.6 8.7-1.3a25 25 0 01-5.4 1.6c0 2.2 2.7 2.6 4.2 3.5l4 1.2c.1 2-1.8 2-3.4 2.3l-4.6-1.5c-2.1-1.4-5.3-2.8-3.5-5.8z"/>
  <path fill="#856051" d="M85.2 279c2.7 2 6.7 1.4 8.7-1.3.3.3.7 1 1 1.2-.3 1.7-.2 3.5-.2 5.2-3.5-.6.3 1.8 1 3h-1.6c-3.8-.3-7.7 1.8-11.3.2 1.6-.2 3.5-.2 3.5-2.3l3.8-.5c0-2.3-2.7-2.7-4.5-3-7-4-4 .2-3.4 2.3-1.5-1-4.3-1.3-4.2-3.5a25 25 0 005.4-1.6l1.8.2z"/>
  <path fill="#7c6761" d="M23 279.9c.7 1.8 2.3 1.6 4 1.3 4.8 9-4 .9-3.3 5.9a12 12 0 01-.7-7.2z"/>
  <path fill="#7e5b4e" d="M50.7 282.1c-.2-2.2 1.8-2.2 3.4-2.4 2.1 1.7 1.7 5 4 6.5l-1 3.2a37 37 0 01-6.4-7.3z"/>
  <path fill="#975d42" d="M58.2 286.2c2.3-2 4.4-4.2 7.3-5.2l-.4 2a15 15 0 01-8 6.4l1-3.2z"/>
  <path fill="#9e715d" d="M82.2 283.8c-.7-2.1-3.6-6.3 3.4-2.4 1.8.4 4.4.8 4.5 3.1l-3.8.5-4.1-1.2z"/>
  <path fill="#7f513c" d="M65.1 283c2 1.3 3.8 2.5 6.3 2.5 1.1 2.2 2.4 5.5 5.5 4.5 2.4 0 1.6-2.7 1.3-4.2l4.6 1.5c3.6 1.6 7.5-.5 11.3-.2-.8 2-1.4 4.2-4 4.3 0 2 1.9 3 3 4.4-2.5-.4-5.2-.2-7.4 1l-.6.3c1.7-3.8-3.6-6.8-6.8-6.2 1 2.1.5 4-2.1 4l-.4-.9c-.4-3.1-2.8-.8-4.6-.2-1.3-1.4-2-4.8-4.3-3.2-1.6-.3-3.1-.8-4.7-.5-2.4 1.6 0 4.7-.2 7-1.7-.5-3.4-1-5-1.7 2.2-1.7 0-3.5-2-3.5l2.2-2.5a15 15 0 008-6.4z"/>
  <path fill="#695854" d="M134.8 287c1-2 1.3-4.7 4.1-3.4l2 .3 2.2.3a72.7 72.7 0 01-21.4 24.5l-6 .3c2.6-3.5 9.4-4 8.4-9.8l.7-.4c2-1.3 7.4-2.3 6.4-5.2l1.7-4.8c-1.7.7-3.2 1.6-4.8 2.4.8-1.7 3-3.9.8-5.4l.4-.8 2.5 1.2c1 .6 2 .9 3 .8z"/>
  <path fill="#7a5344" d="M95.8 287c-.8-1.1-4.6-3.5-1-3 3 3.7 8-.3 11.2 2.1-1.8 4.4-8 5.4-10.2 1z"/>
  <path fill="#a08175" d="M24.6 288.3c2.9-2.7 6.6-.1 8.9 2 .8 3 3.9 4.3 5.5 6.9v1c-4.2-1.2-7.1-5.6-12-5.5l-2.4-4.4z"/>
  <path fill="#7c4b36" d="M35 288l5.1.1c-1 1.4-1.1 3.1-1.1 4.8h-.8c-2-1.1-3.9-2.3-3.3-4.8z"/>
  <path fill="#7f5645" d="M111 290c2.3-2 3.4 1.2 4.2 2.8-2.5.5-4.9 1.6-5.5 4.3-1.6-.2-2.2-1.8-2.7-3.1.6-1.9 2.7-2.7 4-4z"/>
  <path fill="#7e645d" d="M49.2 290l3 2.2c-1.7 2.7-4.8 4.2-5.7 7.4-.3 2-2.3.6-3.6.5-1.3-.5-2.6-1.2-3.8-2l-.1-1c-.2-1.4-.4-2.9-.8-4.3l.8.1c3.1-.1 5.8 1.8 8.8 2 1.4-1.2 1-3.2 1.4-4.9z"/>
  <path fill="#643e32" d="M62.2 290.1c1.6-.3 3.1.2 4.7.5-.1 2.8.3 5.6-.7 8.3-3-1.2-4.8.7-7 2.4l-.9.1c-2-1.4-7.9-4.1-5.5-6.6l4.2.6 5 1.7c.2-2.3-2.2-5.4.2-7z"/>
  <path fill="#856155" d="M66.9 290.6c2.4-1.6 3 1.8 4.3 3.2 1.8-.6 4.2-3 4.6.2-3.1.7-7.6 2.1-7.8 5.8 2.3 1.6 1.5 3.3 0 5a94 94 0 00-1.8-1l-2-3.7c1-.3 4 .3 2-1.3 1-2.6.6-5.4.7-8.2z"/>
  <path fill="#684034" d="M78.3 290.9c3.2-.5 8.5 2.4 6.8 6.2a25 25 0 01-4 3.7h-.7l-2.2-.5c-2-.2-4.4-1-5.1-3.1l3-2.3c2.7 0 3.1-1.9 2.2-4z"/>
  <path fill="#a07969" d="M52.1 292.2h.8l3.1 1.4a75 75 0 00-3.2 1.2c-2.4 2.5 3.4 5.2 5.5 6.6l-5.5 1.4c-4-.3-8.2.9-12-.4 1.9-.1 4.2-.2 2.1-2.3 1.3 0 3.3 1.5 3.6-.5.9-3.2 4-4.8 5.6-7.4z"/>
  <path fill="#926653" d="M52.9 292.2l2-.3c2 0 4.3 1.8 2 3.6-1.3-.3-2.7-.6-4.1-.7l3.3-1.2-3.2-1.4z"/>
  <path fill="#b09991" d="M25.7 295.4c-1.5-1 .6-2 1.3-2.7 4.9-.1 7.8 4.3 12 5.5l4 2c2 2-.3 2-2.2 2.2l-1.7-.6c-4.6-2-9.5-3.3-13.4-6.4z"/>
  <path fill="#9e7463" d="M68 299.8c.2-3.7 4.7-5.1 7.8-5.8l.4.9a29 29 0 00-3.1 2.3c.7 2.1 3 3 5.1 3.1-1.1 1.5-4.4 1.1-4 3.3 2.8.6 5 3.3 4.8 6.2-1.4.3-2.8.4-4.3.6-3.4-.1-4.5-3.7-6.8-5.6 1.6-1.8 2.4-3.4.1-5z"/>
  <path fill="#948783" d="M124.8 298.8c.8-3 3.7-4.3 6.4-5.2 1 3-4.4 3.9-6.4 5.2z"/>
  <path fill="#a67a66" d="M85.7 296.8c2.2-1.2 4.9-1.4 7.4-1l.8.1c-.3 2.3.8 4 3.1 4.3-.5 1.6-1 3.2 0 4.8l-1.8 1.3-6-.4v-1.7c2.3-3.3-4.9-3.5-3.5-7.4z"/>
  <path fill="#73554b" d="M94 296c2.4-.2 3.4 2 3 4.1-2.3-.2-3.4-2-3-4.2z"/>
  <path fill="#795d53" d="M85.1 297.1l.6-.3c-1.4 4 5.8 4.1 3.5 7.4-2.1 2.1-6 1.6-7.2 4.7 1.5 1.4 3.6 1 5.5 1.3 2.4 1.6 8.6-1.4 7.5 2.8-3.3 0-6.6-1-9.8-1.3l-6.3-.6a29 29 0 01-4.2-.7c1.5-.2 3-.3 4.3-.6.2-2.9-2-5.6-4.8-6.2-.4-2.2 2.9-1.8 4-3.3l2.2.5c0 1.8-1 2-2.5 1.6l.2 2.6c3-.5 5.7-1.9 8-3.9l-5-.3a25 25 0 004-3.7z"/>
  <path fill="#784e3d" d="M59.3 301.3c2.1-1.7 3.8-3.6 6.9-2.4 2 1.6-1 1-2 1.2l2 3.7a9.7 9.7 0 01-6 2.4l1 1.9c-1.3 1.2-3 4.4-4.5 1.8l-1-1.8c.1-2.2 2.2-3 3.9-3.5l-.3-3.3z"/>
  <path fill="#78574c" d="M97 300.1c3.8 3.3 7.5 0 11.4-1-2 4.4-7.9 3.7-11.5 6-.9-1.7-.4-3.3.1-5z"/>
  <path fill="#5b4743" d="M113.5 303.4c3.4-1.8 7.5-1.8 10.6-4.2 1 5.8-5.8 6.3-8.5 9.8-6.4 3.6-10 13-18.8 10.9a31 31 0 008.5-9.5c2.8-2.3 7.4-2.9 8.2-7z"/>
  <path fill="#835d4f" d="M58.3 301.4l1-.1.3 3.3c-1.7.5-3.8 1.3-3.9 3.4-1.3-.8-2.6-1.5-3.7-2.6 1.4-.7 2.9-1.4 4.2-2.2l-3.4-.4 5.5-1.4z"/>
  <path fill="#987062" d="M80.4 300.8h.6l5.2.3a17 17 0 01-8.1 4l-.1-2.7c1.4.4 2.4.2 2.4-1.6z"/>
  <path fill="#66483e" d="M39 301.8l1.8.6c3.8 1.3 8 .1 12 .4.9 0 2.6.3 3.4.4-1.3.8-2.8 1.5-4.2 2.2 1 1.1 2.4 1.9 3.7 2.7l1 1.8c-.8 1-1.4 2-1.9 3-3 1.4-6.2-.6-8.8-1.9-3.8-1.4-7.4-4.8-7-9.2z"/>
  <path fill="#926d61" d="M82 308.9c1.2-3.1 5-2.6 7.2-4.7v1.7l6 .4c-2.2 2.2-6 1.1-7.7 4-1.9-.4-4 0-5.5-1.4z"/>
  <path fill="#825b4a" d="M61.1 308c3.2-1.7 7.4 2.8 7 6-4.1 0-8.1-1-12.2-1h-1a14 14 0 011.8-3.1c1.5 2.6 3.3-.6 4.4-1.8z"/>
  <path fill="#6b5b57" d="M96.8 319.9c8.7 2.1 12.4-7.3 18.8-10.9l3.3 1.3c-2 4.8-7.6 6.2-11.7 9a13 13 0 01-6 2L94 321l.4-1h2.4z"/>
  <path fill="#b1a49f" d="M78.9 311l6.3.7c-2.4 1.2-7.2 4.5-6.3-.6z"/>
  <path fill="#5f453c" d="M80.9 316c1.6.1 4.3-.6 4.3 1.9.7 4.6 6.3-.2 9.2 2l-.4 1-2.9.2-6.9-.2c-.1-2.2-1.9-3.5-3.3-4.9z"/>
  <path fill="#b4a099" d="M57.9 321.4l6.3-.7 4.8.3v2c-2 0-4 0-5.9.2-1.8-.2-3.6-1-5.2-1.8z"/>
  <path fill="#a28d85" d="M69 321h22.2l-1.3 1.9h-1.7c-6.3-1.3-12.8-.9-19.2-.9v-1z"/>
  <path fill="#bdb2ac" d="M91.1 321l2.9-.1 7.3.4-4.5 1.4-7 .2 1.3-1.8z"/>
  <path fill="#cdc4bf" d="M69 322c6.4 0 12.9-.4 19.2.8-6.4.2-12.8.2-19.2.2v-1z"/>
  <path fill="#d8d8d9" d="M50.7 323.7c3.3-1.6 7.3-.8 9.1 2.4l1.3 1.4c-3.9.3-7.2-2.1-10.4-3.8z"/>
  <path fill="#735a51" d="M63.1 323.2l5.9-.2c6.4 0 12.8 0 19.2-.2H97l2.2.3c-2.2 3-6.1 3.5-8.6 6-6.2 1.2-11.5-2.8-17.7-2 1 .8 2.2 1.5 3.4 2.2-2.8 0-5.5 0-8.2-.2-2.3-.8-4.5-1.8-7-1.6l-1.2-1.4c0-2 2-2.2 3.3-2.9z"/>
  <path fill="#968e8c" d="M48.7 324.3l2-.6c3.2 1.7 6.5 4.1 10.4 3.8 2.4-.2 4.6.8 6.9 1.6v2l-3.7-.4c-2.4-1.6-4 .2-5.1 2.3-2.8-3.6-6.9-6-10.5-8.7z"/>
  <path fill="#b4b1ae" d="M72.8 327c6.2-.7 11.5 3.3 17.7 2.1 1.5 1 3.1.8 4.4-.3 1.5.2 3 .5 4.5 1l-1.3 1.3c-7.4.9-14.6-.8-22-1.8-1-.7-2.2-1.4-3.3-2.3z"/>
  <path fill="#82706b" d="M68 329c2.7.4 5.4.4 8.2.3 7.3 1 14.5 2.7 22 1.8-2 2.4-3.4 5.2-5.8 7.2l.2-1c.2-1.8 1.2-4.2-.9-5.1-5.8-.3-11.7 0-17.5-.4L68 331v-2z"/>
  <path fill="#837570" d="M59.2 333c1-2 2.7-3.9 5-2.3a38.3 38.3 0 00-3.1 5.5l-2-3.2z" opacity=".9"/>
  <path fill="#725f58" d="M64.3 330.7l3.7.3 6.2.8c-2.4-.7-7.5 1.7-3 3-2.8 0-7.8-.8-7.2 3.2-.3 1.6 2 1.6 3 2.2l-.3.7-.7 1.2-2.2-1c-1-1.6-1.9-3.3-2.7-5 1-1.8 2-3.7 3.2-5.4z"/>
  <path fill="#69534c" d="M71.2 334.8c-4.5-1.3.6-3.7 3-3 5.8.3 11.7 0 17.5.4 2 1 1 3.4.9 5-.8-3.6-5.3-4.9-8.6-4.2-3.8-.1-8.4-1-11.3 2.4l-1.5-.6z"/>
  <path fill="#5c4640" d="M72.7 335.4c2.9-3.4 7.5-2.5 11.3-2.4 3.3-.7 7.8.6 8.6 4.3l-.2 1-2.1-.4c-1-4.2-6.2-3.3-9.3-4-3.3-1-5 3.8-8.3 1.5z"/>
  <path fill="#4a3935" d="M72.7 335.4c3.3 2.3 5-2.5 8.3-1.4 3 .6 8.4-.3 9.3 3.9-5.8.2-11.8-.4-17.6.8-2 .3-3.8.9-5.7 1.5-1-.6-3.3-.6-3-2.2-.5-4 4.5-3.2 7.2-3.2l1.5.6z"/>
  <path fill="#8a7e7b" d="M72.7 338.6c5.8-1 11.8-.5 17.6-.7l2.1.4-.4.8c-6.4-.1-12.9.1-19.3-.5z"/>
  <path fill="#e8e9eb" d="M67 340.2c1.9-.6 3.8-1.2 5.7-1.6 6.4.6 12.9.4 19.3.5-.4 2.9-.9 5.7-1.2 8.7-.6 3.7-.9 7.5-.9 11.3-4-4.4-10.2-5.5-16-6.1-.1 2 2 4.6-.2 5.9-9.7 3.8-3.9-7.4-6.4-12.2l-.6-5.8.3-.7z"/>
  <path fill="#898686" d="M63.8 341.2l2.2 1-.3 8c-.7-3-1.2-6-2-9z" opacity=".9"/>
  <path fill="#b7b8b7" d="M66 342.1l.7-1.2.6 5.8L67 359h-1c0-3-.1-5.9-.3-8.8l.3-8z"/>
  <path fill="#dbdcdf" d="M67.3 346.7c2.5 4.8-3.3 16 6.4 12.2 2.2-1.3.1-4 .3-6 5.7.8 11.9 1.8 16 6.2v3.9L90 369c-4-.2-6.5-4.4-10.8-3.3-4.1-.8-7.6-5.3-12-4L67 359l.3-12.3z"/>
  <path fill="#a8a7a6" d="M90 359.1c-.1-3.8.2-7.6.8-11.3.3 5 .2 10.1.2 15.2h-1V359z" opacity=".8"/>
  <path fill="#686768" d="M66 359h1v2.9c0 2.4-.3 4.9-.7 7.3-.3-3.4-.3-6.8-.3-10.2z" opacity=".5"/>
  <path fill="#d1d3d5" d="M67 361.9c4.5-1.4 8 3 12 3.9 4.4-1 7 3.1 10.9 3.3l.1-6.1h1c0 4.7.3 9.4.8 14.1-1.3-.4-3-.3-3.7 1.1.3 1.7 2.7.8 3.9.7l1 4.2c-1-1.6-4.3-2-4 .6l-2 1.3c-2.7-.2-8.8 1.6-6-2 3.7.8 2-6.7-1-6a72 72 0 000 5c-2.5-.7-5.3-.9-7.5-2.4a11 11 0 00-3.4-4.8c-1.3-2 .7-5.9-3-4.8l.2-.8c.5-2.4.7-4.9.7-7.3z"/>
  <path fill="#ebeef0" d="M66.1 370c3.7-1.1 1.7 2.8 3 4.8l-3.1.2-.2-3.2.3-1.8z"/>
  <path fill="#a1a09f" d="M65.2 383.2c-.3-3.8 0-7.6.6-11.4l.2 3.2.1 6-1 2.2z" opacity=".7"/>
  <path fill="#c7cbca" d="M66 375l3.1-.2a11 11 0 013.4 4.8c2.2 1.5 5 1.7 7.4 2.4l.1 1c-2.2-.3-3.8 1-5.1 2.6l-2.8-.4c-2.5.3-1.9-2.4-2.4-4l-3.6-.3-.1-5.9z"/>
  <path fill="#ebeced" d="M80 377c3-.7 4.7 6.8 1 6h-1v-1-5z"/>
  <path fill="#e7eaef" d="M88.1 378.2c.7-1.4 2.4-1.5 3.7-1l.2 1.7c-1.2 0-3.6 1-3.9-.7z"/>
  <path fill="#a0acad" d="M66.1 381c1.2 0 2.4 0 3.6.2.5 1.6-.2 4.3 2.4 4-1.4.7-2.1 1.9-2.3 3.4-2.1-.2-4-1.3-5.6-2.5l1-2.9.9-2.3z"/>
  <path fill="#e9ecef" d="M89 383.7c-.3-2.6 3-2.2 4-.6v.7l-2 .4-2-.5z"/>
  <path fill="#babcba" d="M74.9 385.6c1.3-1.5 2.9-3 5.1-2.6h1c-2.8 3.6 3.3 1.8 6 2-3.8 2.7-8 1.3-12.1.6z"/>
  <path fill="#939798" d="M87 385l2-1.3a13 13 0 011.1 4.2c-4.3.3-8.6 1.4-12.6 3-1-3-5.1-2.3-7.7-2.3.2-1.5 1-2.7 2.3-3.4l2.8.4c4 .7 8.3 2 12-.6z"/>
  <path fill="#b7bebd" d="M89 383.7l2 .5c1.3 1.7.4 3.8.2 5.7.9 2 2 3.9 2.6 6-7 6.5-17.8 6.6-26.5 3.8-1-2.7-1.3-7.3-5.2-6.8.5-2.3 1.2-4.6 2-6.8 1.7 1.2 3.6 2.3 5.7 2.5 2.6 0 6.8-.7 7.7 2.4 1 2.4-2.4 2.8-2.7 5 3.6.2 7.4.3 10.7-1.4.8-2.8 2.7-4.8 4.6-6.7a13 13 0 00-1.1-4.2z"/>
  <path fill="#cbd0d1" d="M91 384.2l2-.4c1 5.5 4.1 10.2 7 14.8-3.4 1.1-6.8 2.6-10.2 4C84.6 404 79.3 404 74 404c-1.8-.2-3.3.4-3.8 2.3-1.6.8-3 .1-4.2-1-2.8-2-6.7-.3-10-.6l-1-2c2.7-3 6.3-5.6 7.1-9.8 3.9-.5 4.2 4.1 5.2 6.8 8.7 2.8 19.5 2.7 26.5-3.8-.6-2.1-1.7-4-2.6-6 .2-2 1.1-4-.2-5.7z"/>
  <path fill="#abb2b1" d="M77.5 391c4-1.7 8.3-2.8 12.6-3.1-1.9 2-3.8 4-4.6 6.7a19.8 19.8 0 01-10.7 1.4c.3-2.2 3.7-2.6 2.7-5z"/>
  <path fill="#b9c3c4" d="M89.8 402.7c3.4-1.4 6.8-3 10.3-4l1 1c-1 1-4.7 3.2-1.9 3.7 3.6-.3 6.3 2.5 8.6 4.9 1.6 2.8-5.1 3.7-5.8 2.7-6.1 0-12.4 2.9-18.3.8 4.7-1.3 9.7-1 14.2-3-.2-3.9-5-5.1-8-6.1z"/>
  <path fill="#d6d9dc" d="M99.2 403.4c-2.8-.5 1-2.8 1.8-3.7 5 5.1 12.6 4.7 19 6.3 5.1.8 9.4 4 14 6 3.2 1.7 7.2 3.1 8.4 6.8-1 5.1-4.2 9.4-8.3 12.5-2.5-.7-4.7-2.2-7-3.4 1-1.7 2.1-3.3 3-5-2.4 0-4.7.6-7 1.2l1.8 4c-3.2.9-4.3-2.5-6.9-3.4 2-1.8 4.3-2.9 7-2.9-5.3-3.5-7-11.5-13.8-12.8-.9 1.6-1.5 3.3-2.4 5-1.8 0-4-1.4-5.3.4-5.6 5.7-13.5 5-20.6 6.8l2.3 1.4a15 15 0 00-5.2.8l-.9-.1-3.8-.6c-5.5-3.6-8.2 2.3-13 2.7-2 1.8 0 4.6-1.4 6.5-1.6-.2-3.2-.6-4.7-1l-2.4-2.7c1.5-1.4 4.5-1.6 4.9-3.9 1.4-.4 3-.5 4.3-1.4-.2-2-2.4-1.8-3.8-1.7-4.7-1.3-9-3.6-13.2-6l-1.5.5c-.9.2-1.8.6-2.6 1-.9 1.3-1.4 2.8-2.1 4.2-.9 1.4-1.7 2.9-2.7 4.2l-4.8-.1c.3 1.7.7 3.4.7 5-5.6-.1-9.6-4.7-14.1-7.1l-1.3-3.1c7.7-12.7 25-12.1 37.4-17.1l1 2a66 66 0 00-1.5 5c-.6 1-1.3 2-1.7 3.2 5.8.2 11.6 0 17.4 0 3 0 6.1.4 9-.5l4.5-.6c5.9 2 12.2-.9 18.3-.8.7 1 7.4.1 5.8-2.7-2.3-2.4-5-5.3-8.6-5z"/>
  <path fill="#acb7b7" d="M74 404c5.3-.1 10.6-.1 15.8-1.3 3.2 1 8 2.2 8.1 6.1-4.5 2-9.5 1.8-14.2 3l-4.5.6-6.7-1.7c-.6-2.4-.5-5 1.5-6.7z"/>
  <path fill="#bcc3c2" d="M56 404.7c3.3.3 7.2-1.5 10 .6-4 1.6-6.6 5.8-10.9 6.7l-.6-2.2a66 66 0 011.5-5z"/>
  <path fill="#b9c2c2" d="M70.2 406.3c.5-1.9 2-2.5 3.8-2.3-2 1.8-2 4.3-1.5 6.7l6.7 1.7c-2.9 1-6 .5-9 .5-1.8-.6-4-1.2-3-3.5 1.8-.2 3-1 3-3.1z"/>
  <path fill="#c7cccb" d="M66 405.3c1.2 1.1 2.6 1.8 4.2 1 0 2-1.2 2.9-3 3-1 2.4 1.2 3 3 3.6-5.8 0-11.6.2-17.4 0 .4-1.1 1-2.1 1.7-3.1l.6 2.2c4.3-.9 7-5 11-6.7z"/>
  <path fill="#e0e4e9" d="M111.2 409c6.8 1.3 8.5 9.3 13.8 12.8-2.7 0-5 1.1-7 2.9l-1 1-4.2 3.7c-.5-3.8 6.1-5.8 3.2-10.6-2.6 1-4.5 3-6.9 4.4l-2 .3c-2-2 2.3-3.4 3.3-5 2.3-.3 4.4-.7 3.6-3.6-3 1-5.7 2.8-8.4 4.3.6 3.3-3.4 1.7-5.8 2 1.3 1.8 3.5 2 5.4 2.5-1.5.1-2.6 1.1-3.4 2.3 2.1.1 4.2-.4 6-1.2 1.8 0 3.6.3 4.3 2.1-2.3.7-5.5-.5-5 3-2 .6-4 1.3-6 2.2l-4-.9c-.3-2.6 1.4-5.8-.3-8.1-2.1-.4-3.7 1.7-5.9 1.2l-4-.4a108 108 0 00-4-2.7c7-1.9 15-1.1 20.6-6.8 1.3-1.8 3.5-.4 5.3-.5 1-1.6 1.5-3.3 2.4-4.9z"/>
  <path fill="#aab6b7" d="M44.5 415.7l1.5-.5c4.2 2.4 8.5 4.7 13.2 6a6.3 6.3 0 01-5.4 1.1l-4-2.3c-2-1.2-4-2.4-5.3-4.3z"/>
  <path fill="#c8d4d7" d="M105.6 419.2c2.7-1.5 5.4-3.4 8.4-4.3.8 2.9-1.3 3.3-3.6 3.5-1 1.7-5.3 3-3.3 5l-2 .3c-1.8-.6-4-.7-5.3-2.5 2.4-.3 6.4 1.3 5.8-2z"/>
  <g fill="#bcc5c5">
    <path d="M41.9 416.6l2.6-1c1.4 2 3.3 3.2 5.3 4.4-2.8 1.6-.8 2.3 1.4 2.8a81 81 0 00-4.1.3c.5 4.6 4.7 7.1 9 7.8 1.6.4 3.2.8 4.8 1 1.4-1.9-.7-4.7 1.4-6.5 4.8-.4 7.5-6.3 13-2.7L74 424c-1.3 5.8-8.5-.2-11.2 2.9-.6 1-.5 2 0 3 .2 3.6 4.3 4 7 4.3 2 .7 4.2.8 6.3.7 3 .2 6.3.6 8.8-1.4-4.2-1.9.8-1.5 2.8-1.9 1.5.3 3.1.5 4.3 1.5 2.9 1.4 6.3.2 9-1 2-.9 4-1.6 6-2.2 0 1.4-.7 2.7-2 3.2-6 2.7-12.8 2.7-19.2 3-.2 3 3 3 5 3l.1 1.9-6.8-.2-10.3-1.4 1-1.3c-3.5-2-8-1.8-12-2.1l1 2.9-4.2.8c-2.6 0-5.2 0-7.8.2l-1-.1c-1.9-2.4-.6-3 4.1-1.9 1.7-.4 5.5 0 5.7-1.7-3.5-1-7.1-1.8-10.4-3.5a93.2 93.2 0 01-7.7-8.4c-1.8-2.3 3.4-7.4-.7-7.7m34 20.4c1.3 1.7 6.7 2.8 8.2 0H76z"/>
    <path d="M91 424.3c2 .5 3.7-1.6 5.8-1.3 1.7 2.4 0 5.6.3 8.2-.6-1-1.1-2.2-1.8-3.2l-1-1.1c-1.3-1.3-5.5-.2-3.4-2.6z"/>
  </g>
  <path fill="#a1adb0" d="M39.8 421l2-4.4c4.3.3-1 5.4.8 7.7 2.4 3 5 5.8 7.7 8.4 3.3 1.7 7 2.4 10.4 3.5-.2 1.7-4 1.3-5.7 1.8-4.7-1.3-6-.6-4 1.8-4-.7-8-2.5-12.1-1.3a7 7 0 01-2-1.4h2l3.7-.1c-.8-3.3.4-6.4 1-9.6-2.6-1.3-3-4-3.8-6.5m3.1 13c1.2 3.5 6.1 3.1 9 2-1.5-3-6.2-.4-9-2z"/>
  <path fill="#cad5d9" d="M109.1 423.2c2.4-1.4 4.3-3.5 6.9-4.4 3 4.8-3.7 6.8-3.2 10.6l-1.8 2.5c2.8-1 9-1.7 7.9 2.9l-4 1.4c-5.2 1.6-10.5-1.5-15.6 1l-.4 1.7-8 .2c-2 0-5.2 0-5-3 6.4-.3 13.2-.3 19.1-3 1.4-.5 2-1.8 2-3.2-.4-3.5 2.8-2.3 5-3-.6-1.8-2.4-2-4.1-2l1.2-1.7z"/>
  <path fill="#b0baba" d="M142.4 418.8c1.1 2.5 1.9 5.2 1.6 8a7 7 0 00-2.8 6.4c-3.1 4.3-8.3 5.8-13 7.6l-5.3-.9c.8-.7 2.6-1.2 1-2.2l1.1-2.5c3-1.3 6.2-2.2 9-3.9 4.2-3.1 7.4-7.4 8.4-12.5z"/>
  <path fill="#a9b3b3" d="M16.7 422.8c.2-1 .5-2 1-3l1.2 3.1c0 4.1 4.4 5.5 5.9 8.8 3 4 8 3.7 12 5.4a7 7 0 002 1.4c3 1.2 6.4 2.2 8.7 4.6-2.6.5-5.1 1-7.8 1.3-8.1-3-18.6-4.6-23-13.1v-8.6z"/>
  <path fill="#dce6ed" d="M51.2 422.8c-2.2-.5-4.2-1.2-1.4-2.8l4 2.3 1.4 1.5-4-1z"/>
  <path fill="#b9c0bf" d="M37 425c1.1-1.2 2-2.7 2.8-4 .7 2.4 1.3 5.1 3.7 6.4-.5 3.2-1.7 6.3-.9 9.6H39l1-2c-2.9-1.4-6-1.6-9-2.3.9-2.1 3-.8 4.7-.7-1-2.5-.8-5 1.4-7z"/>
  <path fill="#c0d0d5" d="M59.2 421.2c1.4-.1 3.6-.2 3.8 1.7-1.3.9-2.9 1-4.3 1.4-.4 2.3-3.4 2.5-5 4-1.9-.8-4.4-1.4-3.8-4 2.6 0 10 1.7 5.3-.5l-1.4-1.5c2 .4 3.8.2 5.4-1z"/>
  <path fill="#787878" d="M16.7 431.3c-1.5-2.6-.3-5.8 0-8.6v8.6z" opacity=".6"/>
  <path fill="#c3c9c9" d="M18.9 422.9c4.5 2.4 8.5 7 14.1 7.2 0-1.8-.4-3.4-.7-5.1h4.8c-2.1 2-2.4 4.5-1.4 7-1.7-.1-3.8-1.4-4.8.7 3 .7 6.2.9 9 2.3l-1 2-2 .1c-4.1-1.7-9.1-1.5-12.1-5.4-1.5-3.3-5.8-4.7-6-8.8z"/>
  <path fill="#9dafb7" d="M47 423a81 81 0 014.2-.2l4 1c4.7 2.2-2.8.6-5.3.5-.6 2.6 2 3.2 3.9 4l2.4 2.6c-4.4-.7-8.6-3.2-9.1-7.8z"/>
  <path fill="#796d6a" d="M75.3 422.7l3.8.6c-4 1.2-.5 3.7 1 5.7-2.9.7-5.9 1.1-8.3-.7l4.3-.4c-.4-1.5-1.3-2.7-2-3.9l1.2-1.3z"/>
  <path fill="#5d514f" d="M79.1 423.3h.9a9 9 0 006.9.6c1.3 3.2 4.3 3.4 7.3 3l1.1 1c-.5 3.9-4.5 3.3-7.5 3.7-2 .4-7 0-2.8 1.9-2.5 2-5.8 1.6-8.8 1.4a74.2 74.2 0 00-13.4-5c-.4-1-.5-2 .1-3l8.9 1.4c2.4 1.8 5.4 1.4 8.3.7-1.5-2-5-4.5-1-5.8z"/>
  <path fill="#857b79" d="M80 423.4a15 15 0 015.2-.8l1.7 1.3a9 9 0 01-7-.5z"/>
  <path fill="#b5c4c8" d="M107.1 423.5l2-.3-1.2 1.6c-2 .8-4 1.3-6 1.2.7-1.2 1.8-2.2 3.3-2.3l1.9-.2z"/>
  <path fill="#cfd3d4" d="M123.2 424.1c2.2-.6 4.5-1.1 6.9-1.2-.9 1.7-2 3.3-3 5 2.3 1.2 4.5 2.7 7 3.4-2.9 1.7-6 2.6-9.1 3.9-5.3-.6 3.7-1.2 2-4.2-2.3 0-4.5.7-6.7 1-.6-2.3-.4-6-3.4-6.4l1.1-1c2.6 1 3.7 4.4 7 3.5-.6-1.3-1.3-2.6-1.8-4z"/>
  <path fill="#9b9997" d="M62.9 426.9c2.7-3 10 2.9 11.2-2.9.7 1.2 1.6 2.4 2 3.9l-4.3.4-8.9-1.4z"/>
  <path fill="#797372" d="M86.9 424c1.3 0 2.7.1 4 .3-2.1 2.4 2.1 1.3 3.3 2.6-3 .4-6 .2-7.3-3z"/>
  <path fill="#bcc7c8" d="M112.8 429.4l4.1-3.8c3 .4 2.8 4 3.4 6.3 2.3-.2 4.5-.9 6.7-1 1.7 3.1-7.3 3.7-2 4.3l-1 2.5c-3-.8-5.8 0-8.8.3l-.3-1.8 4-1.4c1.1-4.6-5.2-4-8-2.9l1.9-2.5z"/>
  <path fill="#909596" d="M141.2 433.3a7 7 0 012.8-6.5c.3 2.5-1 4.8-2.8 6.4z" opacity=".9"/>
  <path fill="#9ca8a9" d="M95.3 428c.7 1 1.2 2.2 1.8 3.2-1.6.7-3.3 1.4-5 1.9-1.2-1-2.8-1.2-4.3-1.5 3-.4 7 .2 7.5-3.6z"/>
  <path fill="#9ca5a7" d="M62.8 430c2.4.6 4.8 1.3 7 2.1l.1 2.1c-2.7-.3-6.8-.7-7-4.2z"/>
  <path fill="#cbd2d4" d="M97 431.2l4.1 1c-2.7 1-6.1 2.3-9 .9 1.7-.5 3.4-1.2 5-1.9z"/>
  <path fill="#7d7f7f" d="M69.9 432.1c2.1.8 4.3 1.8 6.3 2.8-2 0-4.2 0-6.3-.7v-2z"/>
  <path fill="#7c8284" d="M43 434c2.7 1.5 7.4-1 8.9 1.9-2.9 1.1-7.8 1.5-9-2z"/>
  <path fill="#cdd1d2" d="M63 436c4 .3 8.4 0 12 2l-1 1.4c-3.4-.3-6.8-.4-10-.5-.5-1-.8-2-1-3z"/>
  <path fill="#bbcad1" d="M99.3 437.2c5.2-2.5 10.4.6 15.6-1l.3 1.8c3-.2 5.8-1 8.8-.3 1.5 1-.3 1.5-1.1 2.2l5.3 1c-8 3.9-17.3 6.4-26.3 6 3.8-1.4 8-1.6 12-2l.1-1.8c-4 .4-8 1.3-12.1.6l1.1-2.1 6.3-.8c-3.1-1.9-7.1-2.1-10.6-1l.2-.9.4-1.7z"/>
  <path fill="#908987" d="M76 437h8c-1.4 2.8-6.8 1.7-8 0z"/>
  <path fill="#81888a" d="M38.9 438.5c4-1.2 8.1.6 12 1.3h1l1.2.2c-1.9 1-3.4 2.7-5.6 3.1-2.3-2.4-5.6-3.4-8.6-4.6z"/>
  <path fill="#dde2e6" d="M51.9 439.9c2.6-.2 5.2-.2 7.8-.2l2 .4c3.5.9 7 1 10.5.7h12l6.8.2 6-.1-1.1 2c-2 0-4.3.7-4 3 5.5 3.3 4.5-.5 4.9-2.8l5 .6c4.1.7 8.2-.2 12.2-.6l-.1 1.7c-4 .5-8.2.7-12 2-2.9-1-5.2-.6-7 1l-.8.2H62.9c2-.7 3-3.4 1-4.8-1.8.4-3.5 1.6-5.4 1.4-.6-1.7-2-.8-3.3-.4l-4.3-.3c-.1-2.5 3.3-1.8 4.3-3.7l-2.1-.2-1.2-.1z"/>
  <path fill="#a0a8a8" d="M59.7 439.7l4.2-.8c3.4.1 6.7.2 10 .5l10.3 1.4h-12c-3.4-.7-7-.9-10.5-.7l-2-.4z"/>
  <path fill="#a6b1b1" d="M91 439h7.9l-.2.7L97 441l-5.9.1v-2z"/>
  <path fill="#d2e1e8" d="M98.7 439.7c3.5-1 7.5-.8 10.6 1l-6.3.9-6-.7 1.7-1.2z"/>
  <path fill="#90999b" d="M53 440l2.2.2c-1 1.9-4.5 1.2-4.3 3.7l4.3.3c-2.5.5-3.9 1.3-1.2 3-4.8-.8-9.6-1.5-14.3-2.8 2.6-.3 5.2-.8 7.8-1.3 2.2-.4 3.7-2 5.6-3.1z" opacity=".9"/>
  <path fill="#c5cbcb" d="M61.7 440.1c3.5-.2 7 0 10.5.7-3.5.3-7 .2-10.5-.7z"/>
  <path fill="#f1f3f4" d="M97 440.9l6 .7-1.1 2.1-5.1-.6-1-.2c.4-.5.9-1.5 1.1-2z"/>
  <path fill="#bcc8cb" d="M55.2 444.2c1.2-.4 2.7-1.3 3.3.4 1.9.2 3.6-1 5.4-1.4 2 1.4 1 4-1 4.8H60c-2 0-4-.1-6-.8-2.7-1.7-1.3-2.5 1.2-3z"/>
  <path fill="#aab6b8" d="M91.9 446c-.3-2.4 2-3.2 4-3.1l.9.2c-.4 2.3.6 6-4.9 2.8z"/>
  <path fill="#8e9092" d="M95 447.9c1.8-1.7 4-2 6.9-1-1.4 2.1-3.7 2.5-7 1z" opacity=".7"/>
  <path fill="#8c8c8d" d="M60 448h26v1H60v-1z" opacity=".7"/>
  <path fill="#3c3a3b" d="M86 448h8.1l-.2 1H86v-1z" opacity=".3"/>
</svg>
