<?xml version="1.0" encoding="UTF-8" ?>
<!DOCTYPE svg PUBLIC "-//W3C//DTD SVG 1.1//EN" "http://www.w3.org/Graphics/SVG/1.1/DTD/svg11.dtd">
<svg width="357pt" height="357pt" viewBox="0 0 357 357" version="1.1" xmlns="http://www.w3.org/2000/svg">
<g id="#0b0b0b0c">
<path fill="#0b0b0b" opacity="0.05" d=" M 0.00 0.00 L 357.00 0.00 L 357.00 357.00 L 0.00 357.00 L 0.00 0.00 M 11.30 6.29 C 7.51 7.37 6.04 11.40 5.99 14.98 C 6.00 104.99 6.02 195.00 5.98 285.01 C 6.04 289.25 5.82 293.68 7.26 297.76 C 9.09 299.89 12.36 300.35 14.99 299.97 C 46.58 300.16 78.18 299.76 109.77 300.15 C 110.05 300.41 110.60 300.93 110.88 301.19 C 111.60 311.05 109.52 321.28 113.25 330.74 C 121.39 340.90 134.34 345.06 146.66 347.44 C 171.36 353.32 197.37 351.30 221.71 344.67 C 229.97 341.40 239.72 338.53 243.98 329.98 C 247.55 320.75 245.36 310.82 246.13 301.23 C 246.41 300.96 246.96 300.41 247.23 300.13 C 280.38 299.60 313.56 300.51 346.70 299.69 C 350.21 298.96 350.78 295.00 351.01 292.02 C 350.96 200.01 351.05 108.00 350.97 15.99 C 352.54 10.19 346.81 4.46 341.01 6.03 C 231.11 6.15 121.19 5.63 11.30 6.29 Z" />
</g>
<g id="#0a0a0af8">
<path fill="#0a0a0a" opacity="0.97" d=" M 11.30 6.29 C 121.19 5.63 231.11 6.15 341.01 6.03 C 346.81 4.46 352.54 10.19 350.97 15.99 C 351.05 108.00 350.96 200.01 351.01 292.02 C 350.78 295.00 350.21 298.96 346.70 299.69 C 313.56 300.51 280.38 299.60 247.23 300.13 C 246.96 300.41 246.41 300.96 246.13 301.23 C 245.36 310.82 247.55 320.75 243.98 329.98 C 239.72 338.53 229.97 341.40 221.71 344.67 C 197.37 351.30 171.36 353.32 146.66 347.44 C 134.34 345.06 121.39 340.90 113.25 330.74 C 109.52 321.28 111.60 311.05 110.88 301.19 C 110.60 300.93 110.05 300.41 109.77 300.15 C 78.18 299.76 46.58 300.16 14.99 299.97 C 12.36 300.35 9.09 299.89 7.26 297.76 C 5.82 293.68 6.04 289.25 5.98 285.01 C 6.02 195.00 6.00 104.99 5.99 14.98 C 6.04 11.40 7.51 7.37 11.30 6.29 M 17.06 17.03 C 16.89 33.01 17.01 48.99 17.03 64.96 C 47.33 65.03 77.64 65.02 107.94 64.97 C 108.11 48.99 107.98 33.01 107.97 17.04 C 77.67 16.97 47.36 16.98 17.06 17.03 M 118.05 17.03 C 117.99 32.61 117.85 48.19 118.15 63.77 C 118.41 64.05 118.93 64.60 119.19 64.88 C 192.76 65.15 266.35 64.96 339.93 64.97 C 340.19 58.67 339.97 52.36 339.96 46.06 C 292.31 45.88 244.65 46.09 196.99 45.97 C 193.53 46.91 190.37 45.17 188.16 42.79 C 187.40 40.34 188.69 37.96 190.19 36.11 C 240.10 35.83 290.02 36.12 339.93 35.97 C 340.19 29.67 339.97 23.35 339.97 17.05 C 266.00 16.95 192.02 16.99 118.05 17.03 M 17.07 75.03 C 16.93 146.34 17.00 217.65 17.04 288.96 C 48.68 289.03 80.32 289.03 111.96 288.96 C 112.10 257.30 111.90 225.65 112.04 193.99 C 111.24 188.95 114.09 184.76 117.39 181.42 C 124.86 175.04 134.65 172.41 143.90 169.75 C 158.03 167.03 172.66 165.13 187.00 166.87 C 204.06 167.70 222.09 169.71 236.73 179.29 C 241.51 182.55 245.75 187.83 244.97 193.99 C 245.09 225.65 244.90 257.30 245.04 288.96 C 276.67 289.03 308.30 289.02 339.93 288.97 C 340.07 217.67 340.00 146.36 339.97 75.06 C 232.34 74.94 124.70 75.00 17.07 75.03 M 173.35 176.58 C 155.82 178.05 135.77 178.58 122.13 191.20 C 121.36 195.54 125.78 198.20 129.05 199.92 C 149.54 210.18 173.32 210.26 195.66 208.43 C 208.92 206.81 223.24 204.82 233.78 195.82 C 234.26 194.49 235.58 193.02 234.41 191.66 C 231.78 185.98 224.86 184.93 219.80 182.36 C 204.99 177.20 188.88 175.88 173.35 176.58 M 122.00 207.99 C 122.05 217.90 121.78 227.83 122.20 237.74 C 125.77 242.19 130.86 244.89 136.14 246.82 C 152.68 252.79 170.58 253.79 188.01 252.93 C 199.11 251.65 210.44 250.89 221.00 246.98 C 226.07 244.41 232.25 242.39 234.92 236.93 C 235.23 227.59 234.94 218.23 234.93 208.89 C 216.24 217.45 195.47 220.94 174.99 220.02 C 156.94 219.24 137.82 217.55 122.00 207.99 M 122.08 251.92 C 121.88 261.50 121.81 271.12 122.29 280.70 C 124.20 285.81 129.85 287.44 134.30 289.61 C 150.17 295.63 167.49 297.46 184.28 296.33 C 199.86 295.50 216.28 294.22 229.97 285.96 C 232.86 284.48 235.27 281.40 235.03 278.02 C 235.01 269.30 235.06 260.59 234.93 251.88 C 218.23 260.01 199.55 263.62 181.00 263.03 C 160.89 263.55 140.26 260.98 122.08 251.92 M 121.99 295.05 C 122.06 304.95 121.78 314.85 122.20 324.74 C 125.77 329.19 130.86 331.89 136.14 333.82 C 154.36 340.31 174.19 341.17 193.29 339.35 C 207.81 337.72 224.45 336.21 234.84 324.79 C 235.18 314.87 234.96 304.94 235.00 295.02 C 215.46 305.38 192.76 307.56 170.99 306.94 C 154.18 305.80 136.99 303.17 121.99 295.05 Z" />
<path fill="#0a0a0a" opacity="0.97" d=" M 33.03 33.03 C 36.77 33.03 44.23 33.03 47.97 33.03 C 47.97 36.77 47.97 44.23 47.97 47.97 C 44.23 47.97 36.77 47.97 33.03 47.97 C 33.03 44.23 33.03 36.77 33.03 33.03 Z" />
<path fill="#0a0a0a" opacity="0.97" d=" M 55.03 33.03 C 58.77 33.03 66.23 33.03 69.97 33.03 C 69.97 36.77 69.97 44.23 69.97 47.97 C 66.23 47.97 58.77 47.97 55.03 47.97 C 55.03 44.23 55.03 36.77 55.03 33.03 Z" />
<path fill="#0a0a0a" opacity="0.97" d=" M 77.03 33.03 C 80.77 33.03 88.23 33.03 91.97 33.03 C 91.97 36.77 91.97 44.23 91.97 47.97 C 88.23 47.97 80.77 47.97 77.03 47.97 C 77.03 44.23 77.03 36.77 77.03 33.03 Z" />
<path fill="#0a0a0a" opacity="0.97" d=" M 168.19 36.07 C 174.71 31.97 179.87 43.59 173.35 45.41 C 168.00 47.95 163.38 39.62 168.19 36.07 Z" />
<path fill="#0a0a0a" opacity="0.97" d=" M 38.26 94.19 C 66.42 93.85 94.60 93.91 122.77 94.16 C 124.29 95.69 126.44 97.76 125.23 100.08 C 124.94 103.77 119.69 104.37 117.01 103.97 C 91.35 103.99 65.69 104.09 40.05 103.93 C 35.55 103.40 34.31 96.38 38.26 94.19 Z" />
<path fill="#0a0a0a" opacity="0.97" d=" M 40.30 115.28 C 107.19 114.61 174.11 115.20 241.02 114.99 C 243.72 115.29 247.48 115.54 248.42 118.65 C 249.81 120.72 248.26 123.24 246.76 124.75 C 242.68 126.17 238.25 125.96 234.01 126.02 C 170.33 125.99 106.66 125.98 42.98 126.03 C 40.28 126.29 37.91 124.65 36.14 122.77 C 33.95 118.79 37.54 116.58 40.30 115.28 Z" />
<path fill="#0a0a0a" opacity="0.97" d=" M 77.07 208.03 C 80.79 208.03 88.24 208.03 91.96 208.03 C 91.99 212.67 92.17 217.33 91.93 221.97 C 88.21 221.97 80.76 221.97 77.04 221.97 C 77.00 217.31 76.83 212.67 77.07 208.03 Z" />
<path fill="#0a0a0a" opacity="0.97" d=" M 266.07 208.03 C 270.69 207.99 275.34 207.83 279.97 208.07 C 279.98 212.69 280.17 217.34 279.93 221.97 C 275.29 221.99 270.66 222.17 266.03 221.93 C 265.99 217.29 265.83 212.66 266.07 208.03 Z" />
<path fill="#0a0a0a" opacity="0.97" d=" M 77.03 229.03 C 80.77 229.03 88.23 229.03 91.97 229.03 C 91.97 232.77 91.97 240.23 91.97 243.97 C 88.23 243.97 80.77 243.97 77.03 243.97 C 77.03 240.23 77.03 232.77 77.03 229.03 Z" />
<path fill="#0a0a0a" opacity="0.97" d=" M 266.03 229.04 C 270.67 229.00 275.33 228.83 279.97 229.07 C 279.97 232.79 279.97 240.24 279.97 243.96 C 275.31 243.98 270.67 244.17 266.03 243.93 C 266.03 240.21 266.03 232.76 266.03 229.04 Z" />
<path fill="#0a0a0a" opacity="0.97" d=" M 77.03 251.03 C 80.77 251.03 88.23 251.03 91.97 251.03 C 91.97 254.77 91.97 262.23 91.97 265.97 C 88.23 265.97 80.77 265.97 77.03 265.97 C 77.03 262.23 77.03 254.77 77.03 251.03 Z" />
<path fill="#0a0a0a" opacity="0.97" d=" M 266.03 251.04 C 270.67 251.00 275.33 250.83 279.97 251.07 C 279.97 254.79 279.97 262.24 279.97 265.96 C 275.31 265.98 270.67 266.17 266.03 265.93 C 266.03 262.21 266.03 254.76 266.03 251.04 Z" />
</g>
<g id="#f9f9f9ff">
<path fill="#f9f9f9" opacity="1.00" d=" M 17.06 17.03 C 47.36 16.98 77.67 16.97 107.97 17.04 C 107.98 33.01 108.11 48.99 107.94 64.97 C 77.64 65.02 47.33 65.03 17.03 64.96 C 17.01 48.99 16.89 33.01 17.06 17.03 M 33.03 33.03 C 33.03 36.77 33.03 44.23 33.03 47.97 C 36.77 47.97 44.23 47.97 47.97 47.97 C 47.97 44.23 47.97 36.77 47.97 33.03 C 44.23 33.03 36.77 33.03 33.03 33.03 M 55.03 33.03 C 55.03 36.77 55.03 44.23 55.03 47.97 C 58.77 47.97 66.23 47.97 69.97 47.97 C 69.97 44.23 69.97 36.77 69.97 33.03 C 66.23 33.03 58.77 33.03 55.03 33.03 M 77.03 33.03 C 77.03 36.77 77.03 44.23 77.03 47.97 C 80.77 47.97 88.23 47.97 91.97 47.97 C 91.97 44.23 91.97 36.77 91.97 33.03 C 88.23 33.03 80.77 33.03 77.03 33.03 Z" />
<path fill="#f9f9f9" opacity="1.00" d=" M 118.05 17.03 C 192.02 16.99 266.00 16.95 339.97 17.05 C 339.97 23.35 340.19 29.67 339.93 35.97 C 290.02 36.12 240.10 35.83 190.19 36.11 C 188.69 37.96 187.40 40.34 188.16 42.79 C 190.37 45.17 193.53 46.91 196.99 45.97 C 244.65 46.09 292.31 45.88 339.96 46.06 C 339.97 52.36 340.19 58.67 339.93 64.97 C 266.35 64.96 192.76 65.15 119.19 64.88 C 118.93 64.60 118.41 64.05 118.15 63.77 C 117.85 48.19 117.99 32.61 118.05 17.03 M 168.19 36.07 C 163.38 39.62 168.00 47.95 173.35 45.41 C 179.87 43.59 174.71 31.97 168.19 36.07 Z" />
<path fill="#f9f9f9" opacity="1.00" d=" M 17.07 75.03 C 124.70 75.00 232.34 74.94 339.97 75.06 C 340.00 146.36 340.07 217.67 339.93 288.97 C 308.30 289.02 276.67 289.03 245.04 288.96 C 244.90 257.30 245.09 225.65 244.97 193.99 C 245.75 187.83 241.51 182.55 236.73 179.29 C 222.09 169.71 204.06 167.70 187.00 166.87 C 172.66 165.13 158.03 167.03 143.90 169.75 C 134.65 172.41 124.86 175.04 117.39 181.42 C 114.09 184.76 111.24 188.95 112.04 193.99 C 111.90 225.65 112.10 257.30 111.96 288.96 C 80.32 289.03 48.68 289.03 17.04 288.96 C 17.00 217.65 16.93 146.34 17.07 75.03 M 38.26 94.19 C 34.31 96.38 35.55 103.40 40.05 103.93 C 65.69 104.09 91.35 103.99 117.01 103.97 C 119.69 104.37 124.94 103.77 125.23 100.08 C 126.44 97.76 124.29 95.69 122.77 94.16 C 94.60 93.91 66.42 93.85 38.26 94.19 M 40.30 115.28 C 37.54 116.58 33.95 118.79 36.14 122.77 C 37.91 124.65 40.28 126.29 42.98 126.03 C 106.66 125.98 170.33 125.99 234.01 126.02 C 238.25 125.96 242.68 126.17 246.76 124.75 C 248.26 123.24 249.81 120.72 248.42 118.65 C 247.48 115.54 243.72 115.29 241.02 114.99 C 174.11 115.20 107.19 114.61 40.30 115.28 M 77.07 208.03 C 76.83 212.67 77.00 217.31 77.04 221.97 C 80.76 221.97 88.21 221.97 91.93 221.97 C 92.17 217.33 91.99 212.67 91.96 208.03 C 88.24 208.03 80.79 208.03 77.07 208.03 M 266.07 208.03 C 265.83 212.66 265.99 217.29 266.03 221.93 C 270.66 222.17 275.29 221.99 279.93 221.97 C 280.17 217.34 279.98 212.69 279.97 208.07 C 275.34 207.83 270.69 207.99 266.07 208.03 M 77.03 229.03 C 77.03 232.77 77.03 240.23 77.03 243.97 C 80.77 243.97 88.23 243.97 91.97 243.97 C 91.97 240.23 91.97 232.77 91.97 229.03 C 88.23 229.03 80.77 229.03 77.03 229.03 M 266.03 229.04 C 266.03 232.76 266.03 240.21 266.03 243.93 C 270.67 244.17 275.31 243.98 279.97 243.96 C 279.97 240.24 279.97 232.79 279.97 229.07 C 275.33 228.83 270.67 229.00 266.03 229.04 M 77.03 251.03 C 77.03 254.77 77.03 262.23 77.03 265.97 C 80.77 265.97 88.23 265.97 91.97 265.97 C 91.97 262.23 91.97 254.77 91.97 251.03 C 88.23 251.03 80.77 251.03 77.03 251.03 M 266.03 251.04 C 266.03 254.76 266.03 262.21 266.03 265.93 C 270.67 266.17 275.31 265.98 279.97 265.96 C 279.97 262.24 279.97 254.79 279.97 251.07 C 275.33 250.83 270.67 251.00 266.03 251.04 Z" />
<path fill="#f9f9f9" opacity="1.00" d=" M 173.35 176.58 C 188.88 175.88 204.99 177.20 219.80 182.36 C 224.86 184.93 231.78 185.98 234.41 191.66 C 235.58 193.02 234.26 194.49 233.78 195.82 C 223.24 204.82 208.92 206.81 195.66 208.43 C 173.32 210.26 149.54 210.18 129.05 199.92 C 125.78 198.20 121.36 195.54 122.13 191.20 C 135.77 178.58 155.82 178.05 173.35 176.58 Z" />
<path fill="#f9f9f9" opacity="1.00" d=" M 122.00 207.99 C 137.82 217.55 156.94 219.24 174.99 220.02 C 195.47 220.94 216.24 217.45 234.93 208.89 C 234.94 218.23 235.23 227.59 234.92 236.93 C 232.25 242.39 226.07 244.41 221.00 246.98 C 210.44 250.89 199.11 251.65 188.01 252.93 C 170.58 253.79 152.68 252.79 136.14 246.82 C 130.86 244.89 125.77 242.19 122.20 237.74 C 121.78 227.83 122.05 217.90 122.00 207.99 Z" />
<path fill="#f9f9f9" opacity="1.00" d=" M 122.08 251.92 C 140.26 260.98 160.89 263.55 181.00 263.03 C 199.55 263.62 218.23 260.01 234.93 251.88 C 235.06 260.59 235.01 269.30 235.03 278.02 C 235.27 281.40 232.86 284.48 229.97 285.96 C 216.28 294.22 199.86 295.50 184.28 296.33 C 167.49 297.46 150.17 295.63 134.30 289.61 C 129.85 287.44 124.20 285.81 122.29 280.70 C 121.81 271.12 121.88 261.50 122.08 251.92 Z" />
<path fill="#f9f9f9" opacity="1.00" d=" M 121.99 295.05 C 136.99 303.17 154.18 305.80 170.99 306.94 C 192.76 307.56 215.46 305.38 235.00 295.02 C 234.96 304.94 235.18 314.87 234.84 324.79 C 224.45 336.21 207.81 337.72 193.29 339.35 C 174.19 341.17 154.36 340.31 136.14 333.82 C 130.86 331.89 125.77 329.19 122.20 324.74 C 121.78 314.85 122.06 304.95 121.99 295.05 Z" />
</g>
</svg>
