<svg xmlns="http://www.w3.org/2000/svg" width="193pt" height="404pt" viewBox="0 0 193 404">
  <defs/>
  <path fill="#c5c2b3" d="M65.7 2.7c2.1-3.2 6.8-1.2 9.6 0 .3 1 .5 2.1.6 3.2-2.6 5.3-6.4 10-8.8 15.4-.6.2-1.3.2-2-.2-1-5.7-4.6-13.6.6-18.4z"/>
  <path fill="#c4b997" d="M75.3 2.7C77.7 4.2 80 6.1 82 8c.8 2.8 3.1 4.7 5.1 6.7-1.6 1-2.3 2.4-1.8 4.2L84 21.2c1.6-7.5-9.6-7.7-12.4-2.3a28 28 0 01-4.6 2.4c2.4-5.4 6.2-10.1 8.8-15.4a19 19 0 00-.6-3.2z"/>
  <path fill="#ac9c76" d="M82 7.9c4 2.7 8.5 4.8 11 9.1 2.6 4.7 7.1 7.7 10.4 11.8-2-.1-3.7-1-5.4-1.8-3.2-4.5-5.8-9.9-10.9-12.4-2-2-4.3-3.9-5-6.7z" opacity=".9"/>
  <path fill="#c7aa65" d="M71.7 19c2.8-5.5 14-5.3 12.4 2.2-3 2.2-6.8 1.6-10.3 2-1.5-1-1.9-2.6-2.1-4.3z"/>
  <path fill="#cecdc2" d="M85.3 18.8c-.5-1.8.2-3.3 1.8-4.2 5.1 2.5 7.7 8 10.9 12.4 2.6 8 4.8 16.4 5 25l-.1.8c-2 3.3-3.4 7.9-8 8.1-2.8-9.4-1.4-19.6-5-28.8-2-4.3-3.1-8.9-4.6-13.3z"/>
  <path fill="#cab579" d="M67.1 21.3a28 28 0 004.6-2.4c.2 1.7.6 3.3 2 4.3l.5.4c-3.8 6-6 12.7-10.5 18.3a58 58 0 00-2 2.3c-1.4-8 3.3-15.2 3.4-23 .7.3 1.4.3 2 0z"/>
  <path fill="#cbc8b8" d="M85.3 18.8c1.5 4.4 2.7 9 4.5 13.3 3.7 9.2 2.4 19.4 5.2 28.8 4.5-.2 5.8-4.8 7.9-8.1v6a33 33 0 00-3.9 8.4l-5.8.7c-2.4-9-.8-18.8-3-28-1-6.6-5.5-12.1-6-18.7l1-2.4z"/>
  <path fill="#c6c0ae" d="M73.8 23.2c3.5-.4 7.3.2 10.3-2 .6 6.6 5 12.1 6.1 18.7 2.2 9.2.6 19 3 28l5.8-.7.1 1-1 .8c-2 .6-4 1.5-6 2-2.1-3.3-.4-8.5-3.8-11.2-.8 3.2-1.8 6.4-3.2 9.4-.5-7.4 1.9-14.7.6-22-1.6-8.5-5-17.6-11.5-23.6l-.5-.4z"/>
  <path fill="#d0c9ad" d="M63.7 41.9c4.4-5.6 6.7-12.4 10.5-18.3-1.3 7-4 14.6-10.5 18.3z"/>
  <path fill="#d0cec0" d="M74.2 23.6c6.6 6 10 15 11.5 23.7 1.3 7.2-1.1 14.6-.6 21.9L84 71c-1 1-1.8 2.2-2.9 3.1-.6-3.8-.8-7.8-3-11-.1-4-8.5-2.1-4.3 2.7a63.8 63.8 0 00-9.6 5.7l-1.5-.7c0-5.4 1.4-10.8 1.6-16.2-.1-3.6-1.8-7-2.7-10.4a58 58 0 012.1-2.3c6.6-3.7 9.2-11.3 10.5-18.3z"/>
  <path fill="#b9b19d" d="M98 27c1.7.9 3.5 1.7 5.4 1.8a48.2 48.2 0 015.8 20.9l-6.2 2.2A86.8 86.8 0 0098 27z"/>
  <path fill="#c2a46a" d="M103 52c2-.9 4.1-1.6 6.2-2.3l1.3 2.4c-2.2.5-5-1-6.4 1.1 1.3 4.9 0 9.8-.1 14.7 1.7.2 3.4.2 5.2.3-3.2 2-7 1.5-7.5-2.3.4-2.3 1-4.7 1.1-7.1.2-2 .1-4 0-6l.3-.9z"/>
  <path fill="#bc9456" d="M104.1 53.2c1.5-2 4.3-.6 6.4-1l.7.8c1.1 2.7 0 7.8 5.7 5.4 2.3.7 4.3-1 5.6-2.6 2.2.8 3.8 2.7 4.7 4.9-2 1.3-3.7 3-2.5 5.4-1.6-.7-3.1-1.5-4.8-2.1l-2-2.1c-1.2-1.4-2.9-2.3-4.7-1.9-2 2.7 0 7.3-4 8.2-1.8 0-3.5-.1-5.2-.3.1-5 1.4-9.8.1-14.7z"/>
  <path fill="#aa8255" d="M111.2 53c3.7 1.1 7.7 1.1 11.3 2.8-1.3 1.7-3.3 3.3-5.6 2.6-5.7 2.4-4.6-2.7-5.7-5.4z"/>
  <path fill="#cab989" d="M57.2 68.8c-2-6.3 3.7-10 7-14.2-.1 5.4-1.6 10.8-1.5 16.2-1 3-2 6.2-1.7 9.5-.4 4.3 6.4 1.3 7.6 5 .6 3.4 2 6.8 5 8.6l1.3-2c0 1.4-.3 2.8-.6 4.1h-4.1c-1.3-4-1.9-10.3-7.1-10.2-1.3-1.3-2.4-3-4-3.9-2 1.2-3 3.7-4.8 5.2-1-3 2-5.2 3-7.8.9-3.5.9-7 0-10.5z"/>
  <path fill="#cbb580" d="M99 67.2a33 33 0 013.8-8.4c0 2.4-.7 4.8-1.1 7.1l-2.6 2.2v-1z"/>
  <path fill="#cbc09e" d="M88.3 59.8C91.7 62.5 90 67.7 92 71c2-.5 4-1.4 6-2 0 .5-.3 1.3-.4 1.7-2.7 1.9-5 4.3-7.5 6.3-.9-1.6-1.5-3.4-2.4-5-1.8-.4-3 .5-3.6 2.2L84 71l1.1-1.8c1.4-3 2.4-6.2 3.2-9.4z"/>
  <path fill="#ceaf67" d="M113.2 60c1.8-.4 3.5.5 4.6 1.9-5 .9-2.3 11.5-9.8 8-5.5-1.2-5 5.5-7.2 8.8-2.6 3.2-5 6.5-7 10.2-1.3.2-3.8-.3-2.6 2 1.7 2.4 2.3 5.4 2.7 8.3L89.4 95c1.2-4.5-1-9.2.7-13.7 3.2-3 6.8-6 7.6-10.6l.5-1.7 1-.9 2.5-2.2c.5 3.8 4.3 4.3 7.5 2.3 4-1 2-5.5 4-8.2z"/>
  <path fill="#cdc6ab" d="M73.8 65.8C69.6 61 78 59 78 63c2.3 3.3 2.5 7.3 3.1 11.1L84 71l.2 3.2c-.4 2-1 4-2.3 5.7-3.9-.7-.8-8.7-3.8-9.7A191.4 191.4 0 0075 90.1c-1.6 1.3-2.8 0-3.8-1.4-.5-4.6.7-9.1.8-13.7-6.3-3.4-6.7 4-11 5.3-.3-3.3.7-6.4 1.7-9.5l1.5.7c3-2.2 6.3-4 9.6-5.7z"/>
  <path fill="#c4a25c" d="M124.7 66c-1.2-2.4.4-4 2.5-5.3 2.2 1.7 4.6 3.2 6.9 5-3.8-.1-5.7 2.7-3.4 6.5 1 5 2.4 10 3.6 15-.5 3.2.7 6.4 2.5 9l1.9 1c4.9 2 6.8 8 6 12.8-1.1 1.5-1.3 3.8.5 4.9-4-.3-2.5 4.7-5 6.3-1.7 1.2.2 2.8.6 4-1.7-.6-3.2-1.8-3.5-3.8 3-1.2 3.1-4.6 3.6-7.3a38.5 38.5 0 00-5.8-6.3c-.6-3.8 1.2-9-2-12.1a9.1 9.1 0 01-6-3.9c-.1-3.2.3-6.3.4-9.5-2.2-5-2.2-11.5-6.4-15.5l-1-1-.1-1.8c1.6.6 3 1.4 4.7 2z"/>
  <path fill="#cdc9b6" d="M108 70c7.5 3.4 4.9-7.2 9.8-8.1l2.2 2v1.9c-3.3-1.6-4.4 2.3-5.7 4.5-2.3 11.2 6 20.3 7.9 30.7 2.7.6 4.2-3.7 2.2-5.6-.4-4.2.7-8.4.9-12.6.7 4.8.6 9.6 1 14.5l-.2 4c.6 1.9 4.2-2 6-2.3-.6 6-5.4 11.1-11 13-5.7 3-12 3.8-18 6-1.4-2.2-3-4.7-5.8-5.3-2-2.2-9.6 1.6-9.3-2.8a54 54 0 0017.6.7c4.4-1.7 8.6-4 13.3-4.8 1.5-.1 2.5-1.3 2.1-2.8-3.3 0-6.6.8-10 1 .8-9 1.4-18.5-1.8-27.1-.5-2.3-2.4-3.7-4.2-5 0 2.2 1 4.6-.2 6.8h-4c2.3-3.3 1.7-10 7.2-8.8z"/>
  <path fill="#d0cfc3" d="M114.3 70.3c1.3-2.2 2.4-6.1 5.8-4.5l1 1c1.7 5.3 3.6 10.5 4.2 16-.2 4.2-1.3 8.4-.9 12.6 2 2 .5 6.2-2.2 5.5-2-10.3-10.2-19.4-7.9-30.6z"/>
  <path fill="#baae92" d="M130.7 72.2c-2.3-3.8-.3-6.6 3.4-6.5a16 16 0 013.1 7c.2 1.7-.8 4 1.2 5 2.5 1.1-1 5 1.8 6.2 2.5.7 4.6-.8 6.7-1.8l1.3 3.6c-2 2.2-4.2 3.4-7 2.4-.7 2.3-2 6.9-2.5 9.2l-2-1.2c1.5-6.5 1-13.4-.9-19.8l-.8-.4-.2 2.3c-1.2-3.3-.5-8-3.6-10.4l-.5 4.4z"/>
  <path fill="#c2b38d" d="M121.1 66.8c4.2 4 4.2 10.5 6.4 15.5-.1 3.2-.5 6.3-.4 9.5 0 1.9-.2 3.7-.9 5.5-.3-4.9-.2-9.7-.9-14.5-.6-5.5-2.5-10.7-4.2-16z"/>
  <path fill="#c4bca4" d="M131.2 67.8c3.1 2.4 2.4 7 3.6 10.4 0 3 .6 6.1-.5 9-1.2-5-2.7-10-3.6-15l.5-4.4z"/>
  <path fill="#30302f" d="M57.2 68.8c1 3.5 1 7 0 10.5-.2-3.5 0-7 0-10.5z" opacity=".3"/>
  <path fill="#cdbc87" d="M78.1 70.2c3 1 0 9 3.8 9.7 1.3-1.6 2-3.7 2.3-5.7.5-1.7 1.8-2.6 3.6-2.2 1 1.6 1.5 3.4 2.4 5 2.5-2 4.8-4.4 7.5-6.3-.8 4.6-4.4 7.7-7.6 10.6-1.7-.5-3-2.3-4.9-2.1-1.7 1.6-2.6 4.3-5 5l-1.5-4c-1.5-.3-2 1-2.7 2l2.1-12z"/>
  <path fill="#d2cfbe" d="M105 71.8c1.8 1.4 3.7 2.8 4.2 5 3.2 8.7 2.5 18.1 1.9 27.2 3.3-.2 6.6-1 10-1 .3 1.5-.7 2.7-2.2 2.8-4.7.8-8.9 3-13.3 4.8A54 54 0 0188 110l-.2-3.2c.3-1.3.8-2.5 1.3-3.8l2.8-1c4.6 0 10 .8 14-2.2.8-2.7-2-5.7-4.8-4.5-2.4 1-4.7-.6-7-1.4l-.2-5c1.8-3.7 4.3-7 6.9-10.3l4 .1c1.2-2.2.2-4.6.2-6.9z"/>
  <path fill="#a48b5e" d="M137.2 72.8c.5 5.5 8 4.8 9.7 9.3-2 1-4.2 2.5-6.7 1.8-2.8-1.3.7-5-1.8-6.3-2-.8-1-3.2-1.2-4.8z" opacity=".9"/>
  <path fill="#cabf9f" d="M61 80.3c4.3-1.3 4.7-8.7 11-5.3-.1 4.6-1.3 9-.8 13.7 1 1.4 2.2 2.7 3.8 1.4l-.1 1.8-1.2 2c-3.2-1.8-4.5-5.2-5.1-8.6-1.2-3.7-8-.8-7.6-5z"/>
  <path fill="#bca573" d="M135 76l.8.3c2 6.4 2.4 13.3 1 19.8-1.8-2.5-3-5.7-2.5-8.9 1.1-2.9.6-6 .5-9l.2-2.3z"/>
  <path fill="#c7ac74" d="M85.2 79.2c1.8-.2 3.2 1.6 4.9 2.1-1.7 4.5.5 9.2-.7 13.7-1.1 2-3.2 2.3-5.3 2a73 73 0 01-.3-4.2l1.5-1.1c1-.7 2.3-1.3 2.7-2.6-2-1.5-4.5-2.6-7-1.5l-.8-3.4c2.4-.7 3.3-3.4 5-5z"/>
  <path fill="#d1b267" d="M76 82.1c.7-.9 1.3-2.2 2.7-2l1.5 4.1.8 3.4c-6.2 2.7-7.1 13-.8 16.3 2.6 2.6 6-.3 8.9-.9-.5 1.3-1 2.5-1.3 3.8l-.8 6.1 5 .1c-2 2.5 1.6 1.8 2.8 3.2 3 2.8.4 8.6 4.2 10.9 1.8.8.5 2.6.1 3.9l-4 .1c.6-2.3.8-4.7.9-7l-1-2c-.8-2-1-4.3-2.2-6-3.8-.7-6.4 2.6-6.6 6.1l-2 1c.2-1.4 1.1-4.2-1.3-4.2-3.5.2-9.3 2.2-7.9 6.8l4 .4c.2 1.7-.2 3.4-1 4.9-2 0-4.1 0-5.2-2 .4-2 .9-4 1.2-6.1l1.1-3.8c2.6-1.6 1.7-4.8 1.8-7.4 2.6-6.2-3.5-10-2.6-15.8.3-1.3.5-2.7.6-4.2l.1-1.7c0-2.7.5-5.4 1-8z"/>
  <path fill="#c7a15e" d="M54.3 87.1c1.8-1.5 2.7-4 4.7-5.2 1.7.8 2.8 2.6 4 4 1.1 1.5 2.9 2.4 3.8 4-2.9-.3-1.4 3.4-1.9 5.1-3.8.7-3.6-5.3-7.7-5-.8 1.3-1.4 2.8-2 4.2l-1-7z"/>
  <path fill="#cea86d" d="M63 85.8c5.3 0 6 6.3 7.2 10.1-4.7-.5-9.9-.4-13.2 3.4a62 62 0 01-2.2-2.3l.4-2.8c.6-1.4 1.2-2.9 2-4.2 4-.3 4 5.7 7.7 5h4a125 125 0 00-2-5c-1-1.7-2.8-2.6-3.8-4.2z"/>
  <path fill="#c1baa6" d="M141.1 88c3 1.1 5.2-.1 7-2.3 4.2 2.7 3 8 3.8 12.2 1.5 4-1.3 9 2.2 11.9 1.8-1.4 4.1-2.5 5.2.4l1.5 2c.1 3.4 1.2 6.8 2.5 10-3-.3-6-.3-7.5 2.7-2.8.8-.5-2.4-.8-3.8-.6-2.2-3-3.3-4.8-4.4-1-.7-2.2-1.3-3.3-1.9-1-1.5-1.8-3-2.2-4.8.8-4.8-1.1-10.8-6-12.8l2.4-9.1z"/>
  <path fill="#c99d55" d="M81 87.6c2.5-1 5 0 7 1.5-.4 1.3-1.8 1.9-2.7 2.6a8.8 8.8 0 00-4.1-.7c-1.3 2.3-2.1 4.7-3.1 7l3.6-.1c.4-1.9.2-4 2.1-5l.3 4.1c2 .3 4.2 0 5.3-2l4.5 4.2.2 1.7-2.2 1L89 103c-2.9.6-6.3 3.5-9 .9-6.2-3.4-5.3-13.6.9-16.3z"/>
  <path fill="#d1ba7d" d="M91.2 90.8C90 88.6 92.5 89.1 94 89c0 1.7.1 3.3.3 5-.5 2 2.5 6.1-.1 7l-.2-1.8c-.5-2.8-1-5.8-2.7-8.3z"/>
  <path fill="#c4893e" d="M65 95c.4-1.7-1.1-5.4 1.8-5a125 125 0 012.1 5h-4z"/>
  <path fill="#b58137" d="M81.2 91c1.4-.2 2.8.2 4 .7l-1.4 1.1c-1.9 1-1.7 3.2-2 5l-3.7.3c1-2.4 1.8-4.8 3-7z"/>
  <path fill="#c1a96e" d="M127.1 91.8a9.1 9.1 0 006 3.9c-3.6-.2-4.6 3.6-7 5.6l.1-4c.7-1.8.9-3.6 1-5.5z"/>
  <path fill="#d1caaf" d="M94.2 93.9c2.2.8 4.5 2.3 7 1.4 2.7-1.2 5.5 1.8 4.8 4.5-4 3-9.5 2.2-14.1 2.1l2.2-1c2.6-.9-.4-5 0-7z"/>
  <path fill="#d4cfbb" d="M57 99.3c3.3-3.8 8.5-3.9 13.2-3.4l4 .1c-.8 5.8 5.3 9.6 2.7 15.8-1.9 2-2.1 4.7-1.8 7.4-4.2.4-9-1.3-13 .8-5.1.1-10.6.3-15.4 2.4-1-.5-1.6-1.2-2-2.2 1.2-4.8 7-7 7.3-12-2.6.4-4.8-.4-6.5-2.3 3.9-2.3 9.8-1.7 11.5-6.6z"/>
  <path fill="#c9c0a2" d="M126.1 101.3c2.4-2 3.4-5.8 7-5.6 3.2 3.1 1.4 8.3 2 12.1v2.2c-1-.9-2-3-3.3-1.2-6 6.6-14.9 8.1-22.8 11.2-1 .7-2.9.7-3 2.2l-.3 2c-.8-2.1-1.6-4.2-2.6-6.2 6-2.2 12.3-3 18-6 5.6-1.9 10.4-7 11-13-1.8.3-5.4 4.2-6 2.3z"/>
  <path fill="#c2ad7a" d="M43.7 105.7c2.4-4 7.6-5.6 11-8.8a62 62 0 002.3 2.4c-1.7 5-7.6 4.3-11.5 6.6l-1.8-.2z"/>
  <path fill="#b8af97" d="M152 98c3 0 6.5-.1 8.9 2.2.3 3.4.5 7.1-1.6 10-1-3-3.4-1.8-5.2-.4-3.5-2.8-.7-8-2.2-11.9z"/>
  <path fill="#cec5a7" d="M41.8 110.8c.5-1.7 1.1-3.4 1.9-5.1l1.8.2a7.2 7.2 0 006.5 2.4c-.3 4.9-6.1 7.1-7.3 12-1.9-2.9-3.1-6-2.9-9.5z"/>
  <path fill="#cec297" d="M87 113l.8-6.2.2 3.2c-.3 4.3 7.2.5 9.3 2.8l-5.3.2h-5z"/>
  <path fill="#cec7ae" d="M131.8 108.8c1.2-1.9 2.2.3 3.2 1.2l.3.8c-.5 3 .6 6.7-1 9.4-.5-2.5 1.1-7.6-2.3-8-8 4.8-16.7 8.2-26 10 .1-1.5 2-1.5 3-2.2 8-3 16.8-4.6 22.8-11.2z"/>
  <path fill="#cca563" d="M135 107.8c2.2 2 4.3 4 6 6.3-.6 2.8-.7 6-3.7 7.3.3 2 1.8 3.2 3.5 3.9 1.5 2.2 3.2 4.2 6 4.1l1.4 1.2-1.5 4.3h-.7c1.1-3.8-2.3-2.7-4.8-2.4-1.5-.7-2.8-1.6-4.2-2.4-.5 1-1 2-1.3 3 .1-5-6.1-4.8-7.2-9.2l2.3-1c4.4 1 5.4-4 7-7-.6-1.8-1.6-3.4-2.5-5l-.3-.9v-2.2z"/>
  <path fill="#c3ad7d" d="M145.2 114.9c-1.8-1.1-1.6-3.4-.5-4.9.4 1.7 1.2 3.3 2.2 4.8l-1.7.1z"/>
  <path fill="#c8ba87" d="M40.7 115.6l1.1-4.8c-.2 3.4 1 6.6 2.9 9.4.4 1 1 1.7 2 2.2l.5.7c.5 1.1 1.8 2.1 1.6 3.5l-3.1 1.5c-2.6 1.8-5.2-.7-7.8-1.2 0 3.2 4.2 3.5 5.4 6a6 6 0 01-3.3 4.2c-4-2-6-8.3-11-8-.8-2.2 0-4.7-2.2-6.3 3.2-4.7 8.7-6 13.9-7.2z"/>
  <path fill="#d0be89" d="M135.3 110.8c.9 1.7 2 3.3 2.6 5.2-1.7 2.9-2.7 7.9-7 7 1.1-1 2.4-1.7 3.4-2.8 1.6-2.7.5-6.4 1-9.4z"/>
  <path fill="#d2c285" d="M75.1 119.2c-.3-2.7 0-5.4 1.8-7.4 0 2.7.8 5.8-1.8 7.4z"/>
  <path fill="#d4d0bf" d="M106 122.2c9.3-1.8 18-5.2 26-10 3.4.4 1.8 5.5 2.3 8-1 1.1-2.3 1.9-3.5 2.7l-2.3 1-2.6 1-11.2 3.8-4.8.4-3.8-2.2-.4-2.7.4-2z"/>
  <path fill="#b3a478" d="M160.8 112.1c5.8 0 11.4 1.6 17.2 2 2.2 4.2-5.8 2.9-3.3 6.2 2.6 4.3 8.3 2.3 12.3 2.3l5.3 1.3c-3.4 2.2-7.6 2.5-11.2 4.2 1 2.7 5.7 2.2 7.9 4-.3 2.1-2.5 3.6-2 5.8.8 3.8 4.9 6.2 5 10.1-2.3.6-3.4-1.6-4.7-3l-1 4.2c-3.5 1.7-4.4-2.2-6-4.3-1.2-2-4.5-1.5-5.2-4-1.3-3-4.1-5.5-4-8.9l6-.1c3.4-7.3-4.4-6.7-8.4-6-1.4-1.8-3.2-3-5.4-3.7a31.5 31.5 0 01-2.5-10z"/>
  <path fill="#d0ab5d" d="M92 113l5.3-.3c2.8.6 4.4 3 5.8 5.3 1 2 1.8 4.1 2.6 6.2 0 .7.3 2 .4 2.7-1.7-1.2-5.8-1.3-4.7 1.8 1.2 2.2-.7 2.8-2.6 3l.3-.7c.4-1.3 1.7-3.1-.1-4-3.8-2.2-1.2-8-4.2-10.8-1.2-1.4-4.9-.8-2.8-3.2z"/>
  <path fill="#c09050" d="M140.2 121.3c2.5-1.7 1-6.7 5-6.4h1.7l3.3 1.8c3.3 3.9.5 10.5-3.3 12.7-3 0-4.6-2-6-4.1-.5-1.3-2.4-3-.7-4z"/>
  <path fill="#ccb678" d="M86.2 122.2c.2-3.5 2.8-6.8 6.6-6.2 1.2 1.8 1.4 4 2.2 6-2.9-1.3-6-.8-8.8.2z"/>
  <path fill="#c0a662" d="M150.2 116.7c1.8 1 4.2 2.2 4.8 4.4.3 1.4-2 4.6.8 3.8 3-.2 5.3 1.9 7.5 3.7l4.8-1.7c-1.2 3.1-4.3 4.5-6.8 6.2.5-3.4-1.9-5.5-5.2-5.1l-.3 4c-1.7-1.3-3.3.9-5 1.3-.7-1-1.5-2-2.6-2.7l-1.3-1.2c3.8-2.2 6.5-8.8 3.3-12.7z"/>
  <path fill="#cec18f" d="M62.1 120c4-2.1 8.8-.4 13-.8-.4 1.3-.8 2.5-1 3.8-4.7.5-12-2.2-13.5 4-3.6-2 1-4.4 1.5-7z"/>
  <path fill="#d1aa58" d="M75 125.8c-1.4-4.6 4.4-6.6 8-6.8 2.3 0 1.4 2.8 1.2 4.2L84 125l-2.4 5-.6 1.2-2.8-.1a9.4 9.4 0 00.9-4.9l-4-.4z"/>
  <path fill="#c8b676" d="M46.7 122.4c4.8-2.1 10.3-2.3 15.4-2.4-.4 2.6-5 5-1.5 7 3.3 1.5 7.7.9 11.4 2 1.3 4.9-4 7.3-8.1 5.7-2.8 0-8-5.1-8.9-.6.7 4.3 3.4 8.4 3 13-1.5-1.3-3.8-2-4.6-4 1.6-2.8-1.2-5-3.8-5.6-4.3 1.6-5-2-6.3-4.6-1.2-2.5-5.5-2.8-5.4-6 2.6.5 5.2 3 7.8 1.2.5 4.2 5 3 7 .7-.4-2.3-.4-4.6.2-6.8-2 .2-3.8.7-5.7 1l-.5-.6z"/>
  <path fill="#cec093" d="M86.2 122.2c2.8-1 5.9-1.5 8.8-.2l1 2c-4-1.2-8.5-1.7-12 1l.2-1.8 2-1z"/>
  <path fill="#b99f53" d="M47.2 123c1.9-.3 3.7-.8 5.7-1-.6 2.2-.6 4.5-.1 6.8-2.2 2.3-6.6 3.5-7.1-.7l3.1-1.5c.2-1.4-1-2.4-1.6-3.5z"/>
  <path fill="#c5b67f" d="M155.8 124.9c1.5-3 4.6-3 7.5-2.7 2.2.6 4 1.9 5.4 3.6a7.3 7.3 0 012.3 6.2c0 3.4 2.8 6 4.1 8.9.7 2.5 4 2 5.2 4-.1 2.2-.3 4.7-2.6 5.7-3.6-.6-6.4 1.3-9 3.4l-1.7-1.1-.7-2c-.4-.9-1.2-.8-2.3.3-3.3.5-4.7-2.3-3.9-5.2 1-2-1.5-3.6-.7-5.7.8-2-1-3.6-2-5.2l-1.6-3.1c0-1.4.2-2.7.3-4 3.3-.4 5.7 1.7 5.2 5.1 2.5-1.7 5.6-3.1 6.8-6.2l-4.8 1.7c-2.2-1.8-4.5-4-7.5-3.7m9.4 13.3c-3.6 2 6 8 4.8 2.8.6-2.9-2.7-3.6-4.8-2.8z"/>
  <path fill="#63625e" d="M187 122.6l6-.7v1.6l-.7.4-5.3-1.3z" opacity=".5"/>
  <path fill="#c4b684" d="M17.4 125.4c1.8-3.2 5.4-2.5 8.7-2.2l-6 4c-1 2.5 2.3 2.4 3.8 3.2.4 2-2 2.5-3 3.6-3 1.2-8.7.1-8.8 3.8 3 .8 6.2 1.4 9.2-.3-3 5.2-11.6 2-14.4 7.4.8 1.6 3 1.8 4.3 2.8-2 .2-4 .3-5.7 1.3a8.2 8.2 0 01-3.4-6.3c-1.6-3.3-.2-6.9.3-10.2 4.8-2.7 9.2-6.9 15-7.1z"/>
  <path fill="#c7b26f" d="M26.1 123.2l.7-.4c2.1 1.6 1.4 4 2.1 6.2 1.5 2.5-.8 5.5-2.8 7 1-4-2.9-2-5.2-2 1-1.1 3.4-1.7 3-3.6-1.5-.8-4.8-.7-3.7-3.1 1.9-1.5 4-2.8 6-4.1z"/>
  <path fill="#d6cdae" d="M60.6 127c1.4-6.2 8.8-3.5 13.4-4l-1.2 6.2-.8-.1c-3.7-1.2-8-.6-11.4-2z"/>
  <path fill="#d7d0b6" d="M84 125c3.5-2.7 8-2.2 12-1 0 2.4-.3 4.8-.8 7.1l-1 .2c-4-1.6-8.8.6-12.7-1.3l2.5-5z"/>
  <path fill="#c9b47c" d="M126 124.9l2.5-1c1 4.4 7.3 4.2 7.2 9.2l1.2 1.9c1 1.3 1 2.8.3 4.3L136 141c-2.1-1.2-4.4-1.8-6.7-2.4-2-1.6-2.8-4.1-3.7-6.4-3.1-1.1-3.2 3-4.8 4.7a108 108 0 01-7-.7c-2.1-2.2 0-6.5-3.9-7.1 1.6 0 3.2-.2 4.8-.4 3.5 3.6 9 2.5 13.2 1 1.9-3.7-4.6-1.6-2-4.8z"/>
  <path fill="#cfc395" d="M114.8 128.7l11.1-3.8c-2.6 3.2 3.9 1 2 4.9-4.2 1.4-9.7 2.5-13.2-1z"/>
  <path fill="#b0995b" d="M168.7 125.8c4-.6 11.8-1.2 8.3 6l-6 .2c.2-2.3-.5-4.6-2.3-6.2z"/>
  <path fill="#c39b58" d="M101.4 128.7c-1.1-3.1 3-3 4.7-1.8l3.8 2.2c4 .6 1.8 4.9 4 7l2.1 2.8-1 1c-.4 2 1.5 3 2.9 4a17 17 0 014.2 4.1c.2 1.6-.6 3.6.8 4.9l1.6 2 1.4 2.3c1 2 3.2 1.7 5 2a34 34 0 01-.4 2.9c-.2-2.3-1-2-2-.4-3.4-2.2-6.2-5.4-9.3-8-.5-2.1.7-4.3.7-6.5-3-2.8-6.8-3.2-10.6-3.5-4.5-3.7-8.5-8-13.3-11.5l2.8-.4c2-.3 3.8-1 2.6-3.1z"/>
  <path fill="#d0bd7a" d="M29 129c5-.2 7 6 11 8.1a6 6 0 003.3-4.2c1.2 2.5 2 6.2 6.3 4.6 2.6.5 5.4 2.8 3.8 5.7.1-3.2-2.7-1.6-4.4-1l5 5.5c-2.8 1.9-3.8 5.1-5 8.2l-.8.3-.3-7.2c-4-.4-8 0-11.8 1.2l1 1.6c-1.6.5-3.3 1-5 1.3.8-2.3.8-3.8-2-3.2l.1-1.8c3.6.8 2.4-2.5 2.2-4.8a77.6 77.6 0 00-5.3-3.2c-3.2 3.2.7 6.1 3.1 8-1.8-.2-3.5-.9-5-2l-.4 2.9c-4.2 0-9.2-4-11.8.7 0-1-.7-1.8-1.8-2-1.4-1-3.5-1.2-4.3-2.8 2.8-5.4 11.4-2.2 14.4-7.4 1.8.3 3.4-.2 4.8-1.5 2-1.5 4.3-4.5 2.8-7z"/>
  <path fill="#c2a566" d="M72 129l.8.2c1 1.9 3.3 1.9 5.3 1.9l2.8.1-.3 1c-2.2 0-6.2-1.2-6.6 1.8.2 2.8 3.6 2 5.4 1.6 3.7 1.6 4.6-1.2 5.8-3.2 3 .3 6.2.3 9-1.1l1-.2 4-.1-.4.8-2.8.4c4.8 3.4 8.8 7.8 13.3 11.5 3.8.3 7.7.7 10.6 3.5 0 2.2-1.2 4.4-.7 6.6 3.1 2.5 5.9 5.7 9.3 8 1-1.8 1.8-2 2 .3l.5 2c1.3 4.8-1.8 9.8-2 14.8-2-.7-4.2-1-6-2 .5-2.8 1.9-5.3 3-8-.8-1-1.9-2-2.8-2.8-3 4.2.1 14.4-8.5 10.1 2.8.3 6.3-.6 5.4-4.1h-6.2c2.9-3.5-1.8-6.8-5.2-6.9l.1-1c2 .3 4 .8 6 .8l-.2-4c-1.9.2-3.7.7-5.6 1-.1-4.5 6.7-1.3 9-4.2 4-8.2-5.7-3.2-6-9 0-1.9 1.9-1.8 3.2-2.3-3.4-1.3-6.7-2.3-10.1-3.3-2.3 3-5.8 1.7-7.3-1.3 1.4-.8 3.5-1 3.3-3-2 0-7 .8-4 3.4-.7.3-2.2 2.7-2.2.7v-2-1.7c-5-.8-11.6-5-15.4-.3l-3.3 1c-.9-4.2-7-1-10-2.3a6.7 6.7 0 00-2.3-3c4.2 1.6 9.4-.8 8-5.6z"/>
  <path fill="#c7b481" d="M81 131.2c0-.3.4-1 .5-1.2 3.9 1.9 8.7-.3 12.8 1.3-2.9 1.4-6 1.4-9.1 1l-4.5-.1.2-1z"/>
  <path fill="#c4904a" d="M137 130c1.4.9 2.7 1.8 4.2 2.5 2.5-.3 6-1.4 4.8 2.5-1 .3-2.3.4-3.2 1l-2.7 1.8a3.2 3.2 0 00-3.2-2.8l-1.2-1.9 1.3-3z"/>
  <path fill="#c1ac7c" d="M148.3 130.6c1 .7 1.8 1.7 2.5 2.7l.3.7c.8 2.6 2.9 4.3 4.5 6.4l.6 7.7c1.4-.3 2.6-1.3 3.9-2-.8 2.8.6 5.6 4 5l-2.3 1.9c-1.9 1.5-4 3-6.5 3-1.5-1-3.2-1.7-5-2.5-1.5-3.4-.9-7-.2-10.6 1.3-2 .8-4.3-.9-6l-2.5-2c.4-1.5 1-2.9 1.6-4.3z"/>
  <path fill="#b19343" d="M150.8 133.3c1.7-.4 3.3-2.6 5-1.3l1.5 3.1c-2 1.8-4.5.6-6.2-1l-.3-.8z"/>
  <path fill="#bba35b" d="M55 134c1-4.4 6.1.8 8.9.7 1 .8 1.9 1.8 2.3 3-2 1.3-3.9 3.8-2.4 6.1l-2 2c-1 1.2-.7 3-1 4.3l-2.9-3c.5-4.6-2.2-8.7-2.9-13z"/>
  <path fill="#be934f" d="M74 134c.4-3 4.4-1.8 6.7-1.8 1.5 0 3 0 4.5.2-1.2 2-2.1 4.8-5.8 3.2-1.8.4-5.2 1.2-5.4-1.6z"/>
  <path fill="#c2a870" d="M120.8 137c1.6-1.7 1.7-6 4.8-4.8 1 2.3 1.8 4.8 3.7 6.4 2.3.6 4.6 1.2 6.7 2.4v.9l-2 1c-4.3-1-3.3 5.2-7.6 4.5l-.5-2.2c-.7-2.7-1.9-5.4-2.2-8.2-2.5.8-4.9 2.3-7.7 1.8l-2.1-2.6 6.9.7z"/>
  <path fill="#bfa860" d="M20.9 134c2.3 0 6.3-2 5.2 2a5.6 5.6 0 01-4.9 1.5c-2.9 1.7-6 1.2-9.1.3 0-3.7 5.9-2.6 8.8-3.8z"/>
  <path fill="#bda55f" d="M151.1 134c1.7 1.7 4.2 2.9 6.3 1.1 1 1.6 2.8 3.1 2 5.2-.8 2.1 1.8 3.7.7 5.7-1.3.8-2.5 1.8-4 2.1l-.5-7.7c-1.6-2-3.7-3.8-4.5-6.4z"/>
  <path fill="#c4a065" d="M137 135c1.6 0 2.9 1.1 3.2 2.8l-3 1.4c.7-1.4.7-2.9-.3-4.2z"/>
  <path fill="#bb6536" d="M142.8 136c1-.6 2.1-.7 3.2-1h.7c.9.6 1.7 1.2 2.5 2 .6 3.2-1.6 5.1-4.3 6.3.2-2.2 2.1-3.3 3.3-4.9-2.3 1-3.9-.8-5.4-2.3z"/>
  <path fill="#b85227" d="M140.2 137.8l2.6-1.7c1.5 1.5 3.1 3.3 5.4 2.3-1.2 1.6-3.1 2.7-3.3 4.9a8.3 8.3 0 01-2.2-4c-2 1.4-4.3 2.4-6.8 2.6v-1c.4-.3 1-1.2 1.3-1.7l3-1.4z"/>
  <path fill="#c3b17c" d="M79.5 139c3.8-4.7 10.4-.5 15.3.3l.1 1.7c-2.5.4-5.3-.1-7.6 1-.5-4.3-5.5-1-7.8-3z"/>
  <path fill="#b58f52" d="M116 138.8c2.8.5 5.2-1 7.8-1.8.2 2.8 1.4 5.5 2 8.2-2-1.6-4-4-6.7-2.3-.7-2-2-3.3-4.1-3l1-1z"/>
  <path fill="#ba785a" d="M149.2 137c1.7 1.6 2.2 3.8 1 5.9l-2.4 1c-1.4 1-2 2.6-2.7 4.2-.8 2.4-1.3 5-2.9 7.1-.5 4.3 1.1 8.7 0 13-.4.9.2 3.2 1.6 2.5 2.7-3.1 4.8-7.5 9.4-7.8.9-.2 1.8-.6 2.6-1h5.2c-3.2 2.5-7.8 1.5-10.7 4.4-2.7 2.1-4.6 6-8.4 6L140 170l-.2-.8c-1-4-.6-8 .4-12-1.4-5 3.5-8.5 3.7-13.2l.8-.7c2.8-1.2 5-3 4.4-6.4z"/>
  <path fill="#c3b27b" d="M63.8 143.8c-1.5-2.3.4-4.8 2.4-6 3 1.1 9.1-2 10 2.2 2.6 2 7.5 1.6 11 2-5.6 2.8-13.7-3.2-18 2.1l.8 2c-2.4.1-4.5-.7-6.2-2.3z"/>
  <path fill="#c4b06c" d="M165.2 138.2c2.1-.8 5.4 0 4.8 2.8 1.1 5.2-8.4-.8-4.8-2.8z"/>
  <path fill="#ad8f46" d="M76.2 140l3.3-1c2.3 2 7.3-1.3 7.8 3-3.6-.4-8.5 0-11.1-2z"/>
  <path fill="#ac8943" d="M97 142.3c-2.8-2.6 2.1-3.3 4-3.4.3 2-1.8 2.2-3.2 3l-.8.4z"/>
  <path fill="#ac421f" d="M136 141.9c2.4-.2 4.7-1.2 6.7-2.7.4 1.6 1 3 2.2 4l-.9.8c-6.6 4.7-6 14-6.2 21.2 1-5.6-2.4-8.9-5.9-12.2 0-3.5.9-6.9 2-10.1l2-1z"/>
  <path fill="#d1b262" d="M27 140.1c1.9 1 3.7 2 5.4 3.2.2 2.3 1.4 5.6-2.2 4.8-2.4-1.9-6.3-4.8-3.1-8z"/>
  <path fill="#b47d3a" d="M115 140c2.2-.4 3.4 1 4.1 3-.3.2-1 .6-1.2.9-1.4-1-3.3-2-3-4z"/>
  <path fill="#cabb87" d="M49 142.2c1.7-.6 4.5-2.2 4.4 1 .8 1.9 3 2.6 4.5 4l2.8 2.9c.4-1.4 0-3.1 1-4.2 1.5 1.8 3.8 3.4 2.9 6l-.4 1.8c2.8 1 5.5 2.3 8.5 2.4 0 2.1 1.1 3.1 3.1 3.3l-.6 5c-4.7 2-6-4.5-9-6.6-2.4-1.7-5.7-1.3-8.2-2.9 0-1.3.7-2 2-2.4a4.4 4.4 0 00-2.8-1.4c-1-1.2-2-2.3-3.2-3.4l-5-5.5z"/>
  <path fill="#c9bb88" d="M87.3 142c2.4-1.1 5-.6 7.6-1v2c-1.7 3.5-5.3 4.4-8.8 3 2.1 5 5.5 9.5 6.2 15 1 .1 2 0 2.8-.6 1.6-1.6 4-3 3.7-5.6 2.4-1.9 5.7-1.2 8.2-2.8l2.1-1.2 2.8-2c.4 5.8 10.2.8 6 9-2.2 3-9-.3-8.9 4.3l-.2 2v1.1a81 81 0 01-3.6-.4c-.5-1.1.6-3.8-1.2-3.8-2.4-.5-2.9 2.4-4.3 3.8-1.6.3-3.3.3-5 .4-2.4 0-3.8-2.1-5.8-3.1-3 .4-6.6.2-8.4 3-2.6-.3-2.8-2.8-2.5-5 2.7 0 5.4 0 8.1-.2-1-4.2-6.6-4.4-9.8-2.4-.7-1-1.3-2-2.2-2.8-2-1.4-3.6-3.2-3.3-5.9 1.4-1.3.8-2.2-.8-2.8l-.8-1.9c4.3-5.3 12.4.7 18-2m-5.9 5.3l-4.2.8c-.4 2.2-.5 5 2.6 3.6.4-2.5 3.6-2.7 4.4-4.9l-2.8.5z"/>
  <path fill="#c9b77a" d="M97 142.3l.8-.4c1.5 3 5 4.3 7.3 1.3 3.4 1 6.8 2 10 3.3-1.2.5-3.1.4-3.2 2.2-.9.7-1.8 1.5-2.8 2l-3-1.9c-4.7-.7-10-1.8-15-.8 1 4 3.1 7.6 2.4 11.8l1.6.6c-.8.5-1.7.7-2.8.5-.7-5.4-4-10-6.2-15 3.5 1.5 7.1.6 8.8-3 0 2.1 1.5-.3 2.1-.6z"/>
  <path fill="#a7611f" d="M119.1 143c2.8-1.7 4.8.6 6.8 2.2l.5 2.2c-1.4.3-2.8.5-4.3.6a17 17 0 00-4.2-4.1l1.2-1z"/>
  <path fill="#b1a58f" d="M0 145.3l2-2.7a8.2 8.2 0 003.5 6.4c2.1 2 4 4.3 6.4 6l.2-2 1 2.6c-2 .5-4.3 0-5.9 1.5.8 4.7 2.1 9.4 3.8 13.9-2.2-.2-4.3-1.4-6.5-1-3.3-7.1-1.7-15.3-4.5-22.5v-2.2z"/>
  <path fill="#b48859" d="M126.4 147.4c4.3.7 3.3-5.4 7.5-4.5-1.1 3.2-2 6.6-2 10l-4-.6c-1.7-.3-3.7-.8-5 .6-1.4-1.3-.6-3.3-.8-4.9 1.5-.1 3-.3 4.3-.6z"/>
  <path fill="#c49f7c" d="M147.8 143.9l2.3-1c-.7 3.5-1.3 7.2.3 10.6 1.7.8 3.4 1.5 5 2.6-3.1.5-6.3 1-9.4.9.4-4.4 1-8.8 1.8-13.1z"/>
  <path fill="#ae9352" d="M61.8 145.9c.6-.8 1.3-1.4 2-2A7.9 7.9 0 0070 146c1.6.6 2.2 1.5.8 2.8-2.3.4-4.2 5.3-6.2 3.1 1-2.6-1.4-4.2-2.8-6z"/>
  <path fill="#b85931" d="M137.8 165.2c.2-7.2-.4-16.5 6.2-21.2-.2 4.7-5 8.2-3.7 13.2-1 4-1.5 8-.4 12-.8-1.3-1.7-2.5-2.1-4z"/>
  <path fill="#b99376" d="M145.1 148c.7-1.5 1.3-3 2.7-4.1-.9 4.3-1.4 8.7-1.8 13 3.2.2 6.3-.3 9.3-.8 2.6-.1 4.6-1.6 6.5-3.1l1 1.2c.6 1.5 1.2 3 1.2 4.5-2.8.7-6.3.6-8.2 3.3-.8.3-1.7.7-2.6.9l-1.4-1c1.9-1.2 3.9-2.2 5.5-3.8-4.2-.1-8.2.6-12.4 1-1-3.7-.2-7.4.2-11z"/>
  <path fill="#b6a887" d="M180.3 144.9c1.6 2.1 2.5 6 6 4.3l-.2.8c-3 1.5-7.4 3.3-5 8-.7 4 .8 8.3-.8 12.2-1.2-4.1-3.1-8-4.7-12-1.5-.3-3 .2-4.5.4-1-1.4-1.5-3-2.3-4.6 2.5-2.1 5.3-4 8.9-3.4 2.3-1 2.5-3.5 2.6-5.7z"/>
  <path fill="#c9bb8d" d="M25.1 146.2c1.6 1 3.3 1.8 5.1 2l-.2 1.7c-1.9.8-3.9 1.6-5.4 3-2.7-.4-4.7 1.1-6.8 2.5-1.6 0-3.1 0-4.7.2l-1-2.7c-1-1.3-.4-2.3.9-3.2 2.6-4.7 7.6-.8 11.8-.7l.3-2.8z"/>
  <path fill="#b49c5b" d="M81.3 147.4l2.8-.5c-.8 2.2-4 2.4-4.4 4.9-3 1.4-3-1.4-2.6-3.6 1.4-.3 2.8-.4 4.2-.8z"/>
  <path fill="#c1ac66" d="M91.2 148c4.9-1 10.2 0 15 .8-3.6.3-8-.2-11 2.4 0 2-.4 4.8 2.6 3.7h1c.2 2.4-2 4-3.7 5.5l-1.6-.6c.7-4.2-1.3-7.8-2.3-11.8z"/>
  <path fill="#b9a572" d="M5.5 149c1.7-1 3.8-1 5.7-1.3 1.1.2 1.7 1 1.8 2-1.3.9-2 1.9-.9 3.2l-.2 2.2c-2.3-1.8-4.3-4-6.4-6.1z"/>
  <path fill="#bf9f52" d="M49 155.8c1.2-3 2.2-6.3 5-8.2l3.2 3.5c-1.3 1-3.8 1-4.1 2.8 1.7 1.2 5 1.2 5 4-2.9-1-5.9-2.1-9-2z"/>
  <path fill="#bd846a" d="M142.2 155.2c1.6-2.1 2.1-4.7 2.9-7.1-.4 3.6-1.3 7.3-.2 11-2.5 3.7 5.1 2.1 6.9 2.8l1.4 1c-4.6.3-6.7 4.7-9.4 7.8-1.4.7-2-1.6-1.5-2.6 1-4.2-.6-8.6 0-12.9z"/>
  <path fill="#cec08f" d="M36.1 150.2c3.8-1.2 7.8-1.6 11.8-1.2l.3 7.2-1.3 2.6c-1.6 1.5-2.5 4.1-5 4.4l-5.8-.3c-.6-3.3-5-1.7-7.4-2.8l1.5-2.5 4.7 1.1c1-1 .4-2.3.5-3.4.8-1.1 3.7-2 1.8-3.5l-1.1-1.7z"/>
  <path fill="#c2b075" d="M64.6 151.9c2 2.2 4-2.7 6.2-3-.3 2.6 1.2 4.4 3.3 5.8l-1.4 1.4c-3-.2-5.7-1.4-8.5-2.4l.4-1.8z"/>
  <path fill="#a17e35" d="M95.2 151.2c3-2.5 7.4-2 11-2.4l3 2-2.2 1.2c-3.4.2-8.4-1.6-9.2 2.9-3 1-2.6-1.7-2.6-3.7z"/>
  <path fill="#c9b475" d="M24.6 152.9c1.5-1.4 3.5-2.2 5.4-3 2.9-.6 3 1 2 3.2 1.8-.2 3.5-.8 5.2-1.3 2 1.5-1 2.4-1.8 3.5-.1 1.1.4 2.5-.5 3.4l-4.7-1a5.2 5.2 0 00-3-3.2l-2.6-1.6z"/>
  <path fill="#b08a3b" d="M164 151.2c1.1-1 1.9-1.2 2.3-.4 0 2-1 5.2-3.4 3.4l-1.1-1.2 2.2-1.8z"/>
  <path fill="#acaaa3" d="M181 158c-2.3-4.7 2.1-6.5 5-8-1 8.7-1.1 17.9-6.8 25.2 0-1.8.5-3.4 1.2-5 1.5-3.9 0-8.2.6-12.2z" opacity=".9"/>
  <path fill="#c0aa70" d="M57.2 151c1 .2 2 .7 2.8 1.5-1.3.3-2 1.1-2 2.4 2.5 1.6 5.8 1.2 8.3 2.9 3 2.1 4.3 8.6 8.9 6.6l3 3.4a202 202 0 00-2.1 4.2c-2.3-1.4-4.8.1-7.1-.9a24 24 0 00-2.8-1.4C63 167.6 54 172 54 166c-.6-2.4 2.7-1.8 3.4-3.7l1.6-2.2c-4-.5-8-1-12.1-1.3.5-.9 1-1.8 1.3-2.7l.8-.3c3.2 0 6.2 1 9.2 2 0-2.7-3.4-2.7-5.1-4 .3-1.7 2.8-1.8 4.1-2.7m4 9c-3.6 2.9 2.4 4.5 4.8 4-.2-2.7 1.4-7.7-4.8-4z"/>
  <path fill="#b08e6a" d="M166.3 150.8l.7 2 1.2 6-2.1 1.2a19 19 0 00-5.1 2h-5.2c1.8-2.7 5.4-2.6 8.2-3.3 0-1.6-.6-3-1.1-4.5 2.5 1.8 3.3-1.4 3.4-3.4z"/>
  <path fill="#ad9252" d="M97.8 154.9c.8-4.5 5.8-2.7 9.2-2.9-2.5 1.6-5.8 1-8.2 2.8h-1z"/>
  <path fill="#a8601c" d="M122.9 152.9c1.3-1.4 3.3-1 5-.6-1.3.6-2.8 1.3-3.4 2.7l-1.6-2.1z"/>
  <path fill="#943e23" d="M127.9 152.3l4 .7c3.5 3.3 7 6.6 5.9 12.2.4 1.5 1.3 2.7 2 4l.3.8-.3 2.1H137l-4-8c1-2.3.1-5.4-2.2-6.5l-5-.4-1.3-2.2c.7-1.4 2-2 3.4-2.7z"/>
  <path fill="#bda37a" d="M17.8 155.4c2.1-1.4 4-2.9 6.8-2.5l2.6 1.6c-3.2 1.3-5.5 4.4-9.3 3.7a6.5 6.5 0 00-3.8-1.3v6.2c.5 3.6-1.4-.2-3.1-.2-1 3.9 2.3 6.5 5.6 7.5 0 2.3 1 5.1 3.2 2.4-1-2.5-.5-6 3-4.5-.2 3-.5 6.2 3 6.5 1.5-1.1 2.8-2.5 4.2-3.7.1 1.8-.6 4.5 2.1 4.2-1.6 2.3-6 3-5 6.4 2.6 1.2 5.5 1.7 7.8 3.5-.2 1.7-1.9 3.1-1.2 5l-.8-.2c-1.4-5-6.9-5.7-10.7-8.2-3.6-3.8-8-6.7-11.2-10.8-1.7-4.5-3-9.2-3.8-13.9 1.6-1.5 4-1 6-1.5 1.5-.2 3-.2 4.6-.2z"/>
  <path fill="#af9d79" d="M167 152.9l1.8 1c.8 1.6 1.3 3.3 2.3 4.7 1.5-.2 3-.7 4.5-.4 1.6 4 3.5 7.9 4.8 12-.7 1.6-1.2 3.2-1.2 5l-.3.7c-2.7.3-5.5 1.5-8.1.5 2.4-1 5.3-1.5 7-3.6-.5-2.8.7-7-2.2-8.4-4.6 1.4-5.7-2.9-7.4-5.6-.4-2-1-4-1.2-6z"/>
  <path fill="#c0955d" d="M17.9 158.2c3.8.7 6-2.4 9.3-3.7 1.3.6 2.5 1.7 3 3.1l-1.5 2.5-2.5-.2c-2.8-.6-6.3.8-8.3-1.7z"/>
  <path fill="#b7a062" d="M72.7 156.1l1.4-1.4c.9.9 1.5 1.9 2.3 2.8 3.1-2 8.7-1.8 9.7 2.4l-8.1.2c-.3 2.2-.1 4.7 2.5 5 2.5.6 5 1 7.7 1.2-.5.1-1.6.5-2 .8-3.7-1.3-5.8-.7-6.6 2l-1.4-1.3-3-3.4.6-5c-2-.2-3.1-1.2-3-3.3z"/>
  <path fill="#c2863c" d="M14 156.9c1.5 0 2.7.5 3.9 1.3 2 2.5 5.5 1.1 8.3 1.7.7 5.2-5.6 2.6-8.5 4.3l-3.7-1.1v-6.2z"/>
  <path fill="#a16f46" d="M125.9 157.2l4.9.4c2.3 1 3.2 4.2 2.3 6.5h-2l-.6-2 .4-2.8c-1.8-.4-4-.2-5-2.1z"/>
  <path fill="#c49f84" d="M145 159c4-.3 8.1-1 12.3-.8-1.6 1.5-3.6 2.5-5.5 3.7-1.8-.7-9.4 1-6.9-2.9z"/>
  <path fill="#af854e" d="M42 163.2c2.4-.3 3.3-2.9 4.9-4.4 4 .3 8 .8 12.1 1.3l-1.6 2.2-6-.4c.6 2 .2 4.7-2.2 5.3.6-3-2.2-2.3-3.8-1.3-1.1-1-2.3-1.8-3.5-2.7z"/>
  <path fill="#a6593f" d="M166 160l2.2-1.2-1.4 4c-1 3-.8 7.4-4.6 8.4.4-1.1.7-2.4-.2-3.4l-1.2-1.8c-6.7 1.1-11.5 7.2-18 8.5-1.2-.7-2.1-1.5-3-2.4l.3-2.1 1.8 2.3c3 2.6 6.2-2.1 8.3-4 4-5.2 13.9-1.1 15.9-8.3z"/>
  <path fill="#ac956b" d="M168.2 158.8c1.7 2.7 2.8 7 7.5 5.6 2.8 1.5 1.6 5.6 2.1 8.4-1.8 2.1-4.6 2.7-7 3.6l-1.7-.3c0-2.3 1.8-5-.4-6.8-2-1.6-1.8-4.2-1.9-6.5l1.4-4z"/>
  <path fill="#c1874d" d="M26.2 159.9l2.5.2c2.4 1.1 6.8-.5 7.4 2.8.6 2 4.7 0 4 3-3.7-1-8-.5-10 3-1.3-.7-2.5-1.9-4-.8-2.4-2-5.4-3.1-8.4-3.9 2.9-1.7 9.2 1 8.5-4.3z"/>
  <path fill="#c7b887" d="M61.2 160.1c6.2-3.7 4.6 1.3 4.8 4-2.4.5-8.4-1.1-4.8-4z"/>
  <path fill="#b06a51" d="M161 162a19 19 0 015-2c-2 7.2-11.7 3.1-15.8 8.3-2 1.9-5.2 6.6-8.3 4 3.8 0 5.7-3.9 8.4-6 3-2.9 7.5-2 10.7-4.3z"/>
  <path fill="#b49b5f" d="M99.7 164.8c1.4-1.4 1.9-4.3 4.3-3.8-.6 3.8-.8 8.3-4 11-1.5 2.1-4.2 2.6-6.3 4l-.5-.2c-3.6 1-7.4-.6-11.2-.9v-.8l-.2-1.8c3.1 1.5 5.5-2 8.6-1.8 2.1-1.5 10.4 3.2 6.5-4.2l-1.7-.4-.4-.7c1.6-.1 3.3-.1 5-.4z"/>
  <path fill="#c1ae7a" d="M104 161c1.8 0 .7 2.7 1.2 3.8l3.5.4c3.4.1 8 3.4 5.2 6.9l-1 .1c-2.7-.3-1.8 4-4.7 4l-3.3-.1c.1 2.6 1.1 5.1 1 7.7a11.7 11.7 0 01-6 2l-.8.1c-6.6.6-12.7 4-19.3 4l1.5-.8c2.7-.4 2.9-3 3-5.2 5.2 4.3 11.9-.6 15.5-5 .3 2 0 5.8 3 5 1.6-3.4 1.2-7.3 1.2-11-3.8 0-6.8 5.7-10.3 3 2-1.3 4.8-1.8 6.3-3.8 3.2-2.8 3.4-7.3 4-11.1z"/>
  <path fill="#b19550" d="M109 162c1.9-.3 3.7-.8 5.6-1l.2 4c-2 0-4-.5-6-.9l.2-2z"/>
  <path fill="#b78e5b" d="M51.4 162l6 .3c-.7 1.9-4 1.3-3.4 3.7 0 6 9 1.6 12.2 3.7l-6.2.4c-.2 1.9-.2 4 2 4.6-1.8.2-2.4 2-3.3 3.5-.7-3.3-5-2.7-3.9.9-2-2.7-4.2-5-6.7-7.2.1-1.7.6-3.2 1.1-4.7 2.4-.6 2.8-3.2 2.2-5.3z"/>
  <path fill="#bdac76" d="M80.5 165.2c1.8-2.9 5.4-2.7 8.4-3.1 2 1 3.4 3 5.9 3.1l.4.7-7 .3a48 48 0 01-7.7-1z"/>
  <path fill="#ae8562" d="M11 162.9c1.7 0 3.6 3.8 3 .2l3.7 1.1c3 .8 6 2 8.4 4-1 .6-2.1.2-3.2 0-3.6-1.4-4.2 2.1-3.1 4.6-2.1 2.7-3.2 0-3.2-2.4-3.3-1-6.7-3.6-5.6-7.5z"/>
  <path fill="#c29663" d="M36.1 162.9l5.8.3 3.5 2.7c-1.2 1.8-3 3.2-3.9 5.2l-.6-.4c-1.5-2.3-2.2-6.4-6.5-3.4l-4.4 3.8c-1.4 1.2-2.7 2.6-4.2 3.7-3.5-.3-3.2-3.5-3-6.5 1.2.1 2.3.5 3.3-.2 1.5-1.1 2.7 0 4 .8 2-3.5 6.3-4 10-3 .7-3-3.4-1-4-3z"/>
  <path fill="#a57f57" d="M162.2 171.2c3.8-1 3.6-5.4 4.6-8.4.1 2.3 0 4.9 2 6.5 2 1.7.3 4.5.3 6.8l-.8.7-3.2-.5c-1.7-.7-3.4-.9-5.2-.5l2.3-4.6z"/>
  <path fill="#b8a47c" d="M131 164h2l4 8c-.8 2.5-1 4.6 2.1 5 1.7.9 3.3 2 4.9 3 .6 1.3 2.3 2.3 1.9 3.8-2.8 1.9-6 .7-9 .3l-.6-.3c-1.6-.9-3.2-2.2-5-1.6-2.2.1-4.3.6-6.4.3 1.5-1 4.4-1.1 4.1-3.6.3-5 3.3-10 2-14.9z"/>
  <path fill="#be8033" d="M45.4 166c1.6-1.1 4.4-1.7 3.8 1.2-.5 1.5-1 3-1 4.7-1 1.6-2.8 3.1-4.9 3l-1.8-3.8c1-2 2.7-3.4 3.9-5.2z"/>
  <path fill="#a78b4c" d="M88.2 166.3l7-.4 1.7.4c4 7.4-4.4 2.7-6.5 4.2-3-.1-5.5 3.3-8.6 1.8l-1.3-2.4c2.5-1.3 6.6 1.7 5.6-2.8.5-.3 1.6-.7 2.1-.8z"/>
  <path fill="#c3ae76" d="M123.2 166c1 1 2 1.9 2.7 3-1 2.6-2.4 5-3 7.9 2 1 4.1 1.3 6.1 2 .3 2.5-2.5 2.7-4.1 3.6-2.8.8-5.7 1.5-8 3.3-2.2.1-1.7-3.3-2.2-4.8-1.8.2-3.6.8-5.5 1l.6-3.1c.4-2.8 2.5-3.3 5-2.7 8.5 4.3 5.4-6 8.4-10.1z"/>
  <path fill="#a4462d" d="M142.7 174.5c6.6-1.3 11.4-7.4 18.1-8.4l1.2 1.7c-5 1.6-10.5 4.5-13.2 9-2-.5-4.3-.9-6-2.3z"/>
  <path fill="#cbb07a" d="M34.4 167.3c4.3-3 5 1.1 6.5 3.4l-2 1.3c-2.4.9-5 1.3-6.8 3.3-2.7.3-2-2.4-2.1-4.2l4.4-3.8z"/>
  <path fill="#997738" d="M79.6 169c.8-2.6 3-3.2 6.5-2 1 4.6-3.1 1.6-5.5 3l-1-1z"/>
  <path fill="#c5b88c" d="M78.2 167.8l1.4 1.3 1 .8 1.2 2.4.1 1.8c-2-.6-4-1.3-5.8-2.1a202 202 0 012.1-4.2z"/>
  <path fill="#943920" d="M148.8 176.8c2.7-4.5 8.3-7.4 13.2-9 .9 1 .6 2.3.2 3.4l-2.3 4.6-3.8 1-.2-1.6c-2.2 1-4.5 2.4-7 1.6z"/>
  <path fill="#b8af9d" d="M4.5 170c2.2-.4 4.3.8 6.5 1 3.2 4.1 7.6 7 11.2 10.8l1.7 3c-1.8.3-3.5.7-5.2 1.3-6.2-3.8-11-9.7-14.2-16.2z"/>
  <path fill="#a46d33" d="M60 170l6.2-.3 2.8 1.4v3l-.1 3c-2.3-.7-4.6-1.5-6.8-2.4-2.3-.5-2.3-2.7-2.1-4.6z"/>
  <path fill="#c79a5b" d="M38.8 172l2-1.3c1.5 3.8.6 8.6 4.4 11.1 3.4 2.3 8.3 4.2 12.1 2.3 2.1.1 4 1 6 1.7-1.4-2.7-3.6-4.8-4.6-7.6.9-1.4 1.5-3.3 3.4-3.5l6.8 2.5 1.1 3.3c-1.8 3-2.4 6.5-2 10-2.2 3-5.6.5-8.1-.5-2.8-2-5.9.4-8.7 1-2-4.8-7.6-6.1-12.2-4 1-1.3 2-2.5 2.9-3.9-2.4-3.2-2.2-7.4-3-11.1z"/>
  <path fill="#cb9047" d="M40.9 170.7l.6.4 1.8 3.8c2 .1 3.8-1.4 4.8-3 2.5 2.1 4.8 4.5 6.7 7.2l2.5 5c-3.8 1.9-8.7 0-12.1-2.3-3.8-2.6-2.9-7.3-4.3-11.1z"/>
  <path fill="#a98f5d" d="M69 171.1c2.3 1 4.8-.5 7 .9.6 3.9-4.5 1.6-7 2v-2.9z"/>
  <path fill="#c49b6a" d="M32.1 175.3c1.8-2 4.4-2.4 6.7-3.3 1 3.7.7 8 3 11.1-.7 1.4-1.9 2.6-2.8 4-.9 1.2-1.7 2.5-2.3 3.9l-3-.8c-.7-1.9 1-3.3 1.2-5-2.3-1.8-5.2-2.3-7.8-3.5-1-3.4 3.4-4.1 5-6.4z"/>
  <path fill="#bba473" d="M76 172a51 51 0 006 2.1v.8c-2 1.1-6.3 0-6 3l6.2.3-7 1c.6 1.5 1.4 3 2 4.7.7 3.4-1.8 3.8-4 2-.7-2-1.6-4-3.2-5.4l-1.1-3.3.1-3.2c2.5-.4 7.6 1.9 7-2z"/>
  <path fill="#9d7d42" d="M108.3 176.2c2.8 0 2-4.3 4.5-4l4.1 1-2.2 3c-2.4-.6-4.5 0-4.9 2.7-.8.7-1.7 1.4-2.7 2-.9-1.8-1.7-4.2 1.2-4.7z"/>
  <path fill="#b0975b" d="M112.8 172.2l1-.1h6.3c.9 3.5-2.6 4.4-5.3 4.1l2.1-3-4-1z"/>
  <path fill="#9a6949" d="M137 172h1l1.1 5c-3-.4-2.9-2.5-2-5z"/>
  <path fill="#813421" d="M138 172l1.8.1c.9.9 1.8 1.7 3 2.4 1.7 1.4 4 1.8 6 2.3 2.6.8 4.9-.7 7.1-1.6l.2 1.7-1.2 2.1c-2.8-1.1-5.2-.8-7 .9l-4 .2a66.2 66.2 0 00-4.8-3.2 101 101 0 00-1.1-4.8z"/>
  <path fill="#c8b989" d="M93.7 176c3.5 2.6 6.5-3 10.3-3.1 0 3.7.4 7.6-1.2 11-3 .8-2.8-3-3-5-3.6 4.4-10.3 9.3-15.6 5 0 2.3-.2 4.8-2.9 5.2l-2.4-4.8a9.7 9.7 0 006.4-3.2c1.3-2 3.4-1.8 5.5-1.4 1.2-1 2.1-2.3 2.4-3.8h.5z"/>
  <path fill="#c2ae7a" d="M76 178c-.3-3.2 4-2 6-3 3.8.2 7.6 1.7 11.2.8a6.8 6.8 0 01-2.4 4c-2.1-.5-4.2-.7-5.5 1.3.1-2.3-.6-3.7-3-3l-6.4-.1z"/>
  <path fill="#a9997c" d="M160 175.8c1.7-.4 3.4-.2 5 .5-2.1.9-3.5 2.4-3 4.9-1.3 3.2-4 6.6-7.8 5.8-5.6-1-13.7 3.3-17.3-2.9 3 .4 6.2 1.6 9-.3.4-1.5-1.3-2.6-2-3.7l4-.2c3.2 1.4 5.5 1.1 7-.9l1.2-2.1 3.8-1.1z"/>
  <path fill="#c69e70" d="M54.8 179c-1.2-3.5 3.2-4.1 3.9-.8 1 2.8 3.2 5 4.5 7.6-1.9-.7-3.8-1.6-5.9-1.7l-2.5-5z"/>
  <path fill="#b6a372" d="M105 176l3.3.2c-2.9.5-2 3-1.2 4.8l2.7-2.1-.6 3.2c1.9-.3 3.7-.9 5.5-1 .5 1.4 0 4.8 2.2 4.7 2.3-1.8 5.2-2.5 8-3.3 2.1.3 4.2-.2 6.3-.3l-4 2c-3 1-6.2 1.8-9.2 2.6-2.7-.3-3.9 2-5.3 3.9-7.3 3.4-15.5 4-22.8 7.4 1.3-4 5.8-6.3 9.5-8 2-.4 2.9-2.3 3.6-4l-3-.3c2.2-.1 4.2-.8 6-2 0-2.6-1-5-1-7.7z"/>
  <path fill="#896b5a" d="M165 176.3l3.3.5c-1.9 1.7-4 3-6.2 4.4-.6-2.5.8-4 3-4.9z"/>
  <path fill="#9a8a7d" d="M169.1 176l1.7.4c2.6 1 5.4-.3 8-.5-2.3 5.5-7.7 8.6-12.5 11.8-4.6-.8-8.9 2.4-13.3 3.4 1-1.2 2-2.5 1.2-4 3.9.7 6.5-2.7 7.9-6 2.2-1.3 4.3-2.6 6.2-4.3l.8-.7z"/>
  <path fill="#b08c55" d="M82.2 178.2c2.5-.8 3.2.6 3 3-1.5 1.9-3.9 2.8-6.3 3l-1.7-.3-2-4.8 7-1z"/>
  <path fill="#916650" d="M148 179.9c1.7-1.8 4-2 7-.9-1.6 2-4 2.3-7 .9z"/>
  <path fill="#b18551" d="M68 190.5c-.4-3.5.2-7 2-10a12 12 0 013.1 5.4c-1.6 1.6-3.4 3-5.2 4.6z"/>
  <path fill="#b1a68c" d="M22.2 181.8c3.8 2.5 9.3 3.1 10.7 8.2 1.3 1.5 2.9 2.7 4 4.3a58.8 58.8 0 01-18.2-8.2c1.7-.6 3.4-1 5.2-1.3l-1.7-3z"/>
  <path fill="#897d5d" d="M131.2 182.2c2-.5 3.5.7 5 1.6-.6 2-1.5 3.9-2.2 5.9-2 2.4-5.2 2.6-8 3.2-1.4-3 .9-5.7 1.1-8.7l4.1-2z"/>
  <path fill="#b69667" d="M77.2 183.9l1.7.4 2.4 4.8-1.5.7c-1.3.3-2.8 0-3.8.9-4 4-10.6 2.3-15.8 1.9-1.7-.7-3.4-.1-5 .5-3.6-.5-7 .2-10.2 1.7-2.4-.6-5-1.3-7-2.8 4.4-.4 9 .8 13.2-1 2.8-.6 5.9-3 8.7-1 2.5 1 6 3.6 8 .5 1.8-1.6 3.6-3 5.2-4.6 2.3 1.8 4.8 1.4 4.1-2z"/>
  <path fill="#9f8e6a" d="M118 186.8c3-.8 6.1-1.6 9.1-2.6-.2 3-2.5 5.7-1.1 8.7-1.2.1-2.2.5-3.1 1-2.5 2.1-6.6 1.9-6.8 6-8.5 1.2-17.2.8-25.8 1.4-1.2.2-2.3-.4-3.5-.7 4.4-.8 9.4.2 13-2.8 2-1.8 3.6 2 5.8 1 .4-3.4 3.3-5.2 6.3-6 2.7-1 4.1-4 6.1-6z"/>
  <path fill="#978c70" d="M136.3 183.8l.6.3c3.6 6.3 11.7 2 17.3 3 .9 1.5-.3 2.8-1.2 4-1.1.4-2.3.8-3.6 1 0-1 .3-2.1-.5-2.9-3.5.6-6.6 2.6-9.9 3.7-1.7-1-3.2-2.4-5-3.2l2.3-6z"/>
  <path fill="#c18c49" d="M39 187c4.6-2.1 10.3-.8 12.2 4-4.1 1.8-8.8.6-13.2 1l-1.3-1c.6-1.4 1.4-2.7 2.3-4z"/>
  <path fill="#b4a27a" d="M79.8 189.8c6.6.2 12.7-3.3 19.3-3.9l-2.1 2.3c-5 2.3-10.8 2.2-16.1 3 1.6 2.8 5.2 2.2 8 3 1.5 4-4.7 1.3-7 2 1 1 2.1 1.8 3.2 2.7-3.1.1-6.4-.3-9.4.8l-6.5.2c-2.3-1.9-5-3.8-8-2.8-2 .3-4 1.2-5.9 1.9-.5-1.1-1.4-2-2.2-2.8 1-1 1.7-2 2.1-3.1 1.6-.6 3.3-1.2 5-.5-1.9.6-4.5 1.5-2 3.3 6.1.2 12.1-1 18.2-.3 9.2 1.5 1.7-3.2-.4-5 1-.8 2.5-.5 3.8-.8z"/>
  <path fill="#aa9056" d="M99.1 186l.8-.2 3.1.3c-.7 1.7-1.6 3.6-3.6 4l-2.4-1.8 2.1-2.4z"/>
  <path fill="#aa976e" d="M112.7 190.7c1.4-1.8 2.6-4.2 5.3-3.9-2 2-3.4 5-6.1 6-3 .8-6 2.6-6.3 6-2.2 1-3.9-2.8-5.8-1-3.6 3-8.6 2-13 2.8h-.7l-10.4-.9c3-1 6.3-.7 9.4-.8l-3.3-2.8c2.4-.6 8.6 2 7-2-2.7-.7-6.3-.1-8-2.9 5.4-.8 11.1-.7 16.2-3l2.4 2c-3.7 1.6-8.3 4-9.5 7.9 7.3-3.3 15.5-4 22.8-7.4z"/>
  <path fill="#959184" d="M153 191.1c4.4-1 8.7-4.2 13.3-3.4-8.2 5.2-18 6.8-27 9.6-3.1 6-3 13-4.1 19.6-1.3.2-2.5.7-3.6 1.2-.4-1.7-.6-3.4-.8-5.2 4.8-3.1 3.7-11.6-.8-14-2.7-.6 3-1.6 1.4-3.3-.1-2.3-2.7-1.4-4.3-1.6H123c1-.6 2-1 3-1.1 3-.6 6.1-.8 8-3.2 1.9.8 3.4 2.2 5.1 3.2 3.3-1.1 6.4-3.1 10-3.7.7.8.4 1.9.4 3l3.6-1z"/>
  <path fill="#a9977c" d="M33 190l.7.2 3 .8 1.3 1c2 1.5 4.6 2.2 7 2.8 3.2-1.6 6.6-2.2 10.3-1.8a7.8 7.8 0 01-2.2 3.2l-7.2.3c-3-.5-6-1.2-9-2.2-1.1-1.6-2.7-2.8-4-4.3z"/>
  <path fill="#b9a987" d="M60.2 192.6c5.2.4 11.8 2.2 15.8-2 2 1.8 9.6 6.5.4 5-6-.7-12.1.5-18.2.3-2.5-1.8.1-2.7 2-3.3z"/>
  <path fill="#938362" d="M116 199.8c.3-4 4.4-3.8 6.9-5.9l4.3.1c-1.3 1.1-3.4 1.8-3.2 3.8.8 0 2.3.3 3.1.4-1.9 1.5-4.8 1.1-7 2-1.2 5.2 4.7 3.4 8 3-3 3.3-1.4 7.8-2 11.9-1.4.3-2.8.8-4.2 1.3-1.6-.2-3.1.1-4.6.7 1.4-3.2 3-6.4 3.6-9.9l-1.7-.3c1-2.7-1.3-5.3-3.1-7z"/>
  <path fill="#847863" d="M127.2 194c1.5.2 4-.7 4.2 1.6 1.5 1.7-4 2.7-1.4 3.3 0 1.8-.3 3.4-1.9 4.3-3.3.4-9.2 2.2-8-3 2.2-.9 5.1-.5 7-2l-3.1-.4c-.2-2 2-2.7 3.2-3.8z"/>
  <path fill="#aaa18f" d="M45.9 196.5l7.2-.3c.8.8 1.6 1.7 2.2 2.8-2.4 2.2-2.4 5.6-4.1 8.2-1.4-3.6-1.3-9-5.3-10.7z"/>
  <path fill="#af9975" d="M55.3 199c2-.7 3.8-1.6 5.9-2a41.4 41.4 0 00-5 5.2c1.6 2.6 3 7 7.4 4.2 2.6-.6 5 3.2 7.4.7 9 .4 18.2 2 27.3 1.7 3.4-1 5.3-.4 5.8 2.1-3.3-.7-4.5 2.4-5.5 4.9-.5 1.3-.5 2.8-.7 4.2-7 2.7-8.4-5.2-12.9-8-2.1-2.8-10.6-4.3-9 1-1.4-1-2.8-2.4-4.7-2l-1 4.3c-.8-2.4-3-2.6-5.2-2.3.1 2 .7 4-.2 6-4.5 0-7-5-8.2-8.9-2-.1-3.4 2-5 3l-.5-5.9c1.7-2.6 1.7-6 4.1-8.2z"/>
  <path fill="#a89167" d="M61.1 197c3.2-.8 5.8 1 8 2.9l-7.2.2c0 1.3.7 2 2 2 3.1.9 3.3 5.9 7 5-2.3 2.5-4.7-1.3-7.3-.7-4.3 2.9-5.8-1.6-7.4-4.2 1.5-1.9 3.2-3.5 5-5.1z"/>
  <path fill="#95896e" d="M130 199c4.5 2.3 5.6 10.8.8 14a6.8 6.8 0 01-4.6 2c.5-4-1-8.5 1.9-11.8 1.6-1 2-2.5 1.9-4.3z"/>
  <path fill="#9d885f" d="M62 200l7.2-.1 6.5-.2c3.5.3 7 .5 10.4.9-1.6 1-2.5 2.4-2 4.2 2.6 1 5.4 1 8 2.1-7 1.9-14.6-4.1-21.1.2-3.8.9-4-4.1-7.1-5-1.3 0-2-.8-2-2z"/>
  <path fill="#9b7d54" d="M90.3 201.3c8.6-.6 17.3-.2 25.8-1.5 1.8 1.8 4 4.4 3.1 7l-2.3 1V205c-3.7 0-8 .5-10.1 4-1.8-1.2-2-3.4-3-5-3 .6-5.3 2.7-8 4a24 24 0 01-3.7-1c-2.6-1.1-5.4-1.3-8-2.2-.5-1.8.4-3.3 2-4.2h.7c1.2.3 2.3.9 3.5.7z"/>
  <path fill="#a8805b" d="M95.8 208c2.7-1.3 5-3.4 8-4 1 1.6 1.3 3.8 3 5 1.9 1.3 4 2.5 6.2 3.2a6.2 6.2 0 01-4 2.5c.7-3.2-2.9-2.8-5-3.8-.4-2.5-2.3-3.2-5.8-2.1l-2.4-.8z"/>
  <path fill="#a79169" d="M71 207c6.5-4.2 14.2 1.8 21.1 0l3.7 1 2.5.8c-9.1.2-18.2-1.3-27.3-1.7z"/>
  <path fill="#a66a2b" d="M106.8 209c2.1-3.5 6.4-4 10-4l.2 2.8c-1.5 1.4-2.7 3-4 4.4-2.3-.7-4.3-1.9-6.2-3.3z"/>
  <path fill="#ac9265" d="M117 207.8l2.2-1 1.7.4c-.6 3.5-2.2 6.7-3.6 10L116 221l-1-.1c0-2.9 3.9-9.3-3.5-5.8l-.6.5c-3.1 2.2-1.9 6.9-3.1 10-3.2 1.2-6.2 3.7-9.8 3.3.3-5.6 9.3-7.6 8.3-13.3.9-.5 1.8-.8 2.8-1 1.6-.3 3-1 4-2.5 1.3-1.4 2.5-3 4-4.3z"/>
  <path fill="#baa386" d="M51.7 213c1.6-.9 3-3 5-2.9 1.1 3.9 3.7 8.8 8.2 8.8.9-1.9.3-4 .2-5.9 2.2-.3 4.4 0 5.3 2.3l-.1 1c-.3 1.4-.8 3.4 1.4 2.3 1.8-1 2.3 1.5 3 2.7 3.6 6.5-3.3 4.6-6.5 5.7.3-5-5.5-6-9.2-7.2-3.4-.4-5-3.6-7.2-5.9l-.1-.8z"/>
  <path fill="#b9a478" d="M76 213c-1.6-5.3 6.9-3.8 9-1 4.5 2.8 6 10.7 12.9 8 2 .3 3.8-.6 5.2-2l3-2.3c1.2 5.7-7.8 7.7-8.2 13.3 3.6.4 6.6-2.1 9.8-3.3 1.2-3.1 0-7.8 3.1-10l3.1.4c-.5 4.7-1.7 9.3-2.7 14 .4 2.1 1.6 4 2.7 6l-5.6-.8c-.8 2.2-1.6 4.3-4.3 2.7-.8-1.2-.8-2.1.8-2.4l-2.1-3.3-4.5.6c-.4-2-1.3-4-2-5.9.8-1.7 2-3.2 1.9-5-1.4.4-2.6 1-3.9 1.6-4.8-3.6-8-9.1-14.1-10.5-1.7.5-2 3-3 4.3l-.9-3.6-.2-.8z"/>
  <path fill="#9e7350" d="M71.3 211c1.9-.4 3.3 1 4.7 2l.2.8c-1.9 1-3.8 2-6 2.4l.2-1 .9-4.2z"/>
  <path fill="#9e6f4b" d="M98.6 215.8c1-2.5 2.2-5.6 5.5-4.9 2 1 5.6.6 5 3.8-1 .2-2 .5-3 1l-3 2.4c-2.5.6-5 1.3-4.5-2.3z"/>
  <path fill="#bfac7d" d="M77 217.4c1.1-1.3 1.4-3.8 3-4.3 6.2 1.4 9.4 7 14.2 10.5 1.3-.5 2.5-1.2 3.9-1.7 0 2-1.1 3.4-1.9 5.1.7 2 1.6 3.9 2 6-3 1-4.9-1.5-7.2-2.8-3.1 1.6-7.2.7-10 3-1 3.2 4.5 4.7 2.2 8-3.5 1-1.6 5-1.2 7.6l.8 4.4c-2.1-1.1-4-2.6-5.6-4.4.2-1.9.9-3.7.7-5.6-1.5-1.5-4 .4-5-2-2-4-5.2-7.5-8.7-10.5-1-2.3 2.3-2 3.6-2.9 2.5 3.1 4.2 6.8 6.4 10.1 3.7.6 2.5-3.3.9-5a26.3 26.3 0 002-15.5z"/>
  <path fill="#887e71" d="M126.2 215c1.8 0 3.3-.8 4.6-2 .2 1.7.4 3.4.8 5.1-1.5.6-3.1 1-4.7 1.7-1.8-1-3.2-2.4-5-3.4 1.4-.5 2.8-1 4.3-1.3z"/>
  <path fill="#b8ac91" d="M51.8 213.9c2.2 2.3 3.8 5.5 7.3 6 3.6 1 9.4 2.2 9 7l-.3 1c-1.3.7-4.5.5-3.6 2.8 3.5 3 6.7 6.5 8.8 10.5-6 .7-8.5-8.1-14.1-9.3.8 3 3 5.2 4.4 7.9l-3.3-.9c-3.6-8-7-16.2-8.2-25z"/>
  <path fill="#b4946d" d="M70.3 216.2c2-.4 4-1.3 6-2.4l.7 3.6c1.3 5.2 0 10.6-2 15.5 1.7 1.7 3 5.6-.8 5-2.2-3.3-3.9-7-6.4-10l.4-1c3.3-1 10.1.9 6.5-5.6-.7-1.2-1.2-3.6-3-2.7-2.2 1-1.7-1-1.4-2.4z"/>
  <path fill="#b19d75" d="M111.4 215.2c7.4-3.5 3.6 2.9 3.6 5.8l-.4 1.8c-.3 2.5-3 6-.4 8 1 1.8 3.1.6 4.7.6 2 2.3 1.7 5.8.5 8.4l1.4 1.3c-3.6 3.1-3.5 8.6-7 11.7-2.5 2.6-6.8 1.7-9.9 3a40 40 0 01-14.7 2c-1-2.6-4.3-3-6.4-4.6l-.8-4.4c2 3 5 4.6 7.9 6.4 4.4 3.4 6.2-2.8 10.3-2.4 4 .8 10.6-1.9 9.8-6.6l-3.7-.5c-.5-2.6-1-5.6-3.4-7l1.1-.7c2.7 1.6 3.5-.5 4.3-2.8l5.6 1c-1-2-2.3-4-2.7-6.2 1-4.6 2.2-9.2 2.7-13.9-.8 0-2.3-.3-3.1-.4l.6-.5z"/>
  <path fill="#a8845d" d="M97.9 220c.1-1.4.2-2.9.7-4.2-.6 3.6 2 2.9 4.5 2.3a6.6 6.6 0 01-5.2 2z"/>
  <path fill="#76655c" d="M117.3 217.1c1.5-.6 3-.8 4.6-.7 1.8 1 3.2 2.5 5 3.4 1.6-.6 3.2-1 4.7-1.7 1.1-.5 2.3-1 3.6-1.2-.2 2.5-.9 5-1.8 7.3l-2 .7c-1.5-1.7-3-.2-3.8 1.2l-.7.9c-1.6.8-3.8 2.8-5 .3 6.5-1.2 1.6-9-3-9.4.1 1.6.4 3.3.7 4.9H116v-1.7l1.3-4z"/>
  <path fill="#705349" d="M119 217.9c4.5.4 9.4 8.2 3 9.4-1.3-1.6-2.2-.5-3 .8-2.2-1-3.5-3-3-5.3h3.6c-.3-1.6-.6-3.3-.6-5z"/>
  <path fill="#8f7c68" d="M115 221h1v1.8c-.5 2.3.8 4.4 3 5.3.8-1.3 1.7-2.4 3-.8 1 2.5 3.3.4 5-.3.3 2.3-.5 4.5-2.2 6.2-1.3-1.2-2-2.7-3-4-2-.4-3.8.4-5.6.6-1.1-2.2-1.3-4.6-1.6-7l.4-1.8z"/>
  <path fill="#a59472" d="M114.2 230.8c-2.5-2 .1-5.5.4-8 .3 2.4.5 4.8 1.6 7 1.8-.2 3.6-1 5.5-.6 1 1.3 1.8 2.8 3 4l2.3 1c-2.8 1.7-4.4 4.4-6.2 7l-1.4-1.4c1.2-2.6 1.6-6.1-.5-8.4-1.6 0-3.7 1.2-4.7-.6z"/>
  <path fill="#a0a19d" d="M127.6 226c.9-1.3 2.3-2.8 3.8-1.1.2 2.5-2.2 2.4-3.8 1.2z"/>
  <path fill="#8e897d" d="M131.4 224.9l2-.7c-.7 2-1.3 4-2.1 5.9-1.7 1.1-2.8 2.8-4.4 4.1l-2.1-1a7.1 7.1 0 002.1-6.2l.7-1c1.6 1.3 4 1.4 3.8-1.1z"/>
  <path fill="#c1a770" d="M81 233.2c2.8-2.3 6.9-1.4 10-3 2.3 1.3 4.2 3.8 7.2 2.7 1.5 0 3-.5 4.5-.6l2 3.3c-1.5.3-1.5 1.2-.7 2.4l-1.1.7-1.8.2c-2.6-1.8-6-4.3-9-2-3.1 1.7-4.8 5.2-8.9 4.3 2.3-3.3-3.2-4.8-2.1-8z"/>
  <path fill="#a69c87" d="M127 234.2c1.5-1.3 2.6-3 4.3-4.1-2.6 8-6.7 15.6-12 22.1-6.9 4.2-14.8 6-22.2 9-4.5 1.6-9-.6-13.2-2 1.7-.5 3.5-1 5.3-1.3 5 .5 10-.7 14.7-2 3-1.4 7.4-.5 10-3.1 3.4-3.2 3.3-8.6 6.9-11.7 1.8-2.5 3.4-5.2 6.2-6.9z"/>
  <path fill="#b5a787" d="M58.9 232c5.6 1 8 10 14 9.2 1 2.4 3.5.5 5 2 .2 1.9-.5 3.8-.7 5.6 1.6 1.8 3.5 3.3 5.6 4.4 2.1 1.6 5.4 2 6.4 4.7-1.8.3-3.6.8-5.3 1.3l-5.6-1.5c-2-2.7-2.5-6.6-5.4-8.6a27 27 0 01-9.7-9.3c-1.3-2.7-3.5-5-4.3-7.9z"/>
  <path fill="#c2893f" d="M92 237c3-2.4 6.5 0 9 2 .3 1.7 2.5 3.4 1.2 5.2-1.5 2.2.5 5.2-2.4 6.6-3 0-3-2.3-2.1-4.7-3 .3-5.9.8-8.8 1 .6-3.5 2.7-6.6 3.1-10.1z"/>
  <path fill="#bf8d50" d="M83.2 241.2c4 .9 5.8-2.6 8.8-4.2-.4 3.5-2.5 6.6-3 10 2.8 0 5.8-.6 8.7-.9-.8 2.4-.9 4.6 2.1 4.7 2.9-1.5.9-4.4 2.4-6.6 1.3-1.8-.9-3.5-1.1-5.3l1.8-.3c2.5 1.5 2.9 4.5 3.4 7.1l3.7.6c.8 4.6-5.8 7.3-9.8 6.5-2.7-1-5-4.2-8-3.6-2.2 1 .3 3 .5 4.6l-2.8 1.4c-3-1.8-5.9-3.5-7.9-6.4-.4-2.7-2.3-6.6 1.2-7.7z"/>
  <path fill="#a8a59f" d="M60 239l3.3.8c2.2 4 5.8 6.9 9.6 9.3 3 2 3.4 5.9 5.4 8.6 1.4.4 4.2 1 5.6 1.5 4.2 1.4 8.7 3.6 13.2 2 7.4-3 15.3-4.8 22.2-9a38.1 38.1 0 01-8.2 9.8c-5.1-.2-10 2-15.1 2-6.5.6-12.8-1-19.1-2A68.6 68.6 0 0160 239z"/>
  <path fill="#bb9363" d="M92.3 249.2c3-.6 5.2 2.5 7.9 3.6-4-.4-5.9 5.8-10.3 2.4l2.8-1.4c-.2-1.6-2.7-3.7-.4-4.6z"/>
  <path fill="#999383" d="M76.9 262c6.3 1 12.6 2.6 19.1 2 5.1 0 10-2.2 15.1-2a15.6 15.6 0 00-4.7 5c-6-4-13 1-19.4-1-2.3-.3-4.1 1.1-6 2-1-2.2-2.5-4.1-4.1-6z"/>
  <path fill="#a4a39f" d="M87 266c6.4 2 13.5-3 19.4 1l-1 4.2-.5-4.2c-3.3 0-6.5.8-9.7 1.1-4.1 1.2-11-2.8-13.4 2.3L81 268c1.9-.9 3.8-2.3 6-2z"/>
  <path fill="#bcbfc2" d="M95.2 268.1c3.2-.4 6.4-1 9.7-1.1l.4 4.2c-.7 2.8-1.2 5.7-1.6 8.6-1 5.6-.7 11.4-.7 17.2l-.1 7.7c-2.8 1.5-.6 8.7-4.2 5.6-2.5-6.9-.6-15.5-5.2-21.9-2-2.5-2.4-5.6-3.6-8.5l-3 3-3.2-1.8c.2-2.9 1-8 5.1-6.4 2-2.3 3-5.5 6.4-6.6z"/>
  <path fill="#afb1b3" d="M81.8 270.4c2.4-5 9.3-1 13.4-2.3-3.3 1.1-4.3 4.3-6.4 6.6-4-1.7-5 3.5-5.1 6.4-1-3.5-1.3-7.2-2-10.8z"/>
  <path fill="#b2b4b7" d="M87 283c1-1 1.8-2.2 3-3.1 1 2.9 1.6 6 3.5 8.5 4.6 6.4 2.7 15 5.2 21.9 3.6 3 1.4-4.1 4.2-5.6l.1 21.3c0 6.7-.2 13.5.2 20.2 0 4.3-2 9 0 13-2.2 1.6-4-.7-6.1-1.3-3-1.8-6.6.2-9.8 0l-1-6.1-.6-3.5c-.3-4.8 1.4-10-.5-14.6-.3-4.4-.2-9-.5-13.4l.3-9.3c-.2-4 .5-8.3-.8-12.3-.3-5.8-.1-11.7-.5-17.6L87 283z"/>
  <path fill="#919191" d="M103 297c0-5.8-.3-11.6.7-17.2.2 5.7.3 11.4.3 17.2h-1z" opacity=".8"/>
  <path fill="#5d5d5b" d="M103 297h1v29h-1l-.1-21.3.1-7.7z" opacity=".5"/>
  <path fill="#737371" d="M84.3 298.7c1.2 4 .5 8.2.7 12.3h-1l.3-12.3z" opacity=".6"/>
  <path fill="#2e2e2d" d="M84 311h1l-.3 9.3c-1.1-3-.7-6.2-.7-9.3z" opacity=".3"/>
  <path fill="#252524" d="M103 326h1c0 6.7.4 13.5-.8 20.2-.4-6.7-.2-13.5-.2-20.2z" opacity=".2"/>
  <path fill="#767674" d="M85.2 333.7c1.9 4.7.2 9.8.5 14.6-1.6-4.7-.3-9.8-.5-14.6z" opacity=".7"/>
  <path fill="#9ca09f" d="M86.3 351.8l1 6c3.2.3 6.8-1.7 9.8 0 2 .7 4 3 6.1 1.4l3.7 2.4c.4 3-1.6 5.7-4.9 5.7 1 .9 2.6 1.3 3 2.7-.3 1.3-2 1.4-2.9 2-4.5.2-9.7 2.3-13.1-1.7l5-1.5c-.6-.8-1.3-1.4-2.1-2 4-1.1 8.8 1.4 12.1-2-2.2-5.3-8.6-.4-12.7-2.5-2.5 1.1-2.2 2.8-.3 4.4-3.2-.4-7.1-1.5-8-5 3.2-2.3 4-6 3.3-10z"/>
  <path fill="#a4a7a7" d="M80.8 362.9l2.1-1.3c1 3.6 4.9 4.7 8.1 5.1h.9l2.2 2c-1.7.7-3.4 1.1-5.1 1.6 3.4 4 8.6 1.9 13.1 1.8-1.3 1-3.7 1.1-4.2 2.8 1.4 1.4 4 2.4 3 4.9-2.3 3-6.4 2.4-9.8 3-2.3-.7-4.4-2.4-7-2.3-2.5-.7-5.8-.8-7.3-3.5 2.4-.4 4.4.7 6.2 2 2.4-1.8 4.8-3.3 7.2-5-1.1-1.7-3.6-3-2.6-5.3s-2.1-2.2-3.5-2.8c.6 2 1.5 5.7-1.9 5-1.8-2.1 0-5.5-1.4-8z"/>
  <path fill="#929793" d="M91.3 362.3c4.1 2.1 10.5-2.8 12.8 2.6-3.4 3.3-8.2.8-12.2 1.8H91c-2-1.6-2.3-3.3.3-4.4z"/>
  <path fill="#acaeaf" d="M102 367.3c3.3 0 5.3-2.6 5-5.7 4 1.9 8.2 2.8 12.6 3a71.6 71.6 0 0128.1 8.7c2.9 2.2 5 5.3 6.2 8.7-.4 3-2.3 5.3-4.7 7.1-3.2.5-6.1 1.8-9 3-5.4 2.4-11.5 2.5-16.4 5.7-1.6 1-3.5 1.5-5.4 1.8-2.2-5.4-10.2-1.2-10.6 3.4H86l-1.8-.2c-2-.6-4.4-1-4.7-3.4-3.1-2.4-7.5-.6-11-2.1 2.5-2.6 4.6-5.5 7.5-7.5 2.7 1.3 3.4 4.3 4.5 6.9 2.5.2 5 .9 7.6 1.2-1.7-2.6-2.5-5.4-.7-8.1-.6-3.2-1.4-6.5-3.2-9.3 2.5-.1 4.5 1.6 6.9 2.3 3.4-.6 7.5 0 9.8-3 1-2.5-1.6-3.5-3-4.9.5-1.7 2.9-1.8 4.2-2.8 1-.7 2.6-.8 3-2.1-.5-1.4-2-1.8-3-2.7z"/>
  <path fill="#b0b2b4" d="M43 373c11.4-6.9 25-8 37.8-10.1 1.4 2.5-.4 5.9 1.4 8 3.4.7 2.5-3 2-5 1.3.6 4.4.5 3.4 2.8-1 2.3 1.5 3.6 2.6 5.3-2.4 1.7-4.8 3.2-7.2 5-1.8-1.3-3.8-2.4-6.2-2 1.5 2.7 4.8 2.8 7.4 3.6 1.8 2.7 2.6 6 3.2 9.1-1.8 2.8-1 5.6.7 8.2-2.5-.3-5-1-7.6-1.2-1-2.6-1.8-5.6-4.5-6.9-2.9 2-5 5-7.4 7.5-7-1.8-14.2-2.9-20.6-6.3-3.3-1.8-6.5-3.7-10-5.1-3.4-4.6.8-10.6 5-12.9z"/>
  <path fill="#818682" d="M38 385.9c3.5 1.4 6.7 3.4 10 5 6.4 3.5 13.6 4.6 20.6 6.4 3.5 1.5 7.8-.3 11 2 .3 2.6 2.6 2.9 4.6 3.5-10-.4-20-2.4-29.6-5.4A32 32 0 0138 386z" opacity=".9"/>
  <path fill="#8c918e" d="M140.1 392.2c3-1.3 6-2.6 9.2-3-11.3 10-27.2 12-41.5 13.8.4-4.6 8.4-8.8 10.6-3.4 1.9-.3 3.8-.7 5.4-1.8 5-3.2 11-3.3 16.3-5.6z" opacity=".9"/>
  <path fill="#494846" d="M86 403h21.8l.3 1h-22l-.1-1z" opacity=".4"/>
</svg>
