<svg xmlns="http://www.w3.org/2000/svg" xml:space="preserve" width="64" height="64" viewBox="0 0 512 512"><path d="M478.242 489.495H512V90.022l-56.264-33.758z" style="fill:#88acb5"/><path d="M0 90.022v399.473h478.242V56.264z" style="fill:#a7cbcf"/><path d="m478.242 22.505-22.506 33.759 22.506 33.758H512V22.505z" style="fill:#367596"/><path d="M0 22.505h478.242v67.516H0z" style="fill:#5195af"/><path d="m444.484 123.78-22.506 155.374 22.506 176.582h33.758V123.78z" style="fill:#d0fbfd"/><path d="M33.758 123.78h410.725v331.956H33.758z" style="fill:#fff"/><circle cx="436.044" cy="56.264" r="8.44" style="fill:#fff"/><circle cx="402.286" cy="56.264" r="8.44" style="fill:#fff"/><circle cx="469.802" cy="56.264" r="8.44" style="fill:#fff"/><path d="M335.919 199.034h-14.437v181.449h14.437c25.153-22.183 41.049-54.63 41.049-90.724 0-36.095-15.897-68.542-41.049-90.725z" style="fill:#25bbcc"/><path d="M321.482 209.957h-54.064v159.601h54.064c13.517-21.314 21.727-49.25 21.727-79.801.001-30.549-8.21-58.486-21.727-79.8z" style="fill:#50d1dd"/><path d="m321.482 369.559-65.48 41.166c30.606 0 58.589-11.432 79.917-30.242a121.574 121.574 0 0 0-14.437-10.924zM256.002 168.792c.002 0 65.481 41.166 65.481 41.166a121.682 121.682 0 0 0 14.437-10.924c-21.329-18.81-49.311-30.242-79.918-30.242z" style="fill:#78e3ec"/><path d="m256.005 168.792 33.919 55.635a120.398 120.398 0 0 0 31.558-14.47c-15.994-25.22-39.417-41.164-65.477-41.165zM289.924 355.089l-33.921 55.635c26.063 0 49.486-15.945 65.481-41.166a120.55 120.55 0 0 0-31.56-14.469zM222.082 205.452l-46.005-6.414c-25.151 22.181-41.043 54.629-41.043 90.72s15.891 68.538 41.043 90.72l46.005-6.414 22.059-84.307-22.059-84.305z" style="fill:#a0f6fa"/><path d="M289.927 224.427h-67.845c-4.051 18.852-6.404 41.281-6.404 65.331 0 24.05 2.353 46.479 6.404 65.331h67.845c4.051-18.852 6.395-41.281 6.395-65.331 0-24.05-2.343-46.479-6.395-65.331z" style="fill:#78e3ec"/><path d="M176.077 199.039c13.122 11.575 28.776 20.361 46.005 25.388L256 168.792c-30.606 0-58.595 11.433-79.923 30.247zM222.082 355.089c-17.229 5.029-32.884 13.814-46.005 25.388 21.328 18.813 49.316 30.246 79.923 30.246l-33.918-55.634z" style="fill:#f0feff"/><path d="M256 168.792c14.222 0 26.746 22.192 33.927 55.635-10.769 3.16-22.153 4.848-33.927 4.848-11.774 0-23.159-1.689-33.918-4.848 7.183-33.443 19.706-55.635 33.918-55.635zM289.927 355.089c-7.183 33.443-19.706 55.635-33.927 55.635-14.212 0-26.735-22.192-33.918-55.635 10.759-3.16 22.144-4.848 33.918-4.848 11.774.001 23.159 1.689 33.927 4.848z" style="fill:#d0fbfd"/><path d="M256.001 160.353c-71.355 0-129.407 58.051-129.407 129.405s58.051 129.405 129.407 129.405 129.405-58.051 129.405-129.405-58.05-129.405-129.405-129.405zm112.21 120.966h-63.548c-.403-17.693-2.072-35.223-4.974-51.224a129.324 129.324 0 0 0 35.892-19.816c18.483 18.505 30.571 43.398 32.63 71.04zm-91.717 91.266c-7.308 21.92-15.606 29.699-20.492 29.699-4.886 0-13.185-7.778-20.492-29.699-1.194-3.583-2.292-7.38-3.308-11.33a112.177 112.177 0 0 1 23.8-2.575c8.061 0 16.033.889 23.802 2.575-1.018 3.951-2.117 7.747-3.31 11.33zm19.574-6.503a112.43 112.43 0 0 1 26.418 14.401c-11.535 8.477-24.737 14.809-39.017 18.404 5.107-8.807 9.313-20.043 12.599-32.805zm-67.535 32.805c-14.28-3.595-27.483-9.928-39.018-18.405a112.454 112.454 0 0 1 26.418-14.402c3.287 12.764 7.494 24 12.6 32.807zM256 341.802c-9.265 0-18.432 1.003-27.361 2.938-2.524-14.275-4.025-30.065-4.41-46.542h63.545c-.385 16.477-1.886 32.267-4.41 46.542A129.191 129.191 0 0 0 256 341.802zm-31.771-60.483c.385-16.477 1.886-32.267 4.41-46.542A129.163 129.163 0 0 0 256 237.715c9.267 0 18.433-1.003 27.363-2.938 2.524 14.276 4.025 30.065 4.41 46.542h-63.544zm11.28-74.388c7.308-21.92 15.606-29.699 20.492-29.699 4.886 0 13.185 7.778 20.492 29.699 1.194 3.583 2.292 7.38 3.308 11.329-7.769 1.686-15.74 2.575-23.802 2.575s-16.032-.889-23.8-2.575c1.018-3.949 2.116-7.746 3.31-11.329zm-19.576 6.504a112.379 112.379 0 0 1-26.418-14.402c11.536-8.477 24.738-14.809 39.018-18.405-5.106 8.809-9.313 20.045-12.6 32.807zm67.536-32.806c14.28 3.595 27.481 9.928 39.017 18.404a112.414 112.414 0 0 1-26.418 14.401c-3.286-12.761-7.492-23.997-12.599-32.805zm-107.05 29.65a129.315 129.315 0 0 0 35.893 19.816c-2.902 16-4.571 33.531-4.974 51.224H143.79c2.059-27.642 14.147-52.534 32.629-71.04zm-32.629 87.919h63.548c.403 17.693 2.072 35.223 4.974 51.224a129.315 129.315 0 0 0-35.893 19.816c-18.482-18.507-30.57-43.399-32.629-71.04zm191.792 71.04a129.324 129.324 0 0 0-35.892-19.816c2.902-16 4.571-33.531 4.974-51.224h63.548c-2.06 27.641-14.148 52.534-32.63 71.04z" style="fill:#2f5e88"/></svg>