<?xml version="1.0" encoding="UTF-8" ?>
<!DOCTYPE svg PUBLIC "-//W3C//DTD SVG 1.1//EN" "http://www.w3.org/Graphics/SVG/1.1/DTD/svg11.dtd">
<svg width="58px" height="80px" viewBox="0 0 899 1124" version="1.1" xmlns="http://www.w3.org/2000/svg">
<g id="#1a1a1aff">
<path fill="#1a1a1a" opacity="1.00" d=" M 560.99 0.00 L 564.59 0.00 C 580.93 2.15 597.54 0.52 614.00 0.99 C 708.67 1.02 803.33 0.98 898.00 1.01 C 898.01 17.67 897.96 34.34 898.01 51.00 C 897.99 66.00 897.97 81.00 898.01 96.00 C 897.99 121.33 897.98 146.67 898.01 172.00 C 897.99 183.33 897.96 194.67 898.01 206.00 C 897.98 217.00 897.97 228.00 898.01 239.00 C 897.82 260.26 898.31 281.53 897.79 302.78 C 896.30 313.45 897.19 324.26 897.01 335.00 C 896.98 346.00 896.97 357.00 897.01 368.00 C 896.99 391.33 896.98 414.67 897.01 438.00 C 896.99 451.33 896.97 464.67 897.01 478.00 C 897.12 493.07 896.69 508.15 897.21 523.22 C 896.56 573.40 897.43 623.61 896.80 673.79 C 896.04 678.13 895.93 682.58 895.99 687.00 C 896.01 691.06 896.10 695.13 896.27 699.22 C 894.02 755.00 879.85 810.08 856.81 860.84 C 829.43 921.71 787.61 975.67 736.75 1018.74 C 663.05 1081.01 568.52 1119.05 472.00 1123.02 C 466.98 1122.95 462.00 1122.96 457.00 1123.01 C 451.32 1122.96 445.66 1122.96 440.00 1123.01 C 434.65 1122.95 429.33 1122.96 424.00 1123.02 C 396.19 1122.96 368.69 1117.60 341.68 1111.37 C 291.11 1098.78 242.64 1077.66 199.22 1048.78 C 156.59 1020.02 118.88 984.12 87.99 943.01 C 40.07 878.26 9.30 800.62 1.68 720.31 C 0.72 716.09 1.95 711.43 0.00 707.49 L 0.00 675.00 C 3.07 674.90 6.14 674.92 9.21 674.81 C 15.40 675.10 21.59 674.95 27.78 675.21 C 41.11 676.86 54.60 675.61 68.00 676.03 C 72.72 675.68 77.68 676.84 82.26 675.25 C 91.82 674.72 101.41 675.01 110.98 675.01 C 110.97 677.66 110.97 680.32 110.99 683.01 C 110.99 686.05 110.75 689.27 111.62 692.27 C 112.42 696.48 113.34 700.65 113.22 704.99 C 121.56 809.32 182.43 907.89 272.10 961.88 C 319.32 991.39 374.27 1007.95 429.77 1011.26 C 435.13 1012.11 440.57 1011.99 446.00 1012.01 C 448.96 1011.94 452.01 1012.05 455.01 1012.01 C 459.07 1011.94 463.22 1012.05 467.26 1011.33 C 492.25 1009.00 517.24 1005.70 541.36 998.50 C 565.82 991.18 589.83 981.81 611.97 968.98 C 666.75 939.37 711.62 893.15 742.17 839.11 C 766.49 794.99 781.03 745.51 784.25 695.22 C 785.25 689.45 784.94 683.59 784.81 677.79 C 785.20 672.62 784.91 667.41 784.71 662.26 C 784.85 657.15 785.05 652.09 785.00 647.00 C 784.97 642.31 785.06 637.67 784.98 633.01 C 784.91 630.25 784.86 627.51 784.81 624.79 C 785.39 597.27 784.59 569.73 785.22 542.21 C 786.88 526.21 785.63 510.06 785.99 494.00 C 786.00 478.33 786.01 462.66 785.99 447.00 C 786.00 416.00 786.00 385.00 785.99 354.00 C 786.00 337.66 786.01 321.33 785.99 305.00 C 785.93 287.59 786.20 270.18 785.78 252.78 C 786.29 206.29 785.90 159.76 785.96 113.26 L 785.23 112.78 C 780.39 111.40 775.06 112.12 770.00 112.00 C 738.03 112.04 706.07 111.92 674.11 112.05 L 674.05 113.01 C 673.92 116.61 673.89 120.19 673.77 123.78 C 672.77 129.80 672.97 135.92 672.99 142.00 C 673.21 148.03 672.37 154.21 673.61 160.17 L 673.65 160.88 C 672.39 174.21 673.16 187.63 673.01 201.00 C 672.97 208.33 672.97 215.66 673.00 223.00 C 672.97 231.07 672.90 239.15 673.19 247.22 C 672.55 264.06 673.43 280.93 672.78 297.79 C 671.42 307.12 672.10 316.59 672.01 326.00 C 671.99 335.66 671.96 345.33 672.01 355.00 C 671.99 376.33 671.98 397.67 672.01 419.00 C 671.98 430.00 671.97 441.00 672.01 452.00 C 672.03 463.40 671.82 474.81 672.19 486.22 C 671.53 508.06 672.48 529.93 671.76 551.78 C 670.34 562.45 671.18 573.26 671.01 584.00 C 671.55 594.01 669.87 604.25 671.62 614.16 L 671.66 614.88 C 670.26 633.20 671.28 651.63 671.01 670.00 C 671.02 677.06 670.77 684.16 671.24 691.22 C 667.72 745.53 643.13 798.19 603.77 835.77 C 566.59 872.14 516.23 895.07 464.26 898.35 C 460.15 898.16 456.04 898.08 451.94 898.12 C 450.22 898.12 446.78 898.13 445.06 898.13 C 440.95 898.10 436.86 898.15 432.77 898.29 C 404.85 896.40 377.14 889.38 351.99 877.02 C 300.29 852.75 258.75 807.59 238.99 754.00 C 230.31 731.12 224.69 706.83 224.71 682.26 C 224.88 677.41 225.01 672.60 224.81 667.78 C 225.54 630.22 236.95 593.27 255.95 560.97 C 291.56 500.61 356.74 458.81 426.59 452.38 C 471.42 448.90 518.07 457.02 557.07 480.07 C 557.88 480.74 558.83 481.09 559.92 481.13 C 560.00 477.08 560.04 473.03 560.01 469.00 C 559.99 457.99 560.02 447.00 559.99 436.00 C 560.00 412.66 560.01 389.33 559.99 366.00 C 560.01 353.66 560.01 341.33 559.99 329.00 C 559.98 316.59 560.15 304.18 559.76 291.78 C 560.43 267.93 559.58 244.07 560.21 220.22 C 561.69 208.54 560.82 196.74 560.99 185.00 C 561.00 173.66 561.02 162.33 560.99 151.00 C 561.00 129.66 561.01 108.33 560.99 87.00 C 561.00 77.33 561.02 67.66 560.99 58.00 C 561.03 48.59 561.06 39.19 560.80 29.79 C 561.29 19.87 560.87 9.93 560.99 0.00 M 442.01 563.01 L 441.99 563.99 C 437.84 564.11 433.78 564.98 429.71 565.64 C 393.50 570.32 362.23 596.41 347.01 629.00 C 332.34 659.30 334.15 696.12 349.03 725.99 C 366.01 759.72 401.27 783.59 439.00 786.02 L 439.02 786.96 C 445.01 787.16 451.00 786.97 457.00 786.99 L 457.00 786.02 C 471.90 785.07 486.60 780.55 499.92 773.87 C 534.39 756.00 558.44 719.05 559.01 680.00 L 559.96 679.98 C 559.25 677.57 562.22 671.03 559.02 670.99 C 557.93 656.30 555.66 641.33 549.01 628.02 C 532.73 591.08 493.97 566.17 454.02 564.00 C 452.57 560.91 445.10 564.15 442.01 563.01 Z" />
</g>
<g id="#373737ff">
<path fill="#373737" opacity="1.00" d=" M 564.59 0.00 L 613.99 0.00 L 614.00 0.99 C 597.54 0.52 580.93 2.15 564.59 0.00 Z" />
<path fill="#373737" opacity="1.00" d=" M 898.00 1.01 L 899.00 0.99 L 899.00 51.00 L 898.01 51.00 C 897.96 34.34 898.01 17.67 898.00 1.01 Z" />
<path fill="#373737" opacity="1.00" d=" M 674.11 112.05 C 706.07 111.92 738.03 112.04 770.00 112.00 L 770.00 113.00 C 738.01 113.02 706.03 112.97 674.05 113.01 L 674.11 112.05 Z" />
<path fill="#373737" opacity="1.00" d=" M 560.01 185.00 L 560.99 185.00 C 560.82 196.74 561.69 208.54 560.21 220.22 C 559.72 208.49 560.09 196.74 560.01 185.00 Z" />
<path fill="#373737" opacity="1.00" d=" M 672.01 326.00 C 672.10 316.59 671.42 307.12 672.78 297.79 C 673.08 307.18 673.02 316.59 672.99 326.00 L 672.01 326.00 Z" />
<path fill="#373737" opacity="1.00" d=" M 897.01 335.00 C 897.19 324.26 896.30 313.45 897.79 302.78 C 898.07 313.52 898.02 324.26 897.99 335.00 L 897.01 335.00 Z" />
<path fill="#373737" opacity="1.00" d=" M 785.01 494.00 L 785.99 494.00 C 785.63 510.06 786.88 526.21 785.22 542.21 C 784.78 526.14 785.07 510.07 785.01 494.00 Z" />
<path fill="#373737" opacity="1.00" d=" M 671.01 584.00 C 671.18 573.26 670.34 562.45 671.76 551.78 C 672.10 562.51 672.01 573.25 671.99 584.00 L 671.01 584.00 Z" />
<path fill="#373737" opacity="1.00" d=" M 27.78 675.21 C 45.93 674.83 64.11 674.86 82.26 675.25 C 77.68 676.84 72.72 675.68 68.00 676.03 C 54.60 675.61 41.11 676.86 27.78 675.21 Z" />
</g>
<g id="#535353ff">
<path fill="#535353" opacity="1.00" d=" M 613.99 0.00 L 899.00 0.00 L 899.00 0.99 L 898.00 1.01 C 803.33 0.98 708.67 1.02 614.00 0.99 L 613.99 0.00 Z" />
<path fill="#535353" opacity="1.00" d=" M 898.01 51.00 L 899.00 51.00 L 899.00 96.00 L 898.01 96.00 C 897.97 81.00 897.99 66.00 898.01 51.00 Z" />
<path fill="#535353" opacity="1.00" d=" M 672.99 142.00 L 674.01 142.00 C 674.05 148.06 673.94 154.11 673.61 160.17 C 672.37 154.21 673.21 148.03 672.99 142.00 Z" />
<path fill="#535353" opacity="1.00" d=" M 560.01 151.00 L 560.99 151.00 C 561.02 162.33 561.00 173.66 560.99 185.00 L 560.01 185.00 C 559.97 173.67 559.99 162.33 560.01 151.00 Z" />
<path fill="#535353" opacity="1.00" d=" M 672.01 326.00 L 672.99 326.00 C 673.02 335.66 673.00 345.33 672.99 355.00 L 672.01 355.00 C 671.96 345.33 671.99 335.66 672.01 326.00 Z" />
<path fill="#535353" opacity="1.00" d=" M 897.01 335.00 L 897.99 335.00 C 898.01 346.00 898.00 357.00 897.99 368.00 L 897.01 368.00 C 896.97 357.00 896.98 346.00 897.01 335.00 Z" />
<path fill="#535353" opacity="1.00" d=" M 559.01 436.00 L 559.99 436.00 C 560.02 447.00 559.99 457.99 560.01 469.00 L 559.03 469.00 C 558.96 458.00 558.99 447.00 559.01 436.00 Z" />
<path fill="#535353" opacity="1.00" d=" M 785.01 447.00 L 785.99 447.00 C 786.01 462.66 786.00 478.33 785.99 494.00 L 785.01 494.00 C 784.98 478.33 784.99 462.66 785.01 447.00 Z" />
<path fill="#535353" opacity="1.00" d=" M 671.01 584.00 L 671.99 584.00 C 672.02 594.05 672.17 604.11 671.62 614.16 C 669.87 604.25 671.55 594.01 671.01 584.00 Z" />
<path fill="#535353" opacity="1.00" d=" M 445.06 898.13 C 446.78 898.13 450.22 898.12 451.94 898.12 L 451.94 898.89 C 450.22 898.89 446.77 898.91 445.05 898.91 L 445.06 898.13 Z" />
</g>
<g id="#46464680">
<path fill="#464646" opacity="0.50" d=" M 560.01 58.00 C 560.11 48.60 559.40 39.12 560.80 29.79 C 561.06 39.19 561.03 48.59 560.99 58.00 L 560.01 58.00 Z" />
<path fill="#464646" opacity="0.50" d=" M 785.01 305.00 C 785.40 287.60 784.07 270.11 785.78 252.78 C 786.20 270.18 785.93 287.59 785.99 305.00 L 785.01 305.00 Z" />
</g>
<g id="#2a2a2a80">
<path fill="#2a2a2a" opacity="0.50" d=" M 560.01 58.00 L 560.99 58.00 C 561.02 67.66 561.00 77.33 560.99 87.00 L 560.01 87.00 C 559.96 77.33 559.99 67.67 560.01 58.00 Z" />
<path fill="#2a2a2a" opacity="0.50" d=" M 898.01 172.00 L 899.00 172.00 L 899.00 206.00 L 898.01 206.00 C 897.96 194.67 897.99 183.33 898.01 172.00 Z" />
<path fill="#2a2a2a" opacity="0.50" d=" M 673.01 201.00 L 673.99 201.00 C 674.01 208.33 674.00 215.66 673.99 223.00 L 673.00 223.00 C 672.97 215.66 672.97 208.33 673.01 201.00 Z" />
<path fill="#2a2a2a" opacity="0.50" d=" M 785.01 305.00 L 785.99 305.00 C 786.01 321.33 786.00 337.66 785.99 354.00 L 785.01 354.00 C 784.98 337.67 784.99 321.33 785.01 305.00 Z" />
<path fill="#2a2a2a" opacity="0.50" d=" M 559.01 329.00 L 559.99 329.00 C 560.01 341.33 560.01 353.66 559.99 366.00 L 559.01 366.00 C 558.98 353.66 558.98 341.33 559.01 329.00 Z" />
<path fill="#2a2a2a" opacity="0.50" d=" M 672.01 419.00 L 672.99 419.00 C 673.01 430.00 673.00 440.99 672.99 452.00 L 672.01 452.00 C 671.97 441.00 671.98 430.00 672.01 419.00 Z" />
<path fill="#2a2a2a" opacity="0.50" d=" M 897.01 438.00 L 897.99 438.00 C 898.02 451.33 897.99 464.66 897.99 478.00 L 897.01 478.00 C 896.97 464.67 896.99 451.33 897.01 438.00 Z" />
<path fill="#2a2a2a" opacity="0.50" d=" M 783.97 632.99 L 784.98 633.01 C 785.06 637.67 784.97 642.31 785.00 647.00 L 784.00 647.00 C 783.97 642.33 783.90 637.64 783.97 632.99 Z" />
</g>
<g id="#0d0d0d80">
<path fill="#0d0d0d" opacity="0.50" d=" M 560.01 87.00 L 560.99 87.00 C 561.01 108.33 561.00 129.66 560.99 151.00 L 560.01 151.00 C 559.99 129.67 559.99 108.33 560.01 87.00 Z" />
<path fill="#0d0d0d" opacity="0.50" d=" M 898.01 96.00 L 899.00 96.00 L 899.00 172.00 L 898.01 172.00 C 897.98 146.67 897.99 121.33 898.01 96.00 Z" />
<path fill="#0d0d0d" opacity="0.50" d=" M 673.01 201.00 C 673.16 187.63 672.39 174.21 673.65 160.88 C 674.53 174.22 673.74 187.63 673.99 201.00 L 673.01 201.00 Z" />
<path fill="#0d0d0d" opacity="0.50" d=" M 785.01 354.00 L 785.99 354.00 C 786.00 385.00 786.00 416.00 785.99 447.00 L 785.01 447.00 C 784.99 416.00 784.99 385.00 785.01 354.00 Z" />
<path fill="#0d0d0d" opacity="0.50" d=" M 672.01 355.00 L 672.99 355.00 C 673.01 376.33 673.00 397.66 672.99 419.00 L 672.01 419.00 C 671.98 397.67 671.99 376.33 672.01 355.00 Z" />
<path fill="#0d0d0d" opacity="0.50" d=" M 559.01 366.00 L 559.99 366.00 C 560.01 389.33 560.00 412.66 559.99 436.00 L 559.01 436.00 C 558.98 412.67 558.99 389.33 559.01 366.00 Z" />
<path fill="#0d0d0d" opacity="0.50" d=" M 897.01 368.00 L 897.99 368.00 C 898.01 391.33 898.00 414.66 897.99 438.00 L 897.01 438.00 C 896.98 414.67 896.99 391.33 897.01 368.00 Z" />
<path fill="#0d0d0d" opacity="0.50" d=" M 442.01 563.01 C 445.10 564.15 452.57 560.91 454.02 564.00 C 450.00 563.98 445.99 563.98 441.99 563.99 L 442.01 563.01 Z" />
<path fill="#0d0d0d" opacity="0.50" d=" M 671.01 670.00 C 671.28 651.63 670.26 633.20 671.66 614.88 C 672.53 633.22 671.72 651.63 672.00 670.00 L 671.01 670.00 Z" />
<path fill="#0d0d0d" opacity="0.50" d=" M 559.02 670.99 C 562.22 671.03 559.25 677.57 559.96 679.98 L 559.01 680.00 C 558.98 677.01 558.96 673.94 559.02 670.99 Z" />
</g>
<g id="#505050fc">
<path fill="#505050" opacity="1.00" d=" M 770.00 112.00 C 775.06 112.12 780.39 111.40 785.23 112.78 C 780.16 113.09 775.05 112.99 770.00 113.00 L 770.00 112.00 Z" />
</g>
<g id="#383838ff">
<path fill="#383838" opacity="1.00" d=" M 672.99 142.00 C 672.97 135.92 672.77 129.80 673.77 123.78 C 673.98 129.85 674.03 135.92 674.01 142.00 L 672.99 142.00 Z" />
</g>
<g id="#4646467f">
<path fill="#464646" opacity="0.50" d=" M 898.01 206.00 L 899.00 206.00 L 899.00 239.00 L 898.01 239.00 C 897.97 228.00 897.98 217.00 898.01 206.00 Z" />
</g>
<g id="#4545457d">
<path fill="#454545" opacity="0.49" d=" M 673.00 223.00 L 673.99 223.00 C 673.96 231.07 674.46 239.20 673.19 247.22 C 672.90 239.15 672.97 231.07 673.00 223.00 Z" />
</g>
<g id="#4545457e">
<path fill="#454545" opacity="0.49" d=" M 559.01 329.00 C 559.26 316.60 558.25 304.12 559.76 291.78 C 560.15 304.18 559.98 316.59 559.99 329.00 L 559.01 329.00 Z" />
<path fill="#454545" opacity="0.49" d=" M 672.01 452.00 L 672.99 452.00 C 672.80 463.40 673.71 474.88 672.19 486.22 C 671.82 474.81 672.03 463.40 672.01 452.00 Z" />
</g>
<g id="#363636f6">
<path fill="#363636" opacity="0.96" d=" M 559.03 469.00 L 560.01 469.00 C 560.04 473.03 560.00 477.08 559.92 481.13 C 558.83 481.09 557.88 480.74 557.07 480.07 C 562.02 480.11 557.17 471.57 559.03 469.00 Z" />
</g>
<g id="#4545457f">
<path fill="#454545" opacity="0.50" d=" M 897.01 478.00 L 897.99 478.00 C 897.70 493.07 898.82 508.21 897.21 523.22 C 896.69 508.15 897.12 493.07 897.01 478.00 Z" />
</g>
<g id="#45454580">
<path fill="#454545" opacity="0.50" d=" M 783.97 632.99 C 784.01 630.25 784.37 627.45 784.81 624.79 C 784.86 627.51 784.91 630.25 784.98 633.01 L 783.97 632.99 Z" />
<path fill="#454545" opacity="0.50" d=" M 446.00 1011.00 C 449.00 1010.99 451.96 1010.88 454.99 1011.00 L 455.01 1012.01 C 452.01 1012.05 448.96 1011.94 446.00 1012.01 L 446.00 1011.00 Z" />
</g>
<g id="#4444447d">
<path fill="#444444" opacity="0.49" d=" M 784.00 647.00 L 785.00 647.00 C 785.05 652.09 784.85 657.15 784.71 662.26 C 783.14 657.34 784.26 652.03 784.00 647.00 Z" />
</g>
<g id="#4444447b">
<path fill="#444444" opacity="0.48" d=" M 224.71 682.26 C 223.11 677.59 224.20 672.50 224.81 667.78 C 225.01 672.60 224.88 677.41 224.71 682.26 Z" />
</g>
<g id="#2d2d2d80">
<path fill="#2d2d2d" opacity="0.50" d=" M 671.01 670.00 L 672.00 670.00 C 671.97 677.06 672.35 684.19 671.24 691.22 C 670.77 684.16 671.02 677.06 671.01 670.00 Z" />
</g>
<g id="#3c3c3c80">
<path fill="#3c3c3c" opacity="0.50" d=" M 0.00 673.90 C 3.09 674.03 6.16 674.33 9.21 674.81 C 6.14 674.92 3.07 674.90 0.00 675.00 L 0.00 673.90 Z" />
</g>
<g id="#424242ff">
<path fill="#424242" opacity="1.00" d=" M 895.99 687.00 C 895.93 682.58 896.04 678.13 896.80 673.79 C 896.90 678.18 897.00 682.57 897.02 687.00 L 895.99 687.00 Z" />
</g>
<g id="#0e0e0e81">
<path fill="#0e0e0e" opacity="0.51" d=" M 110.98 675.01 C 113.42 675.75 111.45 680.56 112.01 682.99 L 110.99 683.01 C 110.97 680.32 110.97 677.66 110.98 675.01 Z" />
</g>
<g id="#2d2d2d84">
<path fill="#2d2d2d" opacity="0.52" d=" M 784.25 695.22 C 784.02 689.40 783.64 683.52 784.81 677.79 C 784.94 683.59 785.25 689.45 784.25 695.22 Z" />
</g>
<g id="#484848ff">
<path fill="#484848" opacity="1.00" d=" M 110.99 683.01 L 112.01 682.99 C 112.00 686.09 111.76 689.11 111.62 692.27 C 110.75 689.27 110.99 686.05 110.99 683.01 Z" />
</g>
<g id="#1f1f1f80">
<path fill="#1f1f1f" opacity="0.50" d=" M 895.99 687.00 L 897.02 687.00 C 897.01 691.08 896.81 695.15 896.27 699.22 C 896.10 695.13 896.01 691.06 895.99 687.00 Z" />
</g>
<g id="#1d1d1d80">
<path fill="#1d1d1d" opacity="0.50" d=" M 439.00 786.02 C 444.99 785.96 450.99 785.97 457.00 786.02 L 457.00 786.99 C 451.00 786.97 445.01 787.16 439.02 786.96 L 439.00 786.02 Z" />
<path fill="#1d1d1d" opacity="0.50" d=" M 424.00 1123.02 C 429.33 1122.96 434.65 1122.95 440.00 1123.01 L 440.00 1124.00 L 424.00 1124.00 L 424.00 1123.02 Z" />
<path fill="#1d1d1d" opacity="0.50" d=" M 457.00 1123.01 C 462.00 1122.96 466.98 1122.95 472.00 1123.02 L 472.00 1124.00 L 457.00 1124.00 L 457.00 1123.01 Z" />
</g>
<g id="#1e1e1e85">
<path fill="#1e1e1e" opacity="0.52" d=" M 432.77 898.29 C 436.86 898.15 440.95 898.10 445.06 898.13 L 445.05 898.91 C 440.94 898.91 436.83 898.87 432.77 898.29 Z" />
</g>
<g id="#1d1d1d7f">
<path fill="#1d1d1d" opacity="0.50" d=" M 451.94 898.12 C 456.04 898.08 460.15 898.16 464.26 898.35 C 460.19 899.04 456.03 898.89 451.94 898.89 L 451.94 898.12 Z" />
</g>
<g id="#20202084">
<path fill="#202020" opacity="0.52" d=" M 429.77 1011.26 C 435.17 1010.84 440.57 1010.97 446.00 1011.00 L 446.00 1012.01 C 440.57 1011.99 435.13 1012.11 429.77 1011.26 Z" />
</g>
<g id="#1d1d1d83">
<path fill="#1d1d1d" opacity="0.51" d=" M 454.99 1011.00 C 459.08 1011.01 463.16 1011.12 467.26 1011.33 C 463.22 1012.05 459.07 1011.94 455.01 1012.01 L 454.99 1011.00 Z" />
</g>
<g id="#535353fe">
<path fill="#535353" opacity="1.00" d=" M 440.00 1123.01 C 445.66 1122.96 451.32 1122.96 457.00 1123.01 L 457.00 1124.00 L 440.00 1124.00 L 440.00 1123.01 Z" />
</g>
</svg>
